<svg width="358" height="111" viewBox="0 0 358 111" fill="none" xmlns="http://www.w3.org/2000/svg">    <g filter="url(#filter0_dd_13_84)">        <rect x="149" y="8" width="60" height="60" rx="30" fill="#03AEC6" shape-rendering="crispEdges"/>        <rect x="150.5" y="9.5" width="57" height="57" rx="28.5" stroke="#004E44" stroke-width="3" shape-rendering="crispEdges"/>        <mask id="path-3-outside-1_13_84" maskUnits="userSpaceOnUse" x="170" y="25.5" width="18" height="24" fill="black">            <rect fill="white" x="170" y="25.5" width="18" height="24"/>            <path d="M184.624 44.108C184.965 44.2573 185.285 44.524 185.584 44.908C185.883 45.292 186.032 45.6333 186.032 45.932C185.947 46.06 185.595 46.0707 184.976 45.964C184.379 45.836 183.984 45.7933 183.792 45.836C183.643 45.8573 183.323 45.9107 182.832 45.996C182.363 46.06 182.021 46.1133 181.808 46.156C181.509 46.2413 181.168 46.4227 180.784 46.7C180.4 46.9773 180.016 47.2333 179.632 47.468C179.248 47.6813 178.896 47.788 178.576 47.788C178.128 47.8093 177.541 47.5747 176.816 47.084C176.091 46.572 175.579 46.284 175.28 46.22C175.067 46.1773 174.597 46.1347 173.872 46.092C173.168 46.028 172.645 45.868 172.304 45.612C172.581 45.4627 172.987 45.3347 173.52 45.228C174.053 45.1213 174.459 44.9827 174.736 44.812C174.907 44.7693 175.141 44.62 175.44 44.364C175.76 44.108 176.027 43.9907 176.24 44.012C176.219 43.6493 176.347 43.0947 176.624 42.348C176.901 41.58 177.019 41.0147 176.976 40.652C176.955 40.268 176.645 39.7347 176.048 39.052C175.451 38.348 175.131 37.8147 175.088 37.452C175.067 37.1107 175.013 36.5773 174.928 35.852C174.864 35.1053 174.811 34.54 174.768 34.156C174.768 33.964 174.939 33.644 175.28 33.196C175.621 32.7267 175.792 32.364 175.792 32.108C175.792 31.852 175.685 31.596 175.472 31.34C175.28 31.0627 175.184 30.8387 175.184 30.668C175.013 30.8173 174.853 30.9347 174.704 31.02C174.576 31.084 174.416 31.1587 174.224 31.244C174.032 31.308 173.893 31.3613 173.808 31.404C173.275 31.66 172.72 31.532 172.144 31.02C171.888 30.8067 171.739 30.572 171.696 30.316C171.653 30.0387 171.76 29.74 172.016 29.42C172.293 29.1 172.731 28.812 173.328 28.556C173.435 28.3 173.573 28.076 173.744 27.884C173.936 27.692 174.075 27.5747 174.16 27.532C174.267 27.468 174.448 27.372 174.704 27.244C174.896 27.1373 175.216 27.148 175.664 27.276C176.112 27.404 176.432 27.468 176.624 27.468C176.709 27.468 176.827 27.4573 176.976 27.436C177.147 27.3933 177.243 27.3933 177.264 27.436C177.307 27.4787 177.371 27.5853 177.456 27.756C177.541 27.9053 177.627 28.1613 177.712 28.524C177.755 28.7373 177.915 29.1853 178.192 29.868C178.469 30.5293 178.629 31.084 178.672 31.532C178.715 31.8093 178.811 32.3 178.96 33.004C179.131 33.6867 179.237 34.22 179.28 34.604C179.301 34.9667 179.216 35.5107 179.024 36.236C178.832 36.94 178.736 37.452 178.736 37.772C178.757 38.0707 178.779 38.5827 178.8 39.308C178.843 40.0333 178.875 40.5667 178.896 40.908C178.896 41.5267 178.939 42.22 179.024 42.988C179.109 43.756 179.152 44.1613 179.152 44.204C179.152 44.204 179.579 44.236 180.432 44.3C181.307 44.364 182.021 44.4067 182.576 44.428C182.725 44.4493 183.045 44.3747 183.536 44.204C184.048 44.0333 184.411 44.0013 184.624 44.108Z"/>        </mask>        <path d="M184.624 44.108C184.965 44.2573 185.285 44.524 185.584 44.908C185.883 45.292 186.032 45.6333 186.032 45.932C185.947 46.06 185.595 46.0707 184.976 45.964C184.379 45.836 183.984 45.7933 183.792 45.836C183.643 45.8573 183.323 45.9107 182.832 45.996C182.363 46.06 182.021 46.1133 181.808 46.156C181.509 46.2413 181.168 46.4227 180.784 46.7C180.4 46.9773 180.016 47.2333 179.632 47.468C179.248 47.6813 178.896 47.788 178.576 47.788C178.128 47.8093 177.541 47.5747 176.816 47.084C176.091 46.572 175.579 46.284 175.28 46.22C175.067 46.1773 174.597 46.1347 173.872 46.092C173.168 46.028 172.645 45.868 172.304 45.612C172.581 45.4627 172.987 45.3347 173.52 45.228C174.053 45.1213 174.459 44.9827 174.736 44.812C174.907 44.7693 175.141 44.62 175.44 44.364C175.76 44.108 176.027 43.9907 176.24 44.012C176.219 43.6493 176.347 43.0947 176.624 42.348C176.901 41.58 177.019 41.0147 176.976 40.652C176.955 40.268 176.645 39.7347 176.048 39.052C175.451 38.348 175.131 37.8147 175.088 37.452C175.067 37.1107 175.013 36.5773 174.928 35.852C174.864 35.1053 174.811 34.54 174.768 34.156C174.768 33.964 174.939 33.644 175.28 33.196C175.621 32.7267 175.792 32.364 175.792 32.108C175.792 31.852 175.685 31.596 175.472 31.34C175.28 31.0627 175.184 30.8387 175.184 30.668C175.013 30.8173 174.853 30.9347 174.704 31.02C174.576 31.084 174.416 31.1587 174.224 31.244C174.032 31.308 173.893 31.3613 173.808 31.404C173.275 31.66 172.72 31.532 172.144 31.02C171.888 30.8067 171.739 30.572 171.696 30.316C171.653 30.0387 171.76 29.74 172.016 29.42C172.293 29.1 172.731 28.812 173.328 28.556C173.435 28.3 173.573 28.076 173.744 27.884C173.936 27.692 174.075 27.5747 174.16 27.532C174.267 27.468 174.448 27.372 174.704 27.244C174.896 27.1373 175.216 27.148 175.664 27.276C176.112 27.404 176.432 27.468 176.624 27.468C176.709 27.468 176.827 27.4573 176.976 27.436C177.147 27.3933 177.243 27.3933 177.264 27.436C177.307 27.4787 177.371 27.5853 177.456 27.756C177.541 27.9053 177.627 28.1613 177.712 28.524C177.755 28.7373 177.915 29.1853 178.192 29.868C178.469 30.5293 178.629 31.084 178.672 31.532C178.715 31.8093 178.811 32.3 178.96 33.004C179.131 33.6867 179.237 34.22 179.28 34.604C179.301 34.9667 179.216 35.5107 179.024 36.236C178.832 36.94 178.736 37.452 178.736 37.772C178.757 38.0707 178.779 38.5827 178.8 39.308C178.843 40.0333 178.875 40.5667 178.896 40.908C178.896 41.5267 178.939 42.22 179.024 42.988C179.109 43.756 179.152 44.1613 179.152 44.204C179.152 44.204 179.579 44.236 180.432 44.3C181.307 44.364 182.021 44.4067 182.576 44.428C182.725 44.4493 183.045 44.3747 183.536 44.204C184.048 44.0333 184.411 44.0013 184.624 44.108Z" fill="#B3E028"/>        <path d="M184.624 44.108L184.177 45.0024L184.2 45.0139L184.223 45.0242L184.624 44.108ZM185.584 44.908L184.795 45.5219L184.795 45.5219L185.584 44.908ZM186.032 45.932L186.864 46.4867L187.032 46.2348V45.932H186.032ZM184.976 45.964L184.766 46.9418L184.786 46.946L184.806 46.9495L184.976 45.964ZM183.792 45.836L183.933 46.8259L183.971 46.8205L184.009 46.8122L183.792 45.836ZM182.832 45.996L182.967 46.9868L182.985 46.9844L183.003 46.9812L182.832 45.996ZM181.808 46.156L181.612 45.1754L181.572 45.1834L181.533 45.1945L181.808 46.156ZM180.784 46.7L181.369 47.5107L180.784 46.7ZM179.632 47.468L180.118 48.3422L180.136 48.3321L180.153 48.3213L179.632 47.468ZM178.576 47.788V46.788H178.552L178.528 46.7891L178.576 47.788ZM176.816 47.084L176.239 47.901L176.247 47.9067L176.256 47.9123L176.816 47.084ZM175.28 46.22L175.49 45.2421L175.476 45.2394L175.28 46.22ZM173.872 46.092L173.781 47.0879L173.797 47.0893L173.813 47.0903L173.872 46.092ZM172.304 45.612L171.83 44.7315L170.452 45.4733L171.704 46.412L172.304 45.612ZM173.52 45.228L173.716 46.2086L173.52 45.228ZM174.736 44.812L174.493 43.8419L174.344 43.8793L174.212 43.9603L174.736 44.812ZM175.44 44.364L174.815 43.5831L174.802 43.5937L174.789 43.6047L175.44 44.364ZM176.24 44.012L176.14 45.007L177.307 45.1237L177.238 43.9533L176.24 44.012ZM176.624 42.348L177.561 42.6962L177.565 42.6876L176.624 42.348ZM176.976 40.652L175.978 40.7075L175.979 40.7382L175.983 40.7688L176.976 40.652ZM176.048 39.052L175.285 39.699L175.29 39.7048L175.295 39.7105L176.048 39.052ZM175.088 37.452L174.09 37.5144L174.092 37.5417L174.095 37.5688L175.088 37.452ZM174.928 35.852L173.932 35.9374L173.933 35.9531L173.935 35.9688L174.928 35.852ZM174.768 34.156H173.768V34.2114L173.774 34.2664L174.768 34.156ZM175.28 33.196L176.075 33.802L176.082 33.7932L176.089 33.7842L175.28 33.196ZM175.472 31.34L174.65 31.9092L174.675 31.9459L174.704 31.9802L175.472 31.34ZM175.184 30.668H176.184V28.4642L174.525 29.9154L175.184 30.668ZM174.704 31.02L175.151 31.9144L175.176 31.902L175.2 31.8882L174.704 31.02ZM174.224 31.244L174.54 32.1927L174.586 32.1774L174.63 32.1578L174.224 31.244ZM173.808 31.404L174.241 32.3055L174.248 32.302L174.255 32.2984L173.808 31.404ZM172.144 31.02L172.808 30.2726L172.796 30.262L172.784 30.2518L172.144 31.02ZM171.696 30.316L170.708 30.4681L170.71 30.4804L171.696 30.316ZM172.016 29.42L171.26 28.7651L171.247 28.7799L171.235 28.7953L172.016 29.42ZM173.328 28.556L173.722 29.4751L174.095 29.3153L174.251 28.9406L173.328 28.556ZM173.744 27.884L173.037 27.1769L173.016 27.1977L172.997 27.2196L173.744 27.884ZM174.16 27.532L174.607 28.4264L174.642 28.4093L174.674 28.3895L174.16 27.532ZM174.704 27.244L175.151 28.1384L175.171 28.1287L175.19 28.1182L174.704 27.244ZM175.664 27.276L175.389 28.2375L175.664 27.276ZM176.976 27.436L177.117 28.4259L177.168 28.4187L177.219 28.4061L176.976 27.436ZM177.264 27.436L176.37 27.8832L176.442 28.0284L176.557 28.1431L177.264 27.436ZM177.456 27.756L176.562 28.2032L176.574 28.228L176.588 28.2521L177.456 27.756ZM177.712 28.524L178.693 28.3279L178.689 28.3114L178.685 28.295L177.712 28.524ZM178.192 29.868L177.265 30.2444L177.27 30.2547L178.192 29.868ZM178.672 31.532L177.677 31.6268L177.679 31.6555L177.684 31.6841L178.672 31.532ZM178.96 33.004L177.982 33.2115L177.985 33.2291L177.99 33.2465L178.96 33.004ZM179.28 34.604L180.278 34.5453L180.277 34.5194L180.274 34.4936L179.28 34.604ZM179.024 36.236L179.989 36.4991L179.991 36.4919L179.024 36.236ZM178.736 37.772H177.736V37.8077L177.739 37.8432L178.736 37.772ZM178.8 39.308L177.8 39.3374L177.801 39.3521L177.802 39.3667L178.8 39.308ZM178.896 40.908H179.896V40.8768L179.894 40.8456L178.896 40.908ZM179.024 42.988L178.03 43.0984V43.0984L179.024 42.988ZM179.152 44.204H178.152V45.1318L179.077 45.2012L179.152 44.204ZM180.432 44.3L180.357 45.2972L180.359 45.2973L180.432 44.3ZM182.576 44.428L182.717 43.4381L182.666 43.4307L182.614 43.4287L182.576 44.428ZM183.536 44.204L183.22 43.2552L183.207 43.2595L183.536 44.204ZM184.223 45.0242C184.372 45.0894 184.568 45.2305 184.795 45.5219L186.373 44.2941C186.003 43.8175 185.558 43.4253 185.025 43.1918L184.223 45.0242ZM184.795 45.5219C184.908 45.6672 184.971 45.7772 185.004 45.8528C185.036 45.9274 185.032 45.9503 185.032 45.932H187.032C187.032 45.3094 186.729 44.7517 186.373 44.2941L184.795 45.5219ZM185.2 45.3773C185.354 45.1468 185.556 45.0717 185.616 45.0528C185.683 45.0315 185.713 45.0353 185.674 45.0365C185.641 45.0374 185.582 45.0361 185.488 45.0269C185.397 45.0178 185.283 45.0022 185.146 44.9785L184.806 46.9495C185.139 47.0068 185.459 47.0439 185.734 47.0355C185.871 47.0314 186.044 47.0152 186.22 46.9592C186.389 46.9056 186.668 46.7812 186.864 46.4867L185.2 45.3773ZM185.186 44.9862C184.869 44.9184 184.584 44.8682 184.339 44.8418C184.121 44.8182 183.838 44.8013 183.575 44.8598L184.009 46.8122C183.96 46.823 183.942 46.82 183.974 46.82C184.001 46.82 184.05 46.8222 184.125 46.8302C184.275 46.8464 184.486 46.8816 184.766 46.9418L185.186 44.9862ZM183.651 44.8461C183.483 44.8699 183.148 44.9261 182.661 45.0108L183.003 46.9812C183.498 46.8953 183.802 46.8447 183.933 46.8259L183.651 44.8461ZM182.697 45.0052C182.225 45.0695 181.858 45.1263 181.612 45.1754L182.004 47.1366C182.185 47.1004 182.5 47.0505 182.967 46.9868L182.697 45.0052ZM181.533 45.1945C181.081 45.3238 180.632 45.5759 180.199 45.8893L181.369 47.5107C181.704 47.2694 181.938 47.1588 182.083 47.1175L181.533 45.1945ZM180.199 45.8893C179.834 46.1524 179.472 46.3941 179.111 46.6147L180.153 48.3213C180.56 48.0726 180.966 47.8022 181.369 47.5107L180.199 45.8893ZM179.146 46.5938C178.858 46.754 178.674 46.788 178.576 46.788V48.788C179.118 48.788 179.638 48.6087 180.118 48.3422L179.146 46.5938ZM178.528 46.7891C178.422 46.7942 178.067 46.7229 177.376 46.2557L176.256 47.9123C177.016 48.4264 177.834 48.8245 178.624 48.7869L178.528 46.7891ZM177.393 46.267C177.015 46.0002 176.675 45.7793 176.378 45.6124C176.1 45.4558 175.79 45.3067 175.49 45.2422L175.07 47.1978C175.068 47.1973 175.164 47.2242 175.398 47.3556C175.613 47.4767 175.892 47.6558 176.239 47.901L177.393 46.267ZM175.476 45.2394C175.182 45.1805 174.639 45.1354 173.931 45.0937L173.813 47.0903C174.556 47.134 174.952 47.1741 175.084 47.2006L175.476 45.2394ZM173.963 45.0961C173.335 45.039 173.029 44.9057 172.904 44.812L171.704 46.412C172.262 46.8303 173.001 47.017 173.781 47.0879L173.963 45.0961ZM172.778 46.4925C172.927 46.4121 173.22 46.3077 173.716 46.2086L173.324 44.2474C172.753 44.3616 172.235 44.5132 171.83 44.7315L172.778 46.4925ZM173.716 46.2086C174.298 46.0921 174.837 45.9242 175.26 45.6637L174.212 43.9603C174.081 44.0411 173.808 44.1506 173.324 44.2474L173.716 46.2086ZM174.979 45.7821C175.396 45.6777 175.785 45.385 176.091 45.1233L174.789 43.6047C174.662 43.7135 174.568 43.7831 174.503 43.8243C174.43 43.8708 174.432 43.8572 174.493 43.8419L174.979 45.7821ZM176.065 45.1449C176.121 45.0995 176.169 45.0659 176.207 45.0417C176.245 45.0172 176.27 45.0047 176.283 44.9993C176.313 44.9862 176.256 45.0186 176.14 45.007L176.34 43.017C175.713 42.9543 175.175 43.2955 174.815 43.5831L176.065 45.1449ZM177.238 43.9533C177.23 43.8156 177.288 43.4315 177.561 42.6962L175.687 41.9998C175.405 42.7578 175.207 43.4831 175.242 44.0707L177.238 43.9533ZM177.565 42.6876C177.845 41.9114 178.042 41.1509 177.969 40.5352L175.983 40.7688C175.996 40.8784 175.958 41.2486 175.683 42.0084L177.565 42.6876ZM177.974 40.5965C177.951 40.1803 177.784 39.7918 177.593 39.4623C177.395 39.1205 177.124 38.7629 176.801 38.3935L175.295 39.7105C175.569 40.0237 175.752 40.2742 175.863 40.4657C175.981 40.6695 175.979 40.7397 175.978 40.7075L177.974 40.5965ZM176.811 38.405C176.532 38.0767 176.34 37.813 176.217 37.6095C176.086 37.3905 176.078 37.3101 176.081 37.3352L174.095 37.5688C174.14 37.9566 174.314 38.3241 174.503 38.6385C174.7 38.9683 174.967 39.3233 175.285 39.699L176.811 38.405ZM176.086 37.3896C176.063 37.0193 176.007 36.4631 175.921 35.7352L173.935 35.9688C174.02 36.6916 174.07 37.202 174.09 37.5144L176.086 37.3896ZM175.924 35.7666C175.86 35.0178 175.806 34.4424 175.762 34.0456L173.774 34.2664C173.815 34.6376 173.868 35.1929 173.932 35.9374L175.924 35.7666ZM175.768 34.156C175.768 34.2052 175.763 34.2425 175.758 34.2651C175.754 34.2879 175.75 34.3014 175.749 34.3042C175.747 34.308 175.754 34.2888 175.778 34.2426C175.829 34.1484 175.922 34.0039 176.075 33.802L174.485 32.59C174.297 32.8361 174.134 33.0756 174.014 33.3014C173.908 33.4989 173.768 33.8066 173.768 34.156H175.768ZM176.089 33.7842C176.282 33.519 176.448 33.2552 176.569 32.9978C176.685 32.7508 176.792 32.4431 176.792 32.108H174.792C174.792 32.0289 174.814 32.0305 174.759 32.1462C174.71 32.2514 174.62 32.4036 174.471 32.6078L176.089 33.7842ZM176.792 32.108C176.792 31.5552 176.557 31.0805 176.24 30.6998L174.704 31.9802C174.759 32.0462 174.781 32.0895 174.789 32.1086C174.796 32.125 174.792 32.1227 174.792 32.108H176.792ZM176.294 30.7708C176.223 30.6679 176.189 30.6022 176.175 30.5701C176.169 30.5553 176.17 30.5557 176.174 30.5696C176.177 30.5835 176.184 30.6177 176.184 30.668H174.184C174.184 31.1612 174.436 31.6009 174.65 31.9092L176.294 30.7708ZM174.525 29.9154C174.39 30.0339 174.284 30.108 174.208 30.1518L175.2 31.8882C175.422 31.7613 175.637 31.6008 175.843 31.4206L174.525 29.9154ZM174.257 30.1256C174.147 30.1805 174.002 30.2484 173.818 30.3302L174.63 32.1578C174.83 32.0689 175.005 31.9875 175.151 31.9144L174.257 30.1256ZM173.908 30.2953C173.709 30.3616 173.513 30.4332 173.361 30.5096L174.255 32.2984C174.255 32.2985 174.261 32.2954 174.276 32.2891C174.29 32.283 174.31 32.2751 174.335 32.2653C174.386 32.2457 174.454 32.2215 174.54 32.1927L173.908 30.2953ZM173.375 30.5025C173.305 30.5364 173.264 30.5365 173.217 30.5256C173.15 30.5102 173.014 30.455 172.808 30.2726L171.48 31.7674C171.85 32.097 172.279 32.3618 172.767 32.4744C173.275 32.5915 173.778 32.5276 174.241 32.3055L173.375 30.5025ZM172.784 30.2518C172.72 30.1986 172.693 30.162 172.684 30.1471C172.676 30.1349 172.68 30.1378 172.682 30.1516L170.71 30.4804C170.802 31.0333 171.117 31.4662 171.504 31.7882L172.784 30.2518ZM172.684 30.1639C172.691 30.2098 172.681 30.2339 172.686 30.2203C172.693 30.2008 172.719 30.1421 172.797 30.0447L171.235 28.7953C170.886 29.232 170.606 29.8073 170.708 30.4681L172.684 30.1639ZM172.772 30.0749C172.911 29.914 173.196 29.7004 173.722 29.4751L172.934 27.6369C172.265 27.9236 171.676 28.286 171.26 28.7651L172.772 30.0749ZM174.251 28.9406C174.318 28.7788 174.4 28.6511 174.491 28.5484L172.997 27.2196C172.747 27.5009 172.551 27.8212 172.405 28.1714L174.251 28.9406ZM174.451 28.5911C174.536 28.5061 174.597 28.4497 174.638 28.4154C174.647 28.4073 174.655 28.4014 174.66 28.3972C174.665 28.3931 174.668 28.3914 174.667 28.3917C174.667 28.392 174.662 28.3953 174.653 28.4008C174.645 28.406 174.629 28.4154 174.607 28.4264L173.713 26.6376C173.46 26.764 173.213 27.0008 173.037 27.1769L174.451 28.5911ZM174.674 28.3895C174.745 28.347 174.896 28.2658 175.151 28.1384L174.257 26.3496C174 26.4782 173.788 26.589 173.646 26.6745L174.674 28.3895ZM175.19 28.1182C175.128 28.1524 175.079 28.1646 175.056 28.1689C175.034 28.173 175.032 28.1707 175.055 28.1714C175.105 28.1731 175.212 28.1868 175.389 28.2375L175.939 26.3145C175.668 26.2372 175.391 26.1815 175.121 26.1726C174.858 26.1638 174.529 26.1971 174.218 26.3698L175.19 28.1182ZM175.389 28.2375C175.836 28.365 176.277 28.468 176.624 28.468V26.468C176.629 26.468 176.616 26.4682 176.58 26.4637C176.546 26.4594 176.498 26.4518 176.436 26.4394C176.311 26.4144 176.147 26.3739 175.939 26.3145L175.389 28.2375ZM176.624 28.468C176.779 28.468 176.951 28.4497 177.117 28.4259L176.835 26.446C176.702 26.4649 176.639 26.468 176.624 26.468V28.468ZM177.219 28.4061C177.279 28.3911 177.251 28.404 177.176 28.404C177.139 28.404 177.03 28.4017 176.892 28.3518C176.743 28.2975 176.511 28.1651 176.37 27.8832L178.158 26.9888C178.007 26.6855 177.754 26.5371 177.576 26.4722C177.409 26.4116 177.261 26.404 177.176 26.404C177.005 26.404 176.844 26.4382 176.733 26.4659L177.219 28.4061ZM176.557 28.1431C176.534 28.1199 176.517 28.1004 176.507 28.0882C176.497 28.0756 176.49 28.0661 176.486 28.0612C176.48 28.0522 176.48 28.0512 176.487 28.0625C176.493 28.0729 176.502 28.0897 176.516 28.1141C176.529 28.1383 176.544 28.1678 176.562 28.2032L178.35 27.3088C178.302 27.2112 178.252 27.1171 178.201 27.0335C178.162 26.9677 178.084 26.8415 177.971 26.7289L176.557 28.1431ZM176.588 28.2521C176.585 28.2469 176.603 28.2797 176.635 28.3762C176.666 28.4671 176.7 28.591 176.739 28.753L178.685 28.295C178.598 27.9215 178.486 27.5436 178.324 27.2599L176.588 28.2521ZM176.731 28.7201C176.796 29.0442 176.997 29.5845 177.266 30.2444L179.118 29.4916C178.832 28.7862 178.713 28.4304 178.693 28.3279L176.731 28.7201ZM177.27 30.2547C177.528 30.8713 177.647 31.3207 177.677 31.6268L179.667 31.4372C179.611 30.8473 179.41 30.1874 179.114 29.4813L177.27 30.2547ZM177.684 31.6841C177.731 31.9927 177.833 32.5088 177.982 33.2115L179.938 32.7965C179.789 32.0912 179.698 31.626 179.66 31.3799L177.684 31.6841ZM177.99 33.2465C178.157 33.9148 178.251 34.3972 178.286 34.7144L180.274 34.4936C180.224 34.0428 180.104 33.4585 179.93 32.7615L177.99 33.2465ZM178.282 34.6627C178.293 34.8576 178.245 35.2722 178.057 35.9801L179.991 36.4919C180.187 35.7491 180.309 35.0757 180.278 34.5453L178.282 34.6627ZM178.059 35.9729C177.866 36.6817 177.736 37.3066 177.736 37.772H179.736C179.736 37.5974 179.798 37.1983 179.989 36.4991L178.059 35.9729ZM177.739 37.8432C177.758 38.1188 177.779 38.612 177.8 39.3374L179.8 39.2786C179.778 38.5533 179.756 38.0225 179.733 37.7008L177.739 37.8432ZM177.802 39.3667C177.844 40.0922 177.876 40.6271 177.898 40.9704L179.894 40.8456C179.873 40.5062 179.841 39.9744 179.798 39.2493L177.802 39.3667ZM177.896 40.908C177.896 41.5713 177.942 42.3024 178.03 43.0984L180.018 42.8776C179.936 42.1376 179.896 41.482 179.896 40.908H177.896ZM178.03 43.0984C178.073 43.4819 178.104 43.7729 178.125 43.9727C178.136 44.0729 178.144 44.1477 178.149 44.1988C178.151 44.2247 178.152 44.2413 178.153 44.2507C178.155 44.2754 178.152 44.2457 178.152 44.204H180.152C180.152 44.1332 180.142 44.0391 180.139 44.0092C180.134 43.9483 180.125 43.8658 180.115 43.7633C180.093 43.5577 180.061 43.2621 180.018 42.8776L178.03 43.0984ZM179.152 44.204C179.077 45.2012 179.077 45.2012 179.077 45.2012C179.077 45.2012 179.077 45.2012 179.077 45.2012C179.077 45.2012 179.077 45.2012 179.077 45.2012C179.077 45.2012 179.077 45.2012 179.078 45.2012C179.079 45.2013 179.077 45.2012 179.078 45.2013C179.08 45.2014 179.077 45.2012 179.079 45.2013C179.079 45.2013 179.079 45.2013 179.079 45.2013C179.079 45.2013 179.079 45.2013 179.079 45.2013C179.079 45.2014 179.079 45.2014 179.08 45.2014C179.08 45.2014 179.08 45.2014 179.08 45.2014C179.08 45.2014 179.08 45.2014 179.08 45.2014C179.086 45.2018 179.075 45.201 179.081 45.2015C179.081 45.2015 179.081 45.2015 179.081 45.2015C179.081 45.2015 179.082 45.2015 179.082 45.2015C179.085 45.2018 179.079 45.2013 179.082 45.2016C179.09 45.2022 179.086 45.2019 179.097 45.2027C179.116 45.2041 179.125 45.2048 179.157 45.2072C179.165 45.2078 179.159 45.2074 179.168 45.208C179.168 45.208 179.168 45.208 179.169 45.2081C179.169 45.2081 179.17 45.2081 179.17 45.2082C179.171 45.2082 179.171 45.2082 179.172 45.2083C179.172 45.2083 179.172 45.2083 179.173 45.2084C179.197 45.2102 179.154 45.207 179.178 45.2088C179.196 45.2101 179.166 45.2079 179.184 45.2092C179.185 45.2093 179.185 45.2093 179.186 45.2093C179.186 45.2094 179.187 45.2094 179.187 45.2094C179.188 45.2095 179.189 45.2096 179.19 45.2097C179.224 45.2122 179.162 45.2075 179.196 45.2101C179.235 45.213 179.163 45.2077 179.202 45.2106C179.222 45.2121 179.208 45.211 179.228 45.2125C179.239 45.2134 179.231 45.2128 179.243 45.2136C179.254 45.2144 179.235 45.213 179.246 45.2139C179.247 45.2139 179.247 45.214 179.248 45.214C179.249 45.2141 179.249 45.2141 179.25 45.2141C179.276 45.2161 179.231 45.2127 179.257 45.2147C179.258 45.2147 179.258 45.2148 179.259 45.2148C179.26 45.2149 179.26 45.2149 179.261 45.215C179.265 45.2153 179.261 45.2149 179.265 45.2153C179.271 45.2157 179.266 45.2154 179.273 45.2158C179.3 45.2179 179.253 45.2144 179.28 45.2164C179.281 45.2165 179.282 45.2165 179.282 45.2166C179.283 45.2166 179.284 45.2167 179.284 45.2167C179.285 45.2168 179.286 45.2168 179.286 45.2169C179.287 45.2169 179.288 45.217 179.288 45.217C179.353 45.2219 179.24 45.2134 179.305 45.2183C179.339 45.2209 179.279 45.2163 179.314 45.2189C179.323 45.2196 179.308 45.2185 179.318 45.2192C179.347 45.2214 179.293 45.2174 179.322 45.2196C179.384 45.2242 179.295 45.2176 179.358 45.2223C179.359 45.2224 179.36 45.2224 179.361 45.2225C179.362 45.2225 179.362 45.2226 179.363 45.2226C179.367 45.2229 179.364 45.2227 179.368 45.223C179.375 45.2236 179.37 45.2232 179.378 45.2237C179.378 45.2238 179.379 45.2238 179.38 45.2239C179.381 45.224 179.382 45.224 179.382 45.2241C179.385 45.2243 179.385 45.2243 179.387 45.2245C179.407 45.2259 179.372 45.2233 179.392 45.2248C179.393 45.2249 179.394 45.2249 179.395 45.225C179.396 45.2251 179.396 45.2251 179.397 45.2252C179.422 45.227 179.378 45.2237 179.402 45.2256C179.445 45.2288 179.364 45.2227 179.407 45.226C179.408 45.226 179.409 45.2261 179.41 45.2261C179.411 45.2262 179.412 45.2263 179.412 45.2263C179.415 45.2265 179.415 45.2266 179.418 45.2267C179.431 45.2278 179.409 45.2261 179.423 45.2271C179.427 45.2274 179.424 45.2272 179.428 45.2275C179.451 45.2292 179.41 45.2262 179.433 45.2279C179.447 45.229 179.424 45.2272 179.438 45.2283C179.514 45.234 179.406 45.2258 179.482 45.2316C179.545 45.2363 179.465 45.2303 179.528 45.235C179.581 45.239 179.5 45.2329 179.553 45.2368C179.591 45.2397 179.52 45.2344 179.559 45.2373C179.565 45.2378 179.558 45.2373 179.565 45.2378C179.609 45.2411 179.527 45.2349 179.571 45.2382C179.61 45.2411 179.538 45.2358 179.577 45.2387C179.657 45.2447 179.599 45.2403 179.682 45.2466C179.71 45.2486 179.662 45.245 179.689 45.2471C179.692 45.2473 179.693 45.2474 179.696 45.2476C179.704 45.2482 179.695 45.2476 179.703 45.2481C179.704 45.2482 179.705 45.2483 179.707 45.2484C179.708 45.2485 179.709 45.2486 179.71 45.2487C179.711 45.2487 179.712 45.2488 179.714 45.2489C179.715 45.249 179.716 45.2491 179.717 45.2492C179.725 45.2498 179.716 45.2491 179.724 45.2497C179.753 45.2519 179.703 45.2481 179.731 45.2503C179.757 45.2522 179.713 45.2489 179.738 45.2508C179.796 45.2551 179.695 45.2476 179.753 45.2519C179.759 45.2524 179.761 45.2525 179.768 45.253C179.769 45.2531 179.77 45.2532 179.771 45.2532C179.772 45.2533 179.774 45.2534 179.775 45.2535C179.801 45.2555 179.756 45.2521 179.782 45.2541C179.784 45.2542 179.785 45.2543 179.786 45.2544C179.787 45.2545 179.788 45.2545 179.79 45.2546C179.816 45.2566 179.771 45.2532 179.797 45.2552C179.798 45.2553 179.8 45.2554 179.801 45.2555C179.802 45.2556 179.803 45.2557 179.805 45.2558C179.806 45.2559 179.807 45.256 179.809 45.256C179.81 45.2561 179.811 45.2562 179.812 45.2563C179.814 45.2564 179.815 45.2565 179.816 45.2566C179.817 45.2567 179.819 45.2568 179.82 45.2569C179.821 45.257 179.822 45.2571 179.824 45.2572C179.825 45.2573 179.826 45.2574 179.828 45.2575C179.862 45.26 179.824 45.2572 179.858 45.2598C179.914 45.264 179.834 45.258 179.89 45.2622C179.891 45.2623 179.893 45.2624 179.894 45.2625C179.895 45.2626 179.897 45.2627 179.898 45.2628C179.899 45.2629 179.901 45.263 179.902 45.2631C179.903 45.2632 179.905 45.2633 179.906 45.2634C179.945 45.2663 179.875 45.261 179.914 45.264C179.915 45.2641 179.917 45.2642 179.918 45.2643C179.92 45.2644 179.921 45.2645 179.922 45.2646C179.948 45.2665 179.929 45.2651 179.955 45.267C179.956 45.2671 179.958 45.2672 179.959 45.2673C179.961 45.2675 179.962 45.2676 179.963 45.2677C179.965 45.2678 179.966 45.2679 179.967 45.268C179.969 45.2681 179.97 45.2682 179.972 45.2683C180.038 45.2733 179.922 45.2645 179.988 45.2695C180.022 45.2721 179.963 45.2676 179.997 45.2702C180.004 45.2707 179.999 45.2703 180.005 45.2708C180.024 45.2722 180.003 45.2707 180.023 45.2721C180.061 45.275 180.019 45.2718 180.057 45.2747C180.119 45.2794 180.03 45.2727 180.093 45.2773C180.094 45.2775 180.095 45.2776 180.097 45.2777C180.098 45.2778 180.1 45.2779 180.101 45.278C180.103 45.2781 180.104 45.2782 180.106 45.2784C180.107 45.2785 180.109 45.2786 180.11 45.2787C180.13 45.2802 180.108 45.2785 180.128 45.28C180.13 45.2802 180.131 45.2803 180.133 45.2804C180.135 45.2805 180.136 45.2806 180.138 45.2807C180.139 45.2808 180.141 45.281 180.142 45.2811C180.144 45.2812 180.145 45.2813 180.147 45.2814C180.148 45.2815 180.15 45.2816 180.151 45.2818C180.153 45.2819 180.154 45.282 180.156 45.2821C180.157 45.2822 180.159 45.2823 180.16 45.2824C180.162 45.2826 180.163 45.2827 180.165 45.2828C180.231 45.2877 180.137 45.2806 180.202 45.2856C180.204 45.2857 180.205 45.2858 180.207 45.2859C180.208 45.286 180.21 45.2862 180.212 45.2863C180.213 45.2864 180.215 45.2865 180.216 45.2866C180.218 45.2868 180.219 45.2869 180.221 45.287C180.242 45.2886 180.219 45.2868 180.24 45.2884C180.257 45.2897 180.242 45.2886 180.259 45.2898C180.285 45.2918 180.243 45.2886 180.269 45.2906C180.276 45.2911 180.271 45.2907 180.278 45.2913C180.347 45.2965 180.248 45.289 180.318 45.2942C180.319 45.2943 180.321 45.2945 180.322 45.2946C180.324 45.2947 180.326 45.2948 180.327 45.295C180.329 45.2951 180.331 45.2952 180.332 45.2953C180.334 45.2955 180.336 45.2956 180.337 45.2957C180.339 45.2958 180.341 45.296 180.342 45.2961C180.344 45.2962 180.346 45.2963 180.347 45.2965C180.361 45.2974 180.344 45.2962 180.357 45.2972L180.507 43.3028C180.5 43.3023 180.493 43.3018 180.487 43.3013C180.469 43.3 180.485 43.3011 180.467 43.2998C180.465 43.2997 180.464 43.2996 180.462 43.2995C180.461 43.2993 180.459 43.2992 180.457 43.2991C180.436 43.2975 180.469 43.3 180.447 43.2984C180.446 43.2982 180.444 43.2981 180.443 43.298C180.441 43.2979 180.439 43.2977 180.438 43.2976C180.436 43.2975 180.435 43.2974 180.433 43.2973C180.431 43.2971 180.43 43.297 180.428 43.2969C180.411 43.2956 180.426 43.2967 180.409 43.2954C180.407 43.2953 180.406 43.2952 180.404 43.2951C180.402 43.295 180.401 43.2948 180.399 43.2947C180.375 43.2929 180.414 43.2958 180.39 43.294C180.388 43.2939 180.386 43.2938 180.385 43.2937C180.383 43.2935 180.382 43.2934 180.38 43.2933C180.379 43.2932 180.377 43.2931 180.375 43.2929C180.374 43.2928 180.372 43.2927 180.371 43.2926C180.354 43.2913 180.369 43.2924 180.352 43.2912C180.254 43.2838 180.375 43.2929 180.278 43.2856C180.277 43.2855 180.275 43.2854 180.274 43.2853C180.272 43.2852 180.271 43.2851 180.269 43.285C180.267 43.2849 180.266 43.2847 180.264 43.2846C180.263 43.2845 180.261 43.2844 180.26 43.2843C180.244 43.2831 180.258 43.2841 180.242 43.2829C180.241 43.2828 180.239 43.2827 180.238 43.2826C180.236 43.2825 180.235 43.2824 180.233 43.2823C180.214 43.2808 180.244 43.2831 180.224 43.2816C180.209 43.2804 180.231 43.2821 180.216 43.281C180.214 43.2808 180.213 43.2807 180.211 43.2806C180.21 43.2805 180.208 43.2804 180.207 43.2803C180.13 43.2745 180.249 43.2835 180.172 43.2777C180.134 43.2748 180.193 43.2793 180.155 43.2764C180.14 43.2753 180.153 43.2763 180.138 43.2751C180.051 43.2686 180.158 43.2767 180.072 43.2702C180.036 43.2675 180.092 43.2717 180.056 43.269C180.053 43.2688 180.05 43.2686 180.048 43.2684C180.044 43.2681 180.043 43.268 180.04 43.2678C179.956 43.2615 180.091 43.2717 180.008 43.2654C180.007 43.2653 180.005 43.2652 180.004 43.2651C180.003 43.265 180.002 43.2649 180 43.2648C179.997 43.2646 179.996 43.2645 179.992 43.2642C179.986 43.2637 179.984 43.2636 179.977 43.2631C179.943 43.2605 179.996 43.2645 179.962 43.2619C179.961 43.2618 179.959 43.2617 179.958 43.2616C179.957 43.2616 179.956 43.2615 179.954 43.2614C179.953 43.2613 179.952 43.2612 179.951 43.2611C179.949 43.261 179.948 43.2609 179.947 43.2608C179.946 43.2607 179.944 43.2606 179.943 43.2605C179.942 43.2604 179.941 43.2603 179.939 43.2602C179.938 43.2601 179.937 43.2601 179.936 43.26C179.934 43.2599 179.933 43.2598 179.932 43.2597C179.899 43.2572 179.95 43.261 179.917 43.2586C179.916 43.2585 179.915 43.2584 179.913 43.2583C179.912 43.2582 179.911 43.2581 179.91 43.258C179.909 43.2579 179.907 43.2578 179.906 43.2578C179.905 43.2577 179.904 43.2576 179.902 43.2575C179.901 43.2574 179.9 43.2573 179.899 43.2572C179.898 43.2571 179.896 43.257 179.895 43.2569C179.893 43.2568 179.89 43.2566 179.888 43.2564C179.851 43.2537 179.91 43.2581 179.874 43.2553C179.873 43.2552 179.871 43.2551 179.87 43.2551C179.869 43.255 179.868 43.2549 179.867 43.2548C179.865 43.2547 179.864 43.2546 179.863 43.2545C179.862 43.2544 179.861 43.2543 179.86 43.2543C179.858 43.2542 179.857 43.2541 179.856 43.254C179.855 43.2539 179.854 43.2538 179.853 43.2537C179.851 43.2536 179.85 43.2536 179.849 43.2535C179.848 43.2534 179.847 43.2533 179.846 43.2532C179.815 43.2509 179.862 43.2545 179.832 43.2522C179.762 43.247 179.874 43.2553 179.805 43.2501C179.745 43.2457 179.838 43.2526 179.778 43.2481C179.777 43.2481 179.776 43.248 179.775 43.2479C179.774 43.2478 179.773 43.2477 179.771 43.2477C179.757 43.2466 179.779 43.2482 179.765 43.2472C179.732 43.2447 179.785 43.2487 179.752 43.2462C179.738 43.2451 179.76 43.2468 179.746 43.2457C179.745 43.2456 179.744 43.2456 179.743 43.2455C179.741 43.2454 179.74 43.2453 179.739 43.2452C179.738 43.2452 179.737 43.2451 179.736 43.245C179.735 43.2449 179.734 43.2449 179.733 43.2448C179.719 43.2437 179.741 43.2453 179.727 43.2443C179.671 43.2401 179.757 43.2466 179.702 43.2424C179.701 43.2424 179.7 43.2423 179.699 43.2422C179.698 43.2421 179.697 43.2421 179.696 43.242C179.695 43.2419 179.694 43.2418 179.693 43.2418C179.692 43.2417 179.691 43.2416 179.69 43.2415C179.689 43.2415 179.688 43.2414 179.687 43.2413C179.686 43.2412 179.685 43.2412 179.684 43.2411C179.683 43.241 179.682 43.2409 179.681 43.2409C179.68 43.2408 179.679 43.2407 179.678 43.2406C179.67 43.2401 179.662 43.2395 179.655 43.2389C179.603 43.235 179.683 43.241 179.632 43.2372C179.631 43.2371 179.63 43.237 179.629 43.237C179.628 43.2369 179.627 43.2368 179.626 43.2368C179.625 43.2367 179.624 43.2366 179.623 43.2365C179.622 43.2365 179.622 43.2364 179.621 43.2363C179.617 43.2361 179.613 43.2358 179.61 43.2355C179.597 43.2346 179.616 43.236 179.604 43.2351C179.603 43.235 179.602 43.235 179.601 43.2349C179.601 43.2348 179.6 43.2348 179.599 43.2347C179.598 43.2346 179.597 43.2346 179.596 43.2345C179.595 43.2344 179.594 43.2344 179.593 43.2343C179.582 43.2334 179.6 43.2348 179.588 43.2339C179.541 43.2304 179.614 43.2358 179.567 43.2323C179.566 43.2323 179.565 43.2322 179.565 43.2321C179.564 43.2321 179.563 43.232 179.562 43.2319C179.561 43.2319 179.56 43.2318 179.559 43.2317C179.559 43.2317 179.558 43.2316 179.557 43.2316C179.534 43.2299 179.569 43.2325 179.547 43.2308C179.54 43.2303 179.534 43.2298 179.527 43.2293C179.51 43.228 179.525 43.2292 179.508 43.2279C179.507 43.2278 179.506 43.2278 179.506 43.2277C179.505 43.2277 179.504 43.2276 179.503 43.2275C179.503 43.2275 179.502 43.2274 179.501 43.2274C179.5 43.2273 179.5 43.2273 179.499 43.2272C179.498 43.2271 179.497 43.2271 179.496 43.227C179.496 43.227 179.495 43.2269 179.494 43.2269C179.493 43.2268 179.493 43.2267 179.492 43.2267C179.491 43.2266 179.49 43.2266 179.49 43.2265C179.484 43.2261 179.478 43.2256 179.472 43.2252C179.385 43.2187 179.524 43.2291 179.438 43.2226C179.397 43.2196 179.463 43.2245 179.422 43.2214C179.419 43.2213 179.417 43.2211 179.414 43.2209C179.406 43.2202 179.419 43.2212 179.411 43.2206C179.394 43.2193 179.424 43.2216 179.407 43.2203C179.406 43.2203 179.406 43.2202 179.405 43.2202C179.404 43.2201 179.404 43.2201 179.403 43.22C179.402 43.2199 179.401 43.2198 179.399 43.2197C179.397 43.2196 179.394 43.2194 179.392 43.2192C179.356 43.2165 179.414 43.2208 179.378 43.2181C179.369 43.2175 179.36 43.2168 179.352 43.2162C179.296 43.212 179.383 43.2185 179.328 43.2144C179.324 43.2141 179.329 43.2145 179.325 43.2142C179.325 43.2141 179.324 43.2141 179.324 43.2141C179.323 43.214 179.323 43.214 179.322 43.214C179.309 43.2129 179.331 43.2146 179.317 43.2136C179.314 43.2133 179.31 43.2131 179.307 43.2128C179.294 43.2118 179.3 43.2123 179.288 43.2114C179.272 43.2102 179.287 43.2113 179.272 43.2102C179.271 43.2102 179.271 43.2101 179.271 43.2101C179.271 43.2101 179.27 43.2101 179.27 43.21C179.269 43.2099 179.269 43.21 179.268 43.2099C179.258 43.2091 179.275 43.2104 179.265 43.2096C179.246 43.2082 179.277 43.2106 179.258 43.2091C179.246 43.2083 179.258 43.2091 179.247 43.2083C179.24 43.2078 179.248 43.2084 179.242 43.2079C179.239 43.2077 179.243 43.2081 179.24 43.2078C179.24 43.2078 179.24 43.2078 179.239 43.2078C179.239 43.2077 179.239 43.2077 179.239 43.2077C179.234 43.2073 179.243 43.208 179.238 43.2076C179.235 43.2074 179.237 43.2076 179.235 43.2074C179.233 43.2073 179.235 43.2074 179.234 43.2073C179.233 43.2072 179.234 43.2074 179.233 43.2073C179.231 43.2071 179.234 43.2073 179.232 43.2072C179.23 43.2071 179.232 43.2072 179.231 43.2071C179.23 43.2071 179.23 43.2071 179.23 43.207C179.23 43.207 179.23 43.207 179.23 43.207C179.23 43.207 179.23 43.207 179.23 43.207C179.224 43.2066 179.235 43.2074 179.229 43.2069C179.227 43.2068 179.23 43.207 179.228 43.2069C179.227 43.2068 179.229 43.2069 179.228 43.2069C179.227 43.2068 179.228 43.2069 179.227 43.2069C179.224 43.2066 179.23 43.2071 179.227 43.2068C179.227 43.2068 179.227 43.2068 179.227 43.2068C179.227 43.2068 179.227 43.2068 179.227 43.2068C179.227 43.2068 179.227 43.2068 179.227 43.2068C179.227 43.2068 179.227 43.2068 179.227 43.2068C179.227 43.2068 179.227 43.2068 179.227 43.2068C179.227 43.2068 179.227 43.2068 179.227 43.2068C179.227 43.2068 179.227 43.2068 179.227 43.2068C179.227 43.2068 179.227 43.2068 179.152 44.204ZM180.359 45.2973C181.239 45.3618 181.967 45.4053 182.538 45.4273L182.614 43.4287C182.076 43.408 181.374 43.3662 180.505 43.3027L180.359 45.2973ZM182.435 45.4179C182.708 45.457 182.983 45.402 183.155 45.3618C183.363 45.3133 183.603 45.2396 183.865 45.1485L183.207 43.2595C182.979 43.3391 182.813 43.388 182.701 43.4142C182.645 43.4272 182.616 43.4314 182.607 43.4324C182.591 43.4342 182.637 43.4266 182.717 43.4381L182.435 45.4179ZM183.852 45.1527C184.066 45.0814 184.204 45.0548 184.28 45.0481C184.316 45.045 184.323 45.0477 184.307 45.0457C184.292 45.0437 184.243 45.0353 184.177 45.0024L185.071 43.2136C184.734 43.0448 184.38 43.0315 184.104 43.0559C183.818 43.0812 183.518 43.1559 183.22 43.2553L183.852 45.1527Z" fill="#004E44" mask="url(#path-3-outside-1_13_84)"/>    </g>    <path d="M266.2 108.916C265.922 108.982 265.643 109.047 265.361 109.109C265.122 109.162 265.012 109.304 265.117 109.425C265.194 109.516 265.368 109.57 265.551 109.57C265.613 109.57 265.677 109.563 265.739 109.55C266.029 109.486 266.317 109.419 266.603 109.351C266.839 109.294 266.941 109.151 266.83 109.031C266.718 108.911 266.436 108.86 266.2 108.916Z" fill="#24BF0F"/>    <path d="M263.941 109.402C263.902 109.409 263.863 109.416 263.825 109.423C263.968 109.569 264.022 109.737 263.966 109.908C264.069 109.889 264.172 109.871 264.275 109.851C264.519 109.805 264.643 109.666 264.551 109.542C264.458 109.418 264.185 109.355 263.941 109.402Z" fill="#24BF0F"/>    <path d="M283.554 92.2427C283.296 92.2648 283.123 92.3887 283.166 92.5196C283.217 92.6734 283.264 92.8276 283.306 92.982C283.339 93.1022 283.542 93.1893 283.774 93.1893C283.795 93.1893 283.818 93.1885 283.84 93.187C284.098 93.1686 284.279 93.0474 284.243 92.9158C284.199 92.7569 284.151 92.5983 284.099 92.4399C284.056 92.3087 283.81 92.2204 283.554 92.2427Z" fill="#24BF0F"/>    <path d="M268.376 108.341C268.11 108.418 267.842 108.493 267.571 108.566C267.34 108.629 267.252 108.774 267.375 108.891C267.46 108.973 267.624 109.019 267.793 109.019C267.868 109.019 267.944 109.01 268.015 108.991C268.294 108.915 268.571 108.838 268.845 108.758C269.073 108.692 269.151 108.545 269.021 108.43C268.892 108.315 268.603 108.275 268.376 108.341Z" fill="#24BF0F"/>    <path d="M283.013 91.0071C282.759 91.0391 282.605 91.1694 282.667 91.2982C282.741 91.4496 282.81 91.6015 282.875 91.7538C282.923 91.8663 283.119 91.9433 283.337 91.9433C283.37 91.9433 283.404 91.9415 283.438 91.9377C283.693 91.9097 283.855 91.7816 283.8 91.6519C283.733 91.4951 283.661 91.3387 283.585 91.1828C283.523 91.0538 283.268 90.9752 283.013 91.0071Z" fill="#24BF0F"/>    <path d="M283.482 93.7566C283.51 93.9119 283.533 94.0674 283.552 94.2229C283.568 94.3503 283.776 94.4483 284.024 94.4483C284.034 94.4483 284.044 94.4481 284.054 94.4478C284.315 94.4395 284.513 94.3255 284.497 94.1929C284.477 94.0326 284.453 93.8726 284.424 93.7126C284.4 93.5805 284.171 93.482 283.91 93.4951C283.65 93.5073 283.458 93.6243 283.482 93.7566Z" fill="#24BF0F"/>    <path d="M280.893 102.097C280.663 102.035 280.376 102.079 280.253 102.196C280.108 102.333 279.959 102.469 279.806 102.604C279.675 102.719 279.753 102.866 279.979 102.932C280.054 102.954 280.135 102.965 280.215 102.965C280.379 102.965 280.538 102.922 280.625 102.845C280.784 102.705 280.937 102.565 281.087 102.423C281.21 102.306 281.123 102.16 280.893 102.097Z" fill="#24BF0F"/>    <path d="M283.824 97.2843C283.567 97.2642 283.325 97.3559 283.287 97.4871C283.243 97.6412 283.193 97.7949 283.139 97.9481C283.093 98.0788 283.264 98.2038 283.522 98.2271C283.55 98.2297 283.578 98.2311 283.606 98.2311C283.831 98.2311 284.03 98.1493 284.071 98.033C284.127 97.8748 284.177 97.7161 284.223 97.5572C284.261 97.4258 284.083 97.3036 283.824 97.2843Z" fill="#24BF0F"/>    <path d="M281.933 100.947C281.692 100.895 281.415 100.952 281.312 101.074C281.192 101.217 281.067 101.359 280.938 101.5C280.827 101.62 280.929 101.763 281.166 101.82C281.231 101.835 281.299 101.842 281.366 101.842C281.544 101.842 281.715 101.791 281.795 101.704C281.929 101.558 282.058 101.411 282.183 101.263C282.285 101.141 282.174 100.999 281.933 100.947Z" fill="#24BF0F"/>    <path d="M282.769 99.7551C282.519 99.7137 282.253 99.7831 282.173 99.9092C282.078 100.057 281.978 100.204 281.874 100.351C281.785 100.476 281.912 100.613 282.157 100.658C282.211 100.668 282.265 100.673 282.319 100.673C282.512 100.673 282.694 100.612 282.763 100.514C282.871 100.363 282.974 100.211 283.072 100.058C283.153 99.932 283.017 99.7962 282.769 99.7551Z" fill="#24BF0F"/>    <path d="M283.399 98.5309C283.142 98.5002 282.89 98.5811 282.83 98.7104C282.761 98.8619 282.687 99.0129 282.607 99.1634C282.54 99.2916 282.69 99.4234 282.943 99.4578C282.983 99.4633 283.025 99.4661 283.065 99.4661C283.274 99.4661 283.465 99.3951 283.522 99.2877C283.603 99.1324 283.68 98.9764 283.752 98.8199C283.811 98.6905 283.653 98.5612 283.399 98.5309Z" fill="#24BF0F"/>    <path d="M284.049 96.0236C283.791 96.0135 283.563 96.1152 283.546 96.2478C283.526 96.4034 283.502 96.5588 283.473 96.7138C283.448 96.8459 283.639 96.9633 283.899 96.9759C283.914 96.9767 283.929 96.977 283.945 96.977C284.186 96.977 284.391 96.8839 284.415 96.7594C284.445 96.5998 284.47 96.4395 284.491 96.2793C284.508 96.1467 284.31 96.0322 284.049 96.0236Z" fill="#24BF0F"/>    <path d="M284.556 94.9955C284.552 94.8638 284.341 94.7582 284.083 94.7582H284.076C283.815 94.76 283.606 94.8689 283.61 95.0018C283.611 95.0734 283.612 95.1451 283.612 95.2166C283.612 95.3008 283.611 95.3851 283.608 95.4693C283.604 95.6022 283.812 95.7115 284.074 95.7136H284.081C284.339 95.7136 284.55 95.6086 284.554 95.4773C284.557 95.3903 284.559 95.3036 284.559 95.2166C284.558 95.143 284.557 95.0693 284.556 94.9955Z" fill="#24BF0F"/>    <path d="M272.432 106.939C272.192 107.037 271.95 107.132 271.704 107.226C271.496 107.306 271.454 107.457 271.611 107.563C271.704 107.625 271.846 107.659 271.989 107.659C272.088 107.659 272.189 107.643 272.274 107.61C272.526 107.514 272.776 107.415 273.022 107.315C273.226 107.232 273.259 107.081 273.096 106.977C272.934 106.873 272.636 106.857 272.432 106.939Z" fill="#24BF0F"/>    <path d="M279.66 103.197C279.442 103.125 279.149 103.156 279.006 103.268C278.839 103.398 278.668 103.527 278.493 103.655C278.344 103.764 278.396 103.914 278.611 103.99C278.693 104.019 278.787 104.033 278.881 104.033C279.03 104.033 279.178 103.997 279.269 103.93C279.45 103.798 279.626 103.664 279.799 103.53C279.941 103.418 279.879 103.269 279.66 103.197Z" fill="#24BF0F"/>    <path d="M274.286 106.124C274.063 106.23 273.835 106.335 273.606 106.438C273.41 106.526 273.391 106.678 273.564 106.777C273.658 106.831 273.788 106.859 273.919 106.859C274.03 106.859 274.142 106.839 274.232 106.799C274.469 106.692 274.702 106.584 274.933 106.474C275.124 106.384 275.134 106.232 274.955 106.135C274.777 106.038 274.477 106.033 274.286 106.124Z" fill="#24BF0F"/>    <path d="M270.457 107.68C270.203 107.768 269.947 107.853 269.688 107.937C269.468 108.009 269.403 108.157 269.543 108.269C269.633 108.341 269.786 108.38 269.943 108.38C270.03 108.38 270.118 108.368 270.196 108.343C270.464 108.256 270.727 108.168 270.989 108.078C271.205 108.003 271.261 107.854 271.114 107.744C270.967 107.634 270.673 107.606 270.457 107.68Z" fill="#24BF0F"/>    <path d="M276.009 105.237C275.802 105.352 275.593 105.466 275.379 105.578C275.198 105.673 275.202 105.825 275.39 105.918C275.481 105.963 275.6 105.985 275.719 105.985C275.842 105.985 275.966 105.961 276.059 105.912C276.279 105.797 276.495 105.68 276.708 105.561C276.884 105.463 276.871 105.311 276.677 105.222C276.484 105.132 276.186 105.139 276.009 105.237Z" fill="#24BF0F"/>    <path d="M278.25 104.24C278.044 104.159 277.746 104.178 277.587 104.283C277.399 104.406 277.208 104.528 277.013 104.648C276.847 104.751 276.875 104.902 277.077 104.987C277.165 105.023 277.271 105.042 277.377 105.042C277.514 105.042 277.649 105.012 277.743 104.954C277.944 104.83 278.141 104.705 278.334 104.578C278.495 104.473 278.457 104.322 278.25 104.24Z" fill="#24BF0F"/>    <path d="M74.1009 96.7185C74.3611 96.7058 74.5515 96.5885 74.5269 96.4563C74.4979 96.3013 74.4733 96.146 74.4532 95.9904C74.4361 95.8579 74.2176 95.7567 73.9501 95.7662C73.6896 95.7748 73.4919 95.8893 73.5092 96.0218C73.5297 96.1821 73.5553 96.3423 73.5852 96.502C73.6086 96.6264 73.8145 96.7195 74.0555 96.7195C74.0706 96.7195 74.0857 96.7192 74.1009 96.7185Z" fill="#24BF0F"/>    <path d="M78.1933 102.347C78.0403 102.212 77.8915 102.076 77.747 101.939C77.6237 101.822 77.337 101.778 77.1068 101.84C76.8766 101.903 76.7895 102.048 76.9128 102.165C77.0623 102.307 77.2156 102.448 77.3739 102.587C77.4613 102.664 77.6205 102.707 77.7842 102.707C77.8643 102.707 77.9457 102.697 78.0198 102.675C78.2459 102.609 78.3238 102.462 78.1933 102.347Z" fill="#24BF0F"/>    <path d="M74.4777 97.9698C74.7347 97.9464 74.906 97.8215 74.86 97.6908C74.806 97.5374 74.7568 97.3837 74.712 97.2296C74.6739 97.0982 74.4339 97.0072 74.175 97.0268C73.9164 97.0461 73.7379 97.1684 73.776 97.2997C73.8221 97.4586 73.8728 97.6172 73.9287 97.7754C73.9697 97.8917 74.169 97.9735 74.3938 97.9735C74.4216 97.9735 74.4497 97.9723 74.4777 97.9698Z" fill="#24BF0F"/>    <path d="M77.0615 101.243C76.9322 101.102 76.8073 100.96 76.6872 100.817C76.5844 100.695 76.3068 100.638 76.0662 100.69C75.8259 100.742 75.7142 100.884 75.8167 101.006C75.9413 101.154 76.0703 101.301 76.2043 101.447C76.2844 101.534 76.4551 101.585 76.6332 101.585C76.7001 101.585 76.7682 101.578 76.8332 101.563C77.07 101.506 77.1722 101.363 77.0615 101.243Z" fill="#24BF0F"/>    <path d="M75.0569 99.2002C75.3092 99.1658 75.4593 99.0341 75.3918 98.9058C75.3127 98.7553 75.2382 98.6043 75.1685 98.4528C75.1092 98.3233 74.8544 98.2433 74.6002 98.2733C74.3457 98.3036 74.1877 98.4329 74.2473 98.5621C74.3192 98.7187 74.3962 98.8746 74.4775 99.0299C74.534 99.1373 74.7254 99.2083 74.9342 99.2083C74.9749 99.2083 75.0159 99.2057 75.0569 99.2002Z" fill="#24BF0F"/>    <path d="M76.1262 100.093C76.0218 99.9468 75.9222 99.7998 75.8273 99.6518C75.7462 99.5256 75.4788 99.4563 75.2309 99.4977C74.9824 99.5389 74.8468 99.6746 74.9275 99.8008C75.0256 99.9536 75.1287 100.106 75.2366 100.257C75.3066 100.355 75.4879 100.416 75.6812 100.416C75.7348 100.416 75.7894 100.411 75.8427 100.401C76.0884 100.356 76.2152 100.218 76.1262 100.093Z" fill="#24BF0F"/>    <path d="M73.9181 95.4561H73.9257C74.1868 95.454 74.3953 95.3448 74.3915 95.2119C74.389 95.1277 74.3874 95.0433 74.3874 94.9593C74.3874 94.8875 74.3884 94.8158 74.3902 94.7441C74.3937 94.6114 74.1846 94.5023 73.9235 94.5005C73.6718 94.4989 73.4476 94.6051 73.4441 94.7378C73.4422 94.8115 73.4413 94.8851 73.4413 94.959C73.4413 95.0457 73.4425 95.1325 73.4454 95.2193C73.4492 95.351 73.6602 95.4561 73.9181 95.4561Z" fill="#24BF0F"/>    <path d="M75.1473 90.4501C75.1924 90.4569 75.2378 90.4602 75.2826 90.4602C75.4863 90.4602 75.6746 90.3927 75.7358 90.2885C75.8235 90.139 75.9152 89.9902 76.0114 89.8421C76.0931 89.716 75.9581 89.5799 75.7099 89.5385C75.4633 89.4974 75.1946 89.5656 75.1126 89.6916C75.0139 89.844 74.9193 89.9971 74.8291 90.1509C74.7543 90.2784 74.8969 90.4122 75.1473 90.4501Z" fill="#24BF0F"/>    <path d="M73.9465 94.1904C73.9566 94.1907 73.9664 94.1909 73.9762 94.1909C74.224 94.1909 74.4322 94.0928 74.448 93.9654C74.4669 93.8097 74.4902 93.6543 74.518 93.4989C74.5416 93.3667 74.3499 93.2497 74.0897 93.2378C73.8301 93.2256 73.5993 93.3231 73.5759 93.4554C73.5472 93.6152 73.5233 93.7754 73.5037 93.9355C73.4876 94.0681 73.6857 94.1823 73.9465 94.1904Z" fill="#24BF0F"/>    <path d="M74.561 91.6803C74.595 91.6841 74.6288 91.6859 74.6622 91.6859C74.8798 91.6859 75.076 91.609 75.1239 91.4965C75.1892 91.3442 75.2586 91.1922 75.3324 91.0408C75.3951 90.9118 75.2406 90.7816 74.9867 90.7497C74.7329 90.718 74.4765 90.7965 74.414 90.9253C74.338 91.0811 74.2664 91.2375 74.1992 91.3942C74.1437 91.5239 74.3058 91.6521 74.561 91.6803Z" fill="#24BF0F"/>    <path d="M74.159 92.9294C74.1813 92.9311 74.2034 92.9319 74.2252 92.9319C74.4573 92.9319 74.6601 92.8449 74.6929 92.7247C74.7355 92.5703 74.7821 92.416 74.8329 92.2622C74.8764 92.1313 74.7027 92.0073 74.445 91.9853C74.1886 91.9631 73.9432 92.0513 73.9 92.1825C73.8477 92.3407 73.7997 92.4993 73.7559 92.6583C73.72 92.7895 73.9003 92.9109 74.159 92.9294Z" fill="#24BF0F"/>    <path d="M92.6379 108.852C92.3565 108.79 92.0771 108.725 91.7996 108.659C91.5634 108.602 91.2811 108.654 91.1701 108.774C91.0588 108.894 91.16 109.037 91.3965 109.094C91.6826 109.162 91.9702 109.229 92.2597 109.293C92.3212 109.306 92.3852 109.313 92.4486 109.313C92.6312 109.313 92.805 109.259 92.8826 109.168C92.9867 109.047 92.8772 108.905 92.6379 108.852Z" fill="#24BF0F"/>    <path d="M94.9233 109.303C94.6335 109.252 94.3449 109.199 94.0576 109.144C93.8129 109.097 93.5401 109.16 93.448 109.284C93.3556 109.409 93.4792 109.547 93.7236 109.594C94.0195 109.651 94.3172 109.705 94.6161 109.757C94.6669 109.766 94.719 109.77 94.7697 109.77C94.9662 109.77 95.1498 109.708 95.2173 109.608C95.3021 109.482 95.1706 109.346 94.9233 109.303Z" fill="#24BF0F"/>    <path d="M96.8449 109.598C96.6919 109.577 96.5383 109.558 96.386 109.535C96.1343 109.499 95.8729 109.573 95.801 109.701C95.7291 109.828 95.8745 109.961 96.1258 109.998C96.3642 110.032 96.6039 110.064 96.8439 110.096C96.7506 109.934 96.7506 109.759 96.8449 109.598Z" fill="#24BF0F"/>    <path d="M90.4289 108.308C90.1583 108.235 89.8896 108.16 89.6234 108.083C89.3967 108.016 89.1075 108.057 88.9779 108.172C88.8483 108.287 88.9268 108.434 89.1539 108.5C89.4285 108.58 89.7054 108.657 89.9839 108.733C90.0549 108.752 90.1309 108.761 90.2059 108.761C90.3753 108.761 90.539 108.715 90.6238 108.634C90.7468 108.517 90.6594 108.371 90.4289 108.308Z" fill="#24BF0F"/>    <path d="M83.7137 105.866C83.5229 105.775 83.2233 105.78 83.0451 105.877C82.8666 105.974 82.8764 106.126 83.0669 106.217C83.2974 106.327 83.5314 106.435 83.7679 106.541C83.8581 106.582 83.9698 106.601 84.0811 106.601C84.212 106.601 84.3422 106.574 84.4359 106.52C84.6087 106.421 84.5901 106.269 84.3946 106.181C84.1647 106.078 83.9376 105.973 83.7137 105.866Z" fill="#24BF0F"/>    <path d="M80.4124 104.026C80.2525 103.921 79.9554 103.902 79.7488 103.983C79.5422 104.064 79.5044 104.215 79.6643 104.32C79.8576 104.447 80.055 104.573 80.2559 104.696C80.3493 104.754 80.4849 104.784 80.6214 104.784C80.7274 104.784 80.8337 104.766 80.922 104.729C81.1238 104.645 81.1525 104.493 80.9863 104.391C80.7914 104.271 80.6 104.149 80.4124 104.026Z" fill="#24BF0F"/>    <path d="M81.99 104.98C81.814 104.881 81.5147 104.875 81.3217 104.964C81.1287 105.053 81.1148 105.205 81.2908 105.303C81.5037 105.422 81.72 105.539 81.9398 105.654C82.0325 105.703 82.1562 105.728 82.2798 105.728C82.3984 105.728 82.517 105.705 82.6087 105.66C82.7964 105.568 82.8014 105.416 82.6198 105.32C82.4066 105.208 82.1965 105.095 81.99 104.98Z" fill="#24BF0F"/>    <path d="M88.3106 107.68C88.052 107.596 87.7956 107.51 87.5417 107.423C87.3257 107.348 87.0314 107.377 86.8844 107.487C86.7375 107.596 86.7939 107.746 87.01 107.821C87.2714 107.911 87.5351 107.999 87.8012 108.085C87.8801 108.111 87.9681 108.123 88.0554 108.123C88.2115 108.123 88.3642 108.084 88.4547 108.012C88.5953 107.9 88.5307 107.752 88.3106 107.68Z" fill="#24BF0F"/>    <path d="M86.2953 106.969C86.0502 106.875 85.8077 106.78 85.568 106.682C85.364 106.6 85.0663 106.616 84.9032 106.72C84.7402 106.824 84.7733 106.975 84.9773 107.058C85.2239 107.158 85.4734 107.256 85.7254 107.353C85.8109 107.386 85.9108 107.401 86.0099 107.401C86.153 107.401 86.295 107.368 86.388 107.306C86.5454 107.2 86.5037 107.049 86.2953 106.969Z" fill="#24BF0F"/>    <path d="M79.5061 103.398C79.331 103.27 79.1604 103.141 78.9933 103.01C78.8513 102.899 78.5584 102.867 78.3389 102.94C78.1197 103.012 78.0575 103.161 78.1998 103.272C78.372 103.407 78.5486 103.54 78.729 103.672C78.8208 103.739 78.968 103.775 79.1178 103.775C79.2109 103.775 79.3052 103.762 79.3875 103.732C79.6022 103.657 79.6552 103.507 79.5061 103.398Z" fill="#24BF0F"/>    <path d="M129.017 72.4259C128.709 72.4405 128.401 72.4539 128.093 72.4667C127.833 72.4774 127.639 72.5934 127.66 72.7257C127.68 72.8515 127.887 72.9467 128.131 72.9467C128.144 72.9467 128.157 72.9464 128.17 72.946C128.482 72.9332 128.794 72.9195 129.105 72.9047C129.365 72.8923 129.556 72.7753 129.532 72.643C129.508 72.5107 129.274 72.4137 129.017 72.4259Z" fill="#24BF0F"/>    <path d="M126.551 72.5232C126.243 72.533 125.934 72.5421 125.625 72.5501C125.365 72.5568 125.164 72.6698 125.177 72.8024C125.19 72.9308 125.399 73.0305 125.649 73.0305C125.658 73.0305 125.666 73.0304 125.674 73.0302C125.986 73.0221 126.298 73.013 126.611 73.0031C126.871 72.9948 127.07 72.8808 127.053 72.7482C127.037 72.6156 126.811 72.5144 126.551 72.5232Z" fill="#24BF0F"/>    <path d="M131.477 72.2919C131.169 72.3109 130.862 72.3291 130.555 72.3464C130.295 72.361 130.108 72.4799 130.137 72.6119C130.164 72.7348 130.369 72.8258 130.607 72.8258C130.624 72.8258 130.642 72.8254 130.659 72.8243C130.97 72.8068 131.281 72.7885 131.591 72.7692C131.85 72.7531 132.035 72.6333 132.003 72.5015C131.972 72.3698 131.734 72.2749 131.477 72.2919Z" fill="#24BF0F"/>    <path d="M136.367 71.9137C136.063 71.9418 135.758 71.9693 135.454 71.9958C135.196 72.0182 135.023 72.1425 135.067 72.2733C135.107 72.3905 135.307 72.4731 135.533 72.4731C135.56 72.4731 135.586 72.472 135.614 72.4696C135.922 72.4428 136.229 72.4151 136.537 72.3866C136.794 72.3628 136.964 72.2376 136.918 72.107C136.871 71.9765 136.623 71.8899 136.367 71.9137Z" fill="#24BF0F"/>    <path d="M133.927 72.121C133.621 72.1446 133.315 72.1675 133.009 72.1894C132.75 72.2079 132.57 72.3295 132.607 72.461C132.64 72.5811 132.843 72.6678 133.074 72.6678C133.096 72.6678 133.119 72.6671 133.141 72.6654C133.45 72.6431 133.76 72.6202 134.069 72.5963C134.327 72.5762 134.505 72.4538 134.465 72.3224C134.426 72.1912 134.186 72.1006 133.927 72.121Z" fill="#24BF0F"/>    <path d="M124.081 72.5827C123.772 72.5878 123.463 72.592 123.154 72.5955C122.892 72.5983 122.686 72.7082 122.691 72.8409C122.696 72.972 122.907 73.0762 123.164 73.0762C123.167 73.0762 123.17 73.0762 123.174 73.0761C123.486 73.0728 123.799 73.0684 124.111 73.0631C124.372 73.0587 124.577 72.9477 124.569 72.815C124.56 72.6824 124.335 72.5756 124.081 72.5827Z" fill="#24BF0F"/>    <path d="M121.61 72.6051H121.609L121.39 72.6052C121.153 72.6046 120.918 72.6048 120.681 72.6037H120.677C120.418 72.6037 120.206 72.7099 120.204 72.842C120.202 72.9749 120.412 73.0834 120.673 73.0844C120.897 73.0853 121.121 73.0859 121.345 73.0859H121.39L121.611 73.0858C121.872 73.0855 122.084 72.9776 122.083 72.8449C122.083 72.7123 121.871 72.6051 121.61 72.6051Z" fill="#24BF0F"/>    <path d="M138.792 71.6696C138.49 71.7024 138.188 71.7343 137.884 71.7654C137.628 71.7916 137.462 71.9184 137.514 72.0485C137.559 72.1625 137.757 72.2414 137.977 72.2414C138.008 72.2414 138.04 72.2399 138.071 72.2366C138.378 72.2053 138.684 72.173 138.99 72.1398C139.246 72.112 139.409 71.9843 139.354 71.8544C139.3 71.7245 139.047 71.642 138.792 71.6696Z" fill="#24BF0F"/>    <path d="M119.136 72.5893C118.827 72.5849 118.518 72.5798 118.21 72.5736C117.945 72.5726 117.729 72.672 117.718 72.8046C117.708 72.9373 117.912 73.0489 118.173 73.0541C118.485 73.0602 118.798 73.0655 119.111 73.0699C119.115 73.07 119.119 73.07 119.124 73.07C119.379 73.07 119.59 72.9667 119.597 72.8362C119.603 72.7035 119.398 72.5929 119.136 72.5893Z" fill="#24BF0F"/>    <path d="M116.665 72.5357C116.575 72.5332 116.485 72.5298 116.396 72.527C116.265 72.7246 115.98 72.8776 115.612 72.9802C115.633 72.9823 115.653 72.9848 115.674 72.9856C115.986 72.9966 116.298 73.0067 116.611 73.0159C116.62 73.0162 116.629 73.0163 116.638 73.0163C116.887 73.0163 117.095 72.9175 117.11 72.7897C117.125 72.657 116.926 72.5434 116.665 72.5357Z" fill="#24BF0F"/>    <path d="M141.204 71.3892C140.904 71.4266 140.603 71.4629 140.302 71.4986C140.048 71.5287 139.889 71.6578 139.948 71.7871C139.999 71.8981 140.194 71.9732 140.409 71.9732C140.444 71.9732 140.48 71.9711 140.516 71.9668C140.821 71.931 141.125 71.8941 141.429 71.8563C141.683 71.8248 141.838 71.6946 141.776 71.5656C141.714 71.4367 141.458 71.3574 141.204 71.3892Z" fill="#24BF0F"/>    <path d="M152.74 69.4959C152.526 69.5401 152.312 69.5843 152.097 69.6276C151.854 69.6764 151.735 69.8161 151.831 69.9396C151.905 70.0339 152.083 70.0916 152.271 70.0916C152.329 70.0916 152.388 70.0862 152.445 70.0746C152.736 70.0161 153.026 69.9568 153.316 69.8965C153.366 69.886 153.41 69.8706 153.449 69.8531C153.157 69.7675 152.901 69.6431 152.74 69.4959Z" fill="#24BF0F"/>    <path d="M145.972 70.7209C145.676 70.7671 145.381 70.8125 145.084 70.8571C144.833 70.8947 144.691 71.0285 144.764 71.1558C144.825 71.2604 145.014 71.328 145.218 71.328C145.262 71.328 145.307 71.3249 145.352 71.3181C145.652 71.273 145.951 71.2271 146.25 71.1804C146.5 71.1414 146.64 71.0068 146.563 70.8798C146.487 70.7531 146.222 70.6819 145.972 70.7209Z" fill="#24BF0F"/>    <path d="M143.597 71.073C143.299 71.1147 143.001 71.1557 142.702 71.1958C142.449 71.2295 142.298 71.3612 142.365 71.4896C142.421 71.5975 142.613 71.6687 142.822 71.6687C142.862 71.6687 142.903 71.6661 142.943 71.6607C143.246 71.6202 143.548 71.5788 143.849 71.5366C144.101 71.5013 144.249 71.3689 144.179 71.2408C144.109 71.1128 143.848 71.0375 143.597 71.073Z" fill="#24BF0F"/>    <path d="M148.325 70.3333C148.033 70.3839 147.74 70.4338 147.446 70.4829C147.197 70.5244 147.062 70.6602 147.144 70.7863C147.209 70.8876 147.394 70.9519 147.593 70.9519C147.642 70.9519 147.692 70.948 147.741 70.9399C148.038 70.8903 148.335 70.8398 148.63 70.7886C148.878 70.7458 149.01 70.6092 148.926 70.4835C148.842 70.3577 148.574 70.2905 148.325 70.3333Z" fill="#24BF0F"/>    <path d="M150.654 69.9102C150.365 69.9653 150.075 70.0196 149.784 70.0729C149.538 70.1181 149.411 70.2559 149.5 70.3807C149.57 70.4785 149.751 70.5393 149.945 70.5393C149.998 70.5393 150.053 70.5346 150.106 70.5249C150.4 70.4708 150.693 70.4159 150.986 70.36C151.231 70.3135 151.355 70.1749 151.263 70.0506C151.172 69.9266 150.899 69.8633 150.654 69.9102Z" fill="#24BF0F"/>    <path d="M213.308 70.1737C213.02 70.1015 212.732 70.0286 212.446 69.9548C212.207 69.8933 211.928 69.9546 211.82 70.0916C211.714 70.2284 211.82 70.389 212.059 70.4503C212.349 70.5249 212.639 70.5985 212.93 70.6715C212.992 70.6868 213.056 70.6942 213.119 70.6942C213.302 70.6942 213.475 70.6332 213.553 70.531C213.657 70.3935 213.547 70.2335 213.308 70.1737Z" fill="#24BF0F"/>    <path d="M217.969 71.2606C217.675 71.197 217.382 71.1325 217.088 71.0673C216.845 71.0126 216.57 71.0824 216.476 71.2223C216.382 71.3621 216.503 71.5194 216.746 71.5735C217.042 71.6395 217.339 71.7046 217.636 71.7687C217.691 71.7806 217.747 71.7862 217.802 71.7862C217.993 71.7862 218.174 71.7192 218.245 71.6104C218.337 71.4701 218.214 71.3135 217.969 71.2606Z" fill="#24BF0F"/>    <path d="M211.016 69.5792C210.731 69.503 210.447 69.4257 210.164 69.3477C209.929 69.2832 209.645 69.3398 209.533 69.4751C209.42 69.6104 209.519 69.7725 209.755 69.8373C210.041 69.9161 210.328 69.9941 210.616 70.0713C210.681 70.0886 210.749 70.0969 210.815 70.0969C210.994 70.0969 211.164 70.0389 211.244 69.94C211.355 69.8043 211.253 69.6426 211.016 69.5792Z" fill="#24BF0F"/>    <path d="M225.127 72.6326C224.825 72.582 224.523 72.5305 224.223 72.4783C223.973 72.4352 223.709 72.5158 223.633 72.6596C223.557 72.8031 223.698 72.9546 223.949 72.9979C224.253 73.0507 224.557 73.1027 224.861 73.1539C224.906 73.1613 224.95 73.1649 224.994 73.1649C225.199 73.1649 225.388 73.088 225.448 72.9695C225.521 72.8256 225.377 72.6748 225.127 72.6326Z" fill="#24BF0F"/>    <path d="M220.334 71.7522C220.037 71.693 219.74 71.6327 219.445 71.5718C219.197 71.5208 218.927 71.5947 218.839 71.7358C218.751 71.8769 218.879 72.0324 219.125 72.083C219.424 72.1445 219.723 72.2053 220.023 72.2652C220.074 72.2754 220.127 72.2802 220.179 72.2802C220.374 72.2802 220.557 72.21 220.625 72.0978C220.711 71.9563 220.581 71.8016 220.334 71.7522Z" fill="#24BF0F"/>    <path d="M215.626 70.734C215.335 70.6661 215.044 70.5972 214.753 70.5278C214.513 70.4702 214.235 70.5354 214.135 70.6737C214.034 70.8122 214.148 70.9711 214.39 71.0288C214.683 71.099 214.976 71.1683 215.27 71.237C215.328 71.2506 215.389 71.2571 215.448 71.2571C215.635 71.2571 215.811 71.1932 215.886 71.0877C215.984 70.949 215.868 70.7907 215.626 70.734Z" fill="#24BF0F"/>    <path d="M208.751 68.9514C208.47 68.8706 208.189 68.7894 207.909 68.7071C207.677 68.639 207.392 68.6916 207.273 68.8253C207.154 68.9587 207.246 69.1224 207.479 69.1906C207.761 69.2735 208.044 69.3557 208.329 69.4371C208.396 69.4565 208.468 69.4659 208.54 69.4659C208.713 69.4659 208.88 69.4109 208.963 69.3156C209.08 69.1814 208.985 69.0184 208.751 68.9514Z" fill="#24BF0F"/>    <path d="M206.514 68.2899C206.236 68.205 205.96 68.1195 205.683 68.0331C205.455 67.9614 205.167 68.0099 205.042 68.1418C204.917 68.2734 205.002 68.4384 205.231 68.5101C205.51 68.5972 205.789 68.6837 206.07 68.7692C206.14 68.7909 206.216 68.8012 206.291 68.8012C206.46 68.8012 206.624 68.7489 206.709 68.6572C206.832 68.5247 206.744 68.3604 206.514 68.2899Z" fill="#24BF0F"/>    <path d="M222.721 72.2095C222.421 72.1547 222.122 72.0989 221.824 72.0421C221.575 71.995 221.308 72.0724 221.226 72.2148C221.144 72.3572 221.278 72.5107 221.527 72.5578C221.828 72.6151 222.13 72.6714 222.433 72.7269C222.481 72.7356 222.529 72.7398 222.577 72.7398C222.777 72.7398 222.963 72.6662 223.027 72.5508C223.107 72.4079 222.97 72.2552 222.721 72.2095Z" fill="#24BF0F"/>    <path d="M237.392 74.2167C237.081 74.1884 236.771 74.159 236.461 74.129C236.201 74.104 235.959 74.2036 235.915 74.3515C235.872 74.4995 236.046 74.6395 236.303 74.6645C236.616 74.6949 236.929 74.7244 237.243 74.7532C237.268 74.7555 237.293 74.7565 237.318 74.7565C237.547 74.7565 237.747 74.6613 237.785 74.5278C237.825 74.3796 237.65 74.2404 237.392 74.2167Z" fill="#24BF0F"/>    <path d="M234.913 73.971C234.603 73.9382 234.294 73.9044 233.985 73.8698C233.731 73.8415 233.481 73.937 233.43 74.0843C233.38 74.2315 233.548 74.374 233.804 74.4028C234.116 74.4378 234.428 74.4718 234.74 74.5051C234.769 74.5083 234.798 74.5098 234.826 74.5098C235.05 74.5098 235.249 74.4183 235.291 74.2877C235.339 74.1401 235.169 73.9984 234.913 73.971Z" fill="#24BF0F"/>    <path d="M232.444 73.6896C232.137 73.6521 231.829 73.6138 231.522 73.5748C231.266 73.5417 231.014 73.6348 230.958 73.7811C230.901 73.9275 231.062 74.0724 231.318 74.105C231.627 74.1444 231.938 74.183 232.248 74.2208C232.281 74.2249 232.314 74.2269 232.347 74.2269C232.565 74.2269 232.762 74.1393 232.809 74.0116C232.863 73.865 232.7 73.7208 232.444 73.6896Z" fill="#24BF0F"/>    <path d="M229.99 73.3728C229.684 73.3309 229.378 73.2883 229.073 73.2448C228.819 73.2084 228.563 73.2973 228.5 73.4427C228.437 73.5882 228.591 73.7356 228.845 73.7717C229.153 73.8157 229.462 73.8588 229.771 73.901C229.808 73.906 229.844 73.9085 229.881 73.9085C230.095 73.9085 230.289 73.8246 230.341 73.7C230.401 73.5541 230.244 73.4075 229.99 73.3728Z" fill="#24BF0F"/>    <path d="M227.55 73.0202C227.245 72.9739 226.942 72.9268 226.639 72.8789C226.386 72.8391 226.126 72.9239 226.057 73.0686C225.987 73.2132 226.135 73.3626 226.387 73.4026C226.694 73.4509 227 73.4985 227.307 73.5451C227.348 73.5513 227.389 73.5543 227.429 73.5543C227.638 73.5543 227.829 73.4738 227.886 73.3522C227.952 73.2073 227.802 73.0586 227.55 73.0202Z" fill="#24BF0F"/>    <path d="M239.207 74.3724C239.121 74.3655 239.034 74.3589 238.947 74.3518C238.69 74.3305 238.449 74.4336 238.412 74.5821C238.375 74.7305 238.554 74.8681 238.813 74.8893C239.048 74.9088 239.285 74.9271 239.521 74.9455C239.285 74.7836 239.181 74.5753 239.207 74.3724Z" fill="#24BF0F"/>    <path d="M257.278 107.631C268.477 107.631 277.556 99.4308 277.556 89.3154C277.556 79.2 268.477 70.9999 257.278 70.9999C246.079 70.9999 237 79.2 237 89.3154C237 99.4308 246.079 107.631 257.278 107.631Z" fill="#B3E028"/>    <path d="M260.85 88.6978C260.85 88.6978 260.352 88.4597 260.352 87.5407C260.352 86.7793 260.352 83.8313 260.352 82.8492C260.678 82.6785 260.839 82.4654 260.883 82.2327H261.003V80.1757H260.883C260.887 80.1513 260.893 80.127 260.893 80.1019C260.893 79.4936 259.474 79 257.721 79C255.97 79 254.55 79.4936 254.55 80.1019C254.55 80.1268 254.555 80.1513 254.561 80.1757H254.496V82.2327H254.561C254.606 82.4776 254.822 82.7002 255.472 82.8756C255.472 83.8836 255.472 86.7858 255.472 87.5407C255.472 88.4597 254.783 88.6978 254.783 88.6978C253.604 89.3224 246.772 95.5303 249.741 97.4041C252.402 99.0827 256.87 99.021 257.772 98.9899C258.664 99.0208 263.127 99.0825 265.789 97.4041C268.757 95.5303 262.029 89.3226 260.85 88.6978ZM260.678 97.4772C260.678 97.4772 264.053 96.8894 264.216 95.2735C264.378 93.6572 261.166 90.6079 261.166 90.6079C261.166 90.6079 265.355 93.5101 265.314 95.4933C265.273 97.4772 260.678 97.4772 260.678 97.4772Z" fill="white"/>    <path d="M96.2089 105.76C106.727 105.76 115.253 97.8007 115.253 87.9828C115.253 78.1649 106.727 70.2059 96.2089 70.2059C85.6912 70.2059 77.1649 78.1649 77.1649 87.9828C77.1649 97.8007 85.6912 105.76 96.2089 105.76Z" fill="#03AEC6"/>    <path d="M96.1914 81.451C95.1253 80.488 93.7271 80 92.0315 80C89.1172 80 86.3499 81.4453 86.2336 81.5069L86 81.6304V95.6039L86.6747 95.2724C88.3476 94.4506 89.9546 94.034 91.4516 94.034C94.0356 94.034 95.4406 95.2993 95.4624 95.3194L95.5977 95.4469L106 95.3681V81.451H96.1914ZM91.4519 93.1741C90.0101 93.1741 88.4892 93.5185 86.9212 94.1993V82.1399C87.6272 81.806 89.8238 80.8593 92.0315 80.8593C93.4739 80.8593 94.6508 81.2685 95.54 82.0665V94.2853C94.8236 93.8297 93.4484 93.1741 91.4519 93.1741ZM105.079 94.5151L96.4609 94.5804V82.3106H105.079V94.5151Z" fill="white"/>    <defs>        <filter id="filter0_dd_13_84" x="141" y="0" width="76" height="76" filterUnits="userSpaceOnUse" color-interpolation-filters="sRGB">            <feFlood flood-opacity="0" result="BackgroundImageFix"/>            <feColorMatrix in="SourceAlpha" type="matrix" values="0 0 0 0 0 0 0 0 0 0 0 0 0 0 0 0 0 0 127 0" result="hardAlpha"/>            <feOffset dx="4" dy="4"/>            <feGaussianBlur stdDeviation="2"/>            <feComposite in2="hardAlpha" operator="out"/>            <feColorMatrix type="matrix" values="0 0 0 0 0.701961 0 0 0 0 0.878431 0 0 0 0 0.156863 0 0 0 1 0"/>            <feBlend mode="normal" in2="BackgroundImageFix" result="effect1_dropShadow_13_84"/>            <feColorMatrix in="SourceAlpha" type="matrix" values="0 0 0 0 0 0 0 0 0 0 0 0 0 0 0 0 0 0 127 0" result="hardAlpha"/>            <feOffset dx="-4" dy="-4"/>            <feGaussianBlur stdDeviation="2"/>            <feComposite in2="hardAlpha" operator="out"/>            <feColorMatrix type="matrix" values="0 0 0 0 0.701961 0 0 0 0 0.878431 0 0 0 0 0.156863 0 0 0 1 0"/>            <feBlend mode="normal" in2="effect1_dropShadow_13_84" result="effect2_dropShadow_13_84"/>            <feBlend mode="normal" in="SourceGraphic" in2="effect2_dropShadow_13_84" result="shape"/>        </filter>    </defs></svg>