<svg width="137" height="136" viewBox="0 0 137 136" fill="none" xmlns="http://www.w3.org/2000/svg">
<g filter="url(#filter0_dd_105_1871)">
<rect x="8.5" y="8" width="120" height="120" rx="60" fill="#03AEC6" shape-rendering="crispEdges"/>
<rect x="10" y="9.5" width="117" height="117" rx="58.5" stroke="#004E44" stroke-width="3" shape-rendering="crispEdges"/>
<mask id="path-3-outside-1_105_1871" maskUnits="userSpaceOnUse" x="49.5" y="41.5" width="37" height="46" fill="black">
<rect fill="white" x="49.5" y="41.5" width="37" height="46"/>
<path d="M80.794 64.118C83.7287 66.3913 85.2787 68.3753 85.444 70.07C85.4853 70.69 85.1753 71.31 84.514 71.93C83.8527 72.5087 83.0673 73.1493 82.158 73.852C81.29 74.5133 80.6907 75.1127 80.36 75.65C80.1947 75.9393 79.9053 76.4973 79.492 77.324C79.0787 78.1507 78.686 78.8327 78.314 79.37C77.9833 79.866 77.5287 80.3207 76.95 80.734C76.826 80.858 76.144 81.5193 74.904 82.718C73.7053 83.8753 72.672 84.5987 71.804 84.888C70.6467 85.3013 68.4353 85.5493 65.17 85.632C62.5247 85.7147 60.334 85.5287 58.598 85.074C56.738 84.6193 54.6713 83.8133 52.398 82.656C51.1167 81.044 50.6827 79.928 51.096 79.308C51.5507 78.564 52.77 78.13 54.754 78.006C55.4153 77.9647 56.5107 78.068 58.04 78.316C59.6107 78.5227 60.6853 78.6467 61.264 78.688C61.884 78.7293 62.8967 78.874 64.302 79.122C65.7487 79.3287 66.844 79.4527 67.588 79.494C69.9027 79.618 72.0313 79.556 73.974 79.308C74.1807 79.2667 74.4907 79.2253 74.904 79.184C75.3173 79.1427 75.6273 79.1013 75.834 79.06C76.0407 79.0187 76.33 78.9773 76.702 78.936C77.074 78.8947 77.3633 78.8533 77.57 78.812C77.7767 78.7293 78.0247 78.6467 78.314 78.564C78.6033 78.4813 78.81 78.378 78.934 78.254C79.0993 78.13 79.244 78.006 79.368 77.882C79.5333 77.7167 79.6573 77.5513 79.74 77.386C79.8227 77.1793 79.864 76.9727 79.864 76.766C81.476 74.782 81.8067 72.7567 80.856 70.69C80.236 69.326 78.3967 68.458 75.338 68.086C74.6353 68.0033 72.5893 68.0033 69.2 68.086C67.0507 68.1273 65.3973 67.6933 64.24 66.784C64.1987 66.7427 63.8887 66.8047 63.31 66.97C62.7313 67.1353 62.132 67.28 61.512 67.404C60.892 67.4867 60.2513 67.404 59.59 67.156C59.1767 66.9907 58.722 66.412 58.226 65.42C57.7713 64.3867 57.4407 63.746 57.234 63.498C56.5313 62.63 56.1593 61.4107 56.118 59.84C56.118 59.4267 56.0353 59.034 55.87 58.662C55.746 58.2487 55.5187 57.794 55.188 57.298C54.8987 56.7607 54.7127 56.43 54.63 56.306C54.5887 56.182 54.444 55.8927 54.196 55.438C53.9893 54.9833 53.8447 54.694 53.762 54.57C53.7207 54.4047 53.5967 54.1153 53.39 53.702C53.2247 53.2887 53.1213 52.9993 53.08 52.834C53.0387 52.6687 52.956 52.4207 52.832 52.09C52.7493 51.718 52.708 51.4287 52.708 51.222C52.708 51.0153 52.708 50.7673 52.708 50.478C52.7493 50.1887 52.8113 49.8993 52.894 49.61C53.39 47.7913 53.8447 46.5307 54.258 45.828C54.8367 44.7947 55.9527 43.968 57.606 43.348C57.8127 43.348 58.2673 43.72 58.97 44.464C59.6727 45.1667 60.2927 45.6007 60.83 45.766C61.2433 45.89 61.9047 45.766 62.814 45.394C63.7233 45.022 64.364 44.8153 64.736 44.774C64.984 44.774 65.9347 44.712 67.588 44.588C69.2413 44.464 70.5227 44.3813 71.432 44.34C72.176 44.34 72.92 44.3813 73.664 44.464C74.408 44.5053 75.2553 44.6087 76.206 44.774C77.198 44.898 77.8387 44.9807 78.128 45.022C78.5 45.0633 78.9547 45.1047 79.492 45.146C80.0293 45.1873 80.4013 45.2287 80.608 45.27C80.8147 45.3113 81.0627 45.3733 81.352 45.456C81.6413 45.4973 81.848 45.58 81.972 45.704C82.096 45.7867 82.1993 45.9107 82.282 46.076C82.406 46.2413 82.5093 46.448 82.592 46.696C82.22 47.0267 81.7033 47.7293 81.042 48.804C80.422 49.8787 79.74 50.54 78.996 50.788C78.5 50.9533 77.9007 51.0567 77.198 51.098C76.5367 51.1393 75.7927 51.16 74.966 51.16C74.1393 51.16 73.478 51.1807 72.982 51.222C72.3207 51.2633 71.3287 51.098 70.006 50.726C68.6833 50.354 67.7327 50.1473 67.154 50.106C66.534 50.106 65.604 50.292 64.364 50.664C63.1653 51.036 62.2353 51.1807 61.574 51.098C61.5327 51.7593 61.5947 52.6687 61.76 53.826C61.9253 54.9833 62.008 55.872 62.008 56.492C61.9667 57.0707 61.9047 57.8353 61.822 58.786C61.7807 59.7367 61.76 60.5427 61.76 61.204C62.628 61.08 63.7027 61.1833 64.984 61.514C66.2653 61.8033 67.1747 61.9273 67.712 61.886C68.2907 61.886 68.9107 61.9273 69.572 62.01C70.2747 62.0513 70.7913 62.1133 71.122 62.196C71.4527 62.2373 72.0107 62.3407 72.796 62.506C73.6227 62.6713 74.0773 62.754 74.16 62.754C74.78 62.878 75.586 62.9813 76.578 63.064C77.6113 63.1467 78.4587 63.2707 79.12 63.436C79.7813 63.56 80.3393 63.7873 80.794 64.118Z"/>
</mask>
<path d="M80.794 64.118C83.7287 66.3913 85.2787 68.3753 85.444 70.07C85.4853 70.69 85.1753 71.31 84.514 71.93C83.8527 72.5087 83.0673 73.1493 82.158 73.852C81.29 74.5133 80.6907 75.1127 80.36 75.65C80.1947 75.9393 79.9053 76.4973 79.492 77.324C79.0787 78.1507 78.686 78.8327 78.314 79.37C77.9833 79.866 77.5287 80.3207 76.95 80.734C76.826 80.858 76.144 81.5193 74.904 82.718C73.7053 83.8753 72.672 84.5987 71.804 84.888C70.6467 85.3013 68.4353 85.5493 65.17 85.632C62.5247 85.7147 60.334 85.5287 58.598 85.074C56.738 84.6193 54.6713 83.8133 52.398 82.656C51.1167 81.044 50.6827 79.928 51.096 79.308C51.5507 78.564 52.77 78.13 54.754 78.006C55.4153 77.9647 56.5107 78.068 58.04 78.316C59.6107 78.5227 60.6853 78.6467 61.264 78.688C61.884 78.7293 62.8967 78.874 64.302 79.122C65.7487 79.3287 66.844 79.4527 67.588 79.494C69.9027 79.618 72.0313 79.556 73.974 79.308C74.1807 79.2667 74.4907 79.2253 74.904 79.184C75.3173 79.1427 75.6273 79.1013 75.834 79.06C76.0407 79.0187 76.33 78.9773 76.702 78.936C77.074 78.8947 77.3633 78.8533 77.57 78.812C77.7767 78.7293 78.0247 78.6467 78.314 78.564C78.6033 78.4813 78.81 78.378 78.934 78.254C79.0993 78.13 79.244 78.006 79.368 77.882C79.5333 77.7167 79.6573 77.5513 79.74 77.386C79.8227 77.1793 79.864 76.9727 79.864 76.766C81.476 74.782 81.8067 72.7567 80.856 70.69C80.236 69.326 78.3967 68.458 75.338 68.086C74.6353 68.0033 72.5893 68.0033 69.2 68.086C67.0507 68.1273 65.3973 67.6933 64.24 66.784C64.1987 66.7427 63.8887 66.8047 63.31 66.97C62.7313 67.1353 62.132 67.28 61.512 67.404C60.892 67.4867 60.2513 67.404 59.59 67.156C59.1767 66.9907 58.722 66.412 58.226 65.42C57.7713 64.3867 57.4407 63.746 57.234 63.498C56.5313 62.63 56.1593 61.4107 56.118 59.84C56.118 59.4267 56.0353 59.034 55.87 58.662C55.746 58.2487 55.5187 57.794 55.188 57.298C54.8987 56.7607 54.7127 56.43 54.63 56.306C54.5887 56.182 54.444 55.8927 54.196 55.438C53.9893 54.9833 53.8447 54.694 53.762 54.57C53.7207 54.4047 53.5967 54.1153 53.39 53.702C53.2247 53.2887 53.1213 52.9993 53.08 52.834C53.0387 52.6687 52.956 52.4207 52.832 52.09C52.7493 51.718 52.708 51.4287 52.708 51.222C52.708 51.0153 52.708 50.7673 52.708 50.478C52.7493 50.1887 52.8113 49.8993 52.894 49.61C53.39 47.7913 53.8447 46.5307 54.258 45.828C54.8367 44.7947 55.9527 43.968 57.606 43.348C57.8127 43.348 58.2673 43.72 58.97 44.464C59.6727 45.1667 60.2927 45.6007 60.83 45.766C61.2433 45.89 61.9047 45.766 62.814 45.394C63.7233 45.022 64.364 44.8153 64.736 44.774C64.984 44.774 65.9347 44.712 67.588 44.588C69.2413 44.464 70.5227 44.3813 71.432 44.34C72.176 44.34 72.92 44.3813 73.664 44.464C74.408 44.5053 75.2553 44.6087 76.206 44.774C77.198 44.898 77.8387 44.9807 78.128 45.022C78.5 45.0633 78.9547 45.1047 79.492 45.146C80.0293 45.1873 80.4013 45.2287 80.608 45.27C80.8147 45.3113 81.0627 45.3733 81.352 45.456C81.6413 45.4973 81.848 45.58 81.972 45.704C82.096 45.7867 82.1993 45.9107 82.282 46.076C82.406 46.2413 82.5093 46.448 82.592 46.696C82.22 47.0267 81.7033 47.7293 81.042 48.804C80.422 49.8787 79.74 50.54 78.996 50.788C78.5 50.9533 77.9007 51.0567 77.198 51.098C76.5367 51.1393 75.7927 51.16 74.966 51.16C74.1393 51.16 73.478 51.1807 72.982 51.222C72.3207 51.2633 71.3287 51.098 70.006 50.726C68.6833 50.354 67.7327 50.1473 67.154 50.106C66.534 50.106 65.604 50.292 64.364 50.664C63.1653 51.036 62.2353 51.1807 61.574 51.098C61.5327 51.7593 61.5947 52.6687 61.76 53.826C61.9253 54.9833 62.008 55.872 62.008 56.492C61.9667 57.0707 61.9047 57.8353 61.822 58.786C61.7807 59.7367 61.76 60.5427 61.76 61.204C62.628 61.08 63.7027 61.1833 64.984 61.514C66.2653 61.8033 67.1747 61.9273 67.712 61.886C68.2907 61.886 68.9107 61.9273 69.572 62.01C70.2747 62.0513 70.7913 62.1133 71.122 62.196C71.4527 62.2373 72.0107 62.3407 72.796 62.506C73.6227 62.6713 74.0773 62.754 74.16 62.754C74.78 62.878 75.586 62.9813 76.578 63.064C77.6113 63.1467 78.4587 63.2707 79.12 63.436C79.7813 63.56 80.3393 63.7873 80.794 64.118Z" fill="#B3E028"/>
<path d="M80.794 64.118L81.4064 63.3274L81.3944 63.3182L81.3822 63.3093L80.794 64.118ZM85.444 70.07L86.4418 70.0035L86.4408 69.9882L86.4393 69.9729L85.444 70.07ZM84.514 71.93L85.1725 72.6826L85.1854 72.6713L85.1979 72.6595L84.514 71.93ZM82.158 73.852L82.7641 74.6474L82.7694 74.6433L82.158 73.852ZM80.36 75.65L79.5083 75.1259L79.4998 75.1397L79.4918 75.1539L80.36 75.65ZM79.492 77.324L80.3864 77.7712L79.492 77.324ZM78.314 79.37L77.4918 78.8008L77.4868 78.808L77.482 78.8153L78.314 79.37ZM76.95 80.734L76.3688 79.9203L76.3014 79.9684L76.2429 80.0269L76.95 80.734ZM74.904 82.718L75.5986 83.4374L75.599 83.437L74.904 82.718ZM71.804 84.888L71.4878 83.9393L71.4777 83.9427L71.4677 83.9463L71.804 84.888ZM65.17 85.632L65.1447 84.6323L65.1388 84.6325L65.17 85.632ZM58.598 85.074L58.8514 84.1066L58.8434 84.1045L58.8355 84.1026L58.598 85.074ZM52.398 82.656L51.6152 83.2782L51.7505 83.4485L51.9443 83.5472L52.398 82.656ZM51.096 79.308L51.9281 79.8627L51.939 79.8463L51.9493 79.8294L51.096 79.308ZM54.754 78.006L54.8164 79.0041L54.754 78.006ZM58.04 78.316L57.8799 79.3031L57.8947 79.3055L57.9095 79.3075L58.04 78.316ZM61.264 78.688L61.1928 79.6855L61.1975 79.6858L61.264 78.688ZM64.302 79.122L64.1282 80.1068L64.1444 80.1096L64.1606 80.1119L64.302 79.122ZM67.588 79.494L67.5325 80.4925L67.5345 80.4926L67.588 79.494ZM73.974 79.308L74.1006 80.2999L74.1356 80.2955L74.1701 80.2886L73.974 79.308ZM74.904 79.184L74.8045 78.189L74.904 79.184ZM76.702 78.936L76.5916 77.9421L76.702 78.936ZM77.57 78.812L77.7661 79.7926L77.8561 79.7746L77.9414 79.7405L77.57 78.812ZM78.934 78.254L78.334 77.454L78.2771 77.4966L78.2269 77.5469L78.934 78.254ZM79.368 77.882L78.6609 77.1749L78.6609 77.1749L79.368 77.882ZM79.74 77.386L80.6344 77.8332L80.653 77.796L80.6685 77.7574L79.74 77.386ZM79.864 76.766L79.0879 76.1354L78.864 76.411V76.766H79.864ZM80.856 70.69L79.9456 71.1038L79.9475 71.1079L80.856 70.69ZM75.338 68.086L75.4587 67.0933L75.4548 67.0928L75.338 68.086ZM69.2 68.086L69.2192 69.0858L69.2244 69.0857L69.2 68.086ZM64.24 66.784L63.5329 67.4911L63.5752 67.5334L63.6222 67.5703L64.24 66.784ZM63.31 66.97L63.0353 66.0085H63.0353L63.31 66.97ZM61.512 67.404L61.6442 68.3952L61.6763 68.3909L61.7081 68.3846L61.512 67.404ZM59.59 67.156L59.2186 68.0845L59.2287 68.0885L59.2389 68.0923L59.59 67.156ZM58.226 65.42L57.3107 65.8227L57.3206 65.8452L57.3316 65.8672L58.226 65.42ZM57.234 63.498L56.4568 64.1272L56.4612 64.1327L56.4658 64.1382L57.234 63.498ZM56.118 59.84H55.118V59.8532L55.1183 59.8663L56.118 59.84ZM55.87 58.662L54.9122 58.9493L54.9304 59.0101L54.9562 59.0681L55.87 58.662ZM55.188 57.298L54.3075 57.7721L54.3298 57.8135L54.3559 57.8527L55.188 57.298ZM54.63 56.306L53.6813 56.6222L53.7237 56.7493L53.798 56.8607L54.63 56.306ZM54.196 55.438L53.2856 55.8518L53.3007 55.8849L53.3181 55.9168L54.196 55.438ZM53.762 54.57L52.7919 54.8125L52.8339 54.9806L52.9299 55.1247L53.762 54.57ZM53.39 53.702L52.4615 54.0734L52.477 54.112L52.4956 54.1492L53.39 53.702ZM52.832 52.09L51.8558 52.3069L51.871 52.3754L51.8957 52.4411L52.832 52.09ZM52.708 50.478L51.7181 50.3366L51.708 50.4069V50.478H52.708ZM52.894 49.61L53.8556 49.8847L53.8588 49.8731L52.894 49.61ZM54.258 45.828L55.1199 46.335L55.1253 46.3259L55.1305 46.3166L54.258 45.828ZM57.606 43.348V42.348H57.4247L57.2549 42.4117L57.606 43.348ZM58.97 44.464L58.243 45.1506L58.2528 45.161L58.2629 45.1711L58.97 44.464ZM60.83 45.766L60.5359 46.7218L60.5427 46.7238L60.83 45.766ZM62.814 45.394L62.4354 44.4685L62.814 45.394ZM64.736 44.774V43.774H64.6806L64.6256 43.7801L64.736 44.774ZM67.588 44.588L67.5132 43.5908L67.588 44.588ZM71.432 44.34V43.34H71.4093L71.3866 43.341L71.432 44.34ZM73.664 44.464L73.5536 45.4579L73.581 45.4609L73.6085 45.4625L73.664 44.464ZM76.206 44.774L76.0347 45.7592L76.0582 45.7633L76.082 45.7663L76.206 44.774ZM78.128 45.022L77.9866 46.0119L78.002 46.0142L78.0176 46.0159L78.128 45.022ZM79.492 45.146L79.5687 44.1489L79.5687 44.1489L79.492 45.146ZM81.352 45.456L81.0773 46.4175L81.143 46.4363L81.2106 46.4459L81.352 45.456ZM81.972 45.704L81.2649 46.4111L81.3349 46.4811L81.4173 46.536L81.972 45.704ZM82.282 46.076L81.3876 46.5232L81.4279 46.6039L81.482 46.676L82.282 46.076ZM82.592 46.696L83.2564 47.4434L83.7492 47.0053L83.5407 46.3798L82.592 46.696ZM81.042 48.804L80.1903 48.2799L80.1829 48.292L80.1758 48.3043L81.042 48.804ZM78.996 50.788L78.6798 49.8393L78.996 50.788ZM77.198 51.098L77.1393 50.0997L77.1356 50.0999L77.198 51.098ZM72.982 51.222L73.0444 52.2201L73.0547 52.2194L73.0651 52.2185L72.982 51.222ZM70.006 50.726L69.7353 51.6886L70.006 50.726ZM67.154 50.106L67.2252 49.1085L67.1897 49.106H67.154V50.106ZM64.364 50.664L64.0766 49.7061L64.0676 49.7089L64.364 50.664ZM61.574 51.098L61.698 50.1057L60.6423 49.9738L60.5759 51.0356L61.574 51.098ZM61.76 53.826L60.7701 53.9674L61.76 53.826ZM62.008 56.492L63.0055 56.5632L63.008 56.5277V56.492H62.008ZM61.822 58.786L60.8258 58.6994L60.8239 58.7209L60.8229 58.7426L61.822 58.786ZM61.76 61.204H60.76V62.357L61.9014 62.1939L61.76 61.204ZM64.984 61.514L64.7341 62.4823L64.7489 62.4861L64.7637 62.4894L64.984 61.514ZM67.712 61.886V60.886H67.6736L67.6353 60.8889L67.712 61.886ZM69.572 62.01L69.448 63.0023L69.4805 63.0063L69.5133 63.0083L69.572 62.01ZM71.122 62.196L70.8795 63.1661L70.938 63.1808L70.998 63.1883L71.122 62.196ZM72.796 62.506L72.59 63.4846L72.5999 63.4866L72.796 62.506ZM74.16 62.754L74.3561 61.7734L74.259 61.754H74.16V62.754ZM76.578 63.064L76.495 64.0606L76.4983 64.0608L76.578 63.064ZM79.12 63.436L78.8775 64.4061L78.9064 64.4134L78.9357 64.4189L79.12 63.436ZM80.1816 64.9085C81.6112 66.016 82.6634 67.0229 83.3695 67.9266C84.0801 68.8362 84.3913 69.5788 84.4487 70.1671L86.4393 69.9729C86.3313 68.8665 85.7849 67.7698 84.9455 66.6954C84.1016 65.6151 82.9114 64.4933 81.4064 63.3274L80.1816 64.9085ZM84.4462 70.1365C84.4598 70.3401 84.3763 70.6883 83.8301 71.2005L85.1979 72.6595C85.9743 71.9317 86.5109 71.0399 86.4418 70.0035L84.4462 70.1365ZM83.8555 71.1774C83.2133 71.7394 82.4444 72.3669 81.5466 73.0607L82.7694 74.6433C83.6903 73.9317 84.4921 73.278 85.1725 72.6826L83.8555 71.1774ZM81.552 73.0566C80.6469 73.7462 79.9341 74.4341 79.5083 75.1259L81.2117 76.1741C81.4472 75.7913 81.9331 75.2805 82.764 74.6474L81.552 73.0566ZM79.4918 75.1539C79.3106 75.4708 79.0096 76.0528 78.5976 76.8768L80.3864 77.7712C80.8011 76.9419 81.0787 76.4079 81.2282 76.1461L79.4918 75.1539ZM78.5976 76.8768C78.1975 77.677 77.8284 78.3146 77.4918 78.8008L79.1362 79.9392C79.5436 79.3507 79.9598 78.6244 80.3864 77.7712L78.5976 76.8768ZM77.482 78.8153C77.2301 79.1931 76.8674 79.5641 76.3688 79.9203L77.5312 81.5477C78.1899 81.0772 78.7366 80.5389 79.1461 79.9247L77.482 78.8153ZM76.2429 80.0269C76.1267 80.143 75.4542 80.7953 74.209 81.999L75.599 83.437C76.8338 82.2434 77.5253 81.573 77.6571 81.4411L76.2429 80.0269ZM74.2094 81.9986C73.044 83.1239 72.1411 83.7215 71.4878 83.9393L72.1202 85.8367C73.2029 85.4758 74.3667 84.6268 75.5986 83.4374L74.2094 81.9986ZM71.4677 83.9463C70.4815 84.2985 68.4238 84.5493 65.1447 84.6323L65.1953 86.6317C68.4468 86.5494 70.8118 86.3042 72.1403 85.8297L71.4677 83.9463ZM65.1388 84.6325C62.5484 84.7134 60.4618 84.5284 58.8514 84.1066L58.3446 86.0414C60.2062 86.5289 62.5009 86.7159 65.2012 86.6315L65.1388 84.6325ZM58.8355 84.1026C57.0704 83.6711 55.0775 82.898 52.8517 81.7648L51.9443 83.5472C54.2652 84.7287 56.4056 85.5675 58.3605 86.0454L58.8355 84.1026ZM53.1808 82.0338C52.5646 81.2585 52.2071 80.6683 52.0435 80.2476C51.8716 79.8055 51.9907 79.7687 51.9281 79.8627L50.2639 78.7533C49.788 79.4673 49.9174 80.2985 50.1795 80.9724C50.4499 81.6677 50.9501 82.4415 51.6152 83.2782L53.1808 82.0338ZM51.9493 79.8294C52.0114 79.7278 52.1922 79.5426 52.6868 79.3666C53.1749 79.1929 53.8734 79.063 54.8164 79.0041L54.6916 77.0079C53.6506 77.073 52.7475 77.2221 52.0162 77.4824C51.2914 77.7404 50.6353 78.1442 50.2427 78.7865L51.9493 79.8294ZM54.8164 79.0041C55.3553 78.9704 56.3528 79.0555 57.8799 79.3031L58.2001 77.3289C56.6686 77.0805 55.4753 76.959 54.6916 77.0079L54.8164 79.0041ZM57.9095 79.3075C59.4774 79.5137 60.5802 79.6417 61.1928 79.6855L61.3352 77.6905C60.7905 77.6516 59.7439 77.5316 58.1705 77.3245L57.9095 79.3075ZM61.1975 79.6858C61.7587 79.7232 62.7249 79.8591 64.1282 80.1068L64.4758 78.1372C63.0684 77.8889 62.0093 77.7355 61.3305 77.6902L61.1975 79.6858ZM64.1606 80.1119C65.6142 80.3196 66.7441 80.4487 67.5325 80.4925L67.6435 78.4955C66.9439 78.4567 65.8831 78.3377 64.4434 78.132L64.1606 80.1119ZM67.5345 80.4926C69.8987 80.6192 72.0886 80.5568 74.1006 80.2999L73.8474 78.3161C71.9741 78.5552 69.9066 78.6168 67.6415 78.4954L67.5345 80.4926ZM74.1701 80.2886C74.3273 80.2571 74.5979 80.2196 75.0035 80.179L74.8045 78.189C74.3834 78.2311 74.034 78.2762 73.7779 78.3274L74.1701 80.2886ZM75.0035 80.179C75.4246 80.1369 75.774 80.0918 76.0301 80.0406L75.6379 78.0794C75.4807 78.1109 75.2101 78.1484 74.8045 78.189L75.0035 80.179ZM76.0301 80.0406C76.1948 80.0076 76.4508 79.9701 76.8124 79.9299L76.5916 77.9421C76.2092 77.9846 75.8866 78.0297 75.6379 78.0794L76.0301 80.0406ZM76.8124 79.9299C77.1948 79.8874 77.5174 79.8423 77.7661 79.7926L77.3739 77.8314C77.2092 77.8643 76.9532 77.9019 76.5916 77.9421L76.8124 79.9299ZM77.9414 79.7405C78.1076 79.674 78.3216 79.6018 78.5887 79.5255L78.0393 77.6025C77.7277 77.6915 77.4457 77.7847 77.1986 77.8835L77.9414 79.7405ZM78.5887 79.5255C78.9393 79.4254 79.3393 79.2629 79.6411 78.9611L78.2269 77.5469C78.2607 77.5131 78.2747 77.5121 78.2388 77.5301C78.2044 77.5473 78.1412 77.5733 78.0393 77.6025L78.5887 79.5255ZM79.534 79.054C79.7307 78.9065 79.9124 78.7518 80.0751 78.5891L78.6609 77.1749C78.5756 77.2602 78.468 77.3535 78.334 77.454L79.534 79.054ZM80.0751 78.5891C80.2973 78.367 80.4929 78.1163 80.6344 77.8332L78.8456 76.9388C78.8218 76.9864 78.7694 77.0664 78.6609 77.1749L80.0751 78.5891ZM80.6685 77.7574C80.7947 77.4418 80.864 77.1094 80.864 76.766H78.864C78.864 76.8359 78.8506 76.9169 78.8115 77.0146L80.6685 77.7574ZM80.6401 77.3966C81.5294 76.3021 82.1084 75.1425 82.3079 73.9201C82.5088 72.6899 82.3136 71.4659 81.7645 70.2721L79.9475 71.1079C80.349 71.9808 80.4639 72.8028 80.3341 73.5979C80.203 74.4008 79.8106 75.2459 79.0879 76.1354L80.6401 77.3966ZM81.7664 70.2762C81.3282 69.3122 80.4954 68.6105 79.4383 68.1116C78.3858 67.615 77.0454 67.2863 75.4587 67.0933L75.2173 69.0787C76.6893 69.2577 77.7979 69.549 78.5847 69.9204C79.3669 70.2895 79.7638 70.7038 79.9456 71.1038L81.7664 70.2762ZM75.4548 67.0928C74.6639 66.9998 72.5299 67.0045 69.1756 67.0863L69.2244 69.0857C72.6487 69.0022 74.6068 69.0069 75.2212 69.0791L75.4548 67.0928ZM69.1808 67.0862C67.159 67.1251 65.7666 66.7117 64.8578 65.9977L63.6222 67.5703C65.0281 68.675 66.9424 69.1296 69.2192 69.0858L69.1808 67.0862ZM64.9471 66.0769C64.7039 65.8336 64.4193 65.7928 64.3533 65.7834C64.2461 65.7681 64.1538 65.7709 64.0999 65.7741C63.9872 65.7807 63.8736 65.8003 63.7804 65.8189C63.585 65.858 63.3319 65.9237 63.0353 66.0085L63.5847 67.9315C63.8668 67.8509 64.058 67.803 64.1726 67.7801C64.2344 67.7677 64.2422 67.7692 64.2174 67.7706C64.2074 67.7712 64.1506 67.7747 64.0705 67.7633C64.029 67.7574 63.9585 67.7443 63.8745 67.7125C63.793 67.6816 63.6602 67.6184 63.5329 67.4911L64.9471 66.0769ZM63.0353 66.0085C62.4838 66.166 61.9108 66.3044 61.3159 66.4234L61.7081 68.3846C62.3532 68.2556 62.9789 68.1046 63.5847 67.9315L63.0353 66.0085ZM61.3798 66.4128C60.9431 66.471 60.4685 66.4174 59.9411 66.2197L59.2389 68.0923C60.0342 68.3906 60.8409 68.5023 61.6442 68.3952L61.3798 66.4128ZM59.9614 66.2275C59.992 66.2398 59.9072 66.2116 59.7253 65.9802C59.555 65.7634 59.3518 65.4355 59.1204 64.9728L57.3316 65.8672C57.5962 66.3965 57.8684 66.854 58.1527 67.2158C58.4255 67.563 58.7746 67.9069 59.2186 68.0845L59.9614 66.2275ZM59.1413 65.0173C58.9097 64.491 58.7041 64.0518 58.5256 63.7059C58.3575 63.3801 58.1812 63.0726 58.0022 62.8578L56.4658 64.1382C56.4935 64.1714 56.5859 64.3083 56.7484 64.6231C56.9005 64.9179 57.0876 65.3157 57.3107 65.8227L59.1413 65.0173ZM58.0112 62.8688C57.4935 62.2292 57.1555 61.2518 57.1177 59.8137L55.1183 59.8663C55.1632 61.5695 55.5692 63.0308 56.4568 64.1272L58.0112 62.8688ZM57.118 59.84C57.118 59.289 57.0069 58.7577 56.7838 58.2559L54.9562 59.0681C55.0638 59.3103 55.118 59.5644 55.118 59.84H57.118ZM56.8278 58.3746C56.6668 57.8381 56.3863 57.2927 56.0201 56.7433L54.3559 57.8527C54.651 58.2953 54.8252 58.6593 54.9122 58.9493L56.8278 58.3746ZM56.0685 56.8239C55.7878 56.3027 55.5768 55.9235 55.462 55.7513L53.798 56.8607C53.8485 56.9365 54.0095 57.2186 54.3075 57.7721L56.0685 56.8239ZM55.5787 55.9898C55.5029 55.7623 55.3061 55.3848 55.0739 54.9591L53.3181 55.9168C53.4393 56.1391 53.5312 56.3135 53.5961 56.4432C53.6691 56.5893 53.6857 56.6352 53.6813 56.6222L55.5787 55.9898ZM55.1064 55.0242C54.9081 54.588 54.7302 54.2195 54.5941 54.0153L52.9299 55.1247C52.9286 55.1226 52.9378 55.1366 52.9594 55.1759C52.9797 55.2128 53.0058 55.2626 53.0381 55.3272C53.1028 55.4566 53.185 55.6304 53.2856 55.8518L55.1064 55.0242ZM54.7321 54.3275C54.6605 54.0407 54.4864 53.6587 54.2844 53.2548L52.4956 54.1492C52.5938 54.3456 52.6672 54.5024 52.7189 54.6229C52.7445 54.6829 52.763 54.7295 52.7757 54.7645C52.789 54.8011 52.7926 54.8154 52.7919 54.8125L54.7321 54.3275ZM54.3185 53.3306C54.1515 52.9133 54.0729 52.6825 54.0501 52.5915L52.1099 53.0765C52.1698 53.3162 52.2978 53.664 52.4615 54.0734L54.3185 53.3306ZM54.0501 52.5915C53.9943 52.3681 53.8947 52.0759 53.7683 51.7389L51.8957 52.4411C52.0173 52.7655 52.083 52.9693 52.1099 53.0765L54.0501 52.5915ZM53.8082 51.8731C53.7305 51.5233 53.708 51.3185 53.708 51.222H51.708C51.708 51.5388 51.7682 51.9127 51.8558 52.3069L53.8082 51.8731ZM53.708 51.222C53.708 51.2216 53.708 51.2212 53.708 51.2208C53.708 51.2204 53.708 51.22 53.708 51.2196C53.708 51.2192 53.708 51.2188 53.708 51.2184C53.708 51.218 53.708 51.2176 53.708 51.2171C53.708 51.2167 53.708 51.2163 53.708 51.2159C53.708 51.2155 53.708 51.2151 53.708 51.2147C53.708 51.2143 53.708 51.2139 53.708 51.2135C53.708 51.2131 53.708 51.2127 53.708 51.2123C53.708 51.2119 53.708 51.2115 53.708 51.2111C53.708 51.2107 53.708 51.2102 53.708 51.2098C53.708 51.2094 53.708 51.209 53.708 51.2086C53.708 51.2082 53.708 51.2078 53.708 51.2074C53.708 51.207 53.708 51.2066 53.708 51.2062C53.708 51.2058 53.708 51.2054 53.708 51.205C53.708 51.2045 53.708 51.2041 53.708 51.2037C53.708 51.2033 53.708 51.2029 53.708 51.2025C53.708 51.2021 53.708 51.2017 53.708 51.2013C53.708 51.2009 53.708 51.2005 53.708 51.2C53.708 51.1996 53.708 51.1992 53.708 51.1988C53.708 51.1984 53.708 51.198 53.708 51.1976C53.708 51.1972 53.708 51.1968 53.708 51.1964C53.708 51.196 53.708 51.1955 53.708 51.1951C53.708 51.1947 53.708 51.1943 53.708 51.1939C53.708 51.1935 53.708 51.1931 53.708 51.1927C53.708 51.1923 53.708 51.1918 53.708 51.1914C53.708 51.191 53.708 51.1906 53.708 51.1902C53.708 51.1898 53.708 51.1894 53.708 51.189C53.708 51.1885 53.708 51.1881 53.708 51.1877C53.708 51.1873 53.708 51.1869 53.708 51.1865C53.708 51.1861 53.708 51.1857 53.708 51.1852C53.708 51.1848 53.708 51.1844 53.708 51.184C53.708 51.1836 53.708 51.1832 53.708 51.1828C53.708 51.1824 53.708 51.1819 53.708 51.1815C53.708 51.1811 53.708 51.1807 53.708 51.1803C53.708 51.1799 53.708 51.1795 53.708 51.179C53.708 51.1786 53.708 51.1782 53.708 51.1778C53.708 51.1774 53.708 51.177 53.708 51.1765C53.708 51.1761 53.708 51.1757 53.708 51.1753C53.708 51.1749 53.708 51.1745 53.708 51.1741C53.708 51.1736 53.708 51.1732 53.708 51.1728C53.708 51.1724 53.708 51.172 53.708 51.1716C53.708 51.1711 53.708 51.1707 53.708 51.1703C53.708 51.1699 53.708 51.1695 53.708 51.1691C53.708 51.1686 53.708 51.1682 53.708 51.1678C53.708 51.1674 53.708 51.167 53.708 51.1665C53.708 51.1661 53.708 51.1657 53.708 51.1653C53.708 51.1649 53.708 51.1645 53.708 51.164C53.708 51.1636 53.708 51.1632 53.708 51.1628C53.708 51.1624 53.708 51.1619 53.708 51.1615C53.708 51.1611 53.708 51.1607 53.708 51.1603C53.708 51.1599 53.708 51.1594 53.708 51.159C53.708 51.1586 53.708 51.1582 53.708 51.1578C53.708 51.1573 53.708 51.1569 53.708 51.1565C53.708 51.1561 53.708 51.1557 53.708 51.1552C53.708 51.1548 53.708 51.1544 53.708 51.154C53.708 51.1535 53.708 51.1531 53.708 51.1527C53.708 51.1523 53.708 51.1519 53.708 51.1514C53.708 51.151 53.708 51.1506 53.708 51.1502C53.708 51.1498 53.708 51.1493 53.708 51.1489C53.708 51.1485 53.708 51.1481 53.708 51.1476C53.708 51.1472 53.708 51.1468 53.708 51.1464C53.708 51.1459 53.708 51.1455 53.708 51.1451C53.708 51.1447 53.708 51.1443 53.708 51.1438C53.708 51.1434 53.708 51.143 53.708 51.1426C53.708 51.1421 53.708 51.1417 53.708 51.1413C53.708 51.1409 53.708 51.1404 53.708 51.14C53.708 51.1396 53.708 51.1392 53.708 51.1387C53.708 51.1383 53.708 51.1379 53.708 51.1375C53.708 51.137 53.708 51.1366 53.708 51.1362C53.708 51.1358 53.708 51.1353 53.708 51.1349C53.708 51.1345 53.708 51.1341 53.708 51.1336C53.708 51.1332 53.708 51.1328 53.708 51.1324C53.708 51.1319 53.708 51.1315 53.708 51.1311C53.708 51.1307 53.708 51.1302 53.708 51.1298C53.708 51.1294 53.708 51.1289 53.708 51.1285C53.708 51.1281 53.708 51.1277 53.708 51.1272C53.708 51.1268 53.708 51.1264 53.708 51.126C53.708 51.1255 53.708 51.1251 53.708 51.1247C53.708 51.1242 53.708 51.1238 53.708 51.1234C53.708 51.123 53.708 51.1225 53.708 51.1221C53.708 51.1217 53.708 51.1212 53.708 51.1208C53.708 51.1204 53.708 51.12 53.708 51.1195C53.708 51.1191 53.708 51.1187 53.708 51.1182C53.708 51.1178 53.708 51.1174 53.708 51.1169C53.708 51.1165 53.708 51.1161 53.708 51.1157C53.708 51.1152 53.708 51.1148 53.708 51.1144C53.708 51.1139 53.708 51.1135 53.708 51.1131C53.708 51.1126 53.708 51.1122 53.708 51.1118C53.708 51.1113 53.708 51.1109 53.708 51.1105C53.708 51.11 53.708 51.1096 53.708 51.1092C53.708 51.1088 53.708 51.1083 53.708 51.1079C53.708 51.1075 53.708 51.107 53.708 51.1066C53.708 51.1062 53.708 51.1057 53.708 51.1053C53.708 51.1049 53.708 51.1044 53.708 51.104C53.708 51.1036 53.708 51.1031 53.708 51.1027C53.708 51.1023 53.708 51.1018 53.708 51.1014C53.708 51.101 53.708 51.1005 53.708 51.1001C53.708 51.0997 53.708 51.0992 53.708 51.0988C53.708 51.0984 53.708 51.0979 53.708 51.0975C53.708 51.097 53.708 51.0966 53.708 51.0962C53.708 51.0957 53.708 51.0953 53.708 51.0949C53.708 51.0944 53.708 51.094 53.708 51.0936C53.708 51.0931 53.708 51.0927 53.708 51.0923C53.708 51.0918 53.708 51.0914 53.708 51.0909C53.708 51.0905 53.708 51.0901 53.708 51.0896C53.708 51.0892 53.708 51.0888 53.708 51.0883C53.708 51.0879 53.708 51.0875 53.708 51.087C53.708 51.0866 53.708 51.0861 53.708 51.0857C53.708 51.0853 53.708 51.0848 53.708 51.0844C53.708 51.0839 53.708 51.0835 53.708 51.0831C53.708 51.0826 53.708 51.0822 53.708 51.0818C53.708 51.0813 53.708 51.0809 53.708 51.0804C53.708 51.08 53.708 51.0796 53.708 51.0791C53.708 51.0787 53.708 51.0782 53.708 51.0778C53.708 51.0774 53.708 51.0769 53.708 51.0765C53.708 51.076 53.708 51.0756 53.708 51.0752C53.708 51.0747 53.708 51.0743 53.708 51.0738C53.708 51.0734 53.708 51.073 53.708 51.0725C53.708 51.0721 53.708 51.0716 53.708 51.0712C53.708 51.0708 53.708 51.0703 53.708 51.0699C53.708 51.0694 53.708 51.069 53.708 51.0686C53.708 51.0681 53.708 51.0677 53.708 51.0672C53.708 51.0668 53.708 51.0663 53.708 51.0659C53.708 51.0655 53.708 51.065 53.708 51.0646C53.708 51.0641 53.708 51.0637 53.708 51.0632C53.708 51.0628 53.708 51.0624 53.708 51.0619C53.708 51.0615 53.708 51.061 53.708 51.0606C53.708 51.0601 53.708 51.0597 53.708 51.0592C53.708 51.0588 53.708 51.0584 53.708 51.0579C53.708 51.0575 53.708 51.057 53.708 51.0566C53.708 51.0561 53.708 51.0557 53.708 51.0552C53.708 51.0548 53.708 51.0544 53.708 51.0539C53.708 51.0535 53.708 51.053 53.708 51.0526C53.708 51.0521 53.708 51.0517 53.708 51.0512C53.708 51.0508 53.708 51.0503 53.708 51.0499C53.708 51.0495 53.708 51.049 53.708 51.0486C53.708 51.0481 53.708 51.0477 53.708 51.0472C53.708 51.0468 53.708 51.0463 53.708 51.0459C53.708 51.0454 53.708 51.045 53.708 51.0445C53.708 51.0441 53.708 51.0436 53.708 51.0432C53.708 51.0427 53.708 51.0423 53.708 51.0419C53.708 51.0414 53.708 51.041 53.708 51.0405C53.708 51.0401 53.708 51.0396 53.708 51.0392C53.708 51.0387 53.708 51.0383 53.708 51.0378C53.708 51.0374 53.708 51.0369 53.708 51.0365C53.708 51.036 53.708 51.0356 53.708 51.0351C53.708 51.0347 53.708 51.0342 53.708 51.0338C53.708 51.0333 53.708 51.0329 53.708 51.0324C53.708 51.032 53.708 51.0315 53.708 51.0311C53.708 51.0306 53.708 51.0302 53.708 51.0297C53.708 51.0293 53.708 51.0288 53.708 51.0284C53.708 51.0279 53.708 51.0275 53.708 51.027C53.708 51.0266 53.708 51.0261 53.708 51.0257C53.708 51.0252 53.708 51.0247 53.708 51.0243C53.708 51.0238 53.708 51.0234 53.708 51.0229C53.708 51.0225 53.708 51.022 53.708 51.0216C53.708 51.0211 53.708 51.0207 53.708 51.0202C53.708 51.0198 53.708 51.0193 53.708 51.0189C53.708 51.0184 53.708 51.018 53.708 51.0175C53.708 51.017 53.708 51.0166 53.708 51.0161C53.708 51.0157 53.708 51.0152 53.708 51.0148C53.708 51.0143 53.708 51.0139 53.708 51.0134C53.708 51.013 53.708 51.0125 53.708 51.012C53.708 51.0116 53.708 51.0111 53.708 51.0107C53.708 51.0102 53.708 51.0098 53.708 51.0093C53.708 51.0089 53.708 51.0084 53.708 51.0079C53.708 51.0075 53.708 51.007 53.708 51.0066C53.708 51.0061 53.708 51.0057 53.708 51.0052C53.708 51.0048 53.708 51.0043 53.708 51.0038C53.708 51.0034 53.708 51.0029 53.708 51.0025C53.708 51.002 53.708 51.0016 53.708 51.0011C53.708 51.0006 53.708 51.0002 53.708 50.9997C53.708 50.9993 53.708 50.9988 53.708 50.9984C53.708 50.9979 53.708 50.9974 53.708 50.997C53.708 50.9965 53.708 50.9961 53.708 50.9956C53.708 50.9951 53.708 50.9947 53.708 50.9942C53.708 50.9938 53.708 50.9933 53.708 50.9928C53.708 50.9924 53.708 50.9919 53.708 50.9915C53.708 50.991 53.708 50.9905 53.708 50.9901C53.708 50.9896 53.708 50.9892 53.708 50.9887C53.708 50.9882 53.708 50.9878 53.708 50.9873C53.708 50.9869 53.708 50.9864 53.708 50.9859C53.708 50.9855 53.708 50.985 53.708 50.9846C53.708 50.9841 53.708 50.9836 53.708 50.9832C53.708 50.9827 53.708 50.9822 53.708 50.9818C53.708 50.9813 53.708 50.9809 53.708 50.9804C53.708 50.9799 53.708 50.9795 53.708 50.979C53.708 50.9786 53.708 50.9781 53.708 50.9776C53.708 50.9772 53.708 50.9767 53.708 50.9762C53.708 50.9758 53.708 50.9753 53.708 50.9748C53.708 50.9744 53.708 50.9739 53.708 50.9735C53.708 50.973 53.708 50.9725 53.708 50.9721C53.708 50.9716 53.708 50.9711 53.708 50.9707C53.708 50.9702 53.708 50.9697 53.708 50.9693C53.708 50.9688 53.708 50.9683 53.708 50.9679C53.708 50.9674 53.708 50.9669 53.708 50.9665C53.708 50.966 53.708 50.9656 53.708 50.9651C53.708 50.9646 53.708 50.9642 53.708 50.9637C53.708 50.9632 53.708 50.9628 53.708 50.9623C53.708 50.9618 53.708 50.9614 53.708 50.9609C53.708 50.9604 53.708 50.96 53.708 50.9595C53.708 50.959 53.708 50.9586 53.708 50.9581C53.708 50.9576 53.708 50.9572 53.708 50.9567C53.708 50.9562 53.708 50.9558 53.708 50.9553C53.708 50.9548 53.708 50.9543 53.708 50.9539C53.708 50.9534 53.708 50.9529 53.708 50.9525C53.708 50.952 53.708 50.9515 53.708 50.9511C53.708 50.9506 53.708 50.9501 53.708 50.9497C53.708 50.9492 53.708 50.9487 53.708 50.9483C53.708 50.9478 53.708 50.9473 53.708 50.9468C53.708 50.9464 53.708 50.9459 53.708 50.9454C53.708 50.945 53.708 50.9445 53.708 50.944C53.708 50.9436 53.708 50.9431 53.708 50.9426C53.708 50.9421 53.708 50.9417 53.708 50.9412C53.708 50.9407 53.708 50.9403 53.708 50.9398C53.708 50.9393 53.708 50.9388 53.708 50.9384C53.708 50.9379 53.708 50.9374 53.708 50.937C53.708 50.9365 53.708 50.936 53.708 50.9355C53.708 50.9351 53.708 50.9346 53.708 50.9341C53.708 50.9336 53.708 50.9332 53.708 50.9327C53.708 50.9322 53.708 50.9318 53.708 50.9313C53.708 50.9308 53.708 50.9303 53.708 50.9299C53.708 50.9294 53.708 50.9289 53.708 50.9284C53.708 50.928 53.708 50.9275 53.708 50.927C53.708 50.9265 53.708 50.9261 53.708 50.9256C53.708 50.9251 53.708 50.9246 53.708 50.9242C53.708 50.9237 53.708 50.9232 53.708 50.9227C53.708 50.9223 53.708 50.9218 53.708 50.9213C53.708 50.9208 53.708 50.9204 53.708 50.9199C53.708 50.9194 53.708 50.9189 53.708 50.9185C53.708 50.918 53.708 50.9175 53.708 50.917C53.708 50.9166 53.708 50.9161 53.708 50.9156C53.708 50.9151 53.708 50.9146 53.708 50.9142C53.708 50.9137 53.708 50.9132 53.708 50.9127C53.708 50.9123 53.708 50.9118 53.708 50.9113C53.708 50.9108 53.708 50.9104 53.708 50.9099C53.708 50.9094 53.708 50.9089 53.708 50.9084C53.708 50.908 53.708 50.9075 53.708 50.907C53.708 50.9065 53.708 50.906 53.708 50.9056C53.708 50.9051 53.708 50.9046 53.708 50.9041C53.708 50.9036 53.708 50.9032 53.708 50.9027C53.708 50.9022 53.708 50.9017 53.708 50.9013C53.708 50.9008 53.708 50.9003 53.708 50.8998C53.708 50.8993 53.708 50.8988 53.708 50.8984C53.708 50.8979 53.708 50.8974 53.708 50.8969C53.708 50.8964 53.708 50.896 53.708 50.8955C53.708 50.895 53.708 50.8945 53.708 50.894C53.708 50.8936 53.708 50.8931 53.708 50.8926C53.708 50.8921 53.708 50.8916 53.708 50.8911C53.708 50.8907 53.708 50.8902 53.708 50.8897C53.708 50.8892 53.708 50.8887 53.708 50.8883C53.708 50.8878 53.708 50.8873 53.708 50.8868C53.708 50.8863 53.708 50.8858 53.708 50.8854C53.708 50.8849 53.708 50.8844 53.708 50.8839C53.708 50.8834 53.708 50.8829 53.708 50.8825C53.708 50.882 53.708 50.8815 53.708 50.881C53.708 50.8805 53.708 50.88 53.708 50.8795C53.708 50.8791 53.708 50.8786 53.708 50.8781C53.708 50.8776 53.708 50.8771 53.708 50.8766C53.708 50.8762 53.708 50.8757 53.708 50.8752C53.708 50.8747 53.708 50.8742 53.708 50.8737C53.708 50.8732 53.708 50.8728 53.708 50.8723C53.708 50.8718 53.708 50.8713 53.708 50.8708C53.708 50.8703 53.708 50.8698 53.708 50.8693C53.708 50.8689 53.708 50.8684 53.708 50.8679C53.708 50.8674 53.708 50.8669 53.708 50.8664C53.708 50.8659 53.708 50.8654 53.708 50.865C53.708 50.8645 53.708 50.864 53.708 50.8635C53.708 50.863 53.708 50.8625 53.708 50.862C53.708 50.8615 53.708 50.8611 53.708 50.8606C53.708 50.8601 53.708 50.8596 53.708 50.8591C53.708 50.8586 53.708 50.8581 53.708 50.8576C53.708 50.8571 53.708 50.8566 53.708 50.8562C53.708 50.8557 53.708 50.8552 53.708 50.8547C53.708 50.8542 53.708 50.8537 53.708 50.8532C53.708 50.8527 53.708 50.8522 53.708 50.8517C53.708 50.8513 53.708 50.8508 53.708 50.8503C53.708 50.8498 53.708 50.8493 53.708 50.8488C53.708 50.8483 53.708 50.8478 53.708 50.8473C53.708 50.8468 53.708 50.8463 53.708 50.8459C53.708 50.8454 53.708 50.8449 53.708 50.8444C53.708 50.8439 53.708 50.8434 53.708 50.8429C53.708 50.8424 53.708 50.8419 53.708 50.8414C53.708 50.8409 53.708 50.8404 53.708 50.8399C53.708 50.8394 53.708 50.839 53.708 50.8385C53.708 50.838 53.708 50.8375 53.708 50.837C53.708 50.8365 53.708 50.836 53.708 50.8355C53.708 50.835 53.708 50.8345 53.708 50.834C53.708 50.8335 53.708 50.833 53.708 50.8325C53.708 50.832 53.708 50.8315 53.708 50.831C53.708 50.8306 53.708 50.8301 53.708 50.8296C53.708 50.8291 53.708 50.8286 53.708 50.8281C53.708 50.8276 53.708 50.8271 53.708 50.8266C53.708 50.8261 53.708 50.8256 53.708 50.8251C53.708 50.8246 53.708 50.8241 53.708 50.8236C53.708 50.8231 53.708 50.8226 53.708 50.8221C53.708 50.8216 53.708 50.8211 53.708 50.8206C53.708 50.8201 53.708 50.8196 53.708 50.8191C53.708 50.8186 53.708 50.8181 53.708 50.8176C53.708 50.8171 53.708 50.8166 53.708 50.8161C53.708 50.8156 53.708 50.8151 53.708 50.8147C53.708 50.8142 53.708 50.8137 53.708 50.8132C53.708 50.8127 53.708 50.8122 53.708 50.8117C53.708 50.8112 53.708 50.8107 53.708 50.8102C53.708 50.8097 53.708 50.8092 53.708 50.8087C53.708 50.8082 53.708 50.8077 53.708 50.8072C53.708 50.8067 53.708 50.8062 53.708 50.8057C53.708 50.8052 53.708 50.8047 53.708 50.8042C53.708 50.8037 53.708 50.8032 53.708 50.8027C53.708 50.8022 53.708 50.8017 53.708 50.8012C53.708 50.8006 53.708 50.8001 53.708 50.7996C53.708 50.7991 53.708 50.7986 53.708 50.7981C53.708 50.7976 53.708 50.7971 53.708 50.7966C53.708 50.7961 53.708 50.7956 53.708 50.7951C53.708 50.7946 53.708 50.7941 53.708 50.7936C53.708 50.7931 53.708 50.7926 53.708 50.7921C53.708 50.7916 53.708 50.7911 53.708 50.7906C53.708 50.7901 53.708 50.7896 53.708 50.7891C53.708 50.7886 53.708 50.7881 53.708 50.7876C53.708 50.7871 53.708 50.7866 53.708 50.7861C53.708 50.7856 53.708 50.7851 53.708 50.7845C53.708 50.784 53.708 50.7835 53.708 50.783C53.708 50.7825 53.708 50.782 53.708 50.7815C53.708 50.781 53.708 50.7805 53.708 50.78C53.708 50.7795 53.708 50.779 53.708 50.7785C53.708 50.778 53.708 50.7775 53.708 50.777C53.708 50.7765 53.708 50.7759 53.708 50.7754C53.708 50.7749 53.708 50.7744 53.708 50.7739C53.708 50.7734 53.708 50.7729 53.708 50.7724C53.708 50.7719 53.708 50.7714 53.708 50.7709C53.708 50.7704 53.708 50.7699 53.708 50.7694C53.708 50.7688 53.708 50.7683 53.708 50.7678C53.708 50.7673 53.708 50.7668 53.708 50.7663C53.708 50.7658 53.708 50.7653 53.708 50.7648C53.708 50.7643 53.708 50.7638 53.708 50.7633C53.708 50.7627 53.708 50.7622 53.708 50.7617C53.708 50.7612 53.708 50.7607 53.708 50.7602C53.708 50.7597 53.708 50.7592 53.708 50.7587C53.708 50.7582 53.708 50.7576 53.708 50.7571C53.708 50.7566 53.708 50.7561 53.708 50.7556C53.708 50.7551 53.708 50.7546 53.708 50.7541C53.708 50.7536 53.708 50.753 53.708 50.7525C53.708 50.752 53.708 50.7515 53.708 50.751C53.708 50.7505 53.708 50.75 53.708 50.7495C53.708 50.7489 53.708 50.7484 53.708 50.7479C53.708 50.7474 53.708 50.7469 53.708 50.7464C53.708 50.7459 53.708 50.7454 53.708 50.7448C53.708 50.7443 53.708 50.7438 53.708 50.7433C53.708 50.7428 53.708 50.7423 53.708 50.7418C53.708 50.7413 53.708 50.7407 53.708 50.7402C53.708 50.7397 53.708 50.7392 53.708 50.7387C53.708 50.7382 53.708 50.7377 53.708 50.7371C53.708 50.7366 53.708 50.7361 53.708 50.7356C53.708 50.7351 53.708 50.7346 53.708 50.734C53.708 50.7335 53.708 50.733 53.708 50.7325C53.708 50.732 53.708 50.7315 53.708 50.731C53.708 50.7304 53.708 50.7299 53.708 50.7294C53.708 50.7289 53.708 50.7284 53.708 50.7279C53.708 50.7273 53.708 50.7268 53.708 50.7263C53.708 50.7258 53.708 50.7253 53.708 50.7248C53.708 50.7242 53.708 50.7237 53.708 50.7232C53.708 50.7227 53.708 50.7222 53.708 50.7217C53.708 50.7211 53.708 50.7206 53.708 50.7201C53.708 50.7196 53.708 50.7191 53.708 50.7185C53.708 50.718 53.708 50.7175 53.708 50.717C53.708 50.7165 53.708 50.716 53.708 50.7154C53.708 50.7149 53.708 50.7144 53.708 50.7139C53.708 50.7134 53.708 50.7128 53.708 50.7123C53.708 50.7118 53.708 50.7113 53.708 50.7108C53.708 50.7102 53.708 50.7097 53.708 50.7092C53.708 50.7087 53.708 50.7082 53.708 50.7076C53.708 50.7071 53.708 50.7066 53.708 50.7061C53.708 50.7056 53.708 50.705 53.708 50.7045C53.708 50.704 53.708 50.7035 53.708 50.7029C53.708 50.7024 53.708 50.7019 53.708 50.7014C53.708 50.7009 53.708 50.7003 53.708 50.6998C53.708 50.6993 53.708 50.6988 53.708 50.6982C53.708 50.6977 53.708 50.6972 53.708 50.6967C53.708 50.6962 53.708 50.6956 53.708 50.6951C53.708 50.6946 53.708 50.6941 53.708 50.6935C53.708 50.693 53.708 50.6925 53.708 50.692C53.708 50.6914 53.708 50.6909 53.708 50.6904C53.708 50.6899 53.708 50.6893 53.708 50.6888C53.708 50.6883 53.708 50.6878 53.708 50.6872C53.708 50.6867 53.708 50.6862 53.708 50.6857C53.708 50.6851 53.708 50.6846 53.708 50.6841C53.708 50.6836 53.708 50.683 53.708 50.6825C53.708 50.682 53.708 50.6815 53.708 50.6809C53.708 50.6804 53.708 50.6799 53.708 50.6794C53.708 50.6788 53.708 50.6783 53.708 50.6778C53.708 50.6773 53.708 50.6767 53.708 50.6762C53.708 50.6757 53.708 50.6752 53.708 50.6746C53.708 50.6741 53.708 50.6736 53.708 50.673C53.708 50.6725 53.708 50.672 53.708 50.6715C53.708 50.6709 53.708 50.6704 53.708 50.6699C53.708 50.6693 53.708 50.6688 53.708 50.6683C53.708 50.6678 53.708 50.6672 53.708 50.6667C53.708 50.6662 53.708 50.6656 53.708 50.6651C53.708 50.6646 53.708 50.6641 53.708 50.6635C53.708 50.663 53.708 50.6625 53.708 50.6619C53.708 50.6614 53.708 50.6609 53.708 50.6604C53.708 50.6598 53.708 50.6593 53.708 50.6588C53.708 50.6582 53.708 50.6577 53.708 50.6572C53.708 50.6566 53.708 50.6561 53.708 50.6556C53.708 50.655 53.708 50.6545 53.708 50.654C53.708 50.6535 53.708 50.6529 53.708 50.6524C53.708 50.6519 53.708 50.6513 53.708 50.6508C53.708 50.6503 53.708 50.6497 53.708 50.6492C53.708 50.6487 53.708 50.6481 53.708 50.6476C53.708 50.6471 53.708 50.6465 53.708 50.646C53.708 50.6455 53.708 50.6449 53.708 50.6444C53.708 50.6439 53.708 50.6433 53.708 50.6428C53.708 50.6423 53.708 50.6417 53.708 50.6412C53.708 50.6407 53.708 50.6401 53.708 50.6396C53.708 50.6391 53.708 50.6385 53.708 50.638C53.708 50.6375 53.708 50.6369 53.708 50.6364C53.708 50.6359 53.708 50.6353 53.708 50.6348C53.708 50.6342 53.708 50.6337 53.708 50.6332C53.708 50.6326 53.708 50.6321 53.708 50.6316C53.708 50.631 53.708 50.6305 53.708 50.63C53.708 50.6294 53.708 50.6289 53.708 50.6284C53.708 50.6278 53.708 50.6273 53.708 50.6267C53.708 50.6262 53.708 50.6257 53.708 50.6251C53.708 50.6246 53.708 50.6241 53.708 50.6235C53.708 50.623 53.708 50.6224 53.708 50.6219C53.708 50.6214 53.708 50.6208 53.708 50.6203C53.708 50.6198 53.708 50.6192 53.708 50.6187C53.708 50.6181 53.708 50.6176 53.708 50.6171C53.708 50.6165 53.708 50.616 53.708 50.6155C53.708 50.6149 53.708 50.6144 53.708 50.6138C53.708 50.6133 53.708 50.6128 53.708 50.6122C53.708 50.6117 53.708 50.6111 53.708 50.6106C53.708 50.6101 53.708 50.6095 53.708 50.609C53.708 50.6084 53.708 50.6079 53.708 50.6074C53.708 50.6068 53.708 50.6063 53.708 50.6057C53.708 50.6052 53.708 50.6047 53.708 50.6041C53.708 50.6036 53.708 50.603 53.708 50.6025C53.708 50.6019 53.708 50.6014 53.708 50.6009C53.708 50.6003 53.708 50.5998 53.708 50.5992C53.708 50.5987 53.708 50.5982 53.708 50.5976C53.708 50.5971 53.708 50.5965 53.708 50.596C53.708 50.5954 53.708 50.5949 53.708 50.5944C53.708 50.5938 53.708 50.5933 53.708 50.5927C53.708 50.5922 53.708 50.5916 53.708 50.5911C53.708 50.5905 53.708 50.59 53.708 50.5895C53.708 50.5889 53.708 50.5884 53.708 50.5878C53.708 50.5873 53.708 50.5867 53.708 50.5862C53.708 50.5857 53.708 50.5851 53.708 50.5846C53.708 50.584 53.708 50.5835 53.708 50.5829C53.708 50.5824 53.708 50.5818 53.708 50.5813C53.708 50.5807 53.708 50.5802 53.708 50.5797C53.708 50.5791 53.708 50.5786 53.708 50.578C53.708 50.5775 53.708 50.5769 53.708 50.5764C53.708 50.5758 53.708 50.5753 53.708 50.5747C53.708 50.5742 53.708 50.5736 53.708 50.5731C53.708 50.5725 53.708 50.572 53.708 50.5715C53.708 50.5709 53.708 50.5704 53.708 50.5698C53.708 50.5693 53.708 50.5687 53.708 50.5682C53.708 50.5676 53.708 50.5671 53.708 50.5665C53.708 50.566 53.708 50.5654 53.708 50.5649C53.708 50.5643 53.708 50.5638 53.708 50.5632C53.708 50.5627 53.708 50.5621 53.708 50.5616C53.708 50.561 53.708 50.5605 53.708 50.5599C53.708 50.5594 53.708 50.5588 53.708 50.5583C53.708 50.5577 53.708 50.5572 53.708 50.5566C53.708 50.5561 53.708 50.5555 53.708 50.555C53.708 50.5544 53.708 50.5539 53.708 50.5533C53.708 50.5528 53.708 50.5522 53.708 50.5517C53.708 50.5511 53.708 50.5506 53.708 50.55C53.708 50.5495 53.708 50.5489 53.708 50.5484C53.708 50.5478 53.708 50.5473 53.708 50.5467C53.708 50.5462 53.708 50.5456 53.708 50.5451C53.708 50.5445 53.708 50.5439 53.708 50.5434C53.708 50.5428 53.708 50.5423 53.708 50.5417C53.708 50.5412 53.708 50.5406 53.708 50.5401C53.708 50.5395 53.708 50.539 53.708 50.5384C53.708 50.5379 53.708 50.5373 53.708 50.5368C53.708 50.5362 53.708 50.5356 53.708 50.5351C53.708 50.5345 53.708 50.534 53.708 50.5334C53.708 50.5329 53.708 50.5323 53.708 50.5318C53.708 50.5312 53.708 50.5307 53.708 50.5301C53.708 50.5295 53.708 50.529 53.708 50.5284C53.708 50.5279 53.708 50.5273 53.708 50.5268C53.708 50.5262 53.708 50.5257 53.708 50.5251C53.708 50.5245 53.708 50.524 53.708 50.5234C53.708 50.5229 53.708 50.5223 53.708 50.5218C53.708 50.5212 53.708 50.5206 53.708 50.5201C53.708 50.5195 53.708 50.519 53.708 50.5184C53.708 50.5179 53.708 50.5173 53.708 50.5167C53.708 50.5162 53.708 50.5156 53.708 50.5151C53.708 50.5145 53.708 50.5139 53.708 50.5134C53.708 50.5128 53.708 50.5123 53.708 50.5117C53.708 50.5112 53.708 50.5106 53.708 50.51C53.708 50.5095 53.708 50.5089 53.708 50.5084C53.708 50.5078 53.708 50.5072 53.708 50.5067C53.708 50.5061 53.708 50.5056 53.708 50.505C53.708 50.5044 53.708 50.5039 53.708 50.5033C53.708 50.5028 53.708 50.5022 53.708 50.5016C53.708 50.5011 53.708 50.5005 53.708 50.5C53.708 50.4994 53.708 50.4988 53.708 50.4983C53.708 50.4977 53.708 50.4972 53.708 50.4966C53.708 50.496 53.708 50.4955 53.708 50.4949C53.708 50.4943 53.708 50.4938 53.708 50.4932C53.708 50.4927 53.708 50.4921 53.708 50.4915C53.708 50.491 53.708 50.4904 53.708 50.4898C53.708 50.4893 53.708 50.4887 53.708 50.4882C53.708 50.4876 53.708 50.487 53.708 50.4865C53.708 50.4859 53.708 50.4853 53.708 50.4848C53.708 50.4842 53.708 50.4836 53.708 50.4831C53.708 50.4825 53.708 50.482 53.708 50.4814C53.708 50.4808 53.708 50.4803 53.708 50.4797C53.708 50.4791 53.708 50.4786 53.708 50.478H51.708C51.708 50.4786 51.708 50.4791 51.708 50.4797C51.708 50.4803 51.708 50.4808 51.708 50.4814C51.708 50.482 51.708 50.4825 51.708 50.4831C51.708 50.4836 51.708 50.4842 51.708 50.4848C51.708 50.4853 51.708 50.4859 51.708 50.4865C51.708 50.487 51.708 50.4876 51.708 50.4882C51.708 50.4887 51.708 50.4893 51.708 50.4898C51.708 50.4904 51.708 50.491 51.708 50.4915C51.708 50.4921 51.708 50.4927 51.708 50.4932C51.708 50.4938 51.708 50.4943 51.708 50.4949C51.708 50.4955 51.708 50.496 51.708 50.4966C51.708 50.4972 51.708 50.4977 51.708 50.4983C51.708 50.4988 51.708 50.4994 51.708 50.5C51.708 50.5005 51.708 50.5011 51.708 50.5016C51.708 50.5022 51.708 50.5028 51.708 50.5033C51.708 50.5039 51.708 50.5044 51.708 50.505C51.708 50.5056 51.708 50.5061 51.708 50.5067C51.708 50.5072 51.708 50.5078 51.708 50.5084C51.708 50.5089 51.708 50.5095 51.708 50.51C51.708 50.5106 51.708 50.5112 51.708 50.5117C51.708 50.5123 51.708 50.5128 51.708 50.5134C51.708 50.5139 51.708 50.5145 51.708 50.5151C51.708 50.5156 51.708 50.5162 51.708 50.5167C51.708 50.5173 51.708 50.5179 51.708 50.5184C51.708 50.519 51.708 50.5195 51.708 50.5201C51.708 50.5206 51.708 50.5212 51.708 50.5218C51.708 50.5223 51.708 50.5229 51.708 50.5234C51.708 50.524 51.708 50.5245 51.708 50.5251C51.708 50.5257 51.708 50.5262 51.708 50.5268C51.708 50.5273 51.708 50.5279 51.708 50.5284C51.708 50.529 51.708 50.5295 51.708 50.5301C51.708 50.5307 51.708 50.5312 51.708 50.5318C51.708 50.5323 51.708 50.5329 51.708 50.5334C51.708 50.534 51.708 50.5345 51.708 50.5351C51.708 50.5356 51.708 50.5362 51.708 50.5368C51.708 50.5373 51.708 50.5379 51.708 50.5384C51.708 50.539 51.708 50.5395 51.708 50.5401C51.708 50.5406 51.708 50.5412 51.708 50.5417C51.708 50.5423 51.708 50.5428 51.708 50.5434C51.708 50.5439 51.708 50.5445 51.708 50.5451C51.708 50.5456 51.708 50.5462 51.708 50.5467C51.708 50.5473 51.708 50.5478 51.708 50.5484C51.708 50.5489 51.708 50.5495 51.708 50.55C51.708 50.5506 51.708 50.5511 51.708 50.5517C51.708 50.5522 51.708 50.5528 51.708 50.5533C51.708 50.5539 51.708 50.5544 51.708 50.555C51.708 50.5555 51.708 50.5561 51.708 50.5566C51.708 50.5572 51.708 50.5577 51.708 50.5583C51.708 50.5588 51.708 50.5594 51.708 50.5599C51.708 50.5605 51.708 50.561 51.708 50.5616C51.708 50.5621 51.708 50.5627 51.708 50.5632C51.708 50.5638 51.708 50.5643 51.708 50.5649C51.708 50.5654 51.708 50.566 51.708 50.5665C51.708 50.5671 51.708 50.5676 51.708 50.5682C51.708 50.5687 51.708 50.5693 51.708 50.5698C51.708 50.5704 51.708 50.5709 51.708 50.5715C51.708 50.572 51.708 50.5725 51.708 50.5731C51.708 50.5736 51.708 50.5742 51.708 50.5747C51.708 50.5753 51.708 50.5758 51.708 50.5764C51.708 50.5769 51.708 50.5775 51.708 50.578C51.708 50.5786 51.708 50.5791 51.708 50.5797C51.708 50.5802 51.708 50.5807 51.708 50.5813C51.708 50.5818 51.708 50.5824 51.708 50.5829C51.708 50.5835 51.708 50.584 51.708 50.5846C51.708 50.5851 51.708 50.5857 51.708 50.5862C51.708 50.5867 51.708 50.5873 51.708 50.5878C51.708 50.5884 51.708 50.5889 51.708 50.5895C51.708 50.59 51.708 50.5905 51.708 50.5911C51.708 50.5916 51.708 50.5922 51.708 50.5927C51.708 50.5933 51.708 50.5938 51.708 50.5944C51.708 50.5949 51.708 50.5954 51.708 50.596C51.708 50.5965 51.708 50.5971 51.708 50.5976C51.708 50.5982 51.708 50.5987 51.708 50.5992C51.708 50.5998 51.708 50.6003 51.708 50.6009C51.708 50.6014 51.708 50.6019 51.708 50.6025C51.708 50.603 51.708 50.6036 51.708 50.6041C51.708 50.6047 51.708 50.6052 51.708 50.6057C51.708 50.6063 51.708 50.6068 51.708 50.6074C51.708 50.6079 51.708 50.6084 51.708 50.609C51.708 50.6095 51.708 50.6101 51.708 50.6106C51.708 50.6111 51.708 50.6117 51.708 50.6122C51.708 50.6128 51.708 50.6133 51.708 50.6138C51.708 50.6144 51.708 50.6149 51.708 50.6155C51.708 50.616 51.708 50.6165 51.708 50.6171C51.708 50.6176 51.708 50.6181 51.708 50.6187C51.708 50.6192 51.708 50.6198 51.708 50.6203C51.708 50.6208 51.708 50.6214 51.708 50.6219C51.708 50.6224 51.708 50.623 51.708 50.6235C51.708 50.6241 51.708 50.6246 51.708 50.6251C51.708 50.6257 51.708 50.6262 51.708 50.6267C51.708 50.6273 51.708 50.6278 51.708 50.6284C51.708 50.6289 51.708 50.6294 51.708 50.63C51.708 50.6305 51.708 50.631 51.708 50.6316C51.708 50.6321 51.708 50.6326 51.708 50.6332C51.708 50.6337 51.708 50.6342 51.708 50.6348C51.708 50.6353 51.708 50.6359 51.708 50.6364C51.708 50.6369 51.708 50.6375 51.708 50.638C51.708 50.6385 51.708 50.6391 51.708 50.6396C51.708 50.6401 51.708 50.6407 51.708 50.6412C51.708 50.6417 51.708 50.6423 51.708 50.6428C51.708 50.6433 51.708 50.6439 51.708 50.6444C51.708 50.6449 51.708 50.6455 51.708 50.646C51.708 50.6465 51.708 50.6471 51.708 50.6476C51.708 50.6481 51.708 50.6487 51.708 50.6492C51.708 50.6497 51.708 50.6503 51.708 50.6508C51.708 50.6513 51.708 50.6519 51.708 50.6524C51.708 50.6529 51.708 50.6535 51.708 50.654C51.708 50.6545 51.708 50.655 51.708 50.6556C51.708 50.6561 51.708 50.6566 51.708 50.6572C51.708 50.6577 51.708 50.6582 51.708 50.6588C51.708 50.6593 51.708 50.6598 51.708 50.6604C51.708 50.6609 51.708 50.6614 51.708 50.6619C51.708 50.6625 51.708 50.663 51.708 50.6635C51.708 50.6641 51.708 50.6646 51.708 50.6651C51.708 50.6656 51.708 50.6662 51.708 50.6667C51.708 50.6672 51.708 50.6678 51.708 50.6683C51.708 50.6688 51.708 50.6693 51.708 50.6699C51.708 50.6704 51.708 50.6709 51.708 50.6715C51.708 50.672 51.708 50.6725 51.708 50.673C51.708 50.6736 51.708 50.6741 51.708 50.6746C51.708 50.6752 51.708 50.6757 51.708 50.6762C51.708 50.6767 51.708 50.6773 51.708 50.6778C51.708 50.6783 51.708 50.6788 51.708 50.6794C51.708 50.6799 51.708 50.6804 51.708 50.6809C51.708 50.6815 51.708 50.682 51.708 50.6825C51.708 50.683 51.708 50.6836 51.708 50.6841C51.708 50.6846 51.708 50.6851 51.708 50.6857C51.708 50.6862 51.708 50.6867 51.708 50.6872C51.708 50.6878 51.708 50.6883 51.708 50.6888C51.708 50.6893 51.708 50.6899 51.708 50.6904C51.708 50.6909 51.708 50.6914 51.708 50.692C51.708 50.6925 51.708 50.693 51.708 50.6935C51.708 50.6941 51.708 50.6946 51.708 50.6951C51.708 50.6956 51.708 50.6962 51.708 50.6967C51.708 50.6972 51.708 50.6977 51.708 50.6982C51.708 50.6988 51.708 50.6993 51.708 50.6998C51.708 50.7003 51.708 50.7009 51.708 50.7014C51.708 50.7019 51.708 50.7024 51.708 50.7029C51.708 50.7035 51.708 50.704 51.708 50.7045C51.708 50.705 51.708 50.7056 51.708 50.7061C51.708 50.7066 51.708 50.7071 51.708 50.7076C51.708 50.7082 51.708 50.7087 51.708 50.7092C51.708 50.7097 51.708 50.7102 51.708 50.7108C51.708 50.7113 51.708 50.7118 51.708 50.7123C51.708 50.7128 51.708 50.7134 51.708 50.7139C51.708 50.7144 51.708 50.7149 51.708 50.7154C51.708 50.716 51.708 50.7165 51.708 50.717C51.708 50.7175 51.708 50.718 51.708 50.7185C51.708 50.7191 51.708 50.7196 51.708 50.7201C51.708 50.7206 51.708 50.7211 51.708 50.7217C51.708 50.7222 51.708 50.7227 51.708 50.7232C51.708 50.7237 51.708 50.7242 51.708 50.7248C51.708 50.7253 51.708 50.7258 51.708 50.7263C51.708 50.7268 51.708 50.7273 51.708 50.7279C51.708 50.7284 51.708 50.7289 51.708 50.7294C51.708 50.7299 51.708 50.7304 51.708 50.731C51.708 50.7315 51.708 50.732 51.708 50.7325C51.708 50.733 51.708 50.7335 51.708 50.734C51.708 50.7346 51.708 50.7351 51.708 50.7356C51.708 50.7361 51.708 50.7366 51.708 50.7371C51.708 50.7377 51.708 50.7382 51.708 50.7387C51.708 50.7392 51.708 50.7397 51.708 50.7402C51.708 50.7407 51.708 50.7413 51.708 50.7418C51.708 50.7423 51.708 50.7428 51.708 50.7433C51.708 50.7438 51.708 50.7443 51.708 50.7448C51.708 50.7454 51.708 50.7459 51.708 50.7464C51.708 50.7469 51.708 50.7474 51.708 50.7479C51.708 50.7484 51.708 50.7489 51.708 50.7495C51.708 50.75 51.708 50.7505 51.708 50.751C51.708 50.7515 51.708 50.752 51.708 50.7525C51.708 50.753 51.708 50.7536 51.708 50.7541C51.708 50.7546 51.708 50.7551 51.708 50.7556C51.708 50.7561 51.708 50.7566 51.708 50.7571C51.708 50.7576 51.708 50.7582 51.708 50.7587C51.708 50.7592 51.708 50.7597 51.708 50.7602C51.708 50.7607 51.708 50.7612 51.708 50.7617C51.708 50.7622 51.708 50.7627 51.708 50.7633C51.708 50.7638 51.708 50.7643 51.708 50.7648C51.708 50.7653 51.708 50.7658 51.708 50.7663C51.708 50.7668 51.708 50.7673 51.708 50.7678C51.708 50.7683 51.708 50.7688 51.708 50.7694C51.708 50.7699 51.708 50.7704 51.708 50.7709C51.708 50.7714 51.708 50.7719 51.708 50.7724C51.708 50.7729 51.708 50.7734 51.708 50.7739C51.708 50.7744 51.708 50.7749 51.708 50.7754C51.708 50.7759 51.708 50.7765 51.708 50.777C51.708 50.7775 51.708 50.778 51.708 50.7785C51.708 50.779 51.708 50.7795 51.708 50.78C51.708 50.7805 51.708 50.781 51.708 50.7815C51.708 50.782 51.708 50.7825 51.708 50.783C51.708 50.7835 51.708 50.784 51.708 50.7845C51.708 50.7851 51.708 50.7856 51.708 50.7861C51.708 50.7866 51.708 50.7871 51.708 50.7876C51.708 50.7881 51.708 50.7886 51.708 50.7891C51.708 50.7896 51.708 50.7901 51.708 50.7906C51.708 50.7911 51.708 50.7916 51.708 50.7921C51.708 50.7926 51.708 50.7931 51.708 50.7936C51.708 50.7941 51.708 50.7946 51.708 50.7951C51.708 50.7956 51.708 50.7961 51.708 50.7966C51.708 50.7971 51.708 50.7976 51.708 50.7981C51.708 50.7986 51.708 50.7991 51.708 50.7996C51.708 50.8001 51.708 50.8006 51.708 50.8012C51.708 50.8017 51.708 50.8022 51.708 50.8027C51.708 50.8032 51.708 50.8037 51.708 50.8042C51.708 50.8047 51.708 50.8052 51.708 50.8057C51.708 50.8062 51.708 50.8067 51.708 50.8072C51.708 50.8077 51.708 50.8082 51.708 50.8087C51.708 50.8092 51.708 50.8097 51.708 50.8102C51.708 50.8107 51.708 50.8112 51.708 50.8117C51.708 50.8122 51.708 50.8127 51.708 50.8132C51.708 50.8137 51.708 50.8142 51.708 50.8147C51.708 50.8151 51.708 50.8156 51.708 50.8161C51.708 50.8166 51.708 50.8171 51.708 50.8176C51.708 50.8181 51.708 50.8186 51.708 50.8191C51.708 50.8196 51.708 50.8201 51.708 50.8206C51.708 50.8211 51.708 50.8216 51.708 50.8221C51.708 50.8226 51.708 50.8231 51.708 50.8236C51.708 50.8241 51.708 50.8246 51.708 50.8251C51.708 50.8256 51.708 50.8261 51.708 50.8266C51.708 50.8271 51.708 50.8276 51.708 50.8281C51.708 50.8286 51.708 50.8291 51.708 50.8296C51.708 50.8301 51.708 50.8306 51.708 50.831C51.708 50.8315 51.708 50.832 51.708 50.8325C51.708 50.833 51.708 50.8335 51.708 50.834C51.708 50.8345 51.708 50.835 51.708 50.8355C51.708 50.836 51.708 50.8365 51.708 50.837C51.708 50.8375 51.708 50.838 51.708 50.8385C51.708 50.839 51.708 50.8394 51.708 50.8399C51.708 50.8404 51.708 50.8409 51.708 50.8414C51.708 50.8419 51.708 50.8424 51.708 50.8429C51.708 50.8434 51.708 50.8439 51.708 50.8444C51.708 50.8449 51.708 50.8454 51.708 50.8459C51.708 50.8463 51.708 50.8468 51.708 50.8473C51.708 50.8478 51.708 50.8483 51.708 50.8488C51.708 50.8493 51.708 50.8498 51.708 50.8503C51.708 50.8508 51.708 50.8513 51.708 50.8517C51.708 50.8522 51.708 50.8527 51.708 50.8532C51.708 50.8537 51.708 50.8542 51.708 50.8547C51.708 50.8552 51.708 50.8557 51.708 50.8562C51.708 50.8566 51.708 50.8571 51.708 50.8576C51.708 50.8581 51.708 50.8586 51.708 50.8591C51.708 50.8596 51.708 50.8601 51.708 50.8606C51.708 50.8611 51.708 50.8615 51.708 50.862C51.708 50.8625 51.708 50.863 51.708 50.8635C51.708 50.864 51.708 50.8645 51.708 50.865C51.708 50.8654 51.708 50.8659 51.708 50.8664C51.708 50.8669 51.708 50.8674 51.708 50.8679C51.708 50.8684 51.708 50.8689 51.708 50.8693C51.708 50.8698 51.708 50.8703 51.708 50.8708C51.708 50.8713 51.708 50.8718 51.708 50.8723C51.708 50.8728 51.708 50.8732 51.708 50.8737C51.708 50.8742 51.708 50.8747 51.708 50.8752C51.708 50.8757 51.708 50.8762 51.708 50.8766C51.708 50.8771 51.708 50.8776 51.708 50.8781C51.708 50.8786 51.708 50.8791 51.708 50.8795C51.708 50.88 51.708 50.8805 51.708 50.881C51.708 50.8815 51.708 50.882 51.708 50.8825C51.708 50.8829 51.708 50.8834 51.708 50.8839C51.708 50.8844 51.708 50.8849 51.708 50.8854C51.708 50.8858 51.708 50.8863 51.708 50.8868C51.708 50.8873 51.708 50.8878 51.708 50.8883C51.708 50.8887 51.708 50.8892 51.708 50.8897C51.708 50.8902 51.708 50.8907 51.708 50.8911C51.708 50.8916 51.708 50.8921 51.708 50.8926C51.708 50.8931 51.708 50.8936 51.708 50.894C51.708 50.8945 51.708 50.895 51.708 50.8955C51.708 50.896 51.708 50.8964 51.708 50.8969C51.708 50.8974 51.708 50.8979 51.708 50.8984C51.708 50.8988 51.708 50.8993 51.708 50.8998C51.708 50.9003 51.708 50.9008 51.708 50.9013C51.708 50.9017 51.708 50.9022 51.708 50.9027C51.708 50.9032 51.708 50.9036 51.708 50.9041C51.708 50.9046 51.708 50.9051 51.708 50.9056C51.708 50.906 51.708 50.9065 51.708 50.907C51.708 50.9075 51.708 50.908 51.708 50.9084C51.708 50.9089 51.708 50.9094 51.708 50.9099C51.708 50.9104 51.708 50.9108 51.708 50.9113C51.708 50.9118 51.708 50.9123 51.708 50.9127C51.708 50.9132 51.708 50.9137 51.708 50.9142C51.708 50.9146 51.708 50.9151 51.708 50.9156C51.708 50.9161 51.708 50.9166 51.708 50.917C51.708 50.9175 51.708 50.918 51.708 50.9185C51.708 50.9189 51.708 50.9194 51.708 50.9199C51.708 50.9204 51.708 50.9208 51.708 50.9213C51.708 50.9218 51.708 50.9223 51.708 50.9227C51.708 50.9232 51.708 50.9237 51.708 50.9242C51.708 50.9246 51.708 50.9251 51.708 50.9256C51.708 50.9261 51.708 50.9265 51.708 50.927C51.708 50.9275 51.708 50.928 51.708 50.9284C51.708 50.9289 51.708 50.9294 51.708 50.9299C51.708 50.9303 51.708 50.9308 51.708 50.9313C51.708 50.9318 51.708 50.9322 51.708 50.9327C51.708 50.9332 51.708 50.9336 51.708 50.9341C51.708 50.9346 51.708 50.9351 51.708 50.9355C51.708 50.936 51.708 50.9365 51.708 50.937C51.708 50.9374 51.708 50.9379 51.708 50.9384C51.708 50.9388 51.708 50.9393 51.708 50.9398C51.708 50.9403 51.708 50.9407 51.708 50.9412C51.708 50.9417 51.708 50.9421 51.708 50.9426C51.708 50.9431 51.708 50.9436 51.708 50.944C51.708 50.9445 51.708 50.945 51.708 50.9454C51.708 50.9459 51.708 50.9464 51.708 50.9468C51.708 50.9473 51.708 50.9478 51.708 50.9483C51.708 50.9487 51.708 50.9492 51.708 50.9497C51.708 50.9501 51.708 50.9506 51.708 50.9511C51.708 50.9515 51.708 50.952 51.708 50.9525C51.708 50.9529 51.708 50.9534 51.708 50.9539C51.708 50.9543 51.708 50.9548 51.708 50.9553C51.708 50.9558 51.708 50.9562 51.708 50.9567C51.708 50.9572 51.708 50.9576 51.708 50.9581C51.708 50.9586 51.708 50.959 51.708 50.9595C51.708 50.96 51.708 50.9604 51.708 50.9609C51.708 50.9614 51.708 50.9618 51.708 50.9623C51.708 50.9628 51.708 50.9632 51.708 50.9637C51.708 50.9642 51.708 50.9646 51.708 50.9651C51.708 50.9656 51.708 50.966 51.708 50.9665C51.708 50.9669 51.708 50.9674 51.708 50.9679C51.708 50.9683 51.708 50.9688 51.708 50.9693C51.708 50.9697 51.708 50.9702 51.708 50.9707C51.708 50.9711 51.708 50.9716 51.708 50.9721C51.708 50.9725 51.708 50.973 51.708 50.9735C51.708 50.9739 51.708 50.9744 51.708 50.9748C51.708 50.9753 51.708 50.9758 51.708 50.9762C51.708 50.9767 51.708 50.9772 51.708 50.9776C51.708 50.9781 51.708 50.9786 51.708 50.979C51.708 50.9795 51.708 50.9799 51.708 50.9804C51.708 50.9809 51.708 50.9813 51.708 50.9818C51.708 50.9822 51.708 50.9827 51.708 50.9832C51.708 50.9836 51.708 50.9841 51.708 50.9846C51.708 50.985 51.708 50.9855 51.708 50.9859C51.708 50.9864 51.708 50.9869 51.708 50.9873C51.708 50.9878 51.708 50.9882 51.708 50.9887C51.708 50.9892 51.708 50.9896 51.708 50.9901C51.708 50.9905 51.708 50.991 51.708 50.9915C51.708 50.9919 51.708 50.9924 51.708 50.9928C51.708 50.9933 51.708 50.9938 51.708 50.9942C51.708 50.9947 51.708 50.9951 51.708 50.9956C51.708 50.9961 51.708 50.9965 51.708 50.997C51.708 50.9974 51.708 50.9979 51.708 50.9984C51.708 50.9988 51.708 50.9993 51.708 50.9997C51.708 51.0002 51.708 51.0006 51.708 51.0011C51.708 51.0016 51.708 51.002 51.708 51.0025C51.708 51.0029 51.708 51.0034 51.708 51.0038C51.708 51.0043 51.708 51.0048 51.708 51.0052C51.708 51.0057 51.708 51.0061 51.708 51.0066C51.708 51.007 51.708 51.0075 51.708 51.0079C51.708 51.0084 51.708 51.0089 51.708 51.0093C51.708 51.0098 51.708 51.0102 51.708 51.0107C51.708 51.0111 51.708 51.0116 51.708 51.012C51.708 51.0125 51.708 51.013 51.708 51.0134C51.708 51.0139 51.708 51.0143 51.708 51.0148C51.708 51.0152 51.708 51.0157 51.708 51.0161C51.708 51.0166 51.708 51.017 51.708 51.0175C51.708 51.018 51.708 51.0184 51.708 51.0189C51.708 51.0193 51.708 51.0198 51.708 51.0202C51.708 51.0207 51.708 51.0211 51.708 51.0216C51.708 51.022 51.708 51.0225 51.708 51.0229C51.708 51.0234 51.708 51.0238 51.708 51.0243C51.708 51.0247 51.708 51.0252 51.708 51.0257C51.708 51.0261 51.708 51.0266 51.708 51.027C51.708 51.0275 51.708 51.0279 51.708 51.0284C51.708 51.0288 51.708 51.0293 51.708 51.0297C51.708 51.0302 51.708 51.0306 51.708 51.0311C51.708 51.0315 51.708 51.032 51.708 51.0324C51.708 51.0329 51.708 51.0333 51.708 51.0338C51.708 51.0342 51.708 51.0347 51.708 51.0351C51.708 51.0356 51.708 51.036 51.708 51.0365C51.708 51.0369 51.708 51.0374 51.708 51.0378C51.708 51.0383 51.708 51.0387 51.708 51.0392C51.708 51.0396 51.708 51.0401 51.708 51.0405C51.708 51.041 51.708 51.0414 51.708 51.0419C51.708 51.0423 51.708 51.0427 51.708 51.0432C51.708 51.0436 51.708 51.0441 51.708 51.0445C51.708 51.045 51.708 51.0454 51.708 51.0459C51.708 51.0463 51.708 51.0468 51.708 51.0472C51.708 51.0477 51.708 51.0481 51.708 51.0486C51.708 51.049 51.708 51.0495 51.708 51.0499C51.708 51.0503 51.708 51.0508 51.708 51.0512C51.708 51.0517 51.708 51.0521 51.708 51.0526C51.708 51.053 51.708 51.0535 51.708 51.0539C51.708 51.0544 51.708 51.0548 51.708 51.0552C51.708 51.0557 51.708 51.0561 51.708 51.0566C51.708 51.057 51.708 51.0575 51.708 51.0579C51.708 51.0584 51.708 51.0588 51.708 51.0592C51.708 51.0597 51.708 51.0601 51.708 51.0606C51.708 51.061 51.708 51.0615 51.708 51.0619C51.708 51.0624 51.708 51.0628 51.708 51.0632C51.708 51.0637 51.708 51.0641 51.708 51.0646C51.708 51.065 51.708 51.0655 51.708 51.0659C51.708 51.0663 51.708 51.0668 51.708 51.0672C51.708 51.0677 51.708 51.0681 51.708 51.0686C51.708 51.069 51.708 51.0694 51.708 51.0699C51.708 51.0703 51.708 51.0708 51.708 51.0712C51.708 51.0716 51.708 51.0721 51.708 51.0725C51.708 51.073 51.708 51.0734 51.708 51.0738C51.708 51.0743 51.708 51.0747 51.708 51.0752C51.708 51.0756 51.708 51.076 51.708 51.0765C51.708 51.0769 51.708 51.0774 51.708 51.0778C51.708 51.0782 51.708 51.0787 51.708 51.0791C51.708 51.0796 51.708 51.08 51.708 51.0804C51.708 51.0809 51.708 51.0813 51.708 51.0818C51.708 51.0822 51.708 51.0826 51.708 51.0831C51.708 51.0835 51.708 51.0839 51.708 51.0844C51.708 51.0848 51.708 51.0853 51.708 51.0857C51.708 51.0861 51.708 51.0866 51.708 51.087C51.708 51.0875 51.708 51.0879 51.708 51.0883C51.708 51.0888 51.708 51.0892 51.708 51.0896C51.708 51.0901 51.708 51.0905 51.708 51.0909C51.708 51.0914 51.708 51.0918 51.708 51.0923C51.708 51.0927 51.708 51.0931 51.708 51.0936C51.708 51.094 51.708 51.0944 51.708 51.0949C51.708 51.0953 51.708 51.0957 51.708 51.0962C51.708 51.0966 51.708 51.097 51.708 51.0975C51.708 51.0979 51.708 51.0984 51.708 51.0988C51.708 51.0992 51.708 51.0997 51.708 51.1001C51.708 51.1005 51.708 51.101 51.708 51.1014C51.708 51.1018 51.708 51.1023 51.708 51.1027C51.708 51.1031 51.708 51.1036 51.708 51.104C51.708 51.1044 51.708 51.1049 51.708 51.1053C51.708 51.1057 51.708 51.1062 51.708 51.1066C51.708 51.107 51.708 51.1075 51.708 51.1079C51.708 51.1083 51.708 51.1088 51.708 51.1092C51.708 51.1096 51.708 51.11 51.708 51.1105C51.708 51.1109 51.708 51.1113 51.708 51.1118C51.708 51.1122 51.708 51.1126 51.708 51.1131C51.708 51.1135 51.708 51.1139 51.708 51.1144C51.708 51.1148 51.708 51.1152 51.708 51.1157C51.708 51.1161 51.708 51.1165 51.708 51.1169C51.708 51.1174 51.708 51.1178 51.708 51.1182C51.708 51.1187 51.708 51.1191 51.708 51.1195C51.708 51.12 51.708 51.1204 51.708 51.1208C51.708 51.1212 51.708 51.1217 51.708 51.1221C51.708 51.1225 51.708 51.123 51.708 51.1234C51.708 51.1238 51.708 51.1242 51.708 51.1247C51.708 51.1251 51.708 51.1255 51.708 51.126C51.708 51.1264 51.708 51.1268 51.708 51.1272C51.708 51.1277 51.708 51.1281 51.708 51.1285C51.708 51.1289 51.708 51.1294 51.708 51.1298C51.708 51.1302 51.708 51.1307 51.708 51.1311C51.708 51.1315 51.708 51.1319 51.708 51.1324C51.708 51.1328 51.708 51.1332 51.708 51.1336C51.708 51.1341 51.708 51.1345 51.708 51.1349C51.708 51.1353 51.708 51.1358 51.708 51.1362C51.708 51.1366 51.708 51.137 51.708 51.1375C51.708 51.1379 51.708 51.1383 51.708 51.1387C51.708 51.1392 51.708 51.1396 51.708 51.14C51.708 51.1404 51.708 51.1409 51.708 51.1413C51.708 51.1417 51.708 51.1421 51.708 51.1426C51.708 51.143 51.708 51.1434 51.708 51.1438C51.708 51.1443 51.708 51.1447 51.708 51.1451C51.708 51.1455 51.708 51.1459 51.708 51.1464C51.708 51.1468 51.708 51.1472 51.708 51.1476C51.708 51.1481 51.708 51.1485 51.708 51.1489C51.708 51.1493 51.708 51.1498 51.708 51.1502C51.708 51.1506 51.708 51.151 51.708 51.1514C51.708 51.1519 51.708 51.1523 51.708 51.1527C51.708 51.1531 51.708 51.1535 51.708 51.154C51.708 51.1544 51.708 51.1548 51.708 51.1552C51.708 51.1557 51.708 51.1561 51.708 51.1565C51.708 51.1569 51.708 51.1573 51.708 51.1578C51.708 51.1582 51.708 51.1586 51.708 51.159C51.708 51.1594 51.708 51.1599 51.708 51.1603C51.708 51.1607 51.708 51.1611 51.708 51.1615C51.708 51.1619 51.708 51.1624 51.708 51.1628C51.708 51.1632 51.708 51.1636 51.708 51.164C51.708 51.1645 51.708 51.1649 51.708 51.1653C51.708 51.1657 51.708 51.1661 51.708 51.1665C51.708 51.167 51.708 51.1674 51.708 51.1678C51.708 51.1682 51.708 51.1686 51.708 51.1691C51.708 51.1695 51.708 51.1699 51.708 51.1703C51.708 51.1707 51.708 51.1711 51.708 51.1716C51.708 51.172 51.708 51.1724 51.708 51.1728C51.708 51.1732 51.708 51.1736 51.708 51.1741C51.708 51.1745 51.708 51.1749 51.708 51.1753C51.708 51.1757 51.708 51.1761 51.708 51.1765C51.708 51.177 51.708 51.1774 51.708 51.1778C51.708 51.1782 51.708 51.1786 51.708 51.179C51.708 51.1795 51.708 51.1799 51.708 51.1803C51.708 51.1807 51.708 51.1811 51.708 51.1815C51.708 51.1819 51.708 51.1824 51.708 51.1828C51.708 51.1832 51.708 51.1836 51.708 51.184C51.708 51.1844 51.708 51.1848 51.708 51.1852C51.708 51.1857 51.708 51.1861 51.708 51.1865C51.708 51.1869 51.708 51.1873 51.708 51.1877C51.708 51.1881 51.708 51.1885 51.708 51.189C51.708 51.1894 51.708 51.1898 51.708 51.1902C51.708 51.1906 51.708 51.191 51.708 51.1914C51.708 51.1918 51.708 51.1923 51.708 51.1927C51.708 51.1931 51.708 51.1935 51.708 51.1939C51.708 51.1943 51.708 51.1947 51.708 51.1951C51.708 51.1955 51.708 51.196 51.708 51.1964C51.708 51.1968 51.708 51.1972 51.708 51.1976C51.708 51.198 51.708 51.1984 51.708 51.1988C51.708 51.1992 51.708 51.1996 51.708 51.2C51.708 51.2005 51.708 51.2009 51.708 51.2013C51.708 51.2017 51.708 51.2021 51.708 51.2025C51.708 51.2029 51.708 51.2033 51.708 51.2037C51.708 51.2041 51.708 51.2045 51.708 51.205C51.708 51.2054 51.708 51.2058 51.708 51.2062C51.708 51.2066 51.708 51.207 51.708 51.2074C51.708 51.2078 51.708 51.2082 51.708 51.2086C51.708 51.209 51.708 51.2094 51.708 51.2098C51.708 51.2102 51.708 51.2107 51.708 51.2111C51.708 51.2115 51.708 51.2119 51.708 51.2123C51.708 51.2127 51.708 51.2131 51.708 51.2135C51.708 51.2139 51.708 51.2143 51.708 51.2147C51.708 51.2151 51.708 51.2155 51.708 51.2159C51.708 51.2163 51.708 51.2167 51.708 51.2171C51.708 51.2176 51.708 51.218 51.708 51.2184C51.708 51.2188 51.708 51.2192 51.708 51.2196C51.708 51.22 51.708 51.2204 51.708 51.2208C51.708 51.2212 51.708 51.2216 51.708 51.222H53.708ZM53.6979 50.6194C53.7327 50.3764 53.785 50.1316 53.8555 49.8847L51.9325 49.3353C51.8377 49.6671 51.766 50.0009 51.7181 50.3366L53.6979 50.6194ZM53.8588 49.8731C54.3538 48.0578 54.7804 46.9122 55.1199 46.335L53.3961 45.321C52.9089 46.1492 52.4262 47.5248 51.9292 49.3469L53.8588 49.8731ZM55.1305 46.3166C55.5487 45.5698 56.42 44.8608 57.9571 44.2843L57.2549 42.4117C55.4853 43.0752 54.1246 44.0196 53.3855 45.3394L55.1305 46.3166ZM57.606 44.348C57.3954 44.348 57.2782 44.2674 57.3172 44.2893C57.3301 44.2965 57.3784 44.327 57.4688 44.401C57.6475 44.5472 57.9029 44.7906 58.243 45.1506L59.697 43.7774C59.3344 43.3934 59.0112 43.0788 58.7352 42.853C58.5983 42.741 58.4503 42.632 58.2978 42.5462C58.1715 42.4751 57.9199 42.348 57.606 42.348V44.348ZM58.2629 45.1711C59.0049 45.9131 59.7649 46.4846 60.5359 46.7218L61.1241 44.8102C60.8204 44.7168 60.3404 44.4202 59.6771 43.7569L58.2629 45.1711ZM60.5427 46.7238C60.9644 46.8503 61.412 46.8254 61.8203 46.7489C62.2403 46.6701 62.7011 46.5206 63.1926 46.3195L62.4354 44.4685C62.0175 44.6394 61.6931 44.7379 61.4517 44.7831C61.1987 44.8306 61.109 44.8057 61.1173 44.8082L60.5427 46.7238ZM63.1926 46.3195C64.1115 45.9436 64.6315 45.7918 64.8464 45.7679L64.6256 43.7801C64.0965 43.8389 63.3352 44.1004 62.4354 44.4685L63.1926 46.3195ZM64.736 45.774C65.0322 45.774 66.035 45.7073 67.6628 45.5852L67.5132 43.5908C65.8343 43.7167 64.9358 43.774 64.736 43.774V45.774ZM67.6628 45.5852C69.3129 45.4614 70.5828 45.3796 71.4774 45.339L71.3866 43.341C70.4626 43.383 69.1698 43.4666 67.5132 43.5908L67.6628 45.5852ZM71.432 45.34C72.1389 45.34 72.846 45.3793 73.5536 45.4579L73.7744 43.4701C72.994 43.3834 72.2131 43.34 71.432 43.34V45.34ZM73.6085 45.4625C74.3043 45.5011 75.1118 45.5987 76.0347 45.7592L76.3773 43.7888C75.3989 43.6186 74.5117 43.5095 73.7195 43.4655L73.6085 45.4625ZM76.082 45.7663C77.0763 45.8906 77.7076 45.9721 77.9866 46.0119L78.2694 44.032C77.9697 43.9892 77.3197 43.9054 76.33 43.7817L76.082 45.7663ZM78.0176 46.0159C78.4045 46.0589 78.8711 46.1012 79.4153 46.1431L79.5687 44.1489C79.0382 44.1081 78.5955 44.0678 78.2384 44.0281L78.0176 46.0159ZM79.4153 46.1431C79.9554 46.1846 80.2717 46.2225 80.4119 46.2506L80.8041 44.2894C80.531 44.2348 80.1032 44.1901 79.5687 44.1489L79.4153 46.1431ZM80.4119 46.2506C80.5836 46.2849 80.8039 46.3394 81.0773 46.4175L81.6267 44.4945C81.3214 44.4072 81.0457 44.3377 80.8041 44.2894L80.4119 46.2506ZM81.2106 46.4459C81.2536 46.4521 81.2866 46.4588 81.311 46.4649C81.3354 46.471 81.3485 46.4758 81.3526 46.4775C81.3628 46.4816 81.3207 46.4669 81.2649 46.4111L82.6791 44.9969C82.3299 44.6477 81.867 44.5194 81.4934 44.466L81.2106 46.4459ZM81.4173 46.536C81.3929 46.5198 81.3791 46.505 81.3743 46.4992C81.3701 46.4941 81.3759 46.4998 81.3876 46.5232L83.1764 45.6288C83.0344 45.3448 82.8264 45.0718 82.5267 44.872L81.4173 46.536ZM81.482 46.676C81.527 46.736 81.5861 46.8405 81.6433 47.0122L83.5407 46.3798C83.4326 46.0555 83.285 45.7466 83.082 45.476L81.482 46.676ZM81.9276 45.9486C81.4323 46.3889 80.848 47.2112 80.1903 48.2799L81.8937 49.3281C82.5587 48.2474 83.0077 47.6644 83.2564 47.4434L81.9276 45.9486ZM80.1758 48.3043C79.6104 49.2843 79.0893 49.7028 78.6798 49.8393L79.3122 51.7367C80.3907 51.3772 81.2336 50.4731 81.9082 49.3037L80.1758 48.3043ZM78.6798 49.8393C78.2901 49.9692 77.7824 50.0619 77.1393 50.0997L77.2567 52.0963C78.0189 52.0514 78.7099 51.9375 79.3122 51.7367L78.6798 49.8393ZM77.1356 50.0999C76.4994 50.1397 75.7767 50.16 74.966 50.16V52.16C75.8086 52.16 76.574 52.139 77.2604 52.0961L77.1356 50.0999ZM74.966 50.16C74.1271 50.16 73.4346 50.1808 72.899 50.2255L73.0651 52.2185C73.5214 52.1805 74.1516 52.16 74.966 52.16V50.16ZM72.9196 50.2239C72.4365 50.2541 71.5817 50.1304 70.2767 49.7633L69.7353 51.6886C71.0756 52.0656 72.2048 52.2725 73.0444 52.2201L72.9196 50.2239ZM70.2767 49.7633C68.9531 49.3911 67.9154 49.1578 67.2252 49.1085L67.0828 51.1035C67.5499 51.1368 68.4136 51.3169 69.7353 51.6886L70.2767 49.7633ZM67.154 49.106C66.3793 49.106 65.3315 49.3297 64.0767 49.7062L64.6513 51.6218C65.8765 51.2543 66.6887 51.106 67.154 51.106V49.106ZM64.0676 49.7089C62.9057 50.0695 62.1425 50.1613 61.698 50.1057L61.45 52.0903C62.3281 52.2 63.425 52.0025 64.6604 51.6191L64.0676 49.7089ZM60.5759 51.0356C60.5283 51.7976 60.6012 52.7854 60.7701 53.9674L62.7499 53.6846C62.5881 52.5519 62.537 51.721 62.5721 51.1604L60.5759 51.0356ZM60.7701 53.9674C60.9334 55.1112 61.008 55.944 61.008 56.492H63.008C63.008 55.8 62.9172 54.8555 62.7499 53.6846L60.7701 53.9674ZM61.0105 56.4208C60.9697 56.9921 60.9082 57.751 60.8258 58.6994L62.8182 58.8726C62.9011 57.9196 62.9636 57.1492 63.0055 56.5632L61.0105 56.4208ZM60.8229 58.7426C60.7812 59.702 60.76 60.5234 60.76 61.204H62.76C62.76 60.5619 62.7801 59.7713 62.8211 58.8294L60.8229 58.7426ZM61.9014 62.1939C62.5898 62.0956 63.5218 62.1694 64.7341 62.4823L65.2339 60.5457C63.8836 60.1973 62.6662 60.0644 61.6186 60.214L61.9014 62.1939ZM64.7637 62.4894C66.0425 62.7782 67.085 62.9372 67.7887 62.8831L67.6353 60.8889C67.2643 60.9175 66.4881 60.8285 65.2043 60.5386L64.7637 62.4894ZM67.712 62.886C68.2435 62.886 68.8218 62.924 69.448 63.0023L69.696 61.0177C68.9996 60.9307 68.3378 60.886 67.712 60.886V62.886ZM69.5133 63.0083C70.2048 63.049 70.6439 63.1072 70.8795 63.1661L71.3645 61.2259C70.9388 61.1194 70.3445 61.0537 69.6307 61.0117L69.5133 63.0083ZM70.998 63.1883C71.2831 63.2239 71.8047 63.3192 72.59 63.4845L73.002 61.5274C72.2166 61.3621 71.6223 61.2507 71.246 61.2037L70.998 63.1883ZM72.5999 63.4866C73.0151 63.5696 73.3422 63.633 73.5781 63.6759C73.6955 63.6972 73.796 63.7145 73.8762 63.7269C73.9254 63.7344 74.0484 63.754 74.16 63.754V61.754C74.2302 61.754 74.2654 61.7632 74.1803 61.7501C74.1262 61.7418 74.0459 61.7281 73.9359 61.7081C73.7172 61.6684 73.4036 61.6077 72.9921 61.5254L72.5999 63.4866ZM73.9639 63.7346C74.6361 63.869 75.4839 63.9763 76.495 64.0605L76.661 62.0675C75.6881 61.9864 74.9239 61.887 74.3561 61.7734L73.9639 63.7346ZM76.4983 64.0608C77.5018 64.1411 78.2895 64.2591 78.8775 64.4061L79.3625 62.4659C78.6279 62.2822 77.7208 62.1522 76.6577 62.0672L76.4983 64.0608ZM78.9357 64.4189C79.4795 64.5208 79.8925 64.6989 80.2058 64.9267L81.3822 63.3093C80.7861 62.8758 80.0832 62.5992 79.3043 62.4531L78.9357 64.4189Z" fill="#004E44" mask="url(#path-3-outside-1_105_1871)"/>
</g>
<defs>
<filter id="filter0_dd_105_1871" x="0.5" y="0" width="136" height="136" filterUnits="userSpaceOnUse" color-interpolation-filters="sRGB">
<feFlood flood-opacity="0" result="BackgroundImageFix"/>
<feColorMatrix in="SourceAlpha" type="matrix" values="0 0 0 0 0 0 0 0 0 0 0 0 0 0 0 0 0 0 127 0" result="hardAlpha"/>
<feOffset dx="4" dy="4"/>
<feGaussianBlur stdDeviation="2"/>
<feComposite in2="hardAlpha" operator="out"/>
<feColorMatrix type="matrix" values="0 0 0 0 0.701961 0 0 0 0 0.878431 0 0 0 0 0.156863 0 0 0 1 0"/>
<feBlend mode="normal" in2="BackgroundImageFix" result="effect1_dropShadow_105_1871"/>
<feColorMatrix in="SourceAlpha" type="matrix" values="0 0 0 0 0 0 0 0 0 0 0 0 0 0 0 0 0 0 127 0" result="hardAlpha"/>
<feOffset dx="-4" dy="-4"/>
<feGaussianBlur stdDeviation="2"/>
<feComposite in2="hardAlpha" operator="out"/>
<feColorMatrix type="matrix" values="0 0 0 0 0.701961 0 0 0 0 0.878431 0 0 0 0 0.156863 0 0 0 1 0"/>
<feBlend mode="normal" in2="effect1_dropShadow_105_1871" result="effect2_dropShadow_105_1871"/>
<feBlend mode="normal" in="SourceGraphic" in2="effect2_dropShadow_105_1871" result="shape"/>
</filter>
</defs>
</svg>
