<svg width="136" height="136" viewBox="0 0 136 136" fill="none" xmlns="http://www.w3.org/2000/svg">
<g filter="url(#filter0_dd_105_1844)">
<rect x="8" y="8" width="120" height="120" rx="60" fill="#03AEC6" shape-rendering="crispEdges"/>
<rect x="9.5" y="9.5" width="117" height="117" rx="58.5" stroke="#004E44" stroke-width="3" shape-rendering="crispEdges"/>
<mask id="path-3-outside-1_105_1844" maskUnits="userSpaceOnUse" x="50.5" y="40.5" width="34" height="48" fill="black">
<rect fill="white" x="50.5" y="40.5" width="34" height="48"/>
<path d="M82.174 46.82C82.05 47.068 81.7813 47.5847 81.368 48.37C80.996 49.114 80.7067 49.734 80.5 50.23C80.376 50.5193 80.004 51.408 79.384 52.896C78.8053 54.3427 78.3093 55.5 77.896 56.368C77.5653 56.988 77.2347 58.0627 76.904 59.592C76.6147 61.08 76.284 62.196 75.912 62.94C75.5813 63.6013 74.6513 64.3867 73.122 65.296C71.634 66.164 70.704 66.9287 70.332 67.59C69.96 68.2513 69.712 69.4087 69.588 71.062C69.464 72.674 69.2367 73.79 68.906 74.41C68.4513 75.1953 67.7487 76.1873 66.798 77.386C65.8473 78.5433 65.2067 79.37 64.876 79.866C64.628 80.3207 64.38 81.0853 64.132 82.16C63.884 83.2347 63.7393 83.8547 63.698 84.02C63.4087 85.012 62.892 85.9833 62.148 86.934C61.4867 86.81 60.9907 86.6033 60.66 86.314C60.3293 85.9833 60.04 85.4047 59.792 84.578C59.7507 84.454 59.668 84.206 59.544 83.834C59.4613 83.462 59.3993 83.214 59.358 83.09C59.3167 82.9247 59.2547 82.6767 59.172 82.346C59.0893 82.0153 59.048 81.7467 59.048 81.54C59.048 81.3333 59.048 81.106 59.048 80.858C59.048 80.5687 59.0687 80.3 59.11 80.052C59.2753 79.3907 59.8333 78.378 60.784 77.014C61.7347 75.65 62.3547 74.6373 62.644 73.976C62.9333 73.4387 63.264 72.4053 63.636 70.876C64.0493 69.3053 64.4627 68.148 64.876 67.404C65.248 66.7013 66.054 65.8333 67.294 64.8C68.534 63.7253 69.34 62.878 69.712 62.258C70.1667 61.5553 70.4147 60.3153 70.456 58.538C70.5387 56.7193 70.7453 55.5413 71.076 55.004C71.572 54.26 72.068 53.64 72.564 53.144C73.1013 52.6067 73.6387 52.152 74.176 51.78C74.7133 51.3667 75.0647 51.0773 75.23 50.912C73.7007 50.7053 72.0473 50.664 70.27 50.788C69.8567 50.8293 68.8853 50.9327 67.356 51.098C65.8267 51.222 64.6487 51.3047 63.822 51.346C63.574 51.346 63.14 51.4287 62.52 51.594C61.9 51.718 61.4247 51.8007 61.094 51.842C60.7633 51.8833 60.35 51.78 59.854 51.532C59.5647 51.3253 59.1927 50.8707 58.738 50.168C58.3247 49.4653 57.932 49.0933 57.56 49.052C56.5267 48.928 55.6173 48.9073 54.832 48.99C54.088 49.0727 53.4473 49.0727 52.91 48.99C52.414 48.866 52.104 48.5767 51.98 48.122C53.3853 47.0887 55.266 46.2413 57.622 45.58C58.2007 45.4147 59.1513 44.7947 60.474 43.72C61.838 42.604 62.9127 42.0253 63.698 41.984C64.4007 41.9427 65.496 42.108 66.984 42.48C68.472 42.852 69.5467 43.0587 70.208 43.1C70.9107 43.1 71.9647 43.658 73.37 44.774C74.7753 45.8487 75.8293 46.386 76.532 46.386C77.276 46.4273 78.3507 45.9313 79.756 44.898C81.1613 43.8647 82.1947 43.3273 82.856 43.286C83.0213 43.286 83.104 43.4307 83.104 43.72C83.1453 44.0093 83.0833 44.4433 82.918 45.022C82.7527 45.5593 82.5047 46.1587 82.174 46.82Z"/>
</mask>
<path d="M82.174 46.82C82.05 47.068 81.7813 47.5847 81.368 48.37C80.996 49.114 80.7067 49.734 80.5 50.23C80.376 50.5193 80.004 51.408 79.384 52.896C78.8053 54.3427 78.3093 55.5 77.896 56.368C77.5653 56.988 77.2347 58.0627 76.904 59.592C76.6147 61.08 76.284 62.196 75.912 62.94C75.5813 63.6013 74.6513 64.3867 73.122 65.296C71.634 66.164 70.704 66.9287 70.332 67.59C69.96 68.2513 69.712 69.4087 69.588 71.062C69.464 72.674 69.2367 73.79 68.906 74.41C68.4513 75.1953 67.7487 76.1873 66.798 77.386C65.8473 78.5433 65.2067 79.37 64.876 79.866C64.628 80.3207 64.38 81.0853 64.132 82.16C63.884 83.2347 63.7393 83.8547 63.698 84.02C63.4087 85.012 62.892 85.9833 62.148 86.934C61.4867 86.81 60.9907 86.6033 60.66 86.314C60.3293 85.9833 60.04 85.4047 59.792 84.578C59.7507 84.454 59.668 84.206 59.544 83.834C59.4613 83.462 59.3993 83.214 59.358 83.09C59.3167 82.9247 59.2547 82.6767 59.172 82.346C59.0893 82.0153 59.048 81.7467 59.048 81.54C59.048 81.3333 59.048 81.106 59.048 80.858C59.048 80.5687 59.0687 80.3 59.11 80.052C59.2753 79.3907 59.8333 78.378 60.784 77.014C61.7347 75.65 62.3547 74.6373 62.644 73.976C62.9333 73.4387 63.264 72.4053 63.636 70.876C64.0493 69.3053 64.4627 68.148 64.876 67.404C65.248 66.7013 66.054 65.8333 67.294 64.8C68.534 63.7253 69.34 62.878 69.712 62.258C70.1667 61.5553 70.4147 60.3153 70.456 58.538C70.5387 56.7193 70.7453 55.5413 71.076 55.004C71.572 54.26 72.068 53.64 72.564 53.144C73.1013 52.6067 73.6387 52.152 74.176 51.78C74.7133 51.3667 75.0647 51.0773 75.23 50.912C73.7007 50.7053 72.0473 50.664 70.27 50.788C69.8567 50.8293 68.8853 50.9327 67.356 51.098C65.8267 51.222 64.6487 51.3047 63.822 51.346C63.574 51.346 63.14 51.4287 62.52 51.594C61.9 51.718 61.4247 51.8007 61.094 51.842C60.7633 51.8833 60.35 51.78 59.854 51.532C59.5647 51.3253 59.1927 50.8707 58.738 50.168C58.3247 49.4653 57.932 49.0933 57.56 49.052C56.5267 48.928 55.6173 48.9073 54.832 48.99C54.088 49.0727 53.4473 49.0727 52.91 48.99C52.414 48.866 52.104 48.5767 51.98 48.122C53.3853 47.0887 55.266 46.2413 57.622 45.58C58.2007 45.4147 59.1513 44.7947 60.474 43.72C61.838 42.604 62.9127 42.0253 63.698 41.984C64.4007 41.9427 65.496 42.108 66.984 42.48C68.472 42.852 69.5467 43.0587 70.208 43.1C70.9107 43.1 71.9647 43.658 73.37 44.774C74.7753 45.8487 75.8293 46.386 76.532 46.386C77.276 46.4273 78.3507 45.9313 79.756 44.898C81.1613 43.8647 82.1947 43.3273 82.856 43.286C83.0213 43.286 83.104 43.4307 83.104 43.72C83.1453 44.0093 83.0833 44.4433 82.918 45.022C82.7527 45.5593 82.5047 46.1587 82.174 46.82Z" fill="#B3E028"/>
<path d="M82.174 46.82L81.2796 46.3728L81.2796 46.3728L82.174 46.82ZM81.368 48.37L80.4831 47.9043L80.4782 47.9135L80.4736 47.9228L81.368 48.37ZM80.5 50.23L81.4192 50.6239L81.4231 50.6146L80.5 50.23ZM79.384 52.896L78.4609 52.5114L78.4582 52.518L78.4555 52.5246L79.384 52.896ZM77.896 56.368L78.7784 56.8386L78.7891 56.8185L78.7989 56.7979L77.896 56.368ZM76.904 59.592L75.9266 59.3807L75.9244 59.3909L75.9224 59.4011L76.904 59.592ZM75.912 62.94L76.8064 63.3872L75.912 62.94ZM73.122 65.296L73.6259 66.1598L73.6331 66.1555L73.122 65.296ZM69.588 71.062L70.5851 71.1387L70.5852 71.1368L69.588 71.062ZM68.906 74.41L69.7714 74.911L69.7802 74.896L69.7884 74.8806L68.906 74.41ZM66.798 77.386L67.5707 78.0207L67.5762 78.0141L67.5815 78.0074L66.798 77.386ZM64.876 79.866L64.044 79.3113L64.0193 79.3482L63.9981 79.3871L64.876 79.866ZM64.132 82.16L65.1064 82.3849L64.132 82.16ZM63.698 84.02L64.658 84.3L64.6634 84.2814L64.6681 84.2625L63.698 84.02ZM62.148 86.934L61.9637 87.9169L62.561 88.0289L62.9355 87.5503L62.148 86.934ZM60.66 86.314L59.9529 87.0211L59.9764 87.0447L60.0015 87.0666L60.66 86.314ZM59.792 84.578L60.7498 84.2907L60.7455 84.2761L60.7407 84.2618L59.792 84.578ZM59.544 83.834L58.5678 84.0509L58.579 84.1013L58.5953 84.1502L59.544 83.834ZM59.358 83.09L58.3879 83.3325L58.3972 83.3698L58.4093 83.4062L59.358 83.09ZM59.172 82.346L58.2019 82.5885L59.172 82.346ZM59.11 80.052L58.1399 79.8095L58.1302 79.8482L58.1236 79.8876L59.11 80.052ZM60.784 77.014L59.9636 76.4422H59.9636L60.784 77.014ZM62.644 73.976L61.7635 73.5019L61.7442 73.5378L61.7278 73.5752L62.644 73.976ZM63.636 70.876L62.6689 70.6215L62.6665 70.6306L62.6643 70.6396L63.636 70.876ZM64.876 67.404L65.7502 67.8896L65.7551 67.8808L65.7598 67.8719L64.876 67.404ZM67.294 64.8L67.9342 65.5682L67.9416 65.562L67.9489 65.5557L67.294 64.8ZM69.712 62.258L68.8724 61.7147L68.8632 61.729L68.8545 61.7435L69.712 62.258ZM70.456 58.538L69.457 58.4926L69.4565 58.5037L69.4563 58.5147L70.456 58.538ZM71.076 55.004L70.2439 54.4493L70.2339 54.4644L70.2243 54.4799L71.076 55.004ZM72.564 53.144L71.8569 52.4369L71.8569 52.4369L72.564 53.144ZM74.176 51.78L74.7452 52.6022L74.7658 52.5879L74.7857 52.5726L74.176 51.78ZM75.23 50.912L75.9371 51.6191L77.3648 50.1914L75.3639 49.921L75.23 50.912ZM70.27 50.788L70.2004 49.7904L70.1854 49.7915L70.1705 49.793L70.27 50.788ZM67.356 51.098L67.4368 52.0947L67.4502 52.0936L67.4635 52.0922L67.356 51.098ZM63.822 51.346V52.346H63.847L63.8719 52.3448L63.822 51.346ZM62.52 51.594L62.7161 52.5746L62.7471 52.5684L62.7777 52.5602L62.52 51.594ZM59.854 51.532L59.2728 52.3457L59.3366 52.3913L59.4068 52.4264L59.854 51.532ZM58.738 50.168L57.8761 50.675L57.8869 50.6934L57.8984 50.7112L58.738 50.168ZM57.56 49.052L57.4409 50.0449L57.4496 50.0459L57.56 49.052ZM54.832 48.99L54.7273 47.9955L54.7216 47.9961L54.832 48.99ZM52.91 48.99L52.6675 49.9601L52.7123 49.9713L52.7579 49.9784L52.91 48.99ZM51.98 48.122L51.3876 47.3163L50.8346 47.7229L51.0152 48.3851L51.98 48.122ZM57.622 45.58L57.8923 46.5428L57.8967 46.5415L57.622 45.58ZM60.474 43.72L61.1046 44.4961L61.1072 44.494L60.474 43.72ZM63.698 41.984L63.7506 42.9826L63.7567 42.9823L63.698 41.984ZM66.984 42.48L66.7415 43.4501L66.984 42.48ZM70.208 43.1L70.1456 44.098L70.1768 44.1H70.208V43.1ZM73.37 44.774L72.7481 45.5571L72.7553 45.5628L72.7626 45.5684L73.37 44.774ZM76.532 46.386L76.5875 45.3875L76.5598 45.386H76.532V46.386ZM79.756 44.898L80.3484 45.7037V45.7037L79.756 44.898ZM82.856 43.286V42.286H82.8248L82.7936 42.2879L82.856 43.286ZM83.104 43.72H82.104V43.7911L82.1141 43.8614L83.104 43.72ZM82.918 45.022L83.8738 45.3161L83.8768 45.3064L83.8795 45.2967L82.918 45.022ZM81.2796 46.3728C81.1611 46.6098 80.8975 47.1169 80.4831 47.9043L82.2529 48.8357C82.6652 48.0524 82.9389 47.5262 83.0684 47.2672L81.2796 46.3728ZM80.4736 47.9228C80.0962 48.6775 79.7958 49.3201 79.5769 49.8454L81.4231 50.6146C81.6175 50.1479 81.8958 49.5505 82.2624 48.8172L80.4736 47.9228ZM79.5809 49.8361C79.4543 50.1313 79.0799 51.0259 78.4609 52.5114L80.3071 53.2806C80.9281 51.7901 81.2977 50.9074 81.4191 50.6239L79.5809 49.8361ZM78.4555 52.5246C77.8806 53.962 77.3935 55.0973 76.9931 55.9381L78.7989 56.7979C79.2252 55.9027 79.7301 54.7233 80.3125 53.2674L78.4555 52.5246ZM77.0136 55.8974C76.6123 56.6499 76.2589 57.8438 75.9266 59.3807L77.8814 59.8033C78.2105 58.2815 78.5184 57.3261 78.7784 56.8386L77.0136 55.8974ZM75.9224 59.4011C75.6387 60.8603 75.3286 61.8708 75.0176 62.4928L76.8064 63.3872C77.2394 62.5212 77.5907 61.2997 77.8856 59.7829L75.9224 59.4011ZM75.0176 62.4928C74.9398 62.6484 74.7412 62.9064 74.3213 63.261C73.9127 63.6061 73.3478 63.9983 72.6109 64.4365L73.6331 66.1555C74.4255 65.6844 75.0903 65.2293 75.6117 64.789C76.1218 64.3582 76.5536 63.893 76.8064 63.3872L75.0176 62.4928ZM72.6181 64.4322C71.126 65.3026 69.9769 66.1816 69.4604 67.0997L71.2036 68.0803C71.4311 67.6758 72.142 67.0254 73.6259 66.1598L72.6181 64.4322ZM69.4604 67.0997C68.9717 67.9686 68.7158 69.321 68.5908 70.9872L70.5852 71.1368C70.7082 69.4963 70.9483 68.5341 71.2036 68.0803L69.4604 67.0997ZM68.5909 70.9853C68.4673 72.5933 68.2469 73.5209 68.0236 73.9394L69.7884 74.8806C70.2265 74.0591 70.4607 72.7547 70.5851 71.1387L68.5909 70.9853ZM68.0406 73.909C67.6211 74.6334 66.9524 75.582 66.0145 76.7646L67.5815 78.0074C68.5449 76.7927 69.2815 75.7572 69.7714 74.911L68.0406 73.909ZM66.0253 76.7513C65.0756 77.9074 64.4055 78.7689 64.044 79.3113L65.7081 80.4207C66.0078 79.9711 66.619 79.1793 67.5707 78.0207L66.0253 76.7513ZM63.9981 79.3871C63.6804 79.9696 63.4084 80.8483 63.1576 81.9351L65.1064 82.3849C65.3516 81.3223 65.5756 80.6718 65.7539 80.3449L63.9981 79.3871ZM63.1576 81.9351C62.9082 83.0157 62.7664 83.6235 62.7279 83.7775L64.6681 84.2625C64.7123 84.0859 64.8598 83.4536 65.1064 82.3849L63.1576 81.9351ZM62.738 83.74C62.4897 84.5912 62.0391 85.4506 61.3605 86.3177L62.9355 87.5503C63.7449 86.5161 64.3276 85.4328 64.658 84.3L62.738 83.74ZM62.3323 85.9511C61.7608 85.844 61.4612 85.6863 61.3185 85.5614L60.0015 87.0666C60.5201 87.5204 61.2125 87.776 61.9637 87.9169L62.3323 85.9511ZM61.3671 85.6069C61.2153 85.4551 60.9842 85.0718 60.7498 84.2907L58.8342 84.8653C59.0958 85.7375 59.4433 86.5116 59.9529 87.0211L61.3671 85.6069ZM60.7407 84.2618C60.6994 84.1378 60.6167 83.8898 60.4927 83.5178L58.5953 84.1502C58.7193 84.5222 58.802 84.7702 58.8433 84.8942L60.7407 84.2618ZM60.5202 83.6171C60.4392 83.2524 60.3669 82.9545 60.3067 82.7738L58.4093 83.4062C58.4317 83.4735 58.4835 83.6716 58.5678 84.0509L60.5202 83.6171ZM60.3281 82.8475C60.2868 82.6821 60.2248 82.4341 60.1421 82.1035L58.2019 82.5885C58.2845 82.9192 58.3465 83.1672 58.3879 83.3325L60.3281 82.8475ZM60.1421 82.1035C60.0683 81.808 60.048 81.6294 60.048 81.54H58.048C58.048 81.864 58.1104 82.2227 58.2019 82.5885L60.1421 82.1035ZM60.048 81.54C60.048 81.5396 60.048 81.5392 60.048 81.5388C60.048 81.5384 60.048 81.538 60.048 81.5376C60.048 81.5372 60.048 81.5368 60.048 81.5364C60.048 81.536 60.048 81.5356 60.048 81.5352C60.048 81.5347 60.048 81.5343 60.048 81.5339C60.048 81.5335 60.048 81.5331 60.048 81.5327C60.048 81.5323 60.048 81.5319 60.048 81.5315C60.048 81.5311 60.048 81.5307 60.048 81.5303C60.048 81.5299 60.048 81.5295 60.048 81.5291C60.048 81.5287 60.048 81.5283 60.048 81.5279C60.048 81.5275 60.048 81.5271 60.048 81.5266C60.048 81.5262 60.048 81.5258 60.048 81.5254C60.048 81.525 60.048 81.5246 60.048 81.5242C60.048 81.5238 60.048 81.5234 60.048 81.523C60.048 81.5226 60.048 81.5222 60.048 81.5218C60.048 81.5214 60.048 81.521 60.048 81.5206C60.048 81.5202 60.048 81.5198 60.048 81.5193C60.048 81.5189 60.048 81.5185 60.048 81.5181C60.048 81.5177 60.048 81.5173 60.048 81.5169C60.048 81.5165 60.048 81.5161 60.048 81.5157C60.048 81.5153 60.048 81.5149 60.048 81.5145C60.048 81.5141 60.048 81.5137 60.048 81.5132C60.048 81.5128 60.048 81.5124 60.048 81.512C60.048 81.5116 60.048 81.5112 60.048 81.5108C60.048 81.5104 60.048 81.51 60.048 81.5096C60.048 81.5092 60.048 81.5088 60.048 81.5084C60.048 81.5079 60.048 81.5075 60.048 81.5071C60.048 81.5067 60.048 81.5063 60.048 81.5059C60.048 81.5055 60.048 81.5051 60.048 81.5047C60.048 81.5043 60.048 81.5039 60.048 81.5035C60.048 81.5031 60.048 81.5026 60.048 81.5022C60.048 81.5018 60.048 81.5014 60.048 81.501C60.048 81.5006 60.048 81.5002 60.048 81.4998C60.048 81.4994 60.048 81.499 60.048 81.4986C60.048 81.4981 60.048 81.4977 60.048 81.4973C60.048 81.4969 60.048 81.4965 60.048 81.4961C60.048 81.4957 60.048 81.4953 60.048 81.4949C60.048 81.4945 60.048 81.4941 60.048 81.4936C60.048 81.4932 60.048 81.4928 60.048 81.4924C60.048 81.492 60.048 81.4916 60.048 81.4912C60.048 81.4908 60.048 81.4904 60.048 81.49C60.048 81.4895 60.048 81.4891 60.048 81.4887C60.048 81.4883 60.048 81.4879 60.048 81.4875C60.048 81.4871 60.048 81.4867 60.048 81.4863C60.048 81.4859 60.048 81.4854 60.048 81.485C60.048 81.4846 60.048 81.4842 60.048 81.4838C60.048 81.4834 60.048 81.483 60.048 81.4826C60.048 81.4822 60.048 81.4817 60.048 81.4813C60.048 81.4809 60.048 81.4805 60.048 81.4801C60.048 81.4797 60.048 81.4793 60.048 81.4789C60.048 81.4785 60.048 81.478 60.048 81.4776C60.048 81.4772 60.048 81.4768 60.048 81.4764C60.048 81.476 60.048 81.4756 60.048 81.4752C60.048 81.4747 60.048 81.4743 60.048 81.4739C60.048 81.4735 60.048 81.4731 60.048 81.4727C60.048 81.4723 60.048 81.4719 60.048 81.4714C60.048 81.471 60.048 81.4706 60.048 81.4702C60.048 81.4698 60.048 81.4694 60.048 81.469C60.048 81.4686 60.048 81.4681 60.048 81.4677C60.048 81.4673 60.048 81.4669 60.048 81.4665C60.048 81.4661 60.048 81.4657 60.048 81.4653C60.048 81.4648 60.048 81.4644 60.048 81.464C60.048 81.4636 60.048 81.4632 60.048 81.4628C60.048 81.4624 60.048 81.4619 60.048 81.4615C60.048 81.4611 60.048 81.4607 60.048 81.4603C60.048 81.4599 60.048 81.4595 60.048 81.459C60.048 81.4586 60.048 81.4582 60.048 81.4578C60.048 81.4574 60.048 81.457 60.048 81.4566C60.048 81.4561 60.048 81.4557 60.048 81.4553C60.048 81.4549 60.048 81.4545 60.048 81.4541C60.048 81.4537 60.048 81.4532 60.048 81.4528C60.048 81.4524 60.048 81.452 60.048 81.4516C60.048 81.4512 60.048 81.4508 60.048 81.4503C60.048 81.4499 60.048 81.4495 60.048 81.4491C60.048 81.4487 60.048 81.4483 60.048 81.4478C60.048 81.4474 60.048 81.447 60.048 81.4466C60.048 81.4462 60.048 81.4458 60.048 81.4454C60.048 81.4449 60.048 81.4445 60.048 81.4441C60.048 81.4437 60.048 81.4433 60.048 81.4429C60.048 81.4424 60.048 81.442 60.048 81.4416C60.048 81.4412 60.048 81.4408 60.048 81.4404C60.048 81.4399 60.048 81.4395 60.048 81.4391C60.048 81.4387 60.048 81.4383 60.048 81.4379C60.048 81.4374 60.048 81.437 60.048 81.4366C60.048 81.4362 60.048 81.4358 60.048 81.4354C60.048 81.4349 60.048 81.4345 60.048 81.4341C60.048 81.4337 60.048 81.4333 60.048 81.4329C60.048 81.4324 60.048 81.432 60.048 81.4316C60.048 81.4312 60.048 81.4308 60.048 81.4304C60.048 81.4299 60.048 81.4295 60.048 81.4291C60.048 81.4287 60.048 81.4283 60.048 81.4278C60.048 81.4274 60.048 81.427 60.048 81.4266C60.048 81.4262 60.048 81.4258 60.048 81.4253C60.048 81.4249 60.048 81.4245 60.048 81.4241C60.048 81.4237 60.048 81.4232 60.048 81.4228C60.048 81.4224 60.048 81.422 60.048 81.4216C60.048 81.4212 60.048 81.4207 60.048 81.4203C60.048 81.4199 60.048 81.4195 60.048 81.4191C60.048 81.4186 60.048 81.4182 60.048 81.4178C60.048 81.4174 60.048 81.417 60.048 81.4165C60.048 81.4161 60.048 81.4157 60.048 81.4153C60.048 81.4149 60.048 81.4144 60.048 81.414C60.048 81.4136 60.048 81.4132 60.048 81.4128C60.048 81.4123 60.048 81.4119 60.048 81.4115C60.048 81.4111 60.048 81.4107 60.048 81.4102C60.048 81.4098 60.048 81.4094 60.048 81.409C60.048 81.4086 60.048 81.4081 60.048 81.4077C60.048 81.4073 60.048 81.4069 60.048 81.4065C60.048 81.406 60.048 81.4056 60.048 81.4052C60.048 81.4048 60.048 81.4044 60.048 81.4039C60.048 81.4035 60.048 81.4031 60.048 81.4027C60.048 81.4023 60.048 81.4018 60.048 81.4014C60.048 81.401 60.048 81.4006 60.048 81.4001C60.048 81.3997 60.048 81.3993 60.048 81.3989C60.048 81.3985 60.048 81.398 60.048 81.3976C60.048 81.3972 60.048 81.3968 60.048 81.3963C60.048 81.3959 60.048 81.3955 60.048 81.3951C60.048 81.3947 60.048 81.3942 60.048 81.3938C60.048 81.3934 60.048 81.393 60.048 81.3925C60.048 81.3921 60.048 81.3917 60.048 81.3913C60.048 81.3909 60.048 81.3904 60.048 81.39C60.048 81.3896 60.048 81.3892 60.048 81.3887C60.048 81.3883 60.048 81.3879 60.048 81.3875C60.048 81.3871 60.048 81.3866 60.048 81.3862C60.048 81.3858 60.048 81.3854 60.048 81.3849C60.048 81.3845 60.048 81.3841 60.048 81.3837C60.048 81.3832 60.048 81.3828 60.048 81.3824C60.048 81.382 60.048 81.3815 60.048 81.3811C60.048 81.3807 60.048 81.3803 60.048 81.3799C60.048 81.3794 60.048 81.379 60.048 81.3786C60.048 81.3782 60.048 81.3777 60.048 81.3773C60.048 81.3769 60.048 81.3765 60.048 81.376C60.048 81.3756 60.048 81.3752 60.048 81.3748C60.048 81.3743 60.048 81.3739 60.048 81.3735C60.048 81.3731 60.048 81.3726 60.048 81.3722C60.048 81.3718 60.048 81.3714 60.048 81.3709C60.048 81.3705 60.048 81.3701 60.048 81.3697C60.048 81.3692 60.048 81.3688 60.048 81.3684C60.048 81.368 60.048 81.3675 60.048 81.3671C60.048 81.3667 60.048 81.3663 60.048 81.3658C60.048 81.3654 60.048 81.365 60.048 81.3646C60.048 81.3641 60.048 81.3637 60.048 81.3633C60.048 81.3629 60.048 81.3624 60.048 81.362C60.048 81.3616 60.048 81.3611 60.048 81.3607C60.048 81.3603 60.048 81.3599 60.048 81.3594C60.048 81.359 60.048 81.3586 60.048 81.3582C60.048 81.3577 60.048 81.3573 60.048 81.3569C60.048 81.3565 60.048 81.356 60.048 81.3556C60.048 81.3552 60.048 81.3547 60.048 81.3543C60.048 81.3539 60.048 81.3535 60.048 81.353C60.048 81.3526 60.048 81.3522 60.048 81.3518C60.048 81.3513 60.048 81.3509 60.048 81.3505C60.048 81.35 60.048 81.3496 60.048 81.3492C60.048 81.3488 60.048 81.3483 60.048 81.3479C60.048 81.3475 60.048 81.347 60.048 81.3466C60.048 81.3462 60.048 81.3458 60.048 81.3453C60.048 81.3449 60.048 81.3445 60.048 81.3441C60.048 81.3436 60.048 81.3432 60.048 81.3428C60.048 81.3423 60.048 81.3419 60.048 81.3415C60.048 81.3411 60.048 81.3406 60.048 81.3402C60.048 81.3398 60.048 81.3393 60.048 81.3389C60.048 81.3385 60.048 81.3381 60.048 81.3376C60.048 81.3372 60.048 81.3368 60.048 81.3363C60.048 81.3359 60.048 81.3355 60.048 81.335C60.048 81.3346 60.048 81.3342 60.048 81.3338C60.048 81.3333 60.048 81.3329 60.048 81.3325C60.048 81.332 60.048 81.3316 60.048 81.3312C60.048 81.3307 60.048 81.3303 60.048 81.3299C60.048 81.3295 60.048 81.329 60.048 81.3286C60.048 81.3282 60.048 81.3277 60.048 81.3273C60.048 81.3269 60.048 81.3264 60.048 81.326C60.048 81.3256 60.048 81.3252 60.048 81.3247C60.048 81.3243 60.048 81.3239 60.048 81.3234C60.048 81.323 60.048 81.3226 60.048 81.3221C60.048 81.3217 60.048 81.3213 60.048 81.3208C60.048 81.3204 60.048 81.32 60.048 81.3195C60.048 81.3191 60.048 81.3187 60.048 81.3183C60.048 81.3178 60.048 81.3174 60.048 81.317C60.048 81.3165 60.048 81.3161 60.048 81.3157C60.048 81.3152 60.048 81.3148 60.048 81.3144C60.048 81.3139 60.048 81.3135 60.048 81.3131C60.048 81.3126 60.048 81.3122 60.048 81.3118C60.048 81.3113 60.048 81.3109 60.048 81.3105C60.048 81.31 60.048 81.3096 60.048 81.3092C60.048 81.3087 60.048 81.3083 60.048 81.3079C60.048 81.3074 60.048 81.307 60.048 81.3066C60.048 81.3061 60.048 81.3057 60.048 81.3053C60.048 81.3049 60.048 81.3044 60.048 81.304C60.048 81.3036 60.048 81.3031 60.048 81.3027C60.048 81.3022 60.048 81.3018 60.048 81.3014C60.048 81.3009 60.048 81.3005 60.048 81.3001C60.048 81.2996 60.048 81.2992 60.048 81.2988C60.048 81.2983 60.048 81.2979 60.048 81.2975C60.048 81.297 60.048 81.2966 60.048 81.2962C60.048 81.2957 60.048 81.2953 60.048 81.2949C60.048 81.2944 60.048 81.294 60.048 81.2936C60.048 81.2931 60.048 81.2927 60.048 81.2923C60.048 81.2918 60.048 81.2914 60.048 81.291C60.048 81.2905 60.048 81.2901 60.048 81.2897C60.048 81.2892 60.048 81.2888 60.048 81.2884C60.048 81.2879 60.048 81.2875 60.048 81.287C60.048 81.2866 60.048 81.2862 60.048 81.2857C60.048 81.2853 60.048 81.2849 60.048 81.2844C60.048 81.284 60.048 81.2836 60.048 81.2831C60.048 81.2827 60.048 81.2823 60.048 81.2818C60.048 81.2814 60.048 81.2809 60.048 81.2805C60.048 81.2801 60.048 81.2796 60.048 81.2792C60.048 81.2788 60.048 81.2783 60.048 81.2779C60.048 81.2775 60.048 81.277 60.048 81.2766C60.048 81.2761 60.048 81.2757 60.048 81.2753C60.048 81.2748 60.048 81.2744 60.048 81.274C60.048 81.2735 60.048 81.2731 60.048 81.2727C60.048 81.2722 60.048 81.2718 60.048 81.2713C60.048 81.2709 60.048 81.2705 60.048 81.27C60.048 81.2696 60.048 81.2692 60.048 81.2687C60.048 81.2683 60.048 81.2678 60.048 81.2674C60.048 81.267 60.048 81.2665 60.048 81.2661C60.048 81.2657 60.048 81.2652 60.048 81.2648C60.048 81.2643 60.048 81.2639 60.048 81.2635C60.048 81.263 60.048 81.2626 60.048 81.2621C60.048 81.2617 60.048 81.2613 60.048 81.2608C60.048 81.2604 60.048 81.26 60.048 81.2595C60.048 81.2591 60.048 81.2586 60.048 81.2582C60.048 81.2578 60.048 81.2573 60.048 81.2569C60.048 81.2564 60.048 81.256 60.048 81.2556C60.048 81.2551 60.048 81.2547 60.048 81.2542C60.048 81.2538 60.048 81.2534 60.048 81.2529C60.048 81.2525 60.048 81.2521 60.048 81.2516C60.048 81.2512 60.048 81.2507 60.048 81.2503C60.048 81.2499 60.048 81.2494 60.048 81.249C60.048 81.2485 60.048 81.2481 60.048 81.2477C60.048 81.2472 60.048 81.2468 60.048 81.2463C60.048 81.2459 60.048 81.2455 60.048 81.245C60.048 81.2446 60.048 81.2441 60.048 81.2437C60.048 81.2432 60.048 81.2428 60.048 81.2424C60.048 81.2419 60.048 81.2415 60.048 81.241C60.048 81.2406 60.048 81.2402 60.048 81.2397C60.048 81.2393 60.048 81.2388 60.048 81.2384C60.048 81.238 60.048 81.2375 60.048 81.2371C60.048 81.2366 60.048 81.2362 60.048 81.2358C60.048 81.2353 60.048 81.2349 60.048 81.2344C60.048 81.234 60.048 81.2335 60.048 81.2331C60.048 81.2327 60.048 81.2322 60.048 81.2318C60.048 81.2313 60.048 81.2309 60.048 81.2304C60.048 81.23 60.048 81.2296 60.048 81.2291C60.048 81.2287 60.048 81.2282 60.048 81.2278C60.048 81.2274 60.048 81.2269 60.048 81.2265C60.048 81.226 60.048 81.2256 60.048 81.2251C60.048 81.2247 60.048 81.2243 60.048 81.2238C60.048 81.2234 60.048 81.2229 60.048 81.2225C60.048 81.222 60.048 81.2216 60.048 81.2212C60.048 81.2207 60.048 81.2203 60.048 81.2198C60.048 81.2194 60.048 81.2189 60.048 81.2185C60.048 81.2181 60.048 81.2176 60.048 81.2172C60.048 81.2167 60.048 81.2163 60.048 81.2158C60.048 81.2154 60.048 81.2149 60.048 81.2145C60.048 81.2141 60.048 81.2136 60.048 81.2132C60.048 81.2127 60.048 81.2123 60.048 81.2118C60.048 81.2114 60.048 81.2109 60.048 81.2105C60.048 81.2101 60.048 81.2096 60.048 81.2092C60.048 81.2087 60.048 81.2083 60.048 81.2078C60.048 81.2074 60.048 81.2069 60.048 81.2065C60.048 81.2061 60.048 81.2056 60.048 81.2052C60.048 81.2047 60.048 81.2043 60.048 81.2038C60.048 81.2034 60.048 81.2029 60.048 81.2025C60.048 81.202 60.048 81.2016 60.048 81.2012C60.048 81.2007 60.048 81.2003 60.048 81.1998C60.048 81.1994 60.048 81.1989 60.048 81.1985C60.048 81.198 60.048 81.1976 60.048 81.1971C60.048 81.1967 60.048 81.1963 60.048 81.1958C60.048 81.1954 60.048 81.1949 60.048 81.1945C60.048 81.194 60.048 81.1936 60.048 81.1931C60.048 81.1927 60.048 81.1922 60.048 81.1918C60.048 81.1913 60.048 81.1909 60.048 81.1904C60.048 81.19 60.048 81.1896 60.048 81.1891C60.048 81.1887 60.048 81.1882 60.048 81.1878C60.048 81.1873 60.048 81.1869 60.048 81.1864C60.048 81.186 60.048 81.1855 60.048 81.1851C60.048 81.1846 60.048 81.1842 60.048 81.1837C60.048 81.1833 60.048 81.1828 60.048 81.1824C60.048 81.1819 60.048 81.1815 60.048 81.181C60.048 81.1806 60.048 81.1802 60.048 81.1797C60.048 81.1793 60.048 81.1788 60.048 81.1784C60.048 81.1779 60.048 81.1775 60.048 81.177C60.048 81.1766 60.048 81.1761 60.048 81.1757C60.048 81.1752 60.048 81.1748 60.048 81.1743C60.048 81.1739 60.048 81.1734 60.048 81.173C60.048 81.1725 60.048 81.1721 60.048 81.1716C60.048 81.1712 60.048 81.1707 60.048 81.1703C60.048 81.1698 60.048 81.1694 60.048 81.1689C60.048 81.1685 60.048 81.168 60.048 81.1676C60.048 81.1671 60.048 81.1667 60.048 81.1662C60.048 81.1658 60.048 81.1653 60.048 81.1649C60.048 81.1644 60.048 81.164 60.048 81.1635C60.048 81.1631 60.048 81.1626 60.048 81.1622C60.048 81.1617 60.048 81.1613 60.048 81.1608C60.048 81.1604 60.048 81.1599 60.048 81.1595C60.048 81.159 60.048 81.1586 60.048 81.1581C60.048 81.1577 60.048 81.1572 60.048 81.1568C60.048 81.1563 60.048 81.1559 60.048 81.1554C60.048 81.155 60.048 81.1545 60.048 81.1541C60.048 81.1536 60.048 81.1532 60.048 81.1527C60.048 81.1523 60.048 81.1518 60.048 81.1514C60.048 81.1509 60.048 81.1505 60.048 81.15C60.048 81.1496 60.048 81.1491 60.048 81.1487C60.048 81.1482 60.048 81.1478 60.048 81.1473C60.048 81.1469 60.048 81.1464 60.048 81.146C60.048 81.1455 60.048 81.145 60.048 81.1446C60.048 81.1441 60.048 81.1437 60.048 81.1432C60.048 81.1428 60.048 81.1423 60.048 81.1419C60.048 81.1414 60.048 81.141 60.048 81.1405C60.048 81.1401 60.048 81.1396 60.048 81.1392C60.048 81.1387 60.048 81.1383 60.048 81.1378C60.048 81.1374 60.048 81.1369 60.048 81.1364C60.048 81.136 60.048 81.1355 60.048 81.1351C60.048 81.1346 60.048 81.1342 60.048 81.1337C60.048 81.1333 60.048 81.1328 60.048 81.1324C60.048 81.1319 60.048 81.1315 60.048 81.131C60.048 81.1306 60.048 81.1301 60.048 81.1296C60.048 81.1292 60.048 81.1287 60.048 81.1283C60.048 81.1278 60.048 81.1274 60.048 81.1269C60.048 81.1265 60.048 81.126 60.048 81.1256C60.048 81.1251 60.048 81.1246 60.048 81.1242C60.048 81.1237 60.048 81.1233 60.048 81.1228C60.048 81.1224 60.048 81.1219 60.048 81.1215C60.048 81.121 60.048 81.1206 60.048 81.1201C60.048 81.1196 60.048 81.1192 60.048 81.1187C60.048 81.1183 60.048 81.1178 60.048 81.1174C60.048 81.1169 60.048 81.1165 60.048 81.116C60.048 81.1155 60.048 81.1151 60.048 81.1146C60.048 81.1142 60.048 81.1137 60.048 81.1133C60.048 81.1128 60.048 81.1124 60.048 81.1119C60.048 81.1114 60.048 81.111 60.048 81.1105C60.048 81.1101 60.048 81.1096 60.048 81.1092C60.048 81.1087 60.048 81.1082 60.048 81.1078C60.048 81.1073 60.048 81.1069 60.048 81.1064C60.048 81.106 60.048 81.1055 60.048 81.1051C60.048 81.1046 60.048 81.1041 60.048 81.1037C60.048 81.1032 60.048 81.1028 60.048 81.1023C60.048 81.1019 60.048 81.1014 60.048 81.1009C60.048 81.1005 60.048 81.1 60.048 81.0996C60.048 81.0991 60.048 81.0987 60.048 81.0982C60.048 81.0977 60.048 81.0973 60.048 81.0968C60.048 81.0964 60.048 81.0959 60.048 81.0955C60.048 81.095 60.048 81.0945 60.048 81.0941C60.048 81.0936 60.048 81.0932 60.048 81.0927C60.048 81.0922 60.048 81.0918 60.048 81.0913C60.048 81.0909 60.048 81.0904 60.048 81.09C60.048 81.0895 60.048 81.089 60.048 81.0886C60.048 81.0881 60.048 81.0877 60.048 81.0872C60.048 81.0867 60.048 81.0863 60.048 81.0858C60.048 81.0854 60.048 81.0849 60.048 81.0844C60.048 81.084 60.048 81.0835 60.048 81.0831C60.048 81.0826 60.048 81.0821 60.048 81.0817C60.048 81.0812 60.048 81.0808 60.048 81.0803C60.048 81.0798 60.048 81.0794 60.048 81.0789C60.048 81.0785 60.048 81.078 60.048 81.0776C60.048 81.0771 60.048 81.0766 60.048 81.0762C60.048 81.0757 60.048 81.0753 60.048 81.0748C60.048 81.0743 60.048 81.0739 60.048 81.0734C60.048 81.0729 60.048 81.0725 60.048 81.072C60.048 81.0716 60.048 81.0711 60.048 81.0706C60.048 81.0702 60.048 81.0697 60.048 81.0693C60.048 81.0688 60.048 81.0683 60.048 81.0679C60.048 81.0674 60.048 81.067 60.048 81.0665C60.048 81.066 60.048 81.0656 60.048 81.0651C60.048 81.0647 60.048 81.0642 60.048 81.0637C60.048 81.0633 60.048 81.0628 60.048 81.0623C60.048 81.0619 60.048 81.0614 60.048 81.061C60.048 81.0605 60.048 81.06 60.048 81.0596C60.048 81.0591 60.048 81.0587 60.048 81.0582C60.048 81.0577 60.048 81.0573 60.048 81.0568C60.048 81.0563 60.048 81.0559 60.048 81.0554C60.048 81.055 60.048 81.0545 60.048 81.054C60.048 81.0536 60.048 81.0531 60.048 81.0526C60.048 81.0522 60.048 81.0517 60.048 81.0513C60.048 81.0508 60.048 81.0503 60.048 81.0499C60.048 81.0494 60.048 81.0489 60.048 81.0485C60.048 81.048 60.048 81.0475 60.048 81.0471C60.048 81.0466 60.048 81.0462 60.048 81.0457C60.048 81.0452 60.048 81.0448 60.048 81.0443C60.048 81.0438 60.048 81.0434 60.048 81.0429C60.048 81.0424 60.048 81.042 60.048 81.0415C60.048 81.0411 60.048 81.0406 60.048 81.0401C60.048 81.0397 60.048 81.0392 60.048 81.0387C60.048 81.0383 60.048 81.0378 60.048 81.0373C60.048 81.0369 60.048 81.0364 60.048 81.0359C60.048 81.0355 60.048 81.035 60.048 81.0345C60.048 81.0341 60.048 81.0336 60.048 81.0332C60.048 81.0327 60.048 81.0322 60.048 81.0318C60.048 81.0313 60.048 81.0308 60.048 81.0304C60.048 81.0299 60.048 81.0294 60.048 81.029C60.048 81.0285 60.048 81.028 60.048 81.0276C60.048 81.0271 60.048 81.0266 60.048 81.0262C60.048 81.0257 60.048 81.0252 60.048 81.0248C60.048 81.0243 60.048 81.0238 60.048 81.0234C60.048 81.0229 60.048 81.0224 60.048 81.022C60.048 81.0215 60.048 81.021 60.048 81.0206C60.048 81.0201 60.048 81.0196 60.048 81.0192C60.048 81.0187 60.048 81.0182 60.048 81.0178C60.048 81.0173 60.048 81.0168 60.048 81.0164C60.048 81.0159 60.048 81.0154 60.048 81.015C60.048 81.0145 60.048 81.014 60.048 81.0136C60.048 81.0131 60.048 81.0126 60.048 81.0122C60.048 81.0117 60.048 81.0112 60.048 81.0108C60.048 81.0103 60.048 81.0098 60.048 81.0094C60.048 81.0089 60.048 81.0084 60.048 81.008C60.048 81.0075 60.048 81.007 60.048 81.0066C60.048 81.0061 60.048 81.0056 60.048 81.0052C60.048 81.0047 60.048 81.0042 60.048 81.0038C60.048 81.0033 60.048 81.0028 60.048 81.0024C60.048 81.0019 60.048 81.0014 60.048 81.0009C60.048 81.0005 60.048 81 60.048 80.9995C60.048 80.9991 60.048 80.9986 60.048 80.9981C60.048 80.9977 60.048 80.9972 60.048 80.9967C60.048 80.9963 60.048 80.9958 60.048 80.9953C60.048 80.9949 60.048 80.9944 60.048 80.9939C60.048 80.9934 60.048 80.993 60.048 80.9925C60.048 80.992 60.048 80.9916 60.048 80.9911C60.048 80.9906 60.048 80.9902 60.048 80.9897C60.048 80.9892 60.048 80.9887 60.048 80.9883C60.048 80.9878 60.048 80.9873 60.048 80.9869C60.048 80.9864 60.048 80.9859 60.048 80.9855C60.048 80.985 60.048 80.9845 60.048 80.984C60.048 80.9836 60.048 80.9831 60.048 80.9826C60.048 80.9822 60.048 80.9817 60.048 80.9812C60.048 80.9807 60.048 80.9803 60.048 80.9798C60.048 80.9793 60.048 80.9789 60.048 80.9784C60.048 80.9779 60.048 80.9775 60.048 80.977C60.048 80.9765 60.048 80.976 60.048 80.9756C60.048 80.9751 60.048 80.9746 60.048 80.9742C60.048 80.9737 60.048 80.9732 60.048 80.9727C60.048 80.9723 60.048 80.9718 60.048 80.9713C60.048 80.9708 60.048 80.9704 60.048 80.9699C60.048 80.9694 60.048 80.969 60.048 80.9685C60.048 80.968 60.048 80.9675 60.048 80.9671C60.048 80.9666 60.048 80.9661 60.048 80.9657C60.048 80.9652 60.048 80.9647 60.048 80.9642C60.048 80.9638 60.048 80.9633 60.048 80.9628C60.048 80.9623 60.048 80.9619 60.048 80.9614C60.048 80.9609 60.048 80.9605 60.048 80.96C60.048 80.9595 60.048 80.959 60.048 80.9586C60.048 80.9581 60.048 80.9576 60.048 80.9571C60.048 80.9567 60.048 80.9562 60.048 80.9557C60.048 80.9552 60.048 80.9548 60.048 80.9543C60.048 80.9538 60.048 80.9534 60.048 80.9529C60.048 80.9524 60.048 80.9519 60.048 80.9515C60.048 80.951 60.048 80.9505 60.048 80.95C60.048 80.9496 60.048 80.9491 60.048 80.9486C60.048 80.9481 60.048 80.9477 60.048 80.9472C60.048 80.9467 60.048 80.9462 60.048 80.9458C60.048 80.9453 60.048 80.9448 60.048 80.9443C60.048 80.9439 60.048 80.9434 60.048 80.9429C60.048 80.9424 60.048 80.942 60.048 80.9415C60.048 80.941 60.048 80.9405 60.048 80.9401C60.048 80.9396 60.048 80.9391 60.048 80.9386C60.048 80.9382 60.048 80.9377 60.048 80.9372C60.048 80.9367 60.048 80.9363 60.048 80.9358C60.048 80.9353 60.048 80.9348 60.048 80.9344C60.048 80.9339 60.048 80.9334 60.048 80.9329C60.048 80.9324 60.048 80.932 60.048 80.9315C60.048 80.931 60.048 80.9305 60.048 80.9301C60.048 80.9296 60.048 80.9291 60.048 80.9286C60.048 80.9282 60.048 80.9277 60.048 80.9272C60.048 80.9267 60.048 80.9263 60.048 80.9258C60.048 80.9253 60.048 80.9248 60.048 80.9243C60.048 80.9239 60.048 80.9234 60.048 80.9229C60.048 80.9224 60.048 80.922 60.048 80.9215C60.048 80.921 60.048 80.9205 60.048 80.92C60.048 80.9196 60.048 80.9191 60.048 80.9186C60.048 80.9181 60.048 80.9177 60.048 80.9172C60.048 80.9167 60.048 80.9162 60.048 80.9157C60.048 80.9153 60.048 80.9148 60.048 80.9143C60.048 80.9138 60.048 80.9134 60.048 80.9129C60.048 80.9124 60.048 80.9119 60.048 80.9114C60.048 80.911 60.048 80.9105 60.048 80.91C60.048 80.9095 60.048 80.909 60.048 80.9086C60.048 80.9081 60.048 80.9076 60.048 80.9071C60.048 80.9067 60.048 80.9062 60.048 80.9057C60.048 80.9052 60.048 80.9047 60.048 80.9043C60.048 80.9038 60.048 80.9033 60.048 80.9028C60.048 80.9023 60.048 80.9019 60.048 80.9014C60.048 80.9009 60.048 80.9004 60.048 80.8999C60.048 80.8995 60.048 80.899 60.048 80.8985C60.048 80.898 60.048 80.8975 60.048 80.8971C60.048 80.8966 60.048 80.8961 60.048 80.8956C60.048 80.8951 60.048 80.8947 60.048 80.8942C60.048 80.8937 60.048 80.8932 60.048 80.8927C60.048 80.8923 60.048 80.8918 60.048 80.8913C60.048 80.8908 60.048 80.8903 60.048 80.8899C60.048 80.8894 60.048 80.8889 60.048 80.8884C60.048 80.8879 60.048 80.8874 60.048 80.887C60.048 80.8865 60.048 80.886 60.048 80.8855C60.048 80.885 60.048 80.8846 60.048 80.8841C60.048 80.8836 60.048 80.8831 60.048 80.8826C60.048 80.8822 60.048 80.8817 60.048 80.8812C60.048 80.8807 60.048 80.8802 60.048 80.8797C60.048 80.8793 60.048 80.8788 60.048 80.8783C60.048 80.8778 60.048 80.8773 60.048 80.8769C60.048 80.8764 60.048 80.8759 60.048 80.8754C60.048 80.8749 60.048 80.8744 60.048 80.874C60.048 80.8735 60.048 80.873 60.048 80.8725C60.048 80.872 60.048 80.8715 60.048 80.8711C60.048 80.8706 60.048 80.8701 60.048 80.8696C60.048 80.8691 60.048 80.8686 60.048 80.8682C60.048 80.8677 60.048 80.8672 60.048 80.8667C60.048 80.8662 60.048 80.8657 60.048 80.8653C60.048 80.8648 60.048 80.8643 60.048 80.8638C60.048 80.8633 60.048 80.8628 60.048 80.8624C60.048 80.8619 60.048 80.8614 60.048 80.8609C60.048 80.8604 60.048 80.8599 60.048 80.8595C60.048 80.859 60.048 80.8585 60.048 80.858H58.048C58.048 80.8585 58.048 80.859 58.048 80.8595C58.048 80.8599 58.048 80.8604 58.048 80.8609C58.048 80.8614 58.048 80.8619 58.048 80.8624C58.048 80.8628 58.048 80.8633 58.048 80.8638C58.048 80.8643 58.048 80.8648 58.048 80.8653C58.048 80.8657 58.048 80.8662 58.048 80.8667C58.048 80.8672 58.048 80.8677 58.048 80.8682C58.048 80.8686 58.048 80.8691 58.048 80.8696C58.048 80.8701 58.048 80.8706 58.048 80.8711C58.048 80.8715 58.048 80.872 58.048 80.8725C58.048 80.873 58.048 80.8735 58.048 80.874C58.048 80.8744 58.048 80.8749 58.048 80.8754C58.048 80.8759 58.048 80.8764 58.048 80.8769C58.048 80.8773 58.048 80.8778 58.048 80.8783C58.048 80.8788 58.048 80.8793 58.048 80.8797C58.048 80.8802 58.048 80.8807 58.048 80.8812C58.048 80.8817 58.048 80.8822 58.048 80.8826C58.048 80.8831 58.048 80.8836 58.048 80.8841C58.048 80.8846 58.048 80.885 58.048 80.8855C58.048 80.886 58.048 80.8865 58.048 80.887C58.048 80.8874 58.048 80.8879 58.048 80.8884C58.048 80.8889 58.048 80.8894 58.048 80.8899C58.048 80.8903 58.048 80.8908 58.048 80.8913C58.048 80.8918 58.048 80.8923 58.048 80.8927C58.048 80.8932 58.048 80.8937 58.048 80.8942C58.048 80.8947 58.048 80.8951 58.048 80.8956C58.048 80.8961 58.048 80.8966 58.048 80.8971C58.048 80.8975 58.048 80.898 58.048 80.8985C58.048 80.899 58.048 80.8995 58.048 80.8999C58.048 80.9004 58.048 80.9009 58.048 80.9014C58.048 80.9019 58.048 80.9023 58.048 80.9028C58.048 80.9033 58.048 80.9038 58.048 80.9043C58.048 80.9047 58.048 80.9052 58.048 80.9057C58.048 80.9062 58.048 80.9067 58.048 80.9071C58.048 80.9076 58.048 80.9081 58.048 80.9086C58.048 80.909 58.048 80.9095 58.048 80.91C58.048 80.9105 58.048 80.911 58.048 80.9114C58.048 80.9119 58.048 80.9124 58.048 80.9129C58.048 80.9134 58.048 80.9138 58.048 80.9143C58.048 80.9148 58.048 80.9153 58.048 80.9157C58.048 80.9162 58.048 80.9167 58.048 80.9172C58.048 80.9177 58.048 80.9181 58.048 80.9186C58.048 80.9191 58.048 80.9196 58.048 80.92C58.048 80.9205 58.048 80.921 58.048 80.9215C58.048 80.922 58.048 80.9224 58.048 80.9229C58.048 80.9234 58.048 80.9239 58.048 80.9243C58.048 80.9248 58.048 80.9253 58.048 80.9258C58.048 80.9263 58.048 80.9267 58.048 80.9272C58.048 80.9277 58.048 80.9282 58.048 80.9286C58.048 80.9291 58.048 80.9296 58.048 80.9301C58.048 80.9305 58.048 80.931 58.048 80.9315C58.048 80.932 58.048 80.9324 58.048 80.9329C58.048 80.9334 58.048 80.9339 58.048 80.9344C58.048 80.9348 58.048 80.9353 58.048 80.9358C58.048 80.9363 58.048 80.9367 58.048 80.9372C58.048 80.9377 58.048 80.9382 58.048 80.9386C58.048 80.9391 58.048 80.9396 58.048 80.9401C58.048 80.9405 58.048 80.941 58.048 80.9415C58.048 80.942 58.048 80.9424 58.048 80.9429C58.048 80.9434 58.048 80.9439 58.048 80.9443C58.048 80.9448 58.048 80.9453 58.048 80.9458C58.048 80.9462 58.048 80.9467 58.048 80.9472C58.048 80.9477 58.048 80.9481 58.048 80.9486C58.048 80.9491 58.048 80.9496 58.048 80.95C58.048 80.9505 58.048 80.951 58.048 80.9515C58.048 80.9519 58.048 80.9524 58.048 80.9529C58.048 80.9534 58.048 80.9538 58.048 80.9543C58.048 80.9548 58.048 80.9552 58.048 80.9557C58.048 80.9562 58.048 80.9567 58.048 80.9571C58.048 80.9576 58.048 80.9581 58.048 80.9586C58.048 80.959 58.048 80.9595 58.048 80.96C58.048 80.9605 58.048 80.9609 58.048 80.9614C58.048 80.9619 58.048 80.9623 58.048 80.9628C58.048 80.9633 58.048 80.9638 58.048 80.9642C58.048 80.9647 58.048 80.9652 58.048 80.9657C58.048 80.9661 58.048 80.9666 58.048 80.9671C58.048 80.9675 58.048 80.968 58.048 80.9685C58.048 80.969 58.048 80.9694 58.048 80.9699C58.048 80.9704 58.048 80.9708 58.048 80.9713C58.048 80.9718 58.048 80.9723 58.048 80.9727C58.048 80.9732 58.048 80.9737 58.048 80.9742C58.048 80.9746 58.048 80.9751 58.048 80.9756C58.048 80.976 58.048 80.9765 58.048 80.977C58.048 80.9775 58.048 80.9779 58.048 80.9784C58.048 80.9789 58.048 80.9793 58.048 80.9798C58.048 80.9803 58.048 80.9807 58.048 80.9812C58.048 80.9817 58.048 80.9822 58.048 80.9826C58.048 80.9831 58.048 80.9836 58.048 80.984C58.048 80.9845 58.048 80.985 58.048 80.9855C58.048 80.9859 58.048 80.9864 58.048 80.9869C58.048 80.9873 58.048 80.9878 58.048 80.9883C58.048 80.9887 58.048 80.9892 58.048 80.9897C58.048 80.9902 58.048 80.9906 58.048 80.9911C58.048 80.9916 58.048 80.992 58.048 80.9925C58.048 80.993 58.048 80.9934 58.048 80.9939C58.048 80.9944 58.048 80.9949 58.048 80.9953C58.048 80.9958 58.048 80.9963 58.048 80.9967C58.048 80.9972 58.048 80.9977 58.048 80.9981C58.048 80.9986 58.048 80.9991 58.048 80.9995C58.048 81 58.048 81.0005 58.048 81.0009C58.048 81.0014 58.048 81.0019 58.048 81.0024C58.048 81.0028 58.048 81.0033 58.048 81.0038C58.048 81.0042 58.048 81.0047 58.048 81.0052C58.048 81.0056 58.048 81.0061 58.048 81.0066C58.048 81.007 58.048 81.0075 58.048 81.008C58.048 81.0084 58.048 81.0089 58.048 81.0094C58.048 81.0098 58.048 81.0103 58.048 81.0108C58.048 81.0112 58.048 81.0117 58.048 81.0122C58.048 81.0126 58.048 81.0131 58.048 81.0136C58.048 81.014 58.048 81.0145 58.048 81.015C58.048 81.0154 58.048 81.0159 58.048 81.0164C58.048 81.0168 58.048 81.0173 58.048 81.0178C58.048 81.0182 58.048 81.0187 58.048 81.0192C58.048 81.0196 58.048 81.0201 58.048 81.0206C58.048 81.021 58.048 81.0215 58.048 81.022C58.048 81.0224 58.048 81.0229 58.048 81.0234C58.048 81.0238 58.048 81.0243 58.048 81.0248C58.048 81.0252 58.048 81.0257 58.048 81.0262C58.048 81.0266 58.048 81.0271 58.048 81.0276C58.048 81.028 58.048 81.0285 58.048 81.029C58.048 81.0294 58.048 81.0299 58.048 81.0304C58.048 81.0308 58.048 81.0313 58.048 81.0318C58.048 81.0322 58.048 81.0327 58.048 81.0332C58.048 81.0336 58.048 81.0341 58.048 81.0345C58.048 81.035 58.048 81.0355 58.048 81.0359C58.048 81.0364 58.048 81.0369 58.048 81.0373C58.048 81.0378 58.048 81.0383 58.048 81.0387C58.048 81.0392 58.048 81.0397 58.048 81.0401C58.048 81.0406 58.048 81.0411 58.048 81.0415C58.048 81.042 58.048 81.0424 58.048 81.0429C58.048 81.0434 58.048 81.0438 58.048 81.0443C58.048 81.0448 58.048 81.0452 58.048 81.0457C58.048 81.0462 58.048 81.0466 58.048 81.0471C58.048 81.0475 58.048 81.048 58.048 81.0485C58.048 81.0489 58.048 81.0494 58.048 81.0499C58.048 81.0503 58.048 81.0508 58.048 81.0513C58.048 81.0517 58.048 81.0522 58.048 81.0526C58.048 81.0531 58.048 81.0536 58.048 81.054C58.048 81.0545 58.048 81.055 58.048 81.0554C58.048 81.0559 58.048 81.0563 58.048 81.0568C58.048 81.0573 58.048 81.0577 58.048 81.0582C58.048 81.0587 58.048 81.0591 58.048 81.0596C58.048 81.06 58.048 81.0605 58.048 81.061C58.048 81.0614 58.048 81.0619 58.048 81.0623C58.048 81.0628 58.048 81.0633 58.048 81.0637C58.048 81.0642 58.048 81.0647 58.048 81.0651C58.048 81.0656 58.048 81.066 58.048 81.0665C58.048 81.067 58.048 81.0674 58.048 81.0679C58.048 81.0683 58.048 81.0688 58.048 81.0693C58.048 81.0697 58.048 81.0702 58.048 81.0706C58.048 81.0711 58.048 81.0716 58.048 81.072C58.048 81.0725 58.048 81.0729 58.048 81.0734C58.048 81.0739 58.048 81.0743 58.048 81.0748C58.048 81.0753 58.048 81.0757 58.048 81.0762C58.048 81.0766 58.048 81.0771 58.048 81.0776C58.048 81.078 58.048 81.0785 58.048 81.0789C58.048 81.0794 58.048 81.0798 58.048 81.0803C58.048 81.0808 58.048 81.0812 58.048 81.0817C58.048 81.0821 58.048 81.0826 58.048 81.0831C58.048 81.0835 58.048 81.084 58.048 81.0844C58.048 81.0849 58.048 81.0854 58.048 81.0858C58.048 81.0863 58.048 81.0867 58.048 81.0872C58.048 81.0877 58.048 81.0881 58.048 81.0886C58.048 81.089 58.048 81.0895 58.048 81.09C58.048 81.0904 58.048 81.0909 58.048 81.0913C58.048 81.0918 58.048 81.0922 58.048 81.0927C58.048 81.0932 58.048 81.0936 58.048 81.0941C58.048 81.0945 58.048 81.095 58.048 81.0955C58.048 81.0959 58.048 81.0964 58.048 81.0968C58.048 81.0973 58.048 81.0977 58.048 81.0982C58.048 81.0987 58.048 81.0991 58.048 81.0996C58.048 81.1 58.048 81.1005 58.048 81.1009C58.048 81.1014 58.048 81.1019 58.048 81.1023C58.048 81.1028 58.048 81.1032 58.048 81.1037C58.048 81.1041 58.048 81.1046 58.048 81.1051C58.048 81.1055 58.048 81.106 58.048 81.1064C58.048 81.1069 58.048 81.1073 58.048 81.1078C58.048 81.1082 58.048 81.1087 58.048 81.1092C58.048 81.1096 58.048 81.1101 58.048 81.1105C58.048 81.111 58.048 81.1114 58.048 81.1119C58.048 81.1124 58.048 81.1128 58.048 81.1133C58.048 81.1137 58.048 81.1142 58.048 81.1146C58.048 81.1151 58.048 81.1155 58.048 81.116C58.048 81.1165 58.048 81.1169 58.048 81.1174C58.048 81.1178 58.048 81.1183 58.048 81.1187C58.048 81.1192 58.048 81.1196 58.048 81.1201C58.048 81.1206 58.048 81.121 58.048 81.1215C58.048 81.1219 58.048 81.1224 58.048 81.1228C58.048 81.1233 58.048 81.1237 58.048 81.1242C58.048 81.1246 58.048 81.1251 58.048 81.1256C58.048 81.126 58.048 81.1265 58.048 81.1269C58.048 81.1274 58.048 81.1278 58.048 81.1283C58.048 81.1287 58.048 81.1292 58.048 81.1296C58.048 81.1301 58.048 81.1306 58.048 81.131C58.048 81.1315 58.048 81.1319 58.048 81.1324C58.048 81.1328 58.048 81.1333 58.048 81.1337C58.048 81.1342 58.048 81.1346 58.048 81.1351C58.048 81.1355 58.048 81.136 58.048 81.1364C58.048 81.1369 58.048 81.1374 58.048 81.1378C58.048 81.1383 58.048 81.1387 58.048 81.1392C58.048 81.1396 58.048 81.1401 58.048 81.1405C58.048 81.141 58.048 81.1414 58.048 81.1419C58.048 81.1423 58.048 81.1428 58.048 81.1432C58.048 81.1437 58.048 81.1441 58.048 81.1446C58.048 81.145 58.048 81.1455 58.048 81.146C58.048 81.1464 58.048 81.1469 58.048 81.1473C58.048 81.1478 58.048 81.1482 58.048 81.1487C58.048 81.1491 58.048 81.1496 58.048 81.15C58.048 81.1505 58.048 81.1509 58.048 81.1514C58.048 81.1518 58.048 81.1523 58.048 81.1527C58.048 81.1532 58.048 81.1536 58.048 81.1541C58.048 81.1545 58.048 81.155 58.048 81.1554C58.048 81.1559 58.048 81.1563 58.048 81.1568C58.048 81.1572 58.048 81.1577 58.048 81.1581C58.048 81.1586 58.048 81.159 58.048 81.1595C58.048 81.1599 58.048 81.1604 58.048 81.1608C58.048 81.1613 58.048 81.1617 58.048 81.1622C58.048 81.1626 58.048 81.1631 58.048 81.1635C58.048 81.164 58.048 81.1644 58.048 81.1649C58.048 81.1653 58.048 81.1658 58.048 81.1662C58.048 81.1667 58.048 81.1671 58.048 81.1676C58.048 81.168 58.048 81.1685 58.048 81.1689C58.048 81.1694 58.048 81.1698 58.048 81.1703C58.048 81.1707 58.048 81.1712 58.048 81.1716C58.048 81.1721 58.048 81.1725 58.048 81.173C58.048 81.1734 58.048 81.1739 58.048 81.1743C58.048 81.1748 58.048 81.1752 58.048 81.1757C58.048 81.1761 58.048 81.1766 58.048 81.177C58.048 81.1775 58.048 81.1779 58.048 81.1784C58.048 81.1788 58.048 81.1793 58.048 81.1797C58.048 81.1802 58.048 81.1806 58.048 81.181C58.048 81.1815 58.048 81.1819 58.048 81.1824C58.048 81.1828 58.048 81.1833 58.048 81.1837C58.048 81.1842 58.048 81.1846 58.048 81.1851C58.048 81.1855 58.048 81.186 58.048 81.1864C58.048 81.1869 58.048 81.1873 58.048 81.1878C58.048 81.1882 58.048 81.1887 58.048 81.1891C58.048 81.1896 58.048 81.19 58.048 81.1904C58.048 81.1909 58.048 81.1913 58.048 81.1918C58.048 81.1922 58.048 81.1927 58.048 81.1931C58.048 81.1936 58.048 81.194 58.048 81.1945C58.048 81.1949 58.048 81.1954 58.048 81.1958C58.048 81.1963 58.048 81.1967 58.048 81.1971C58.048 81.1976 58.048 81.198 58.048 81.1985C58.048 81.1989 58.048 81.1994 58.048 81.1998C58.048 81.2003 58.048 81.2007 58.048 81.2012C58.048 81.2016 58.048 81.202 58.048 81.2025C58.048 81.2029 58.048 81.2034 58.048 81.2038C58.048 81.2043 58.048 81.2047 58.048 81.2052C58.048 81.2056 58.048 81.2061 58.048 81.2065C58.048 81.2069 58.048 81.2074 58.048 81.2078C58.048 81.2083 58.048 81.2087 58.048 81.2092C58.048 81.2096 58.048 81.2101 58.048 81.2105C58.048 81.2109 58.048 81.2114 58.048 81.2118C58.048 81.2123 58.048 81.2127 58.048 81.2132C58.048 81.2136 58.048 81.2141 58.048 81.2145C58.048 81.2149 58.048 81.2154 58.048 81.2158C58.048 81.2163 58.048 81.2167 58.048 81.2172C58.048 81.2176 58.048 81.2181 58.048 81.2185C58.048 81.2189 58.048 81.2194 58.048 81.2198C58.048 81.2203 58.048 81.2207 58.048 81.2212C58.048 81.2216 58.048 81.222 58.048 81.2225C58.048 81.2229 58.048 81.2234 58.048 81.2238C58.048 81.2243 58.048 81.2247 58.048 81.2251C58.048 81.2256 58.048 81.226 58.048 81.2265C58.048 81.2269 58.048 81.2274 58.048 81.2278C58.048 81.2282 58.048 81.2287 58.048 81.2291C58.048 81.2296 58.048 81.23 58.048 81.2304C58.048 81.2309 58.048 81.2313 58.048 81.2318C58.048 81.2322 58.048 81.2327 58.048 81.2331C58.048 81.2335 58.048 81.234 58.048 81.2344C58.048 81.2349 58.048 81.2353 58.048 81.2358C58.048 81.2362 58.048 81.2366 58.048 81.2371C58.048 81.2375 58.048 81.238 58.048 81.2384C58.048 81.2388 58.048 81.2393 58.048 81.2397C58.048 81.2402 58.048 81.2406 58.048 81.241C58.048 81.2415 58.048 81.2419 58.048 81.2424C58.048 81.2428 58.048 81.2432 58.048 81.2437C58.048 81.2441 58.048 81.2446 58.048 81.245C58.048 81.2455 58.048 81.2459 58.048 81.2463C58.048 81.2468 58.048 81.2472 58.048 81.2477C58.048 81.2481 58.048 81.2485 58.048 81.249C58.048 81.2494 58.048 81.2499 58.048 81.2503C58.048 81.2507 58.048 81.2512 58.048 81.2516C58.048 81.2521 58.048 81.2525 58.048 81.2529C58.048 81.2534 58.048 81.2538 58.048 81.2542C58.048 81.2547 58.048 81.2551 58.048 81.2556C58.048 81.256 58.048 81.2564 58.048 81.2569C58.048 81.2573 58.048 81.2578 58.048 81.2582C58.048 81.2586 58.048 81.2591 58.048 81.2595C58.048 81.26 58.048 81.2604 58.048 81.2608C58.048 81.2613 58.048 81.2617 58.048 81.2621C58.048 81.2626 58.048 81.263 58.048 81.2635C58.048 81.2639 58.048 81.2643 58.048 81.2648C58.048 81.2652 58.048 81.2657 58.048 81.2661C58.048 81.2665 58.048 81.267 58.048 81.2674C58.048 81.2678 58.048 81.2683 58.048 81.2687C58.048 81.2692 58.048 81.2696 58.048 81.27C58.048 81.2705 58.048 81.2709 58.048 81.2713C58.048 81.2718 58.048 81.2722 58.048 81.2727C58.048 81.2731 58.048 81.2735 58.048 81.274C58.048 81.2744 58.048 81.2748 58.048 81.2753C58.048 81.2757 58.048 81.2761 58.048 81.2766C58.048 81.277 58.048 81.2775 58.048 81.2779C58.048 81.2783 58.048 81.2788 58.048 81.2792C58.048 81.2796 58.048 81.2801 58.048 81.2805C58.048 81.2809 58.048 81.2814 58.048 81.2818C58.048 81.2823 58.048 81.2827 58.048 81.2831C58.048 81.2836 58.048 81.284 58.048 81.2844C58.048 81.2849 58.048 81.2853 58.048 81.2857C58.048 81.2862 58.048 81.2866 58.048 81.287C58.048 81.2875 58.048 81.2879 58.048 81.2884C58.048 81.2888 58.048 81.2892 58.048 81.2897C58.048 81.2901 58.048 81.2905 58.048 81.291C58.048 81.2914 58.048 81.2918 58.048 81.2923C58.048 81.2927 58.048 81.2931 58.048 81.2936C58.048 81.294 58.048 81.2944 58.048 81.2949C58.048 81.2953 58.048 81.2957 58.048 81.2962C58.048 81.2966 58.048 81.297 58.048 81.2975C58.048 81.2979 58.048 81.2983 58.048 81.2988C58.048 81.2992 58.048 81.2996 58.048 81.3001C58.048 81.3005 58.048 81.3009 58.048 81.3014C58.048 81.3018 58.048 81.3022 58.048 81.3027C58.048 81.3031 58.048 81.3036 58.048 81.304C58.048 81.3044 58.048 81.3049 58.048 81.3053C58.048 81.3057 58.048 81.3061 58.048 81.3066C58.048 81.307 58.048 81.3074 58.048 81.3079C58.048 81.3083 58.048 81.3087 58.048 81.3092C58.048 81.3096 58.048 81.31 58.048 81.3105C58.048 81.3109 58.048 81.3113 58.048 81.3118C58.048 81.3122 58.048 81.3126 58.048 81.3131C58.048 81.3135 58.048 81.3139 58.048 81.3144C58.048 81.3148 58.048 81.3152 58.048 81.3157C58.048 81.3161 58.048 81.3165 58.048 81.317C58.048 81.3174 58.048 81.3178 58.048 81.3183C58.048 81.3187 58.048 81.3191 58.048 81.3195C58.048 81.32 58.048 81.3204 58.048 81.3208C58.048 81.3213 58.048 81.3217 58.048 81.3221C58.048 81.3226 58.048 81.323 58.048 81.3234C58.048 81.3239 58.048 81.3243 58.048 81.3247C58.048 81.3252 58.048 81.3256 58.048 81.326C58.048 81.3264 58.048 81.3269 58.048 81.3273C58.048 81.3277 58.048 81.3282 58.048 81.3286C58.048 81.329 58.048 81.3295 58.048 81.3299C58.048 81.3303 58.048 81.3307 58.048 81.3312C58.048 81.3316 58.048 81.332 58.048 81.3325C58.048 81.3329 58.048 81.3333 58.048 81.3338C58.048 81.3342 58.048 81.3346 58.048 81.335C58.048 81.3355 58.048 81.3359 58.048 81.3363C58.048 81.3368 58.048 81.3372 58.048 81.3376C58.048 81.3381 58.048 81.3385 58.048 81.3389C58.048 81.3393 58.048 81.3398 58.048 81.3402C58.048 81.3406 58.048 81.3411 58.048 81.3415C58.048 81.3419 58.048 81.3423 58.048 81.3428C58.048 81.3432 58.048 81.3436 58.048 81.3441C58.048 81.3445 58.048 81.3449 58.048 81.3453C58.048 81.3458 58.048 81.3462 58.048 81.3466C58.048 81.347 58.048 81.3475 58.048 81.3479C58.048 81.3483 58.048 81.3488 58.048 81.3492C58.048 81.3496 58.048 81.35 58.048 81.3505C58.048 81.3509 58.048 81.3513 58.048 81.3518C58.048 81.3522 58.048 81.3526 58.048 81.353C58.048 81.3535 58.048 81.3539 58.048 81.3543C58.048 81.3547 58.048 81.3552 58.048 81.3556C58.048 81.356 58.048 81.3565 58.048 81.3569C58.048 81.3573 58.048 81.3577 58.048 81.3582C58.048 81.3586 58.048 81.359 58.048 81.3594C58.048 81.3599 58.048 81.3603 58.048 81.3607C58.048 81.3611 58.048 81.3616 58.048 81.362C58.048 81.3624 58.048 81.3629 58.048 81.3633C58.048 81.3637 58.048 81.3641 58.048 81.3646C58.048 81.365 58.048 81.3654 58.048 81.3658C58.048 81.3663 58.048 81.3667 58.048 81.3671C58.048 81.3675 58.048 81.368 58.048 81.3684C58.048 81.3688 58.048 81.3692 58.048 81.3697C58.048 81.3701 58.048 81.3705 58.048 81.3709C58.048 81.3714 58.048 81.3718 58.048 81.3722C58.048 81.3726 58.048 81.3731 58.048 81.3735C58.048 81.3739 58.048 81.3743 58.048 81.3748C58.048 81.3752 58.048 81.3756 58.048 81.376C58.048 81.3765 58.048 81.3769 58.048 81.3773C58.048 81.3777 58.048 81.3782 58.048 81.3786C58.048 81.379 58.048 81.3794 58.048 81.3799C58.048 81.3803 58.048 81.3807 58.048 81.3811C58.048 81.3815 58.048 81.382 58.048 81.3824C58.048 81.3828 58.048 81.3832 58.048 81.3837C58.048 81.3841 58.048 81.3845 58.048 81.3849C58.048 81.3854 58.048 81.3858 58.048 81.3862C58.048 81.3866 58.048 81.3871 58.048 81.3875C58.048 81.3879 58.048 81.3883 58.048 81.3887C58.048 81.3892 58.048 81.3896 58.048 81.39C58.048 81.3904 58.048 81.3909 58.048 81.3913C58.048 81.3917 58.048 81.3921 58.048 81.3925C58.048 81.393 58.048 81.3934 58.048 81.3938C58.048 81.3942 58.048 81.3947 58.048 81.3951C58.048 81.3955 58.048 81.3959 58.048 81.3963C58.048 81.3968 58.048 81.3972 58.048 81.3976C58.048 81.398 58.048 81.3985 58.048 81.3989C58.048 81.3993 58.048 81.3997 58.048 81.4001C58.048 81.4006 58.048 81.401 58.048 81.4014C58.048 81.4018 58.048 81.4023 58.048 81.4027C58.048 81.4031 58.048 81.4035 58.048 81.4039C58.048 81.4044 58.048 81.4048 58.048 81.4052C58.048 81.4056 58.048 81.406 58.048 81.4065C58.048 81.4069 58.048 81.4073 58.048 81.4077C58.048 81.4081 58.048 81.4086 58.048 81.409C58.048 81.4094 58.048 81.4098 58.048 81.4102C58.048 81.4107 58.048 81.4111 58.048 81.4115C58.048 81.4119 58.048 81.4123 58.048 81.4128C58.048 81.4132 58.048 81.4136 58.048 81.414C58.048 81.4144 58.048 81.4149 58.048 81.4153C58.048 81.4157 58.048 81.4161 58.048 81.4165C58.048 81.417 58.048 81.4174 58.048 81.4178C58.048 81.4182 58.048 81.4186 58.048 81.4191C58.048 81.4195 58.048 81.4199 58.048 81.4203C58.048 81.4207 58.048 81.4212 58.048 81.4216C58.048 81.422 58.048 81.4224 58.048 81.4228C58.048 81.4232 58.048 81.4237 58.048 81.4241C58.048 81.4245 58.048 81.4249 58.048 81.4253C58.048 81.4258 58.048 81.4262 58.048 81.4266C58.048 81.427 58.048 81.4274 58.048 81.4278C58.048 81.4283 58.048 81.4287 58.048 81.4291C58.048 81.4295 58.048 81.4299 58.048 81.4304C58.048 81.4308 58.048 81.4312 58.048 81.4316C58.048 81.432 58.048 81.4324 58.048 81.4329C58.048 81.4333 58.048 81.4337 58.048 81.4341C58.048 81.4345 58.048 81.4349 58.048 81.4354C58.048 81.4358 58.048 81.4362 58.048 81.4366C58.048 81.437 58.048 81.4374 58.048 81.4379C58.048 81.4383 58.048 81.4387 58.048 81.4391C58.048 81.4395 58.048 81.4399 58.048 81.4404C58.048 81.4408 58.048 81.4412 58.048 81.4416C58.048 81.442 58.048 81.4424 58.048 81.4429C58.048 81.4433 58.048 81.4437 58.048 81.4441C58.048 81.4445 58.048 81.4449 58.048 81.4454C58.048 81.4458 58.048 81.4462 58.048 81.4466C58.048 81.447 58.048 81.4474 58.048 81.4478C58.048 81.4483 58.048 81.4487 58.048 81.4491C58.048 81.4495 58.048 81.4499 58.048 81.4503C58.048 81.4508 58.048 81.4512 58.048 81.4516C58.048 81.452 58.048 81.4524 58.048 81.4528C58.048 81.4532 58.048 81.4537 58.048 81.4541C58.048 81.4545 58.048 81.4549 58.048 81.4553C58.048 81.4557 58.048 81.4561 58.048 81.4566C58.048 81.457 58.048 81.4574 58.048 81.4578C58.048 81.4582 58.048 81.4586 58.048 81.459C58.048 81.4595 58.048 81.4599 58.048 81.4603C58.048 81.4607 58.048 81.4611 58.048 81.4615C58.048 81.4619 58.048 81.4624 58.048 81.4628C58.048 81.4632 58.048 81.4636 58.048 81.464C58.048 81.4644 58.048 81.4648 58.048 81.4653C58.048 81.4657 58.048 81.4661 58.048 81.4665C58.048 81.4669 58.048 81.4673 58.048 81.4677C58.048 81.4681 58.048 81.4686 58.048 81.469C58.048 81.4694 58.048 81.4698 58.048 81.4702C58.048 81.4706 58.048 81.471 58.048 81.4714C58.048 81.4719 58.048 81.4723 58.048 81.4727C58.048 81.4731 58.048 81.4735 58.048 81.4739C58.048 81.4743 58.048 81.4747 58.048 81.4752C58.048 81.4756 58.048 81.476 58.048 81.4764C58.048 81.4768 58.048 81.4772 58.048 81.4776C58.048 81.478 58.048 81.4785 58.048 81.4789C58.048 81.4793 58.048 81.4797 58.048 81.4801C58.048 81.4805 58.048 81.4809 58.048 81.4813C58.048 81.4817 58.048 81.4822 58.048 81.4826C58.048 81.483 58.048 81.4834 58.048 81.4838C58.048 81.4842 58.048 81.4846 58.048 81.485C58.048 81.4854 58.048 81.4859 58.048 81.4863C58.048 81.4867 58.048 81.4871 58.048 81.4875C58.048 81.4879 58.048 81.4883 58.048 81.4887C58.048 81.4891 58.048 81.4895 58.048 81.49C58.048 81.4904 58.048 81.4908 58.048 81.4912C58.048 81.4916 58.048 81.492 58.048 81.4924C58.048 81.4928 58.048 81.4932 58.048 81.4936C58.048 81.4941 58.048 81.4945 58.048 81.4949C58.048 81.4953 58.048 81.4957 58.048 81.4961C58.048 81.4965 58.048 81.4969 58.048 81.4973C58.048 81.4977 58.048 81.4981 58.048 81.4986C58.048 81.499 58.048 81.4994 58.048 81.4998C58.048 81.5002 58.048 81.5006 58.048 81.501C58.048 81.5014 58.048 81.5018 58.048 81.5022C58.048 81.5026 58.048 81.5031 58.048 81.5035C58.048 81.5039 58.048 81.5043 58.048 81.5047C58.048 81.5051 58.048 81.5055 58.048 81.5059C58.048 81.5063 58.048 81.5067 58.048 81.5071C58.048 81.5075 58.048 81.5079 58.048 81.5084C58.048 81.5088 58.048 81.5092 58.048 81.5096C58.048 81.51 58.048 81.5104 58.048 81.5108C58.048 81.5112 58.048 81.5116 58.048 81.512C58.048 81.5124 58.048 81.5128 58.048 81.5132C58.048 81.5137 58.048 81.5141 58.048 81.5145C58.048 81.5149 58.048 81.5153 58.048 81.5157C58.048 81.5161 58.048 81.5165 58.048 81.5169C58.048 81.5173 58.048 81.5177 58.048 81.5181C58.048 81.5185 58.048 81.5189 58.048 81.5193C58.048 81.5198 58.048 81.5202 58.048 81.5206C58.048 81.521 58.048 81.5214 58.048 81.5218C58.048 81.5222 58.048 81.5226 58.048 81.523C58.048 81.5234 58.048 81.5238 58.048 81.5242C58.048 81.5246 58.048 81.525 58.048 81.5254C58.048 81.5258 58.048 81.5262 58.048 81.5266C58.048 81.5271 58.048 81.5275 58.048 81.5279C58.048 81.5283 58.048 81.5287 58.048 81.5291C58.048 81.5295 58.048 81.5299 58.048 81.5303C58.048 81.5307 58.048 81.5311 58.048 81.5315C58.048 81.5319 58.048 81.5323 58.048 81.5327C58.048 81.5331 58.048 81.5335 58.048 81.5339C58.048 81.5343 58.048 81.5347 58.048 81.5352C58.048 81.5356 58.048 81.536 58.048 81.5364C58.048 81.5368 58.048 81.5372 58.048 81.5376C58.048 81.538 58.048 81.5384 58.048 81.5388C58.048 81.5392 58.048 81.5396 58.048 81.54H60.048ZM60.048 80.858C60.048 80.6157 60.0653 80.4027 60.0964 80.2164L58.1236 79.8876C58.072 80.1973 58.048 80.5216 58.048 80.858H60.048ZM60.0801 80.2945C60.196 79.831 60.6514 78.9532 61.6044 77.5858L59.9636 76.4422C59.0153 77.8028 58.3546 78.9504 58.1399 79.8095L60.0801 80.2945ZM61.6044 77.5858C62.5569 76.2192 63.2278 75.1364 63.5602 74.3768L61.7278 73.5752C61.4815 74.1383 60.9124 75.0808 59.9636 76.4422L61.6044 77.5858ZM63.5245 74.4501C63.8823 73.7856 64.2374 72.6344 64.6077 71.1124L62.6643 70.6396C62.2906 72.1763 61.9844 73.0918 61.7635 73.5019L63.5245 74.4501ZM64.6031 71.1305C65.0107 69.5816 65.3989 68.5219 65.7502 67.8896L64.0018 66.9184C63.5264 67.7741 63.088 69.0291 62.6689 70.6215L64.6031 71.1305ZM65.7598 67.8719C66.0356 67.3509 66.7125 66.5863 67.9342 65.5682L66.6538 64.0318C65.3955 65.0804 64.4604 66.0518 63.9922 66.9361L65.7598 67.8719ZM67.9489 65.5557C69.1935 64.4771 70.1085 63.5408 70.5695 62.7725L68.8545 61.7435C68.5715 62.2152 67.8745 62.9736 66.6391 64.0443L67.9489 65.5557ZM70.5516 62.8013C71.1692 61.8468 71.4139 60.358 71.4557 58.5612L69.4563 58.5147C69.4154 60.2726 69.1642 61.2639 68.8724 61.7147L70.5516 62.8013ZM71.455 58.5834C71.4953 57.6972 71.5648 56.9945 71.658 56.4633C71.7554 55.9076 71.8641 55.6314 71.9277 55.5281L70.2243 54.4799C69.9573 54.9139 69.7972 55.4954 69.688 56.1177C69.5746 56.7645 69.4994 57.5601 69.457 58.4926L71.455 58.5834ZM71.9081 55.5587C72.3769 54.8554 72.8323 54.2899 73.2711 53.8511L71.8569 52.4369C71.3037 52.9901 70.7671 53.6646 70.2439 54.4493L71.9081 55.5587ZM73.2711 53.8511C73.7727 53.3495 74.2644 52.9351 74.7452 52.6022L73.6068 50.9578C73.0129 51.3689 72.43 51.8638 71.8569 52.4369L73.2711 53.8511ZM74.7857 52.5726C75.3157 52.1649 75.7186 51.8376 75.9371 51.6191L74.5229 50.2049C74.4107 50.317 74.111 50.5684 73.5663 50.9874L74.7857 52.5726ZM75.3639 49.921C73.7578 49.704 72.0355 49.6624 70.2004 49.7904L70.3396 51.7856C72.0592 51.6656 73.6436 51.7067 75.0961 51.903L75.3639 49.921ZM70.1705 49.793C69.7523 49.8348 68.7766 49.9386 67.2485 50.1038L67.4635 52.0922C68.9941 51.9267 69.961 51.8239 70.3695 51.783L70.1705 49.793ZM67.2752 50.1013C65.7491 50.225 64.5832 50.3067 63.7721 50.3472L63.8719 52.3448C64.7142 52.3026 65.9043 52.219 67.4368 52.0947L67.2752 50.1013ZM63.822 50.346C63.4264 50.346 62.8745 50.4645 62.2623 50.6278L62.7777 52.5602C63.4055 52.3928 63.7216 52.346 63.822 52.346V50.346ZM62.3239 50.6134C61.7107 50.7361 61.2638 50.813 60.97 50.8497L61.218 52.8343C61.5855 52.7883 62.0893 52.6999 62.7161 52.5746L62.3239 50.6134ZM60.97 50.8497C60.9263 50.8552 60.7261 50.85 60.3012 50.6376L59.4068 52.4264C59.9739 52.71 60.6004 52.9115 61.218 52.8343L60.97 50.8497ZM60.4352 50.7183C60.3158 50.633 60.0318 50.3267 59.5776 49.6247L57.8984 50.7112C58.3535 51.4146 58.8135 52.0177 59.2728 52.3457L60.4352 50.7183ZM59.5999 49.661C59.3672 49.2654 59.1107 48.9103 58.8212 48.636C58.5347 48.3646 58.1504 48.1114 57.6704 48.0581L57.4496 50.0459C57.3416 50.0339 57.3396 49.9874 57.4458 50.0879C57.549 50.1857 57.6954 50.368 57.8761 50.675L59.5999 49.661ZM57.6791 48.0591C56.5935 47.9288 55.6063 47.903 54.7273 47.9955L54.9367 49.9845C55.6284 49.9117 56.4598 49.9272 57.4409 50.0449L57.6791 48.0591ZM54.7216 47.9961C54.0346 48.0724 53.4868 48.067 53.0621 48.0016L52.7579 49.9784C53.4078 50.0784 54.1414 50.0729 54.9424 49.9839L54.7216 47.9961ZM53.1525 48.0199C53.0353 47.9906 52.9957 47.9563 52.9878 47.9489C52.9834 47.9448 52.9635 47.9276 52.9448 47.8589L51.0152 48.3851C51.2439 49.2235 51.857 49.7575 52.6675 49.9601L53.1525 48.0199ZM52.5724 48.9276C53.8501 47.9881 55.6091 47.1837 57.8923 46.5428L57.3517 44.6172C54.9229 45.299 52.9205 46.1892 51.3876 47.3163L52.5724 48.9276ZM57.8967 46.5415C58.3331 46.4169 58.8164 46.1539 59.3153 45.8286C59.8303 45.4927 60.4282 45.0457 61.1046 44.4961L59.8434 42.9439C59.1971 43.469 58.6584 43.8693 58.2227 44.1534C57.7709 44.4481 57.4896 44.5778 57.3473 44.6185L57.8967 46.5415ZM61.1072 44.494C61.7595 43.9603 62.3148 43.5784 62.7771 43.3295C63.249 43.0754 63.5644 42.9924 63.7506 42.9826L63.6454 40.9854C63.0463 41.0169 62.4317 41.244 61.8289 41.5685C61.2165 41.8983 60.5525 42.3637 59.8408 42.946L61.1072 44.494ZM63.7567 42.9823C64.296 42.9506 65.264 43.0808 66.7415 43.4501L67.2265 41.5099C65.728 41.1352 64.5054 40.9348 63.6393 40.9857L63.7567 42.9823ZM66.7415 43.4501C68.2321 43.8228 69.3846 44.0505 70.1456 44.098L70.2704 42.1019C69.7087 42.0668 68.7119 41.8812 67.2265 41.5099L66.7415 43.4501ZM70.208 44.1C70.3196 44.1 70.5869 44.1531 71.0576 44.4023C71.5105 44.642 72.0721 45.0203 72.7481 45.5571L73.9919 43.9909C73.2626 43.4117 72.5945 42.953 71.9934 42.6347C71.4101 42.3259 70.7991 42.1 70.208 42.1V44.1ZM72.7626 45.5684C73.4922 46.1263 74.16 46.5679 74.7603 46.8739C75.3439 47.1714 75.9497 47.386 76.532 47.386V45.386C76.4116 45.386 76.1391 45.3319 75.6687 45.0921C75.215 44.8608 74.6532 44.4964 73.9775 43.9796L72.7626 45.5684ZM76.4765 47.3845C77.0804 47.418 77.7078 47.2332 78.3151 46.953C78.9348 46.6669 79.6144 46.2433 80.3484 45.7037L79.1636 44.0923C78.4922 44.586 77.9319 44.9271 77.4769 45.137C77.0095 45.3528 76.7276 45.3953 76.5875 45.3875L76.4765 47.3845ZM80.3484 45.7037C81.0278 45.2041 81.5919 44.8435 82.0464 44.6072C82.519 44.3614 82.7951 44.2918 82.9184 44.2841L82.7936 42.2879C82.2556 42.3216 81.6843 42.5412 81.1236 42.8328C80.5448 43.1338 79.8895 43.5586 79.1636 44.0923L80.3484 45.7037ZM82.856 44.286C82.7475 44.286 82.6045 44.2608 82.4606 44.1769C82.3172 44.0932 82.226 43.9821 82.1738 43.8906C82.0865 43.738 82.104 43.6378 82.104 43.72H84.104C84.104 43.5129 84.0802 43.1957 83.9102 42.8984C83.6926 42.5175 83.301 42.286 82.856 42.286V44.286ZM82.1141 43.8614C82.1238 43.9294 82.1155 44.1906 81.9565 44.7473L83.8795 45.2967C84.0511 44.6961 84.1669 44.0893 84.094 43.5786L82.1141 43.8614ZM81.9622 44.7279C81.8172 45.1992 81.5928 45.7463 81.2796 46.3728L83.0684 47.2672C83.4165 46.571 83.6881 45.9195 83.8738 45.3161L81.9622 44.7279Z" fill="#004E44" mask="url(#path-3-outside-1_105_1844)"/>
</g>
<defs>
<filter id="filter0_dd_105_1844" x="0" y="0" width="136" height="136" filterUnits="userSpaceOnUse" color-interpolation-filters="sRGB">
<feFlood flood-opacity="0" result="BackgroundImageFix"/>
<feColorMatrix in="SourceAlpha" type="matrix" values="0 0 0 0 0 0 0 0 0 0 0 0 0 0 0 0 0 0 127 0" result="hardAlpha"/>
<feOffset dx="4" dy="4"/>
<feGaussianBlur stdDeviation="2"/>
<feComposite in2="hardAlpha" operator="out"/>
<feColorMatrix type="matrix" values="0 0 0 0 0.701961 0 0 0 0 0.878431 0 0 0 0 0.156863 0 0 0 1 0"/>
<feBlend mode="normal" in2="BackgroundImageFix" result="effect1_dropShadow_105_1844"/>
<feColorMatrix in="SourceAlpha" type="matrix" values="0 0 0 0 0 0 0 0 0 0 0 0 0 0 0 0 0 0 127 0" result="hardAlpha"/>
<feOffset dx="-4" dy="-4"/>
<feGaussianBlur stdDeviation="2"/>
<feComposite in2="hardAlpha" operator="out"/>
<feColorMatrix type="matrix" values="0 0 0 0 0.701961 0 0 0 0 0.878431 0 0 0 0 0.156863 0 0 0 1 0"/>
<feBlend mode="normal" in2="effect1_dropShadow_105_1844" result="effect2_dropShadow_105_1844"/>
<feBlend mode="normal" in="SourceGraphic" in2="effect2_dropShadow_105_1844" result="shape"/>
</filter>
</defs>
</svg>
