<svg width="137" height="136" viewBox="0 0 137 136" fill="none" xmlns="http://www.w3.org/2000/svg">
<g filter="url(#filter0_dd_100_1782)">
<rect x="8.5" y="8" width="120" height="120" rx="60" fill="#03AEC6" shape-rendering="crispEdges"/>
<rect x="10" y="9.5" width="117" height="117" rx="58.5" stroke="#004E44" stroke-width="3" shape-rendering="crispEdges"/>
<mask id="path-3-outside-1_100_1782" maskUnits="userSpaceOnUse" x="53.5" y="45.5" width="31" height="43" fill="black">
<rect fill="white" x="53.5" y="45.5" width="31" height="43"/>
<path d="M79.834 79.928C80.4953 80.2173 81.1153 80.734 81.694 81.478C82.2727 82.222 82.562 82.8833 82.562 83.462C82.3967 83.71 81.7147 83.7307 80.516 83.524C79.3587 83.276 78.594 83.1933 78.222 83.276C77.9327 83.3173 77.3127 83.4207 76.362 83.586C75.4527 83.71 74.7913 83.8133 74.378 83.896C73.7993 84.0613 73.138 84.4127 72.394 84.95C71.65 85.4873 70.906 85.9833 70.162 86.438C69.418 86.8513 68.736 87.058 68.116 87.058C67.248 87.0993 66.1113 86.6447 64.706 85.694C63.3007 84.702 62.3087 84.144 61.73 84.02C61.3167 83.9373 60.4073 83.8547 59.002 83.772C57.638 83.648 56.6253 83.338 55.964 82.842C56.5013 82.5527 57.2867 82.3047 58.32 82.098C59.3533 81.8913 60.1387 81.6227 60.676 81.292C61.0067 81.2093 61.4613 80.92 62.04 80.424C62.66 79.928 63.1767 79.7007 63.59 79.742C63.5487 79.0393 63.7967 77.9647 64.334 76.518C64.8713 75.03 65.0987 73.9347 65.016 73.232C64.9747 72.488 64.3753 71.4547 63.218 70.132C62.0607 68.768 61.4407 67.7347 61.358 67.032C61.3167 66.3707 61.2133 65.3373 61.048 63.932C60.924 62.4853 60.8207 61.39 60.738 60.646C60.738 60.274 61.0687 59.654 61.73 58.786C62.3913 57.8767 62.722 57.174 62.722 56.678C62.722 56.182 62.5153 55.686 62.102 55.19C61.73 54.6527 61.544 54.2187 61.544 53.888C61.2133 54.1773 60.9033 54.4047 60.614 54.57C60.366 54.694 60.056 54.8387 59.684 55.004C59.312 55.128 59.0433 55.2313 58.878 55.314C57.8447 55.81 56.77 55.562 55.654 54.57C55.158 54.1567 54.8687 53.702 54.786 53.206C54.7033 52.6687 54.91 52.09 55.406 51.47C55.9433 50.85 56.7907 50.292 57.948 49.796C58.1547 49.3 58.4233 48.866 58.754 48.494C59.126 48.122 59.3947 47.8947 59.56 47.812C59.7667 47.688 60.118 47.502 60.614 47.254C60.986 47.0473 61.606 47.068 62.474 47.316C63.342 47.564 63.962 47.688 64.334 47.688C64.4993 47.688 64.7267 47.6673 65.016 47.626C65.3467 47.5433 65.5327 47.5433 65.574 47.626C65.6567 47.7087 65.7807 47.9153 65.946 48.246C66.1113 48.5353 66.2767 49.0313 66.442 49.734C66.5247 50.1473 66.8347 51.0153 67.372 52.338C67.9093 53.6193 68.2193 54.694 68.302 55.562C68.3847 56.0993 68.5707 57.05 68.86 58.414C69.1907 59.7367 69.3973 60.77 69.48 61.514C69.5213 62.2167 69.356 63.2707 68.984 64.676C68.612 66.04 68.426 67.032 68.426 67.652C68.4673 68.2307 68.5087 69.2227 68.55 70.628C68.6327 72.0333 68.6947 73.0667 68.736 73.728C68.736 74.9267 68.8187 76.27 68.984 77.758C69.1493 79.246 69.232 80.0313 69.232 80.114C69.232 80.114 70.0587 80.176 71.712 80.3C73.4067 80.424 74.7913 80.5067 75.866 80.548C76.1553 80.5893 76.7753 80.4447 77.726 80.114C78.718 79.7833 79.4207 79.7213 79.834 79.928Z"/>
</mask>
<path d="M79.834 79.928C80.4953 80.2173 81.1153 80.734 81.694 81.478C82.2727 82.222 82.562 82.8833 82.562 83.462C82.3967 83.71 81.7147 83.7307 80.516 83.524C79.3587 83.276 78.594 83.1933 78.222 83.276C77.9327 83.3173 77.3127 83.4207 76.362 83.586C75.4527 83.71 74.7913 83.8133 74.378 83.896C73.7993 84.0613 73.138 84.4127 72.394 84.95C71.65 85.4873 70.906 85.9833 70.162 86.438C69.418 86.8513 68.736 87.058 68.116 87.058C67.248 87.0993 66.1113 86.6447 64.706 85.694C63.3007 84.702 62.3087 84.144 61.73 84.02C61.3167 83.9373 60.4073 83.8547 59.002 83.772C57.638 83.648 56.6253 83.338 55.964 82.842C56.5013 82.5527 57.2867 82.3047 58.32 82.098C59.3533 81.8913 60.1387 81.6227 60.676 81.292C61.0067 81.2093 61.4613 80.92 62.04 80.424C62.66 79.928 63.1767 79.7007 63.59 79.742C63.5487 79.0393 63.7967 77.9647 64.334 76.518C64.8713 75.03 65.0987 73.9347 65.016 73.232C64.9747 72.488 64.3753 71.4547 63.218 70.132C62.0607 68.768 61.4407 67.7347 61.358 67.032C61.3167 66.3707 61.2133 65.3373 61.048 63.932C60.924 62.4853 60.8207 61.39 60.738 60.646C60.738 60.274 61.0687 59.654 61.73 58.786C62.3913 57.8767 62.722 57.174 62.722 56.678C62.722 56.182 62.5153 55.686 62.102 55.19C61.73 54.6527 61.544 54.2187 61.544 53.888C61.2133 54.1773 60.9033 54.4047 60.614 54.57C60.366 54.694 60.056 54.8387 59.684 55.004C59.312 55.128 59.0433 55.2313 58.878 55.314C57.8447 55.81 56.77 55.562 55.654 54.57C55.158 54.1567 54.8687 53.702 54.786 53.206C54.7033 52.6687 54.91 52.09 55.406 51.47C55.9433 50.85 56.7907 50.292 57.948 49.796C58.1547 49.3 58.4233 48.866 58.754 48.494C59.126 48.122 59.3947 47.8947 59.56 47.812C59.7667 47.688 60.118 47.502 60.614 47.254C60.986 47.0473 61.606 47.068 62.474 47.316C63.342 47.564 63.962 47.688 64.334 47.688C64.4993 47.688 64.7267 47.6673 65.016 47.626C65.3467 47.5433 65.5327 47.5433 65.574 47.626C65.6567 47.7087 65.7807 47.9153 65.946 48.246C66.1113 48.5353 66.2767 49.0313 66.442 49.734C66.5247 50.1473 66.8347 51.0153 67.372 52.338C67.9093 53.6193 68.2193 54.694 68.302 55.562C68.3847 56.0993 68.5707 57.05 68.86 58.414C69.1907 59.7367 69.3973 60.77 69.48 61.514C69.5213 62.2167 69.356 63.2707 68.984 64.676C68.612 66.04 68.426 67.032 68.426 67.652C68.4673 68.2307 68.5087 69.2227 68.55 70.628C68.6327 72.0333 68.6947 73.0667 68.736 73.728C68.736 74.9267 68.8187 76.27 68.984 77.758C69.1493 79.246 69.232 80.0313 69.232 80.114C69.232 80.114 70.0587 80.176 71.712 80.3C73.4067 80.424 74.7913 80.5067 75.866 80.548C76.1553 80.5893 76.7753 80.4447 77.726 80.114C78.718 79.7833 79.4207 79.7213 79.834 79.928Z" fill="#B3E028"/>
<path d="M79.834 79.928L79.3868 80.8224L79.4097 80.8339L79.4332 80.8442L79.834 79.928ZM81.694 81.478L80.9046 82.0919H80.9046L81.694 81.478ZM82.562 83.462L83.3941 84.0167L83.562 83.7648V83.462H82.562ZM80.516 83.524L80.3065 84.5018L80.3262 84.506L80.3461 84.5095L80.516 83.524ZM78.222 83.276L78.3634 84.2659L78.4014 84.2605L78.4389 84.2522L78.222 83.276ZM76.362 83.586L76.4971 84.5768L76.5153 84.5744L76.5333 84.5712L76.362 83.586ZM74.378 83.896L74.1819 82.9154L74.1422 82.9234L74.1033 82.9345L74.378 83.896ZM72.394 84.95L72.9795 85.7607H72.9795L72.394 84.95ZM70.162 86.438L70.6476 87.3122L70.6658 87.3021L70.6835 87.2913L70.162 86.438ZM68.116 87.058V86.058H68.0922L68.0684 86.0591L68.116 87.058ZM64.706 85.694L64.1293 86.511L64.1374 86.5167L64.1457 86.5223L64.706 85.694ZM61.73 84.02L61.9395 83.0421L61.9261 83.0394L61.73 84.02ZM59.002 83.772L58.9115 84.7679L58.9274 84.7693L58.9433 84.7703L59.002 83.772ZM55.964 82.842L55.4899 81.9615L54.1124 82.7033L55.364 83.642L55.964 82.842ZM58.32 82.098L58.5161 83.0786L58.32 82.098ZM60.676 81.292L60.4335 80.3219L60.2835 80.3593L60.1519 80.4403L60.676 81.292ZM62.04 80.424L61.4153 79.6431L61.4021 79.6537L61.3892 79.6647L62.04 80.424ZM63.59 79.742L63.4905 80.737L64.6571 80.8537L64.5883 79.6833L63.59 79.742ZM64.334 76.518L65.2715 76.8662L65.2746 76.8576L64.334 76.518ZM65.016 73.232L64.0175 73.2875L64.0192 73.3182L64.0229 73.3488L65.016 73.232ZM63.218 70.132L62.4555 70.779L62.4604 70.7848L62.4654 70.7905L63.218 70.132ZM61.358 67.032L60.3599 67.0944L60.3617 67.1217L60.3649 67.1488L61.358 67.032ZM61.048 63.932L60.0517 64.0174L60.053 64.0331L60.0549 64.0488L61.048 63.932ZM60.738 60.646H59.738V60.7014L59.7441 60.7564L60.738 60.646ZM61.73 58.786L62.5254 59.392L62.5322 59.3832L62.5387 59.3742L61.73 58.786ZM62.102 55.19L61.2798 55.7592L61.3052 55.7959L61.3338 55.8302L62.102 55.19ZM61.544 53.888H62.544V51.6842L60.8855 53.1354L61.544 53.888ZM60.614 54.57L61.0612 55.4644L61.086 55.452L61.1101 55.4382L60.614 54.57ZM59.684 55.004L60.0002 55.9527L60.046 55.9374L60.0901 55.9178L59.684 55.004ZM58.878 55.314L59.3107 56.2155L59.318 56.212L59.3252 56.2084L58.878 55.314ZM55.654 54.57L56.3184 53.8226L56.3064 53.812L56.2942 53.8018L55.654 54.57ZM54.786 53.206L53.7976 53.3581L53.7996 53.3704L54.786 53.206ZM55.406 51.47L54.6503 50.8151L54.6374 50.8299L54.6251 50.8453L55.406 51.47ZM57.948 49.796L58.3419 50.7151L58.715 50.5553L58.8711 50.1806L57.948 49.796ZM58.754 48.494L58.0469 47.7869L58.0261 47.8077L58.0066 47.8296L58.754 48.494ZM59.56 47.812L60.0072 48.7064L60.0416 48.6893L60.0745 48.6695L59.56 47.812ZM60.614 47.254L61.0612 48.1484L61.0806 48.1387L61.0996 48.1282L60.614 47.254ZM62.474 47.316L62.1993 48.2775L62.474 47.316ZM65.016 47.626L65.1574 48.6159L65.2085 48.6087L65.2585 48.5961L65.016 47.626ZM65.574 47.626L64.6796 48.0732L64.7521 48.2184L64.8669 48.3331L65.574 47.626ZM65.946 48.246L65.0516 48.6932L65.064 48.718L65.0778 48.7421L65.946 48.246ZM66.442 49.734L67.4226 49.5379L67.4193 49.5214L67.4154 49.505L66.442 49.734ZM67.372 52.338L66.4455 52.7144L66.4498 52.7247L67.372 52.338ZM68.302 55.562L67.3065 55.6568L67.3092 55.6855L67.3136 55.7141L68.302 55.562ZM68.86 58.414L67.8818 58.6215L67.8855 58.6391L67.8899 58.6565L68.86 58.414ZM69.48 61.514L70.4783 61.4553L70.4768 61.4294L70.4739 61.4036L69.48 61.514ZM68.984 64.676L69.9488 64.9391L69.9507 64.9319L68.984 64.676ZM68.426 67.652H67.426V67.6877L67.4285 67.7232L68.426 67.652ZM68.55 70.628L67.5504 70.6574L67.5509 70.6721L67.5517 70.6867L68.55 70.628ZM68.736 73.728H69.736V73.6968L69.7341 73.6656L68.736 73.728ZM68.984 77.758L67.9901 77.8684L68.984 77.758ZM69.232 80.114H68.232V81.0418L69.1572 81.1112L69.232 80.114ZM71.712 80.3L71.6372 81.2972L71.639 81.2973L71.712 80.3ZM75.866 80.548L76.0074 79.5581L75.9562 79.5507L75.9044 79.5487L75.866 80.548ZM77.726 80.114L77.4097 79.1652L77.3975 79.1695L77.726 80.114ZM79.4332 80.8442C79.9022 81.0494 80.398 81.4405 80.9046 82.0919L82.4834 80.8641C81.8327 80.0275 81.0884 79.3853 80.2348 79.0118L79.4332 80.8442ZM80.9046 82.0919C81.426 82.7623 81.562 83.2072 81.562 83.462H83.562C83.562 82.5594 83.1193 81.6817 82.4834 80.8641L80.9046 82.0919ZM81.73 82.9073C81.8636 82.7068 82.0303 82.6549 82.0389 82.6521C82.0548 82.6471 82.0181 82.6603 81.8962 82.664C81.6549 82.6713 81.2619 82.6378 80.6859 82.5385L80.3461 84.5095C80.9688 84.6168 81.5161 84.6764 81.9568 84.663C82.1759 84.6564 82.4156 84.6308 82.6434 84.5586C82.8638 84.4887 83.1777 84.3412 83.3941 84.0167L81.73 82.9073ZM80.7255 82.5462C80.129 82.4184 79.6116 82.3282 79.182 82.2818C78.7783 82.2382 78.3583 82.2213 78.0051 82.2998L78.4389 84.2522C78.4352 84.253 78.4736 84.245 78.5746 84.245C78.6708 84.245 78.8 84.2522 78.967 84.2702C79.302 84.3064 79.7457 84.3816 80.3065 84.5018L80.7255 82.5462ZM78.0806 82.286C77.7734 82.3299 77.1378 82.4361 76.1907 82.6008L76.5333 84.5712C77.4876 84.4053 78.0919 84.3047 78.3634 84.2659L78.0806 82.286ZM76.2269 82.5952C75.3151 82.7195 74.6277 82.8263 74.1819 82.9154L74.5741 84.8766C74.955 84.8004 75.5903 84.7005 76.4971 84.5768L76.2269 82.5952ZM74.1033 82.9345C73.3706 83.1438 72.6024 83.5659 71.8085 84.1393L72.9795 85.7607C73.6736 85.2594 74.2281 84.9788 74.6527 84.8575L74.1033 82.9345ZM71.8085 84.1393C71.0842 84.6624 70.3616 85.1441 69.6406 85.5847L70.6835 87.2913C71.4504 86.8226 72.2158 86.3122 72.9795 85.7607L71.8085 84.1393ZM69.6764 85.5638C69.0281 85.924 68.5144 86.058 68.116 86.058V88.058C68.9576 88.058 69.8079 87.7787 70.6476 87.3122L69.6764 85.5638ZM68.0684 86.0591C67.5419 86.0842 66.6369 85.7929 65.2663 84.8657L64.1457 86.5223C65.5857 87.4964 66.9541 88.1145 68.1636 88.0569L68.0684 86.0591ZM65.2827 84.877C64.5647 84.3702 63.9349 83.9618 63.3983 83.6599C62.8797 83.3683 62.3804 83.1367 61.9395 83.0422L61.5205 84.9978C61.6582 85.0273 61.9443 85.1367 62.4177 85.4031C62.8731 85.6592 63.442 86.0258 64.1293 86.511L65.2827 84.877ZM61.9261 83.0394C61.4316 82.9405 60.4488 82.8554 59.0607 82.7737L58.9433 84.7703C60.3658 84.854 61.2017 84.9341 61.5339 85.0006L61.9261 83.0394ZM59.0925 82.7761C57.8048 82.659 57.009 82.3757 56.564 82.042L55.364 83.642C56.2417 84.3003 57.4712 84.637 58.9115 84.7679L59.0925 82.7761ZM56.4381 83.7225C56.8473 83.5021 57.5203 83.2777 58.5161 83.0786L58.1239 81.1174C57.053 81.3316 56.1554 81.6032 55.4899 81.9615L56.4381 83.7225ZM58.5161 83.0786C59.5985 82.8621 60.5166 82.5642 61.2001 82.1437L60.1519 80.4403C59.7607 80.6811 59.1082 80.9206 58.1239 81.1174L58.5161 83.0786ZM60.9185 82.2621C61.4964 82.1177 62.1055 81.685 62.6908 81.1833L61.3892 79.6647C60.8172 80.155 60.5169 80.301 60.4335 80.3219L60.9185 82.2621ZM62.6647 81.2049C62.932 80.991 63.1413 80.8645 63.2952 80.7968C63.4501 80.7287 63.506 80.7386 63.4905 80.737L63.6895 78.747C62.8629 78.6643 62.0749 79.1155 61.4153 79.6431L62.6647 81.2049ZM64.5883 79.6833C64.5602 79.2056 64.7383 78.3015 65.2714 76.8662L63.3966 76.1698C62.855 77.6278 62.5372 78.8731 62.5917 79.8007L64.5883 79.6833ZM65.2746 76.8576C65.8149 75.3614 66.1216 74.0709 66.0092 73.1152L64.0229 73.3488C64.0757 73.7984 63.9278 74.6986 63.3934 76.1784L65.2746 76.8576ZM66.0145 73.1765C65.9813 72.5803 65.7367 71.9768 65.4005 71.3973C65.0573 70.8055 64.5738 70.1629 63.9706 69.4735L62.4654 70.7905C63.0195 71.4237 63.4144 71.9592 63.6705 72.4007C63.9337 72.8545 64.0093 73.1397 64.0175 73.2875L66.0145 73.1765ZM63.9805 69.485C63.4219 68.8267 63.0146 68.273 62.7425 67.8195C62.4611 67.3505 62.3682 67.0601 62.3512 66.9152L60.3649 67.1488C60.4305 67.7066 60.6889 68.2841 61.0275 68.8485C61.3754 69.4283 61.8568 70.0733 62.4555 70.779L63.9805 69.485ZM62.3561 66.9696C62.3129 66.2793 62.2068 65.2231 62.0412 63.8152L60.0549 64.0488C60.2199 65.4516 60.3204 66.462 60.3599 67.0944L62.3561 66.9696ZM62.0443 63.8466C61.9202 62.3978 61.816 61.2924 61.7319 60.5356L59.7441 60.7564C59.8254 61.4876 59.9278 62.5729 60.0517 64.0174L62.0443 63.8466ZM61.738 60.646C61.738 60.7134 61.723 60.6451 61.8684 60.3726C61.9986 60.1284 62.2116 59.8039 62.5254 59.392L60.9346 58.18C60.587 58.6361 60.3041 59.0556 60.1036 59.4314C59.9183 59.7789 59.738 60.2066 59.738 60.646H61.738ZM62.5387 59.3742C62.8916 58.889 63.1777 58.4302 63.3788 58.0028C63.575 57.5858 63.722 57.1331 63.722 56.678H61.722C61.722 56.7189 61.7036 56.8655 61.5692 57.1512C61.4397 57.4264 61.2298 57.7736 60.9213 58.1978L62.5387 59.3742ZM63.722 56.678C63.722 55.8852 63.3875 55.1705 62.8702 54.5498L61.3338 55.8302C61.6432 56.2015 61.722 56.4788 61.722 56.678H63.722ZM62.9242 54.6208C62.7629 54.3879 62.6614 54.2047 62.6026 54.0676C62.5419 53.9258 62.544 53.873 62.544 53.888H60.544C60.544 54.5412 60.8863 55.1909 61.2798 55.7592L62.9242 54.6208ZM60.8855 53.1354C60.5901 53.3939 60.3344 53.578 60.1179 53.7018L61.1101 55.4382C61.4722 55.2313 61.8365 54.9608 62.2025 54.6406L60.8855 53.1354ZM60.1668 53.6756C59.937 53.7905 59.6418 53.9284 59.2779 54.0902L60.0901 55.9178C60.4702 55.7489 60.795 55.5975 61.0612 55.4644L60.1668 53.6756ZM59.3678 54.0553C58.9891 54.1816 58.6635 54.3032 58.4308 54.4196L59.3252 56.2084C59.4232 56.1594 59.6349 56.0744 60.0002 55.9527L59.3678 54.0553ZM58.4453 54.4125C58.1245 54.5664 57.8289 54.5965 57.5219 54.5256C57.1953 54.4502 56.7936 54.245 56.3184 53.8226L54.9896 55.3174C55.6304 55.887 56.3241 56.3018 57.0721 56.4744C57.8398 56.6515 58.5982 56.5576 59.3107 56.2155L58.4453 54.4125ZM56.2942 53.8018C55.9287 53.4972 55.8056 53.2407 55.7724 53.0416L53.7996 53.3704C53.9318 54.1633 54.3873 54.8162 55.0138 55.3382L56.2942 53.8018ZM55.7744 53.0539C55.7507 52.9 55.7842 52.598 56.1869 52.0947L54.6251 50.8453C54.0358 51.582 53.656 52.4373 53.7976 53.3581L55.7744 53.0539ZM56.1617 52.1249C56.5611 51.664 57.2563 51.1804 58.3419 50.7151L57.5541 48.8769C56.325 49.4036 55.3255 50.036 54.6503 50.8151L56.1617 52.1249ZM58.8711 50.1806C59.0385 49.7788 59.25 49.4411 59.5014 49.1584L58.0066 47.8296C57.5966 48.2909 57.2708 48.8212 57.0249 49.4114L58.8711 50.1806ZM59.4611 49.2011C59.6361 49.0261 59.7748 48.8972 59.8804 48.8079C59.9982 48.7083 60.0336 48.6932 60.0072 48.7064L59.1128 46.9176C58.78 47.084 58.4029 47.4308 58.0469 47.7869L59.4611 49.2011ZM60.0745 48.6695C60.2453 48.567 60.5665 48.3958 61.0612 48.1484L60.1668 46.3596C59.6695 46.6082 59.288 46.809 59.0455 46.9545L60.0745 48.6695ZM61.0996 48.1282C61.0707 48.1442 61.118 48.1071 61.3247 48.1139C61.5252 48.1206 61.8117 48.1668 62.1993 48.2775L62.7487 46.3545C62.2683 46.2172 61.8108 46.129 61.3913 46.1151C60.978 46.1013 60.5293 46.1571 60.1284 46.3798L61.0996 48.1282ZM62.1993 48.2775C63.0656 48.525 63.807 48.688 64.334 48.688V46.688C64.117 46.688 63.6184 46.603 62.7487 46.3545L62.1993 48.2775ZM64.334 48.688C64.5693 48.688 64.8509 48.6597 65.1574 48.6159L64.8746 46.636C64.6024 46.6749 64.4293 46.688 64.334 46.688V48.688ZM65.2585 48.5961C65.3986 48.5611 65.4337 48.564 65.4035 48.564C65.3893 48.564 65.2977 48.5642 65.1741 48.5193C65.0386 48.47 64.8155 48.3451 64.6796 48.0732L66.4684 47.1788C66.3118 46.8655 66.0499 46.7096 65.8576 46.6397C65.6772 46.5741 65.5107 46.564 65.4035 46.564C65.1873 46.564 64.9641 46.6082 64.7735 46.6559L65.2585 48.5961ZM64.8669 48.3331C64.8341 48.3003 64.8215 48.2806 64.83 48.2925C64.8361 48.3009 64.8497 48.3212 64.8715 48.3575C64.9154 48.4306 64.975 48.5401 65.0516 48.6932L66.8404 47.7988C66.7517 47.6212 66.6666 47.4621 66.5865 47.3285C66.517 47.2127 66.4137 47.0515 66.2811 46.9189L64.8669 48.3331ZM65.0778 48.7421C65.1663 48.897 65.3058 49.2712 65.4686 49.963L67.4154 49.505C67.2475 48.7915 67.0564 48.1736 66.8142 47.7499L65.0778 48.7421ZM65.4614 49.9301C65.5662 50.4542 65.9175 51.4145 66.4455 52.7144L68.2985 51.9616C67.7519 50.6162 67.4831 49.8404 67.4226 49.5379L65.4614 49.9301ZM66.4498 52.7247C66.9684 53.9613 67.2373 54.9307 67.3065 55.6568L69.2975 55.4672C69.2013 54.4573 68.8503 53.2774 68.2942 51.9513L66.4498 52.7247ZM67.3136 55.7141C67.4011 56.2827 67.5927 57.2588 67.8818 58.6215L69.8382 58.2065C69.5486 56.8412 69.3682 55.916 69.2904 55.4099L67.3136 55.7141ZM67.8899 58.6565C68.2169 59.9648 68.4109 60.9472 68.4861 61.6244L70.4739 61.4036C70.3838 60.5928 70.1644 59.5085 69.8301 58.1715L67.8899 58.6565ZM68.4817 61.5727C68.5132 62.1076 68.3847 63.0322 68.0173 64.4201L69.9507 64.9319C70.3273 63.5091 70.5295 62.3257 70.4783 61.4553L68.4817 61.5727ZM68.0192 64.4129C67.6459 65.7817 67.426 66.8866 67.426 67.652H69.426C69.426 67.1774 69.5781 66.2983 69.9488 64.9391L68.0192 64.4129ZM67.4285 67.7232C67.4682 68.2788 67.5091 69.252 67.5504 70.6574L69.5496 70.5986C69.5082 69.1933 69.4664 68.1825 69.4235 67.5808L67.4285 67.7232ZM67.5517 70.6867C67.6344 72.0922 67.6965 73.1271 67.7379 73.7904L69.7341 73.6656C69.6928 73.0062 69.6309 71.9744 69.5483 70.5693L67.5517 70.6867ZM67.736 73.728C67.736 74.9713 67.8217 76.3524 67.9901 77.8684L69.9779 77.6476C69.8157 76.1876 69.736 74.882 69.736 73.728H67.736ZM67.9901 77.8684C68.0727 78.6119 68.1345 79.1779 68.1755 79.5677C68.196 79.7629 68.2111 79.9115 68.221 80.0151C68.2338 80.1497 68.232 80.1535 68.232 80.114H70.232C70.232 80.0332 70.2198 79.9078 70.212 79.8254C70.2012 79.712 70.1853 79.5558 70.1645 79.3583C70.1229 78.9627 70.0606 78.3921 69.9779 77.6476L67.9901 77.8684ZM69.232 80.114C69.1572 81.1112 69.1572 81.1112 69.1572 81.1112C69.1572 81.1112 69.1572 81.1112 69.1572 81.1112C69.1573 81.1112 69.1573 81.1112 69.1573 81.1112C69.1573 81.1112 69.1573 81.1112 69.1574 81.1112C69.1575 81.1112 69.1574 81.1112 69.1576 81.1112C69.1576 81.1112 69.1576 81.1112 69.1577 81.1112C69.1577 81.1112 69.1578 81.1112 69.1578 81.1112C69.1579 81.1112 69.1579 81.1113 69.158 81.1113C69.158 81.1113 69.1581 81.1113 69.1582 81.1113C69.1582 81.1113 69.1583 81.1113 69.1584 81.1113C69.1584 81.1113 69.1585 81.1113 69.1586 81.1113C69.1609 81.1115 69.1572 81.1112 69.1596 81.1114C69.1623 81.1116 69.1596 81.1114 69.1627 81.1116C69.1692 81.1121 69.158 81.1113 69.1646 81.1118C69.1684 81.112 69.1619 81.1116 69.1657 81.1118C69.1687 81.1121 69.1639 81.1117 69.1669 81.1119C69.1739 81.1124 69.1624 81.1116 69.1695 81.1121C69.1698 81.1121 69.1706 81.1122 69.1709 81.1122C69.1745 81.1125 69.1687 81.1121 69.1723 81.1123C69.1764 81.1126 69.1698 81.1121 69.1739 81.1124C69.1742 81.1125 69.1744 81.1125 69.1747 81.1125C69.175 81.1125 69.1752 81.1126 69.1755 81.1126C69.1758 81.1126 69.1761 81.1126 69.1764 81.1126C69.1767 81.1127 69.1769 81.1127 69.1772 81.1127C69.1796 81.1129 69.1767 81.1127 69.179 81.1128C69.2032 81.1147 69.1701 81.1122 69.196 81.1141C69.1997 81.1144 69.1946 81.114 69.1984 81.1143C69.2007 81.1145 69.1987 81.1143 69.201 81.1145C69.2014 81.1145 69.2018 81.1145 69.2023 81.1146C69.2027 81.1146 69.2031 81.1146 69.2036 81.1147C69.204 81.1147 69.2045 81.1147 69.2049 81.1148C69.2053 81.1148 69.2058 81.1148 69.2063 81.1149C69.2317 81.1168 69.1863 81.1134 69.2119 81.1153C69.2341 81.117 69.1954 81.1141 69.2178 81.1157C69.3039 81.1222 69.1567 81.1112 69.2444 81.1177C69.2724 81.1198 69.2777 81.1202 69.3122 81.1228C69.323 81.1236 69.3062 81.1224 69.3171 81.1232C69.3368 81.1247 69.3023 81.1221 69.3221 81.1236C69.3229 81.1236 69.3237 81.1237 69.3246 81.1237C69.3254 81.1238 69.3262 81.1239 69.3271 81.1239C69.3279 81.124 69.3288 81.1241 69.3296 81.1241C69.3305 81.1242 69.3313 81.1243 69.3322 81.1243C69.3642 81.1267 69.321 81.1235 69.3534 81.1259C69.4055 81.1298 69.3456 81.1253 69.3994 81.1294C69.4855 81.1358 69.3377 81.1247 69.4242 81.1312C69.4475 81.133 69.4266 81.1314 69.4503 81.1332C69.4514 81.1333 69.4525 81.1333 69.4536 81.1334C69.4547 81.1335 69.4558 81.1336 69.457 81.1337C69.4581 81.1338 69.4592 81.1339 69.4603 81.1339C69.4615 81.134 69.4626 81.1341 69.4637 81.1342C69.4667 81.1344 69.4744 81.135 69.4775 81.1352C69.5332 81.1394 69.4498 81.1331 69.506 81.1374C69.5324 81.1393 69.5385 81.1398 69.5665 81.1419C69.6295 81.1466 69.5352 81.1396 69.5986 81.1443C69.6318 81.1468 69.5818 81.143 69.6151 81.1455C69.6373 81.1472 69.6012 81.1445 69.6235 81.1462C69.6385 81.1473 69.6168 81.1457 69.6319 81.1468C69.6357 81.1471 69.6451 81.1478 69.649 81.1481C69.6723 81.1498 69.643 81.1476 69.6664 81.1494C69.6762 81.1501 69.6654 81.1493 69.6752 81.1501C69.6767 81.1502 69.6782 81.1503 69.6797 81.1504C69.6811 81.1505 69.6826 81.1506 69.6841 81.1507C69.7 81.1519 69.6862 81.1509 69.7021 81.1521C69.735 81.1545 69.7428 81.1551 69.7772 81.1577C69.7788 81.1578 69.7804 81.1579 69.7821 81.1581C69.7837 81.1582 69.7853 81.1583 69.7869 81.1584C69.7886 81.1586 69.7902 81.1587 69.7918 81.1588C69.7935 81.1589 69.7951 81.159 69.7967 81.1592C69.8142 81.1605 69.799 81.1593 69.8166 81.1607C69.8893 81.1661 69.784 81.1582 69.8571 81.1637C69.8892 81.1661 69.8458 81.1628 69.8779 81.1652C69.939 81.1698 69.8377 81.1622 69.8989 81.1668C69.9007 81.167 69.9024 81.1671 69.9042 81.1672C69.906 81.1674 69.9078 81.1675 69.9095 81.1676C69.9238 81.1687 69.9059 81.1674 69.9203 81.1684C69.9537 81.1709 69.9084 81.1675 69.9419 81.1701C69.9913 81.1738 69.9363 81.1696 69.9861 81.1734C70.021 81.176 69.9737 81.1724 70.0087 81.1751C70.0597 81.1789 69.9804 81.1729 70.0315 81.1768C70.0826 81.1806 70.0266 81.1764 70.0781 81.1803C70.0801 81.1804 70.0821 81.1806 70.084 81.1807C70.086 81.1809 70.088 81.181 70.09 81.1812C70.092 81.1813 70.0939 81.1815 70.0959 81.1816C70.0979 81.1818 70.0999 81.1819 70.1019 81.182C70.1039 81.1822 70.1059 81.1824 70.1079 81.1825C70.1099 81.1826 70.1119 81.1828 70.1139 81.1829C70.1159 81.1831 70.1179 81.1833 70.1199 81.1834C70.1219 81.1836 70.1239 81.1837 70.126 81.1839C70.2121 81.1903 70.0641 81.1792 70.1503 81.1857C70.2054 81.1898 70.1199 81.1834 70.175 81.1875C70.1771 81.1877 70.1791 81.1878 70.1812 81.188C70.1833 81.1882 70.1854 81.1883 70.1875 81.1885C70.1895 81.1886 70.1916 81.1888 70.1937 81.1889C70.1958 81.1891 70.1979 81.1893 70.2 81.1894C70.2335 81.1919 70.1916 81.1888 70.2253 81.1913C70.2827 81.1956 70.2189 81.1908 70.2767 81.1952C70.2789 81.1953 70.2811 81.1955 70.2832 81.1957C70.2854 81.1958 70.2876 81.196 70.2898 81.1961C70.292 81.1963 70.2941 81.1965 70.2963 81.1966C70.2985 81.1968 70.3007 81.197 70.3029 81.1971C70.3051 81.1973 70.3073 81.1975 70.3095 81.1976C70.3117 81.1978 70.3139 81.198 70.3161 81.1981C70.3183 81.1983 70.3205 81.1984 70.3227 81.1986C70.325 81.1988 70.3272 81.1989 70.3294 81.1991C70.3886 81.2036 70.3237 81.1987 70.3833 81.2032C70.3863 81.2034 70.3939 81.2039 70.3969 81.2042C70.3992 81.2043 70.4015 81.2045 70.4038 81.2047C70.4061 81.2049 70.4084 81.205 70.4107 81.2052C70.413 81.2054 70.4153 81.2056 70.4176 81.2057C70.4199 81.2059 70.4222 81.2061 70.4245 81.2062C70.4268 81.2064 70.4291 81.2066 70.4314 81.2068C70.4337 81.2069 70.4361 81.2071 70.4384 81.2073C70.4941 81.2115 70.4106 81.2052 70.4664 81.2094C70.4726 81.2099 70.4884 81.211 70.4947 81.2115C70.4971 81.2117 70.4994 81.2119 70.5018 81.212C70.5042 81.2122 70.5066 81.2124 70.509 81.2126C70.5664 81.2169 70.4658 81.2093 70.5233 81.2137C70.5808 81.218 70.4946 81.2115 70.5522 81.2158C70.5781 81.2178 70.5846 81.2183 70.6109 81.2202C70.6703 81.2247 70.5813 81.218 70.6408 81.2225C70.6474 81.223 70.6642 81.2242 70.6709 81.2247C70.7181 81.2283 70.654 81.2235 70.7013 81.227C70.7039 81.2272 70.7064 81.2274 70.709 81.2276C70.7115 81.2278 70.7141 81.228 70.7166 81.2282C70.7192 81.2283 70.7218 81.2285 70.7243 81.2287C70.7269 81.2289 70.7295 81.2291 70.732 81.2293C70.7389 81.2298 70.7406 81.23 70.7475 81.2305C70.7821 81.2331 70.7285 81.229 70.7631 81.2316C70.7908 81.2337 70.7509 81.2307 70.7787 81.2328C70.7813 81.233 70.7839 81.2332 70.7865 81.2334C70.7892 81.2336 70.7918 81.2338 70.7944 81.234C70.8574 81.2387 70.763 81.2316 70.826 81.2364C70.8331 81.2369 70.8508 81.2382 70.858 81.2388C70.8972 81.2417 70.8348 81.237 70.8741 81.24C70.9064 81.2424 70.8578 81.2387 70.8902 81.2412C70.955 81.246 70.8579 81.2388 70.9228 81.2436C70.9519 81.2458 70.9592 81.2463 70.9888 81.2486C71.0553 81.2536 70.9555 81.2461 71.0222 81.2511C71.0559 81.2536 71.0053 81.2498 71.039 81.2523C71.0419 81.2525 71.0447 81.2528 71.0475 81.253C71.0503 81.2532 71.0531 81.2534 71.056 81.2536C71.0597 81.2539 71.0692 81.2546 71.073 81.2549C71.1071 81.2574 71.0558 81.2536 71.09 81.2562C71.0929 81.2564 71.0957 81.2566 71.0986 81.2568C71.1014 81.257 71.1043 81.2572 71.1072 81.2574C71.111 81.2577 71.1205 81.2584 71.1244 81.2587C71.1552 81.2611 71.1628 81.2616 71.194 81.264C71.2096 81.2651 71.2136 81.2654 71.2293 81.2666C71.2322 81.2668 71.2352 81.267 71.2381 81.2673C71.2411 81.2675 71.2441 81.2677 71.247 81.2679C71.25 81.2682 71.253 81.2684 71.2559 81.2686C71.2589 81.2688 71.2619 81.269 71.2648 81.2693C71.2807 81.2705 71.2668 81.2694 71.2827 81.2706C71.3067 81.2724 71.2767 81.2702 71.3007 81.272C71.3408 81.275 71.2786 81.2703 71.3188 81.2733C71.3349 81.2745 71.3208 81.2735 71.3369 81.2747C71.3693 81.2771 71.3773 81.2777 71.4102 81.2802C71.4132 81.2804 71.4163 81.2806 71.4194 81.2809C71.4225 81.2811 71.4256 81.2813 71.4287 81.2816C71.4451 81.2828 71.4307 81.2817 71.4472 81.283C71.5139 81.2879 71.4179 81.2808 71.4846 81.2858C71.5013 81.287 71.4867 81.2859 71.5034 81.2872C71.5286 81.2891 71.4971 81.2867 71.5223 81.2886C71.5255 81.2888 71.5286 81.2891 71.5318 81.2893C71.535 81.2895 71.5381 81.2898 71.5413 81.29C71.5582 81.2913 71.5434 81.2902 71.5603 81.2914C71.5944 81.294 71.6027 81.2946 71.6372 81.2972L71.7868 79.3028C71.701 79.2964 71.8339 79.3063 71.7482 79.2999C71.745 79.2997 71.7418 79.2994 71.7386 79.2992C71.7354 79.2989 71.7322 79.2987 71.729 79.2985C71.7258 79.2982 71.7226 79.298 71.7194 79.2977C71.7163 79.2975 71.7131 79.2973 71.7099 79.297C71.7067 79.2968 71.7035 79.2966 71.7004 79.2963C71.6972 79.2961 71.694 79.2958 71.6909 79.2956C71.6487 79.2924 71.714 79.2973 71.6719 79.2942C71.5881 79.2879 71.7179 79.2976 71.6342 79.2914C71.6311 79.2911 71.628 79.2909 71.6248 79.2907C71.6217 79.2904 71.6186 79.2902 71.6155 79.29C71.6124 79.2897 71.6093 79.2895 71.6061 79.2893C71.603 79.289 71.5999 79.2888 71.5968 79.2886C71.5937 79.2883 71.5906 79.2881 71.5875 79.2879C71.5844 79.2876 71.5813 79.2874 71.5782 79.2872C71.5371 79.2841 71.6008 79.2889 71.5597 79.2858C71.5567 79.2855 71.5536 79.2853 71.5505 79.2851C71.5474 79.2849 71.5444 79.2846 71.5413 79.2844C71.5382 79.2842 71.5352 79.2839 71.5321 79.2837C71.5291 79.2835 71.526 79.2832 71.523 79.283C71.5067 79.2818 71.5027 79.2815 71.4865 79.2803C71.4834 79.28 71.4804 79.2798 71.4774 79.2796C71.4744 79.2794 71.4714 79.2791 71.4684 79.2789C71.4653 79.2787 71.4623 79.2785 71.4593 79.2782C71.4563 79.278 71.4533 79.2778 71.4503 79.2776C71.3705 79.2716 71.4941 79.2808 71.4144 79.2749C71.3748 79.2719 71.4362 79.2765 71.3966 79.2735C71.3808 79.2724 71.3946 79.2734 71.3789 79.2722C71.3553 79.2704 71.3847 79.2726 71.3612 79.2709C71.3221 79.2679 71.3827 79.2725 71.3436 79.2696C71.2658 79.2637 71.3863 79.2728 71.3086 79.2669C71.2931 79.2658 71.2893 79.2655 71.274 79.2643C71.2711 79.2641 71.2682 79.2639 71.2653 79.2637C71.2625 79.2635 71.2596 79.2633 71.2567 79.263C71.2186 79.2602 71.2777 79.2646 71.2396 79.2618C71.1639 79.2561 71.2812 79.2649 71.2055 79.2592C71.1905 79.2581 71.1868 79.2578 71.1718 79.2567C71.169 79.2565 71.1662 79.2563 71.1634 79.256C71.1606 79.2558 71.1578 79.2556 71.155 79.2554C71.1068 79.2518 71.1865 79.2578 71.1383 79.2542C71.1356 79.254 71.1328 79.2537 71.13 79.2535C71.1272 79.2533 71.1245 79.2531 71.1217 79.2529C71.119 79.2527 71.1162 79.2525 71.1134 79.2523C71.1107 79.2521 71.1079 79.2519 71.1052 79.2517C71.0905 79.2506 71.0869 79.2503 71.0723 79.2492C70.9867 79.2428 71.028 79.2459 70.944 79.2396C70.8743 79.2344 70.9822 79.2425 70.9126 79.2372C70.8503 79.2326 70.9438 79.2396 70.8816 79.2349C70.8139 79.2298 70.8877 79.2354 70.8205 79.2303C70.7869 79.2278 70.8389 79.2317 70.8054 79.2292C70.8029 79.229 70.8003 79.2288 70.7978 79.2286C70.7953 79.2284 70.7928 79.2283 70.7903 79.2281C70.7878 79.2279 70.7853 79.2277 70.7829 79.2275C70.7804 79.2273 70.7779 79.2271 70.7754 79.2269C70.7729 79.2268 70.7704 79.2266 70.7679 79.2264C70.7655 79.2262 70.763 79.226 70.7605 79.2258C70.6752 79.2194 70.8162 79.23 70.731 79.2236C70.6984 79.2212 70.7489 79.225 70.7164 79.2225C70.7139 79.2223 70.7115 79.2222 70.7091 79.222C70.7066 79.2218 70.7042 79.2216 70.7018 79.2214C70.5534 79.2103 70.6209 79.2154 70.479 79.2047C70.4435 79.2021 70.4879 79.2054 70.4525 79.2027C70.4292 79.201 70.4494 79.2025 70.4263 79.2008C70.4003 79.1988 70.4393 79.2017 70.4133 79.1998C70.4019 79.1989 70.4119 79.1997 70.4004 79.1988C70.3719 79.1967 70.4161 79.2 70.3876 79.1979C70.3705 79.1966 70.3919 79.1982 70.3748 79.1969C70.3636 79.1961 70.3734 79.1968 70.3622 79.196C70.3341 79.1939 70.3776 79.1971 70.3496 79.195C70.3328 79.1938 70.3538 79.1953 70.337 79.1941C70.326 79.1932 70.3356 79.194 70.3246 79.1931C70.2971 79.1911 70.3397 79.1943 70.3122 79.1922C70.2958 79.191 70.3163 79.1925 70.2999 79.1913C70.2891 79.1905 70.2985 79.1912 70.2877 79.1904C70.2857 79.1902 70.2836 79.1901 70.2816 79.1899C70.2796 79.1898 70.2776 79.1896 70.2755 79.1895C70.2218 79.1854 70.2811 79.1899 70.2277 79.1859C70.1758 79.182 70.256 79.188 70.2042 79.1841C70.1965 79.1835 70.2004 79.1838 70.1926 79.1832C70.1907 79.1831 70.1888 79.1829 70.1868 79.1828C70.1849 79.1827 70.183 79.1825 70.1811 79.1824C70.0994 79.1762 70.1716 79.1817 70.0915 79.1757C70.0915 79.1757 70.0806 79.1748 70.0806 79.1748C70.0788 79.1747 70.077 79.1746 70.0752 79.1744C70.0734 79.1743 70.0716 79.1742 70.0698 79.174C70.0556 79.173 70.0627 79.1735 70.0485 79.1724C70.0467 79.1723 70.045 79.1722 70.0432 79.172C70.0414 79.1719 70.0397 79.1718 70.0379 79.1716C70.0286 79.1709 70.0368 79.1716 70.0275 79.1708C70.0136 79.1698 70.0309 79.1711 70.017 79.1701C69.9941 79.1683 70.0297 79.171 70.0067 79.1693C69.9976 79.1686 70.0056 79.1692 69.9965 79.1685C69.9761 79.167 70.0066 79.1693 69.9863 79.1678C69.9638 79.1661 69.9986 79.1687 69.9762 79.167C69.9739 79.1668 69.9684 79.1664 69.9661 79.1663C69.9463 79.1648 69.976 79.167 69.9562 79.1655C69.9276 79.1634 69.9748 79.1669 69.9463 79.1648C69.9441 79.1646 69.9387 79.1642 69.9365 79.164C69.9171 79.1626 69.9462 79.1648 69.9268 79.1633C69.8418 79.1569 69.9732 79.1668 69.8886 79.1604C69.8871 79.1603 69.8855 79.1602 69.884 79.1601C69.8824 79.16 69.8809 79.1599 69.8793 79.1597C69.8777 79.1596 69.8762 79.1595 69.8747 79.1594C69.8731 79.1593 69.8716 79.1592 69.87 79.159C69.8685 79.1589 69.867 79.1588 69.8654 79.1587C69.8639 79.1586 69.8624 79.1585 69.8608 79.1584C69.8593 79.1582 69.8578 79.1581 69.8563 79.158C69.8547 79.1579 69.8532 79.1578 69.8517 79.1577C69.8502 79.1576 69.8487 79.1574 69.8472 79.1573C69.8457 79.1572 69.8442 79.1571 69.8427 79.157C69.8227 79.1555 69.8536 79.1578 69.8337 79.1563C69.7943 79.1534 69.8553 79.1579 69.816 79.155C69.7391 79.1492 69.858 79.1581 69.7815 79.1524C69.7664 79.1513 69.7628 79.151 69.7482 79.1499C69.7468 79.1498 69.7455 79.1497 69.7441 79.1496C69.7427 79.1495 69.7414 79.1494 69.74 79.1493C69.7387 79.1492 69.7373 79.1491 69.736 79.149C69.7347 79.1489 69.7333 79.1488 69.732 79.1487C69.6966 79.146 69.7514 79.1501 69.7161 79.1475C69.7126 79.1472 69.7039 79.1466 69.7005 79.1463C69.6937 79.1458 69.6919 79.1457 69.6852 79.1452C69.6519 79.1427 69.7035 79.1466 69.6702 79.1441C69.669 79.144 69.6678 79.1439 69.6665 79.1438C69.6653 79.1437 69.6641 79.1436 69.6628 79.1435C69.6616 79.1434 69.6604 79.1433 69.6592 79.1432C69.658 79.1431 69.6568 79.143 69.6555 79.143C69.6523 79.1427 69.6443 79.1421 69.6412 79.1419C69.6098 79.1395 69.6583 79.1432 69.6271 79.1408C69.6117 79.1397 69.6355 79.1415 69.6202 79.1403C69.614 79.1398 69.6194 79.1402 69.6133 79.1398C69.5807 79.1373 69.6324 79.1412 69.5998 79.1388C69.5987 79.1387 69.5976 79.1386 69.5965 79.1385C69.5954 79.1384 69.5943 79.1384 69.5932 79.1383C69.586 79.1377 69.5939 79.1383 69.5867 79.1378C69.5606 79.1358 69.5997 79.1388 69.5738 79.1368C69.5627 79.136 69.5723 79.1367 69.5612 79.1359C69.5585 79.1357 69.5578 79.1356 69.5551 79.1354C69.5537 79.1353 69.5503 79.1351 69.549 79.135C69.5059 79.1317 69.58 79.1373 69.537 79.1341C69.519 79.1327 69.5433 79.1345 69.5254 79.1332C69.5177 79.1326 69.5215 79.1329 69.514 79.1323C69.5065 79.1318 69.5103 79.1321 69.503 79.1315C69.5029 79.1315 69.4922 79.1307 69.4922 79.1307C69.4875 79.1304 69.4916 79.1307 69.487 79.1303C69.4861 79.1302 69.4852 79.1302 69.4844 79.1301C69.4835 79.1301 69.4826 79.13 69.4818 79.1299C69.4726 79.1292 69.4807 79.1298 69.4716 79.1292C69.4522 79.1277 69.4812 79.1299 69.4618 79.1284C69.3806 79.1223 69.5051 79.1317 69.4255 79.1257C69.4104 79.1246 69.4074 79.1243 69.394 79.1233C69.3906 79.1231 69.383 79.1225 69.3801 79.1223C69.3795 79.1223 69.3789 79.1222 69.3784 79.1222C69.3778 79.1221 69.3773 79.1221 69.3768 79.122C69.3762 79.122 69.3757 79.122 69.3751 79.1219C69.3746 79.1219 69.3741 79.1218 69.3735 79.1218C69.3721 79.1217 69.3687 79.1214 69.3673 79.1213C69.3521 79.1202 69.3592 79.1207 69.3455 79.1197C69.3068 79.1168 69.3488 79.1199 69.3165 79.1175C69.2996 79.1163 69.3245 79.1181 69.3092 79.117C69.3091 79.117 69.3088 79.1169 69.3086 79.1169C69.3074 79.1168 69.3094 79.117 69.3082 79.1169C69.3078 79.1169 69.3077 79.1169 69.3074 79.1168C69.3065 79.1168 69.3077 79.1169 69.3069 79.1168C69.3068 79.1168 69.307 79.1168 69.3068 79.1168C69.3068 79.1168 69.3068 79.1168 69.3068 79.1168C69.3068 79.1168 69.3068 79.1168 69.232 80.114ZM71.639 81.2973C73.3394 81.4218 74.7368 81.5053 75.8276 81.5473L75.9044 79.5487C74.8459 79.508 73.4739 79.4262 71.785 79.3027L71.639 81.2973ZM75.7246 81.5379C76.068 81.587 76.4531 81.5195 76.7752 81.4443C77.1332 81.3608 77.5626 81.2296 78.0545 81.0585L77.3975 79.1695C76.9387 79.3291 76.5828 79.4355 76.3208 79.4967C76.0229 79.5662 75.9533 79.5503 76.0074 79.5581L75.7246 81.5379ZM78.0422 81.0627C78.4961 80.9114 78.8388 80.8373 79.0849 80.8156C79.3416 80.793 79.411 80.8345 79.3868 80.8224L80.2812 79.0336C79.8437 78.8148 79.3551 78.784 78.9091 78.8234C78.4525 78.8637 77.9479 78.9859 77.4098 79.1653L78.0422 81.0627Z" fill="#004E44" mask="url(#path-3-outside-1_100_1782)"/>
</g>
<defs>
<filter id="filter0_dd_100_1782" x="0.5" y="0" width="136" height="136" filterUnits="userSpaceOnUse" color-interpolation-filters="sRGB">
<feFlood flood-opacity="0" result="BackgroundImageFix"/>
<feColorMatrix in="SourceAlpha" type="matrix" values="0 0 0 0 0 0 0 0 0 0 0 0 0 0 0 0 0 0 127 0" result="hardAlpha"/>
<feOffset dx="4" dy="4"/>
<feGaussianBlur stdDeviation="2"/>
<feComposite in2="hardAlpha" operator="out"/>
<feColorMatrix type="matrix" values="0 0 0 0 0.701961 0 0 0 0 0.878431 0 0 0 0 0.156863 0 0 0 1 0"/>
<feBlend mode="normal" in2="BackgroundImageFix" result="effect1_dropShadow_100_1782"/>
<feColorMatrix in="SourceAlpha" type="matrix" values="0 0 0 0 0 0 0 0 0 0 0 0 0 0 0 0 0 0 127 0" result="hardAlpha"/>
<feOffset dx="-4" dy="-4"/>
<feGaussianBlur stdDeviation="2"/>
<feComposite in2="hardAlpha" operator="out"/>
<feColorMatrix type="matrix" values="0 0 0 0 0.701961 0 0 0 0 0.878431 0 0 0 0 0.156863 0 0 0 1 0"/>
<feBlend mode="normal" in2="effect1_dropShadow_100_1782" result="effect2_dropShadow_100_1782"/>
<feBlend mode="normal" in="SourceGraphic" in2="effect2_dropShadow_100_1782" result="shape"/>
</filter>
</defs>
</svg>
