<svg width="137" height="136" viewBox="0 0 137 136" fill="none" xmlns="http://www.w3.org/2000/svg">
<g filter="url(#filter0_dd_105_1836)">
<rect x="8.5" y="8" width="120" height="120" rx="60" fill="#03AEC6" shape-rendering="crispEdges"/>
<rect x="10" y="9.5" width="117" height="117" rx="58.5" stroke="#004E44" stroke-width="3" shape-rendering="crispEdges"/>
<mask id="path-3-outside-1_105_1836" maskUnits="userSpaceOnUse" x="53.5" y="41.5" width="30" height="46" fill="black">
<rect fill="white" x="53.5" y="41.5" width="30" height="46"/>
<path d="M70.968 71.186C70.4307 71.7233 69.2527 72.116 67.434 72.364C65.6567 72.612 64.582 72.9633 64.21 73.418C64.086 73.5007 63.7967 73.79 63.342 74.286C62.8873 74.7407 62.5153 75.1333 62.226 75.464C61.9367 75.7947 61.6887 76.1253 61.482 76.456C61.1513 76.952 61.0687 77.5927 61.234 78.378C61.3993 79.122 61.4407 79.556 61.358 79.68C61.5647 79.6387 62.04 79.8247 62.784 80.238C63.5693 80.6513 64.2927 80.7753 64.954 80.61C65.3673 80.5273 66.008 80.052 66.876 79.184C67.744 78.2747 68.4053 77.82 68.86 77.82C69.3147 77.82 69.9347 78.1507 70.72 78.812C71.5053 79.432 72.0633 79.804 72.394 79.928C72.7247 80.0933 73.3447 80.114 74.254 79.99C75.1633 79.8247 75.7833 79.7627 76.114 79.804C77.9327 80.0933 79.1933 80.424 79.896 80.796C80.64 81.168 81.012 81.788 81.012 82.656C80.764 82.7387 80.4333 83.1107 80.02 83.772C79.648 84.392 79.214 84.7847 78.718 84.95C78.346 85.074 77.6847 85.012 76.734 84.764C75.8247 84.516 75.1427 84.454 74.688 84.578C72.6627 85.074 71.5053 85.3427 71.216 85.384C70.7613 85.4253 70.1207 85.384 69.294 85.26C68.4673 85.0947 67.8473 85.0327 67.434 85.074C66.8967 85.074 66.2147 85.136 65.388 85.26C64.6027 85.384 63.962 85.508 63.466 85.632C62.97 85.7147 62.4327 85.7353 61.854 85.694C61.2753 85.6113 60.8 85.4253 60.428 85.136C57.7413 83.3587 56.1913 81.7673 55.778 80.362C55.7367 80.1553 55.592 79.7627 55.344 79.184C55.096 78.6053 54.9513 78.192 54.91 77.944C54.8687 77.696 54.8893 77.2827 54.972 76.704C55.1373 76.332 55.6953 75.96 56.646 75.588C57.5967 75.1747 58.1753 74.8027 58.382 74.472C58.63 74.1 59.064 73.17 59.684 71.682C60.3453 70.1527 61.0067 69.0573 61.668 68.396C62.2053 67.9 63.218 67.3833 64.706 66.846C66.2353 66.2673 67.2893 65.73 67.868 65.234C68.4053 64.7793 69.356 64.1593 70.72 63.374C72.1253 62.5887 73.0967 61.948 73.634 61.452C74.3367 60.7907 75.06 59.6333 75.804 57.98C76.548 56.2853 77.0027 55.314 77.168 55.066C77.0853 53.5367 76.7133 52.152 76.052 50.912C75.3907 49.6307 74.5433 48.804 73.51 48.432C72.766 48.1427 71.4227 47.9153 69.48 47.75C68.0333 47.6673 66.7107 48.0187 65.512 48.804C65.264 48.804 64.9127 49.0107 64.458 49.424C64.0033 49.796 63.342 50.3333 62.474 51.036C61.6473 51.7387 60.7587 52.3587 59.808 52.896C58.1133 52.896 57.266 52.8547 57.266 52.772C57.2247 52.7307 57.4727 52.5447 58.01 52.214C58.878 51.718 59.6013 51.2427 60.18 50.788C60.4693 50.5813 60.676 49.92 60.8 48.804C60.9653 47.688 61.2133 46.9853 61.544 46.696C62.04 46.2 63.1973 45.518 65.016 44.65C65.4707 44.4433 66.1527 44.588 67.062 45.084C67.9713 45.58 68.55 45.8487 68.798 45.89C69.2527 45.9313 69.8727 46.0553 70.658 46.262C71.4847 46.4273 72.0633 46.51 72.394 46.51C72.7247 46.51 73.0967 46.386 73.51 46.138C73.9647 45.89 74.44 45.5593 74.936 45.146C75.432 44.7327 75.804 44.464 76.052 44.34C77.664 43.472 78.7387 43.162 79.276 43.41C79.5653 43.534 79.772 43.6993 79.896 43.906C80.0613 44.1127 80.144 44.2987 80.144 44.464C80.1853 44.6293 80.206 44.898 80.206 45.27C80.2473 45.6007 80.268 45.8693 80.268 46.076C80.3507 46.572 80.5367 47.2333 80.826 48.06C81.1153 48.8453 81.2807 49.362 81.322 49.61C81.3633 49.6513 81.4047 49.8373 81.446 50.168C81.5287 50.4987 81.57 50.7053 81.57 50.788C81.57 50.8707 81.5907 51.0567 81.632 51.346C81.6733 51.6353 81.694 51.842 81.694 51.966C81.694 52.09 81.694 52.2967 81.694 52.586C81.694 52.834 81.6733 53.0407 81.632 53.206C81.632 53.3713 81.5907 53.578 81.508 53.826C81.4667 54.0327 81.4047 54.26 81.322 54.508C81.2393 54.7147 81.136 54.942 81.012 55.19C80.7227 55.81 80.0407 56.616 78.966 57.608C77.9327 58.5587 77.23 59.282 76.858 59.778C75.494 61.5553 74.2127 63.1467 73.014 64.552C72.518 65.048 72.1667 66.164 71.96 67.9C71.7533 69.5947 71.4227 70.69 70.968 71.186Z"/>
</mask>
<path d="M70.968 71.186C70.4307 71.7233 69.2527 72.116 67.434 72.364C65.6567 72.612 64.582 72.9633 64.21 73.418C64.086 73.5007 63.7967 73.79 63.342 74.286C62.8873 74.7407 62.5153 75.1333 62.226 75.464C61.9367 75.7947 61.6887 76.1253 61.482 76.456C61.1513 76.952 61.0687 77.5927 61.234 78.378C61.3993 79.122 61.4407 79.556 61.358 79.68C61.5647 79.6387 62.04 79.8247 62.784 80.238C63.5693 80.6513 64.2927 80.7753 64.954 80.61C65.3673 80.5273 66.008 80.052 66.876 79.184C67.744 78.2747 68.4053 77.82 68.86 77.82C69.3147 77.82 69.9347 78.1507 70.72 78.812C71.5053 79.432 72.0633 79.804 72.394 79.928C72.7247 80.0933 73.3447 80.114 74.254 79.99C75.1633 79.8247 75.7833 79.7627 76.114 79.804C77.9327 80.0933 79.1933 80.424 79.896 80.796C80.64 81.168 81.012 81.788 81.012 82.656C80.764 82.7387 80.4333 83.1107 80.02 83.772C79.648 84.392 79.214 84.7847 78.718 84.95C78.346 85.074 77.6847 85.012 76.734 84.764C75.8247 84.516 75.1427 84.454 74.688 84.578C72.6627 85.074 71.5053 85.3427 71.216 85.384C70.7613 85.4253 70.1207 85.384 69.294 85.26C68.4673 85.0947 67.8473 85.0327 67.434 85.074C66.8967 85.074 66.2147 85.136 65.388 85.26C64.6027 85.384 63.962 85.508 63.466 85.632C62.97 85.7147 62.4327 85.7353 61.854 85.694C61.2753 85.6113 60.8 85.4253 60.428 85.136C57.7413 83.3587 56.1913 81.7673 55.778 80.362C55.7367 80.1553 55.592 79.7627 55.344 79.184C55.096 78.6053 54.9513 78.192 54.91 77.944C54.8687 77.696 54.8893 77.2827 54.972 76.704C55.1373 76.332 55.6953 75.96 56.646 75.588C57.5967 75.1747 58.1753 74.8027 58.382 74.472C58.63 74.1 59.064 73.17 59.684 71.682C60.3453 70.1527 61.0067 69.0573 61.668 68.396C62.2053 67.9 63.218 67.3833 64.706 66.846C66.2353 66.2673 67.2893 65.73 67.868 65.234C68.4053 64.7793 69.356 64.1593 70.72 63.374C72.1253 62.5887 73.0967 61.948 73.634 61.452C74.3367 60.7907 75.06 59.6333 75.804 57.98C76.548 56.2853 77.0027 55.314 77.168 55.066C77.0853 53.5367 76.7133 52.152 76.052 50.912C75.3907 49.6307 74.5433 48.804 73.51 48.432C72.766 48.1427 71.4227 47.9153 69.48 47.75C68.0333 47.6673 66.7107 48.0187 65.512 48.804C65.264 48.804 64.9127 49.0107 64.458 49.424C64.0033 49.796 63.342 50.3333 62.474 51.036C61.6473 51.7387 60.7587 52.3587 59.808 52.896C58.1133 52.896 57.266 52.8547 57.266 52.772C57.2247 52.7307 57.4727 52.5447 58.01 52.214C58.878 51.718 59.6013 51.2427 60.18 50.788C60.4693 50.5813 60.676 49.92 60.8 48.804C60.9653 47.688 61.2133 46.9853 61.544 46.696C62.04 46.2 63.1973 45.518 65.016 44.65C65.4707 44.4433 66.1527 44.588 67.062 45.084C67.9713 45.58 68.55 45.8487 68.798 45.89C69.2527 45.9313 69.8727 46.0553 70.658 46.262C71.4847 46.4273 72.0633 46.51 72.394 46.51C72.7247 46.51 73.0967 46.386 73.51 46.138C73.9647 45.89 74.44 45.5593 74.936 45.146C75.432 44.7327 75.804 44.464 76.052 44.34C77.664 43.472 78.7387 43.162 79.276 43.41C79.5653 43.534 79.772 43.6993 79.896 43.906C80.0613 44.1127 80.144 44.2987 80.144 44.464C80.1853 44.6293 80.206 44.898 80.206 45.27C80.2473 45.6007 80.268 45.8693 80.268 46.076C80.3507 46.572 80.5367 47.2333 80.826 48.06C81.1153 48.8453 81.2807 49.362 81.322 49.61C81.3633 49.6513 81.4047 49.8373 81.446 50.168C81.5287 50.4987 81.57 50.7053 81.57 50.788C81.57 50.8707 81.5907 51.0567 81.632 51.346C81.6733 51.6353 81.694 51.842 81.694 51.966C81.694 52.09 81.694 52.2967 81.694 52.586C81.694 52.834 81.6733 53.0407 81.632 53.206C81.632 53.3713 81.5907 53.578 81.508 53.826C81.4667 54.0327 81.4047 54.26 81.322 54.508C81.2393 54.7147 81.136 54.942 81.012 55.19C80.7227 55.81 80.0407 56.616 78.966 57.608C77.9327 58.5587 77.23 59.282 76.858 59.778C75.494 61.5553 74.2127 63.1467 73.014 64.552C72.518 65.048 72.1667 66.164 71.96 67.9C71.7533 69.5947 71.4227 70.69 70.968 71.186Z" fill="#B3E028"/>
<path d="M70.968 71.186L71.6751 71.8931L71.6905 71.8777L71.7052 71.8617L70.968 71.186ZM67.434 72.364L67.2989 71.3732L67.2958 71.3736L67.434 72.364ZM64.21 73.418L64.7647 74.25L64.8892 74.167L64.984 74.0512L64.21 73.418ZM63.342 74.286L64.0491 74.9931L64.0645 74.9777L64.0792 74.9617L63.342 74.286ZM61.482 76.456L62.3141 77.0107L62.3222 76.9985L62.33 76.986L61.482 76.456ZM61.234 78.378L60.2554 78.584L60.2578 78.5949L61.234 78.378ZM61.358 79.68L60.526 79.1253L59.1868 81.134L61.5541 80.6606L61.358 79.68ZM62.784 80.238L62.2984 81.1122L62.3082 81.1176L62.3183 81.1229L62.784 80.238ZM64.954 80.61L64.7579 79.6294L64.7346 79.6341L64.7115 79.6399L64.954 80.61ZM66.876 79.184L67.5831 79.8911L67.5913 79.8829L67.5994 79.8745L66.876 79.184ZM70.72 78.812L70.0759 79.5769L70.088 79.5871L70.1004 79.5969L70.72 78.812ZM72.394 79.928L72.8412 79.0336L72.7943 79.0101L72.7451 78.9917L72.394 79.928ZM74.254 79.99L74.3891 80.9808L74.4111 80.9778L74.4329 80.9739L74.254 79.99ZM76.114 79.804L76.2711 78.8164L76.2546 78.8138L76.238 78.8117L76.114 79.804ZM79.896 80.796L79.4281 81.6798L79.4384 81.6852L79.4488 81.6904L79.896 80.796ZM81.012 82.656L81.3282 83.6047L82.012 83.3768V82.656H81.012ZM80.02 83.772L79.172 83.242L79.1672 83.2497L79.1625 83.2575L80.02 83.772ZM78.718 84.95L78.4018 84.0013L78.718 84.95ZM76.734 84.764L76.4709 85.7288L76.4816 85.7316L76.734 84.764ZM74.688 84.578L74.9259 85.5493L74.9385 85.5462L74.9511 85.5428L74.688 84.578ZM71.216 85.384L71.3065 86.3799L71.3321 86.3776L71.3574 86.374L71.216 85.384ZM69.294 85.26L69.0979 86.2406L69.1217 86.2453L69.1457 86.2489L69.294 85.26ZM67.434 85.074V86.074H67.4839L67.5335 86.069L67.434 85.074ZM65.388 85.26L65.2397 84.271L65.232 84.2722L65.388 85.26ZM63.466 85.632L63.6304 86.6184L63.6698 86.6118L63.7085 86.6021L63.466 85.632ZM61.854 85.694L61.7126 86.6839L61.7475 86.6889L61.7828 86.6915L61.854 85.694ZM60.428 85.136L61.0419 84.3466L61.0117 84.3231L60.9797 84.302L60.428 85.136ZM55.778 80.362L54.7974 80.5581L54.8061 80.6016L54.8186 80.6442L55.778 80.362ZM55.344 79.184L56.2631 78.7901H56.2631L55.344 79.184ZM54.91 77.944L55.8964 77.7796V77.7796L54.91 77.944ZM54.972 76.704L54.0582 76.2979L54.0017 76.4249L53.9821 76.5626L54.972 76.704ZM56.646 75.588L57.0104 76.5192L57.0277 76.5125L57.0447 76.5051L56.646 75.588ZM58.382 74.472L57.55 73.9173L57.5418 73.9295L57.534 73.942L58.382 74.472ZM59.684 71.682L58.7661 71.2851L58.7609 71.2974L59.684 71.682ZM61.668 68.396L60.9897 67.6612L60.975 67.6748L60.9609 67.6889L61.668 68.396ZM64.706 66.846L65.0456 67.7866L65.0528 67.784L65.0599 67.7813L64.706 66.846ZM67.868 65.234L67.222 64.4706L67.2172 64.4747L67.868 65.234ZM70.72 63.374L70.2321 62.501L70.221 62.5074L70.72 63.374ZM73.634 61.452L74.3123 62.1868L74.3194 62.1802L73.634 61.452ZM75.804 57.98L76.716 58.3904L76.7196 58.382L75.804 57.98ZM77.168 55.066L78.0001 55.6207L78.1845 55.344L78.1665 55.012L77.168 55.066ZM76.052 50.912L75.1633 51.3707L75.1696 51.3826L76.052 50.912ZM73.51 48.432L73.1476 49.364L73.1594 49.3686L73.1713 49.3729L73.51 48.432ZM69.48 47.75L69.5648 46.7536L69.5509 46.7524L69.5371 46.7516L69.48 47.75ZM65.512 48.804V49.804H65.8104L66.06 49.6405L65.512 48.804ZM64.458 49.424L65.0912 50.198L65.1114 50.1815L65.1307 50.1639L64.458 49.424ZM62.474 51.036L61.8448 50.2588L61.8355 50.2663L61.8264 50.2741L62.474 51.036ZM59.808 52.896V53.896H60.0711L60.3001 53.7666L59.808 52.896ZM57.266 52.772H58.266V52.3578L57.9731 52.0649L57.266 52.772ZM58.01 52.214L57.5139 51.3458L57.4997 51.3538L57.4859 51.3623L58.01 52.214ZM60.18 50.788L59.5988 49.9743L59.5802 49.9876L59.5622 50.0017L60.18 50.788ZM60.8 48.804L59.8108 48.6574L59.8081 48.6755L59.8061 48.6936L60.8 48.804ZM61.544 46.696L62.2025 47.4486L62.2276 47.4267L62.2511 47.4031L61.544 46.696ZM65.016 44.65L64.6022 43.7396L64.5937 43.7435L64.5853 43.7475L65.016 44.65ZM67.062 45.084L67.5409 44.2061L67.5409 44.2061L67.062 45.084ZM68.798 45.89L68.6336 46.8764L68.6704 46.8825L68.7075 46.8859L68.798 45.89ZM70.658 46.262L70.4035 47.2291L70.4325 47.2367L70.4619 47.2426L70.658 46.262ZM73.51 46.138L73.0312 45.2601L73.0131 45.2699L72.9955 45.2805L73.51 46.138ZM74.936 45.146L74.2958 44.3778L74.2958 44.3778L74.936 45.146ZM76.052 44.34L76.4992 45.2344L76.5128 45.2277L76.5261 45.2205L76.052 44.34ZM79.276 43.41L78.8569 44.318L78.8694 44.3237L78.8821 44.3291L79.276 43.41ZM79.896 43.906L79.0385 44.4205L79.0731 44.4782L79.1151 44.5307L79.896 43.906ZM80.144 44.464H79.144V44.5871L79.1739 44.7065L80.144 44.464ZM80.206 45.27H79.206V45.3323L79.2137 45.394L80.206 45.27ZM80.268 46.076H79.268V46.1588L79.2816 46.2404L80.268 46.076ZM80.826 48.06L79.8821 48.3903L79.8848 48.398L79.8877 48.4057L80.826 48.06ZM81.322 49.61L80.3356 49.7744L80.3883 50.0905L80.6149 50.3171L81.322 49.61ZM81.446 50.168L80.4537 50.292L80.4612 50.352L80.4759 50.4105L81.446 50.168ZM81.632 51.346L82.622 51.2046L82.622 51.2046L81.632 51.346ZM81.632 53.206L80.6619 52.9635L80.632 53.0829V53.206H81.632ZM81.508 53.826L80.5593 53.5098L80.5396 53.5688L80.5274 53.6299L81.508 53.826ZM81.322 54.508L82.2505 54.8794L82.2614 54.8521L82.2707 54.8242L81.322 54.508ZM81.012 55.19L80.1176 54.7428L80.1115 54.7549L80.1058 54.7671L81.012 55.19ZM78.966 57.608L79.6431 58.3439L79.6443 58.3428L78.966 57.608ZM76.858 59.778L77.6514 60.3869L77.658 60.378L76.858 59.778ZM73.014 64.552L73.7211 65.2591L73.7491 65.2311L73.7748 65.2009L73.014 64.552ZM71.96 67.9L72.9527 68.0211L72.953 68.0182L71.96 67.9ZM70.2609 70.4789C70.1504 70.5894 69.8896 70.76 69.3653 70.9348C68.8559 71.1046 68.1729 71.254 67.2989 71.3732L67.5691 73.3548C68.5138 73.226 69.3291 73.0551 69.9977 72.8322C70.6514 72.6143 71.2483 72.3199 71.6751 71.8931L70.2609 70.4789ZM67.2958 71.3736C66.3783 71.5016 65.6006 71.6615 64.9843 71.863C64.4062 72.052 63.8112 72.3262 63.436 72.7848L64.984 74.0512C64.9808 74.0551 65.1092 73.9263 65.6057 73.764C66.0641 73.6141 66.7123 73.4744 67.5722 73.3544L67.2958 71.3736ZM63.6553 72.5859C63.4991 72.6901 63.3303 72.8525 63.1929 72.9899C63.0336 73.1492 62.8366 73.3574 62.6048 73.6103L64.0792 74.9617C64.3021 74.7186 64.4771 74.5341 64.6071 74.4041C64.6722 74.339 64.7208 74.2928 64.755 74.262C64.7958 74.2253 64.7946 74.2301 64.7647 74.25L63.6553 72.5859ZM62.6349 73.5789C62.171 74.0428 61.7824 74.4524 61.4734 74.8055L62.9786 76.1225C63.2483 75.8142 63.6037 75.4385 64.0491 74.9931L62.6349 73.5789ZM61.4734 74.8055C61.1532 75.1714 60.8723 75.5448 60.634 75.926L62.33 76.986C62.5051 76.7059 62.7201 76.4179 62.9786 76.1225L61.4734 74.8055ZM60.65 75.9013C60.1242 76.6899 60.0546 77.6298 60.2555 78.584L62.2126 78.172C62.0828 77.5556 62.1784 77.2141 62.3141 77.0107L60.65 75.9013ZM60.2578 78.5949C60.3371 78.9516 60.3786 79.1997 60.3935 79.3563C60.4011 79.436 60.3989 79.4634 60.3995 79.455C60.3999 79.4497 60.4023 79.4183 60.4145 79.3706C60.4258 79.3266 60.4545 79.2325 60.526 79.1253L62.1901 80.2347C62.3581 79.9827 62.3855 79.7178 62.394 79.6027C62.405 79.4549 62.3976 79.304 62.3845 79.1667C62.3581 78.8893 62.2963 78.5484 62.2102 78.1611L60.2578 78.5949ZM61.5541 80.6606C61.4131 80.6888 61.3278 80.6639 61.3559 80.6699C61.3693 80.6727 61.4161 80.6849 61.5051 80.7197C61.6828 80.7893 61.9434 80.9149 62.2984 81.1122L63.2696 79.3638C62.8806 79.1477 62.5315 78.9737 62.2339 78.8573C62.0852 78.7991 61.928 78.7467 61.7709 78.7134C61.6285 78.6832 61.4062 78.6506 61.1619 78.6994L61.5541 80.6606ZM62.3183 81.1229C63.2539 81.6154 64.232 81.8213 65.1965 81.5801L64.7115 79.6399C64.3534 79.7294 63.8848 79.6873 63.2497 79.3531L62.3183 81.1229ZM65.1501 81.5906C65.5797 81.5047 65.9889 81.2554 66.3403 80.9946C66.7151 80.7166 67.1308 80.3434 67.5831 79.8911L66.1689 78.4769C65.7532 78.8926 65.4146 79.1911 65.1487 79.3884C64.8595 79.603 64.7417 79.6327 64.7579 79.6294L65.1501 81.5906ZM67.5994 79.8745C68.0093 79.445 68.338 79.1579 68.5895 78.985C68.8656 78.7952 68.938 78.82 68.86 78.82V76.82C68.3273 76.82 67.8417 77.0721 67.4565 77.337C67.0466 77.6187 66.6107 78.0137 66.1526 78.4935L67.5994 79.8745ZM68.86 78.82C68.8575 78.82 68.9584 78.824 69.1954 78.9504C69.4224 79.0714 69.7146 79.2727 70.0759 79.5769L71.3641 78.0471C70.94 77.6899 70.5296 77.3952 70.1366 77.1856C69.7536 76.9814 69.3171 76.82 68.86 76.82V78.82ZM70.1004 79.5969C70.8692 80.2039 71.5439 80.6772 72.0429 80.8643L72.7451 78.9917C72.5828 78.9308 72.1415 78.6601 71.3396 78.0271L70.1004 79.5969ZM71.9468 80.8224C72.2998 80.9989 72.7047 81.0546 73.0737 81.0669C73.4597 81.0798 73.9024 81.0472 74.3891 80.9808L74.1189 78.9992C73.6962 79.0568 73.3743 79.0759 73.1403 79.0681C72.8893 79.0597 72.8188 79.0224 72.8412 79.0336L71.9468 80.8224ZM74.4329 80.9739C75.36 80.8053 75.8337 80.7767 75.99 80.7963L76.238 78.8117C75.7329 78.7486 74.9667 78.844 74.0751 79.0061L74.4329 80.9739ZM75.9569 80.7916C77.7722 81.0804 78.8856 81.3926 79.4281 81.6798L80.3639 79.9122C79.5011 79.4554 78.0932 79.1063 76.2711 78.8164L75.9569 80.7916ZM79.4488 81.6904C79.6769 81.8045 79.8014 81.931 79.8755 82.0545C79.9511 82.1805 80.012 82.3667 80.012 82.656H82.012C82.012 82.0773 81.8869 81.5195 81.5905 81.0255C81.2926 80.529 80.8591 80.1595 80.3432 79.9016L79.4488 81.6904ZM80.6958 81.7073C80.3139 81.8346 80.0244 82.1146 79.8306 82.3326C79.6133 82.5771 79.3937 82.8872 79.172 83.242L80.868 84.302C81.0596 83.9954 81.212 83.7889 81.3254 83.6614C81.3814 83.5984 81.4158 83.5684 81.4283 83.5586C81.4442 83.5461 81.4099 83.5775 81.3282 83.6047L80.6958 81.7073ZM79.1625 83.2575C78.8664 83.751 78.5977 83.936 78.4018 84.0013L79.0342 85.8987C79.8303 85.6333 80.4296 85.033 80.8775 84.2865L79.1625 83.2575ZM78.4018 84.0013C78.4086 83.999 78.3117 84.0267 78.0363 84.0009C77.7782 83.9767 77.4318 83.9126 76.9864 83.7964L76.4816 85.7316C76.9869 85.8634 77.4465 85.9543 77.8497 85.9921C78.2357 86.0283 78.6554 86.025 79.0342 85.8987L78.4018 84.0013ZM76.9971 83.7992C76.0563 83.5427 75.1525 83.4148 74.4249 83.6132L74.9511 85.5428C75.1329 85.4932 75.593 85.4893 76.4709 85.7288L76.9971 83.7992ZM74.4501 83.6067C72.3905 84.1111 71.301 84.3617 71.0746 84.3941L71.3574 86.374C71.7097 86.3236 72.9349 86.0369 74.9259 85.5493L74.4501 83.6067ZM71.1255 84.3881C70.7907 84.4185 70.2437 84.3913 69.4423 84.2711L69.1457 86.2489C69.9976 86.3767 70.732 86.4321 71.3065 86.3799L71.1255 84.3881ZM69.4901 84.2794C68.6447 84.1103 67.9031 84.0221 67.3345 84.079L67.5335 86.069C67.7916 86.0432 68.29 86.079 69.0979 86.2406L69.4901 84.2794ZM67.434 84.074C66.8277 84.074 66.0917 84.1433 65.2397 84.2711L65.5363 86.2489C66.3377 86.1287 66.9656 86.074 67.434 86.074V84.074ZM65.232 84.2722C64.4316 84.3986 63.7591 84.5279 63.2235 84.6619L63.7085 86.6021C64.1649 86.4881 64.7737 86.3694 65.544 86.2478L65.232 84.2722ZM63.3016 84.6456C62.8943 84.7135 62.437 84.7331 61.9252 84.6965L61.7828 86.6915C62.4284 86.7376 63.0457 86.7158 63.6304 86.6184L63.3016 84.6456ZM61.9954 84.7041C61.5481 84.6401 61.2472 84.5063 61.0419 84.3466L59.8141 85.9254C60.3528 86.3444 61.0026 86.5825 61.7126 86.6839L61.9954 84.7041ZM60.9797 84.302C59.6719 83.4368 58.6752 82.639 57.9668 81.9118C57.2518 81.1776 56.8804 80.5661 56.7374 80.0798L54.8186 80.6442C55.0889 81.5632 55.6992 82.4501 56.5342 83.3072C57.3758 84.1713 58.4975 85.0579 59.8763 85.97L60.9797 84.302ZM56.7586 80.1659C56.6934 79.8402 56.5042 79.3526 56.2631 78.7901L54.4249 79.5779C54.6798 80.1727 54.7799 80.4705 54.7974 80.5581L56.7586 80.1659ZM56.2631 78.7901C56.0135 78.2076 55.9156 77.895 55.8964 77.7796L53.9236 78.1084C53.987 78.489 54.1785 79.0031 54.4249 79.5779L56.2631 78.7901ZM55.8964 77.7796C55.8829 77.6984 55.8797 77.4211 55.9619 76.8454L53.9821 76.5626C53.899 77.1442 53.8545 77.6936 53.9236 78.1084L55.8964 77.7796ZM55.8858 77.1101C55.8565 77.176 55.8561 77.1201 56.0692 76.9781C56.2662 76.8467 56.5711 76.6911 57.0104 76.5192L56.2816 74.6568C55.7702 74.8568 55.3208 75.0733 54.9598 75.3139C54.6149 75.5439 54.2528 75.86 54.0582 76.2979L55.8858 77.1101ZM57.0447 76.5051C57.5473 76.2866 57.9827 76.0659 58.3338 75.8402C58.6663 75.6264 59.0099 75.3542 59.23 75.002L57.534 73.942C57.5475 73.9205 57.4983 73.9996 57.2522 74.1578C57.0247 74.3041 56.6954 74.4761 56.2473 74.6709L57.0447 76.5051ZM59.2141 75.0267C59.527 74.5573 59.9985 73.5273 60.6071 72.0666L58.7609 71.2974C58.1295 72.8127 57.733 73.6427 57.55 73.9173L59.2141 75.0267ZM60.6019 72.0789C61.246 70.5892 61.8471 69.6311 62.3751 69.1031L60.9609 67.6889C60.1662 68.4836 59.4446 69.7161 58.7661 71.2851L60.6019 72.0789ZM62.3463 69.1308C62.7251 68.7811 63.5709 68.3191 65.0456 67.7866L64.3664 65.9054C62.8652 66.4475 61.6856 67.0189 60.9897 67.6612L62.3463 69.1308ZM65.0599 67.7813C66.6024 67.1976 67.7986 66.6106 68.5188 65.9933L67.2172 64.4747C66.7801 64.8494 65.8683 65.337 64.3521 65.9107L65.0599 67.7813ZM68.5139 65.9974C68.977 65.6056 69.8594 65.0234 71.219 64.2406L70.221 62.5074C68.8526 63.2953 67.8337 63.9531 67.2221 64.4706L68.5139 65.9974ZM71.2078 64.2469C72.62 63.4578 73.6815 62.769 74.3123 62.1868L72.9557 60.7172C72.5118 61.127 71.6306 61.7196 70.2322 62.5011L71.2078 64.2469ZM74.3194 62.1802C75.1686 61.3809 75.957 60.0769 76.7159 58.3904L74.8921 57.5696C74.163 59.1898 73.5048 60.2004 72.9486 60.7238L74.3194 62.1802ZM76.7196 58.382C77.0904 57.5376 77.3863 56.8795 77.6087 56.4044C77.72 56.1666 77.8105 55.9798 77.8811 55.8409C77.9164 55.7715 77.9449 55.7177 77.9671 55.6777C77.9908 55.6349 78.001 55.6192 78.0001 55.6207L76.336 54.5113C76.2029 54.7109 76.015 55.0915 75.7973 55.5566C75.565 56.0529 75.2616 56.7278 74.8884 57.578L76.7196 58.382ZM78.1665 55.012C78.0767 53.3503 77.6703 51.8214 76.9344 50.4414L75.1696 51.3826C75.7563 52.4826 76.094 53.7231 76.1695 55.12L78.1665 55.012ZM76.9406 50.4534C76.2007 49.0198 75.1864 47.9727 73.8487 47.4911L73.1713 49.3729C73.9003 49.6353 74.5806 50.2416 75.1634 51.3706L76.9406 50.4534ZM73.8724 47.5C72.9797 47.1528 71.5049 46.9187 69.5648 46.7536L69.3952 48.7464C71.3405 48.912 72.5523 49.1325 73.1476 49.364L73.8724 47.5ZM69.5371 46.7516C67.8791 46.6569 66.3439 47.0634 64.964 47.9675L66.06 49.6405C67.0774 48.9739 68.1875 48.6778 69.423 48.7484L69.5371 46.7516ZM65.512 47.804C65.1294 47.804 64.7965 47.9553 64.5555 48.0971C64.2988 48.248 64.0407 48.4519 63.7853 48.6841L65.1307 50.1639C65.33 49.9827 65.4748 49.8766 65.5695 49.8209C65.6153 49.794 65.6355 49.7871 65.6326 49.7881C65.6304 49.7889 65.5869 49.804 65.512 49.804V47.804ZM63.8248 48.65C63.3721 49.0204 62.7124 49.5564 61.8448 50.2588L63.1032 51.8132C63.9716 51.1103 64.6345 50.5716 65.0912 50.198L63.8248 48.65ZM61.8264 50.2741C61.0483 50.9354 60.2118 51.5191 59.3159 52.0254L60.3001 53.7666C61.3056 53.1982 62.2464 52.5419 63.1216 51.7979L61.8264 50.2741ZM59.808 51.896C58.9643 51.896 58.3487 51.8856 57.9502 51.8662C57.7459 51.8562 57.6262 51.8451 57.5697 51.8368C57.5331 51.8314 57.5665 51.8334 57.6289 51.8547C57.6539 51.8633 57.7539 51.8976 57.8664 51.98C57.9634 52.051 58.266 52.3065 58.266 52.772H56.266C56.266 53.2479 56.5752 53.5134 56.6854 53.594C56.8112 53.6861 56.931 53.7298 56.9826 53.7474C57.0979 53.7868 57.2107 53.8056 57.2801 53.8157C57.4354 53.8384 57.6335 53.8531 57.8528 53.8638C58.3017 53.8857 58.957 53.896 59.808 53.896V51.896ZM57.9731 52.0649C58.1405 52.2323 58.2383 52.4504 58.2579 52.6759C58.2754 52.8776 58.2269 53.0353 58.1925 53.1211C58.1292 53.2795 58.0408 53.3738 58.0292 53.3865C57.9885 53.4313 57.9695 53.4402 58.021 53.4015C58.1066 53.3373 58.2707 53.2278 58.5341 53.0657L57.4859 51.3623C57.212 51.5309 56.9834 51.6797 56.821 51.8015C56.7485 51.8558 56.6417 51.9396 56.5493 52.0412C56.5119 52.0824 56.4067 52.2006 56.3356 52.3783C56.2576 52.5732 56.1519 53.0721 56.5589 53.4791L57.9731 52.0649ZM58.5061 53.0822C59.4027 52.5699 60.1698 52.0678 60.7978 51.5743L59.5622 50.0017C59.0329 50.4176 58.3533 50.8661 57.5139 51.3458L58.5061 53.0822ZM60.7612 51.6017C61.1863 51.2981 61.3904 50.8066 61.5065 50.4353C61.637 50.0177 61.7286 49.5022 61.7939 48.9144L59.8061 48.6936C59.7474 49.2218 59.6737 49.595 59.5975 49.8387C59.5598 49.9595 59.5287 50.0246 59.5133 50.0516C59.4958 50.0822 59.5161 50.0333 59.5988 49.9743L60.7612 51.6017ZM61.7892 48.9505C61.8667 48.4272 61.9582 48.0413 62.053 47.7728C62.1548 47.4845 62.2275 47.4267 62.2025 47.4486L60.8855 45.9434C60.5298 46.2546 60.3132 46.6929 60.167 47.1072C60.0138 47.5413 59.8986 48.0648 59.8108 48.6574L61.7892 48.9505ZM62.2511 47.4031C62.4075 47.2467 62.7323 47.0037 63.2917 46.674C63.8363 46.3531 64.5521 45.9795 65.4467 45.5525L64.5853 43.7475C63.6613 44.1885 62.8891 44.5899 62.2763 44.951C61.6783 45.3033 61.1765 45.6493 60.8369 45.9889L62.2511 47.4031ZM65.4298 45.5604C65.399 45.5744 65.4483 45.5366 65.661 45.5817C65.8732 45.6267 66.1765 45.7401 66.5831 45.9619L67.5409 44.2061C67.0382 43.9319 66.5458 43.7249 66.076 43.6253C65.6067 43.5257 65.0877 43.5189 64.6022 43.7396L65.4298 45.5604ZM66.5831 45.9619C67.0467 46.2147 67.4398 46.4173 67.7569 46.5645C68.0404 46.6962 68.3597 46.8307 68.6336 46.8764L68.9624 44.9036C68.9883 44.9079 68.8942 44.8875 68.5991 44.7505C68.3375 44.629 67.9867 44.4493 67.5409 44.2061L66.5831 45.9619ZM68.7075 46.8859C69.08 46.9198 69.6374 47.0275 70.4035 47.2291L70.9125 45.2949C70.1079 45.0832 69.4254 44.9429 68.8885 44.8941L68.7075 46.8859ZM70.4619 47.2426C71.284 47.407 71.9522 47.51 72.394 47.51V45.51C72.1744 45.51 71.6853 45.4477 70.8541 45.2814L70.4619 47.2426ZM72.394 47.51C72.9706 47.51 73.5226 47.2967 74.0245 46.9955L72.9955 45.2805C72.6708 45.4753 72.4788 45.51 72.394 45.51V47.51ZM73.9889 47.0159C74.5127 46.7302 75.0418 46.3595 75.5762 45.9142L74.2958 44.3778C73.8382 44.7591 73.4166 45.0498 73.0312 45.2601L73.9889 47.0159ZM75.5762 45.9142C76.0702 45.5026 76.3647 45.3017 76.4992 45.2344L75.6048 43.4456C75.2433 43.6263 74.7938 43.9628 74.2958 44.3778L75.5762 45.9142ZM76.5261 45.2205C77.3037 44.8018 77.9044 44.5442 78.3442 44.4173C78.8303 44.2771 78.9311 44.3522 78.8569 44.318L79.6951 42.502C79.0836 42.2198 78.3783 42.3259 77.7898 42.4957C77.1549 42.6788 76.4123 43.0102 75.5779 43.4595L76.5261 45.2205ZM78.8821 44.3291C79.0371 44.3956 79.0515 44.4422 79.0385 44.4205L80.7535 43.3915C80.4925 42.9565 80.0936 42.6724 79.6699 42.4909L78.8821 44.3291ZM79.1151 44.5307C79.1364 44.5573 79.1504 44.5774 79.159 44.5911C79.1677 44.6049 79.1697 44.61 79.1682 44.6066C79.1655 44.6006 79.144 44.5497 79.144 44.464H81.144C81.144 43.9706 80.9045 43.5659 80.6769 43.2813L79.1151 44.5307ZM79.1739 44.7065C79.1737 44.706 79.1745 44.7092 79.176 44.7167C79.1774 44.7242 79.1792 44.7347 79.1812 44.7488C79.1853 44.7774 79.1896 44.816 79.1934 44.8662C79.2012 44.9675 79.206 45.1007 79.206 45.27H81.206C81.206 44.889 81.1874 44.5146 81.1141 44.2215L79.1739 44.7065ZM79.2137 45.394C79.2526 45.7052 79.268 45.928 79.268 46.076H81.268C81.268 45.8107 81.2421 45.4962 81.1983 45.146L79.2137 45.394ZM79.2816 46.2404C79.3781 46.8194 79.5856 47.543 79.8821 48.3903L81.7699 47.7296C81.4878 46.9236 81.3232 46.3246 81.2544 45.9116L79.2816 46.2404ZM79.8877 48.4057C80.1851 49.2129 80.3127 49.6371 80.3356 49.7744L82.3084 49.4456C82.2486 49.0869 82.0456 48.4777 81.7643 47.7143L79.8877 48.4057ZM80.6149 50.3171C80.5671 50.2693 80.5325 50.2245 80.5088 50.1905C80.4849 50.156 80.4673 50.1257 80.4551 50.1029C80.4317 50.0588 80.4186 50.0247 80.4132 50.0099C80.4072 49.9933 80.4045 49.9835 80.4045 49.9835C80.4043 49.9828 80.4055 49.9871 80.4078 49.9974C80.4125 50.0187 80.4193 50.0536 80.4276 50.1051C80.4357 50.1558 80.4444 50.2178 80.4537 50.292L82.4383 50.044C82.4161 49.8668 82.3909 49.7017 82.3602 49.5636C82.3451 49.4958 82.3239 49.4118 82.2928 49.3264C82.2747 49.2767 82.2042 49.078 82.0291 48.9029L80.6149 50.3171ZM80.4759 50.4105C80.5154 50.5686 80.5422 50.6858 80.5584 50.7671C80.5666 50.8078 80.5706 50.8324 80.5723 50.8442C80.575 50.8632 80.57 50.8373 80.57 50.788H82.57C82.57 50.6356 82.5393 50.4737 82.5196 50.3749C82.4945 50.2495 82.4593 50.0981 82.4161 49.9255L80.4759 50.4105ZM80.57 50.788C80.57 50.9562 80.6036 51.2185 80.6421 51.4874L82.622 51.2046C82.602 51.0652 82.5881 50.9577 82.5794 50.8791C82.575 50.8398 82.5724 50.8116 82.5709 50.7927C82.5693 50.7709 82.57 50.7723 82.57 50.788H80.57ZM80.6421 51.4874C80.6832 51.7756 80.694 51.9199 80.694 51.966H82.694C82.694 51.7641 82.6635 51.4951 82.622 51.2046L80.6421 51.4874ZM80.694 51.966C80.694 51.9662 80.694 51.9665 80.694 51.9667C80.694 51.967 80.694 51.9672 80.694 51.9675C80.694 51.9677 80.694 51.9679 80.694 51.9682C80.694 51.9684 80.694 51.9687 80.694 51.9689C80.694 51.9692 80.694 51.9694 80.694 51.9697C80.694 51.9699 80.694 51.9701 80.694 51.9704C80.694 51.9706 80.694 51.9709 80.694 51.9711C80.694 51.9714 80.694 51.9716 80.694 51.9719C80.694 51.9721 80.694 51.9724 80.694 51.9726C80.694 51.9729 80.694 51.9731 80.694 51.9734C80.694 51.9736 80.694 51.9739 80.694 51.9741C80.694 51.9744 80.694 51.9746 80.694 51.9749C80.694 51.9751 80.694 51.9754 80.694 51.9756C80.694 51.9759 80.694 51.9761 80.694 51.9764C80.694 51.9766 80.694 51.9769 80.694 51.9771C80.694 51.9774 80.694 51.9776 80.694 51.9779C80.694 51.9781 80.694 51.9784 80.694 51.9786C80.694 51.9789 80.694 51.9791 80.694 51.9794C80.694 51.9796 80.694 51.9799 80.694 51.9801C80.694 51.9804 80.694 51.9807 80.694 51.9809C80.694 51.9812 80.694 51.9814 80.694 51.9817C80.694 51.9819 80.694 51.9822 80.694 51.9824C80.694 51.9827 80.694 51.983 80.694 51.9832C80.694 51.9835 80.694 51.9837 80.694 51.984C80.694 51.9842 80.694 51.9845 80.694 51.9848C80.694 51.985 80.694 51.9853 80.694 51.9855C80.694 51.9858 80.694 51.986 80.694 51.9863C80.694 51.9866 80.694 51.9868 80.694 51.9871C80.694 51.9873 80.694 51.9876 80.694 51.9879C80.694 51.9881 80.694 51.9884 80.694 51.9886C80.694 51.9889 80.694 51.9892 80.694 51.9894C80.694 51.9897 80.694 51.99 80.694 51.9902C80.694 51.9905 80.694 51.9907 80.694 51.991C80.694 51.9913 80.694 51.9915 80.694 51.9918C80.694 51.9921 80.694 51.9923 80.694 51.9926C80.694 51.9929 80.694 51.9931 80.694 51.9934C80.694 51.9936 80.694 51.9939 80.694 51.9942C80.694 51.9944 80.694 51.9947 80.694 51.995C80.694 51.9952 80.694 51.9955 80.694 51.9958C80.694 51.996 80.694 51.9963 80.694 51.9966C80.694 51.9968 80.694 51.9971 80.694 51.9974C80.694 51.9976 80.694 51.9979 80.694 51.9982C80.694 51.9985 80.694 51.9987 80.694 51.999C80.694 51.9993 80.694 51.9995 80.694 51.9998C80.694 52.0001 80.694 52.0003 80.694 52.0006C80.694 52.0009 80.694 52.0012 80.694 52.0014C80.694 52.0017 80.694 52.002 80.694 52.0022C80.694 52.0025 80.694 52.0028 80.694 52.0031C80.694 52.0033 80.694 52.0036 80.694 52.0039C80.694 52.0041 80.694 52.0044 80.694 52.0047C80.694 52.005 80.694 52.0052 80.694 52.0055C80.694 52.0058 80.694 52.0061 80.694 52.0063C80.694 52.0066 80.694 52.0069 80.694 52.0072C80.694 52.0074 80.694 52.0077 80.694 52.008C80.694 52.0083 80.694 52.0085 80.694 52.0088C80.694 52.0091 80.694 52.0094 80.694 52.0097C80.694 52.0099 80.694 52.0102 80.694 52.0105C80.694 52.0108 80.694 52.011 80.694 52.0113C80.694 52.0116 80.694 52.0119 80.694 52.0122C80.694 52.0124 80.694 52.0127 80.694 52.013C80.694 52.0133 80.694 52.0136 80.694 52.0138C80.694 52.0141 80.694 52.0144 80.694 52.0147C80.694 52.015 80.694 52.0152 80.694 52.0155C80.694 52.0158 80.694 52.0161 80.694 52.0164C80.694 52.0167 80.694 52.0169 80.694 52.0172C80.694 52.0175 80.694 52.0178 80.694 52.0181C80.694 52.0184 80.694 52.0186 80.694 52.0189C80.694 52.0192 80.694 52.0195 80.694 52.0198C80.694 52.0201 80.694 52.0203 80.694 52.0206C80.694 52.0209 80.694 52.0212 80.694 52.0215C80.694 52.0218 80.694 52.0221 80.694 52.0224C80.694 52.0226 80.694 52.0229 80.694 52.0232C80.694 52.0235 80.694 52.0238 80.694 52.0241C80.694 52.0244 80.694 52.0247 80.694 52.0249C80.694 52.0252 80.694 52.0255 80.694 52.0258C80.694 52.0261 80.694 52.0264 80.694 52.0267C80.694 52.027 80.694 52.0273 80.694 52.0276C80.694 52.0278 80.694 52.0281 80.694 52.0284C80.694 52.0287 80.694 52.029 80.694 52.0293C80.694 52.0296 80.694 52.0299 80.694 52.0302C80.694 52.0305 80.694 52.0308 80.694 52.0311C80.694 52.0313 80.694 52.0316 80.694 52.0319C80.694 52.0322 80.694 52.0325 80.694 52.0328C80.694 52.0331 80.694 52.0334 80.694 52.0337C80.694 52.034 80.694 52.0343 80.694 52.0346C80.694 52.0349 80.694 52.0352 80.694 52.0355C80.694 52.0358 80.694 52.0361 80.694 52.0364C80.694 52.0367 80.694 52.037 80.694 52.0373C80.694 52.0376 80.694 52.0379 80.694 52.0382C80.694 52.0385 80.694 52.0388 80.694 52.0391C80.694 52.0394 80.694 52.0396 80.694 52.0399C80.694 52.0402 80.694 52.0405 80.694 52.0408C80.694 52.0411 80.694 52.0414 80.694 52.0418C80.694 52.0421 80.694 52.0424 80.694 52.0427C80.694 52.043 80.694 52.0433 80.694 52.0436C80.694 52.0439 80.694 52.0442 80.694 52.0445C80.694 52.0448 80.694 52.0451 80.694 52.0454C80.694 52.0457 80.694 52.046 80.694 52.0463C80.694 52.0466 80.694 52.0469 80.694 52.0472C80.694 52.0475 80.694 52.0478 80.694 52.0481C80.694 52.0484 80.694 52.0487 80.694 52.049C80.694 52.0493 80.694 52.0496 80.694 52.0499C80.694 52.0503 80.694 52.0506 80.694 52.0509C80.694 52.0512 80.694 52.0515 80.694 52.0518C80.694 52.0521 80.694 52.0524 80.694 52.0527C80.694 52.053 80.694 52.0533 80.694 52.0536C80.694 52.054 80.694 52.0543 80.694 52.0546C80.694 52.0549 80.694 52.0552 80.694 52.0555C80.694 52.0558 80.694 52.0561 80.694 52.0564C80.694 52.0567 80.694 52.0571 80.694 52.0574C80.694 52.0577 80.694 52.058 80.694 52.0583C80.694 52.0586 80.694 52.0589 80.694 52.0592C80.694 52.0596 80.694 52.0599 80.694 52.0602C80.694 52.0605 80.694 52.0608 80.694 52.0611C80.694 52.0614 80.694 52.0617 80.694 52.0621C80.694 52.0624 80.694 52.0627 80.694 52.063C80.694 52.0633 80.694 52.0636 80.694 52.064C80.694 52.0643 80.694 52.0646 80.694 52.0649C80.694 52.0652 80.694 52.0655 80.694 52.0659C80.694 52.0662 80.694 52.0665 80.694 52.0668C80.694 52.0671 80.694 52.0674 80.694 52.0678C80.694 52.0681 80.694 52.0684 80.694 52.0687C80.694 52.069 80.694 52.0694 80.694 52.0697C80.694 52.07 80.694 52.0703 80.694 52.0706C80.694 52.071 80.694 52.0713 80.694 52.0716C80.694 52.0719 80.694 52.0722 80.694 52.0726C80.694 52.0729 80.694 52.0732 80.694 52.0735C80.694 52.0739 80.694 52.0742 80.694 52.0745C80.694 52.0748 80.694 52.0751 80.694 52.0755C80.694 52.0758 80.694 52.0761 80.694 52.0764C80.694 52.0768 80.694 52.0771 80.694 52.0774C80.694 52.0777 80.694 52.0781 80.694 52.0784C80.694 52.0787 80.694 52.079 80.694 52.0794C80.694 52.0797 80.694 52.08 80.694 52.0803C80.694 52.0807 80.694 52.081 80.694 52.0813C80.694 52.0817 80.694 52.082 80.694 52.0823C80.694 52.0826 80.694 52.083 80.694 52.0833C80.694 52.0836 80.694 52.084 80.694 52.0843C80.694 52.0846 80.694 52.0849 80.694 52.0853C80.694 52.0856 80.694 52.0859 80.694 52.0863C80.694 52.0866 80.694 52.0869 80.694 52.0873C80.694 52.0876 80.694 52.0879 80.694 52.0882C80.694 52.0886 80.694 52.0889 80.694 52.0892C80.694 52.0896 80.694 52.0899 80.694 52.0902C80.694 52.0906 80.694 52.0909 80.694 52.0912C80.694 52.0916 80.694 52.0919 80.694 52.0922C80.694 52.0926 80.694 52.0929 80.694 52.0932C80.694 52.0936 80.694 52.0939 80.694 52.0943C80.694 52.0946 80.694 52.0949 80.694 52.0953C80.694 52.0956 80.694 52.0959 80.694 52.0963C80.694 52.0966 80.694 52.0969 80.694 52.0973C80.694 52.0976 80.694 52.098 80.694 52.0983C80.694 52.0986 80.694 52.099 80.694 52.0993C80.694 52.0996 80.694 52.1 80.694 52.1003C80.694 52.1007 80.694 52.101 80.694 52.1013C80.694 52.1017 80.694 52.102 80.694 52.1024C80.694 52.1027 80.694 52.103 80.694 52.1034C80.694 52.1037 80.694 52.1041 80.694 52.1044C80.694 52.1048 80.694 52.1051 80.694 52.1054C80.694 52.1058 80.694 52.1061 80.694 52.1065C80.694 52.1068 80.694 52.1072 80.694 52.1075C80.694 52.1078 80.694 52.1082 80.694 52.1085C80.694 52.1089 80.694 52.1092 80.694 52.1096C80.694 52.1099 80.694 52.1103 80.694 52.1106C80.694 52.1109 80.694 52.1113 80.694 52.1116C80.694 52.112 80.694 52.1123 80.694 52.1127C80.694 52.113 80.694 52.1134 80.694 52.1137C80.694 52.1141 80.694 52.1144 80.694 52.1148C80.694 52.1151 80.694 52.1155 80.694 52.1158C80.694 52.1162 80.694 52.1165 80.694 52.1169C80.694 52.1172 80.694 52.1176 80.694 52.1179C80.694 52.1183 80.694 52.1186 80.694 52.119C80.694 52.1193 80.694 52.1197 80.694 52.12C80.694 52.1204 80.694 52.1207 80.694 52.1211C80.694 52.1214 80.694 52.1218 80.694 52.1221C80.694 52.1225 80.694 52.1228 80.694 52.1232C80.694 52.1235 80.694 52.1239 80.694 52.1242C80.694 52.1246 80.694 52.1249 80.694 52.1253C80.694 52.1257 80.694 52.126 80.694 52.1264C80.694 52.1267 80.694 52.1271 80.694 52.1274C80.694 52.1278 80.694 52.1281 80.694 52.1285C80.694 52.1289 80.694 52.1292 80.694 52.1296C80.694 52.1299 80.694 52.1303 80.694 52.1306C80.694 52.131 80.694 52.1314 80.694 52.1317C80.694 52.1321 80.694 52.1324 80.694 52.1328C80.694 52.1331 80.694 52.1335 80.694 52.1339C80.694 52.1342 80.694 52.1346 80.694 52.1349C80.694 52.1353 80.694 52.1357 80.694 52.136C80.694 52.1364 80.694 52.1368 80.694 52.1371C80.694 52.1375 80.694 52.1378 80.694 52.1382C80.694 52.1386 80.694 52.1389 80.694 52.1393C80.694 52.1396 80.694 52.14 80.694 52.1404C80.694 52.1407 80.694 52.1411 80.694 52.1415C80.694 52.1418 80.694 52.1422 80.694 52.1426C80.694 52.1429 80.694 52.1433 80.694 52.1437C80.694 52.144 80.694 52.1444 80.694 52.1447C80.694 52.1451 80.694 52.1455 80.694 52.1458C80.694 52.1462 80.694 52.1466 80.694 52.1469C80.694 52.1473 80.694 52.1477 80.694 52.148C80.694 52.1484 80.694 52.1488 80.694 52.1492C80.694 52.1495 80.694 52.1499 80.694 52.1503C80.694 52.1506 80.694 52.151 80.694 52.1514C80.694 52.1517 80.694 52.1521 80.694 52.1525C80.694 52.1528 80.694 52.1532 80.694 52.1536C80.694 52.154 80.694 52.1543 80.694 52.1547C80.694 52.1551 80.694 52.1554 80.694 52.1558C80.694 52.1562 80.694 52.1566 80.694 52.1569C80.694 52.1573 80.694 52.1577 80.694 52.1581C80.694 52.1584 80.694 52.1588 80.694 52.1592C80.694 52.1595 80.694 52.1599 80.694 52.1603C80.694 52.1607 80.694 52.161 80.694 52.1614C80.694 52.1618 80.694 52.1622 80.694 52.1625C80.694 52.1629 80.694 52.1633 80.694 52.1637C80.694 52.1641 80.694 52.1644 80.694 52.1648C80.694 52.1652 80.694 52.1656 80.694 52.1659C80.694 52.1663 80.694 52.1667 80.694 52.1671C80.694 52.1675 80.694 52.1678 80.694 52.1682C80.694 52.1686 80.694 52.169 80.694 52.1693C80.694 52.1697 80.694 52.1701 80.694 52.1705C80.694 52.1709 80.694 52.1712 80.694 52.1716C80.694 52.172 80.694 52.1724 80.694 52.1728C80.694 52.1732 80.694 52.1735 80.694 52.1739C80.694 52.1743 80.694 52.1747 80.694 52.1751C80.694 52.1755 80.694 52.1758 80.694 52.1762C80.694 52.1766 80.694 52.177 80.694 52.1774C80.694 52.1778 80.694 52.1781 80.694 52.1785C80.694 52.1789 80.694 52.1793 80.694 52.1797C80.694 52.1801 80.694 52.1804 80.694 52.1808C80.694 52.1812 80.694 52.1816 80.694 52.182C80.694 52.1824 80.694 52.1828 80.694 52.1832C80.694 52.1835 80.694 52.1839 80.694 52.1843C80.694 52.1847 80.694 52.1851 80.694 52.1855C80.694 52.1859 80.694 52.1863 80.694 52.1866C80.694 52.187 80.694 52.1874 80.694 52.1878C80.694 52.1882 80.694 52.1886 80.694 52.189C80.694 52.1894 80.694 52.1898 80.694 52.1902C80.694 52.1905 80.694 52.1909 80.694 52.1913C80.694 52.1917 80.694 52.1921 80.694 52.1925C80.694 52.1929 80.694 52.1933 80.694 52.1937C80.694 52.1941 80.694 52.1945 80.694 52.1949C80.694 52.1953 80.694 52.1957 80.694 52.196C80.694 52.1964 80.694 52.1968 80.694 52.1972C80.694 52.1976 80.694 52.198 80.694 52.1984C80.694 52.1988 80.694 52.1992 80.694 52.1996C80.694 52.2 80.694 52.2004 80.694 52.2008C80.694 52.2012 80.694 52.2016 80.694 52.202C80.694 52.2024 80.694 52.2028 80.694 52.2032C80.694 52.2036 80.694 52.204 80.694 52.2044C80.694 52.2048 80.694 52.2052 80.694 52.2056C80.694 52.206 80.694 52.2064 80.694 52.2068C80.694 52.2072 80.694 52.2076 80.694 52.208C80.694 52.2084 80.694 52.2088 80.694 52.2092C80.694 52.2096 80.694 52.21 80.694 52.2104C80.694 52.2108 80.694 52.2112 80.694 52.2116C80.694 52.212 80.694 52.2124 80.694 52.2128C80.694 52.2132 80.694 52.2136 80.694 52.214C80.694 52.2144 80.694 52.2148 80.694 52.2152C80.694 52.2156 80.694 52.216 80.694 52.2164C80.694 52.2168 80.694 52.2172 80.694 52.2176C80.694 52.218 80.694 52.2185 80.694 52.2189C80.694 52.2193 80.694 52.2197 80.694 52.2201C80.694 52.2205 80.694 52.2209 80.694 52.2213C80.694 52.2217 80.694 52.2221 80.694 52.2225C80.694 52.2229 80.694 52.2233 80.694 52.2237C80.694 52.2242 80.694 52.2246 80.694 52.225C80.694 52.2254 80.694 52.2258 80.694 52.2262C80.694 52.2266 80.694 52.227 80.694 52.2274C80.694 52.2278 80.694 52.2283 80.694 52.2287C80.694 52.2291 80.694 52.2295 80.694 52.2299C80.694 52.2303 80.694 52.2307 80.694 52.2311C80.694 52.2315 80.694 52.232 80.694 52.2324C80.694 52.2328 80.694 52.2332 80.694 52.2336C80.694 52.234 80.694 52.2344 80.694 52.2349C80.694 52.2353 80.694 52.2357 80.694 52.2361C80.694 52.2365 80.694 52.2369 80.694 52.2373C80.694 52.2378 80.694 52.2382 80.694 52.2386C80.694 52.239 80.694 52.2394 80.694 52.2398C80.694 52.2403 80.694 52.2407 80.694 52.2411C80.694 52.2415 80.694 52.2419 80.694 52.2423C80.694 52.2428 80.694 52.2432 80.694 52.2436C80.694 52.244 80.694 52.2444 80.694 52.2449C80.694 52.2453 80.694 52.2457 80.694 52.2461C80.694 52.2465 80.694 52.247 80.694 52.2474C80.694 52.2478 80.694 52.2482 80.694 52.2486C80.694 52.2491 80.694 52.2495 80.694 52.2499C80.694 52.2503 80.694 52.2508 80.694 52.2512C80.694 52.2516 80.694 52.252 80.694 52.2524C80.694 52.2529 80.694 52.2533 80.694 52.2537C80.694 52.2541 80.694 52.2546 80.694 52.255C80.694 52.2554 80.694 52.2558 80.694 52.2563C80.694 52.2567 80.694 52.2571 80.694 52.2575C80.694 52.258 80.694 52.2584 80.694 52.2588C80.694 52.2592 80.694 52.2597 80.694 52.2601C80.694 52.2605 80.694 52.261 80.694 52.2614C80.694 52.2618 80.694 52.2622 80.694 52.2627C80.694 52.2631 80.694 52.2635 80.694 52.2639C80.694 52.2644 80.694 52.2648 80.694 52.2652C80.694 52.2657 80.694 52.2661 80.694 52.2665C80.694 52.267 80.694 52.2674 80.694 52.2678C80.694 52.2682 80.694 52.2687 80.694 52.2691C80.694 52.2695 80.694 52.27 80.694 52.2704C80.694 52.2708 80.694 52.2713 80.694 52.2717C80.694 52.2721 80.694 52.2726 80.694 52.273C80.694 52.2734 80.694 52.2739 80.694 52.2743C80.694 52.2747 80.694 52.2752 80.694 52.2756C80.694 52.276 80.694 52.2765 80.694 52.2769C80.694 52.2773 80.694 52.2778 80.694 52.2782C80.694 52.2787 80.694 52.2791 80.694 52.2795C80.694 52.28 80.694 52.2804 80.694 52.2808C80.694 52.2813 80.694 52.2817 80.694 52.2821C80.694 52.2826 80.694 52.283 80.694 52.2835C80.694 52.2839 80.694 52.2843 80.694 52.2848C80.694 52.2852 80.694 52.2857 80.694 52.2861C80.694 52.2865 80.694 52.287 80.694 52.2874C80.694 52.2879 80.694 52.2883 80.694 52.2887C80.694 52.2892 80.694 52.2896 80.694 52.2901C80.694 52.2905 80.694 52.2909 80.694 52.2914C80.694 52.2918 80.694 52.2923 80.694 52.2927C80.694 52.2932 80.694 52.2936 80.694 52.294C80.694 52.2945 80.694 52.2949 80.694 52.2954C80.694 52.2958 80.694 52.2963 80.694 52.2967C80.694 52.2972 80.694 52.2976 80.694 52.298C80.694 52.2985 80.694 52.2989 80.694 52.2994C80.694 52.2998 80.694 52.3003 80.694 52.3007C80.694 52.3012 80.694 52.3016 80.694 52.3021C80.694 52.3025 80.694 52.303 80.694 52.3034C80.694 52.3038 80.694 52.3043 80.694 52.3047C80.694 52.3052 80.694 52.3056 80.694 52.3061C80.694 52.3065 80.694 52.307 80.694 52.3074C80.694 52.3079 80.694 52.3083 80.694 52.3088C80.694 52.3092 80.694 52.3097 80.694 52.3101C80.694 52.3106 80.694 52.311 80.694 52.3115C80.694 52.3119 80.694 52.3124 80.694 52.3128C80.694 52.3133 80.694 52.3138 80.694 52.3142C80.694 52.3147 80.694 52.3151 80.694 52.3156C80.694 52.316 80.694 52.3165 80.694 52.3169C80.694 52.3174 80.694 52.3178 80.694 52.3183C80.694 52.3187 80.694 52.3192 80.694 52.3197C80.694 52.3201 80.694 52.3206 80.694 52.321C80.694 52.3215 80.694 52.3219 80.694 52.3224C80.694 52.3228 80.694 52.3233 80.694 52.3238C80.694 52.3242 80.694 52.3247 80.694 52.3251C80.694 52.3256 80.694 52.3261 80.694 52.3265C80.694 52.327 80.694 52.3274 80.694 52.3279C80.694 52.3283 80.694 52.3288 80.694 52.3293C80.694 52.3297 80.694 52.3302 80.694 52.3306C80.694 52.3311 80.694 52.3316 80.694 52.332C80.694 52.3325 80.694 52.3329 80.694 52.3334C80.694 52.3339 80.694 52.3343 80.694 52.3348C80.694 52.3353 80.694 52.3357 80.694 52.3362C80.694 52.3366 80.694 52.3371 80.694 52.3376C80.694 52.338 80.694 52.3385 80.694 52.339C80.694 52.3394 80.694 52.3399 80.694 52.3404C80.694 52.3408 80.694 52.3413 80.694 52.3418C80.694 52.3422 80.694 52.3427 80.694 52.3432C80.694 52.3436 80.694 52.3441 80.694 52.3446C80.694 52.345 80.694 52.3455 80.694 52.346C80.694 52.3464 80.694 52.3469 80.694 52.3474C80.694 52.3478 80.694 52.3483 80.694 52.3488C80.694 52.3492 80.694 52.3497 80.694 52.3502C80.694 52.3506 80.694 52.3511 80.694 52.3516C80.694 52.352 80.694 52.3525 80.694 52.353C80.694 52.3535 80.694 52.3539 80.694 52.3544C80.694 52.3549 80.694 52.3553 80.694 52.3558C80.694 52.3563 80.694 52.3568 80.694 52.3572C80.694 52.3577 80.694 52.3582 80.694 52.3586C80.694 52.3591 80.694 52.3596 80.694 52.3601C80.694 52.3605 80.694 52.361 80.694 52.3615C80.694 52.362 80.694 52.3624 80.694 52.3629C80.694 52.3634 80.694 52.3639 80.694 52.3643C80.694 52.3648 80.694 52.3653 80.694 52.3658C80.694 52.3662 80.694 52.3667 80.694 52.3672C80.694 52.3677 80.694 52.3682 80.694 52.3686C80.694 52.3691 80.694 52.3696 80.694 52.3701C80.694 52.3705 80.694 52.371 80.694 52.3715C80.694 52.372 80.694 52.3725 80.694 52.3729C80.694 52.3734 80.694 52.3739 80.694 52.3744C80.694 52.3749 80.694 52.3753 80.694 52.3758C80.694 52.3763 80.694 52.3768 80.694 52.3773C80.694 52.3777 80.694 52.3782 80.694 52.3787C80.694 52.3792 80.694 52.3797 80.694 52.3801C80.694 52.3806 80.694 52.3811 80.694 52.3816C80.694 52.3821 80.694 52.3826 80.694 52.383C80.694 52.3835 80.694 52.384 80.694 52.3845C80.694 52.385 80.694 52.3855 80.694 52.386C80.694 52.3864 80.694 52.3869 80.694 52.3874C80.694 52.3879 80.694 52.3884 80.694 52.3889C80.694 52.3894 80.694 52.3898 80.694 52.3903C80.694 52.3908 80.694 52.3913 80.694 52.3918C80.694 52.3923 80.694 52.3928 80.694 52.3933C80.694 52.3937 80.694 52.3942 80.694 52.3947C80.694 52.3952 80.694 52.3957 80.694 52.3962C80.694 52.3967 80.694 52.3972 80.694 52.3977C80.694 52.3981 80.694 52.3986 80.694 52.3991C80.694 52.3996 80.694 52.4001 80.694 52.4006C80.694 52.4011 80.694 52.4016 80.694 52.4021C80.694 52.4026 80.694 52.4031 80.694 52.4035C80.694 52.404 80.694 52.4045 80.694 52.405C80.694 52.4055 80.694 52.406 80.694 52.4065C80.694 52.407 80.694 52.4075 80.694 52.408C80.694 52.4085 80.694 52.409 80.694 52.4095C80.694 52.41 80.694 52.4105 80.694 52.411C80.694 52.4115 80.694 52.412 80.694 52.4124C80.694 52.4129 80.694 52.4134 80.694 52.4139C80.694 52.4144 80.694 52.4149 80.694 52.4154C80.694 52.4159 80.694 52.4164 80.694 52.4169C80.694 52.4174 80.694 52.4179 80.694 52.4184C80.694 52.4189 80.694 52.4194 80.694 52.4199C80.694 52.4204 80.694 52.4209 80.694 52.4214C80.694 52.4219 80.694 52.4224 80.694 52.4229C80.694 52.4234 80.694 52.4239 80.694 52.4244C80.694 52.4249 80.694 52.4254 80.694 52.4259C80.694 52.4264 80.694 52.4269 80.694 52.4274C80.694 52.4279 80.694 52.4284 80.694 52.4289C80.694 52.4294 80.694 52.4299 80.694 52.4305C80.694 52.431 80.694 52.4315 80.694 52.432C80.694 52.4325 80.694 52.433 80.694 52.4335C80.694 52.434 80.694 52.4345 80.694 52.435C80.694 52.4355 80.694 52.436 80.694 52.4365C80.694 52.437 80.694 52.4375 80.694 52.438C80.694 52.4385 80.694 52.4391 80.694 52.4396C80.694 52.4401 80.694 52.4406 80.694 52.4411C80.694 52.4416 80.694 52.4421 80.694 52.4426C80.694 52.4431 80.694 52.4436 80.694 52.4441C80.694 52.4446 80.694 52.4452 80.694 52.4457C80.694 52.4462 80.694 52.4467 80.694 52.4472C80.694 52.4477 80.694 52.4482 80.694 52.4487C80.694 52.4492 80.694 52.4498 80.694 52.4503C80.694 52.4508 80.694 52.4513 80.694 52.4518C80.694 52.4523 80.694 52.4528 80.694 52.4533C80.694 52.4539 80.694 52.4544 80.694 52.4549C80.694 52.4554 80.694 52.4559 80.694 52.4564C80.694 52.4569 80.694 52.4575 80.694 52.458C80.694 52.4585 80.694 52.459 80.694 52.4595C80.694 52.46 80.694 52.4606 80.694 52.4611C80.694 52.4616 80.694 52.4621 80.694 52.4626C80.694 52.4631 80.694 52.4637 80.694 52.4642C80.694 52.4647 80.694 52.4652 80.694 52.4657C80.694 52.4662 80.694 52.4668 80.694 52.4673C80.694 52.4678 80.694 52.4683 80.694 52.4688C80.694 52.4694 80.694 52.4699 80.694 52.4704C80.694 52.4709 80.694 52.4714 80.694 52.472C80.694 52.4725 80.694 52.473 80.694 52.4735C80.694 52.474 80.694 52.4746 80.694 52.4751C80.694 52.4756 80.694 52.4761 80.694 52.4767C80.694 52.4772 80.694 52.4777 80.694 52.4782C80.694 52.4788 80.694 52.4793 80.694 52.4798C80.694 52.4803 80.694 52.4808 80.694 52.4814C80.694 52.4819 80.694 52.4824 80.694 52.4829C80.694 52.4835 80.694 52.484 80.694 52.4845C80.694 52.4851 80.694 52.4856 80.694 52.4861C80.694 52.4866 80.694 52.4872 80.694 52.4877C80.694 52.4882 80.694 52.4887 80.694 52.4893C80.694 52.4898 80.694 52.4903 80.694 52.4909C80.694 52.4914 80.694 52.4919 80.694 52.4924C80.694 52.493 80.694 52.4935 80.694 52.494C80.694 52.4946 80.694 52.4951 80.694 52.4956C80.694 52.4961 80.694 52.4967 80.694 52.4972C80.694 52.4977 80.694 52.4983 80.694 52.4988C80.694 52.4993 80.694 52.4999 80.694 52.5004C80.694 52.5009 80.694 52.5015 80.694 52.502C80.694 52.5025 80.694 52.5031 80.694 52.5036C80.694 52.5041 80.694 52.5047 80.694 52.5052C80.694 52.5057 80.694 52.5063 80.694 52.5068C80.694 52.5073 80.694 52.5079 80.694 52.5084C80.694 52.5089 80.694 52.5095 80.694 52.51C80.694 52.5106 80.694 52.5111 80.694 52.5116C80.694 52.5122 80.694 52.5127 80.694 52.5132C80.694 52.5138 80.694 52.5143 80.694 52.5148C80.694 52.5154 80.694 52.5159 80.694 52.5165C80.694 52.517 80.694 52.5175 80.694 52.5181C80.694 52.5186 80.694 52.5192 80.694 52.5197C80.694 52.5202 80.694 52.5208 80.694 52.5213C80.694 52.5219 80.694 52.5224 80.694 52.5229C80.694 52.5235 80.694 52.524 80.694 52.5246C80.694 52.5251 80.694 52.5256 80.694 52.5262C80.694 52.5267 80.694 52.5273 80.694 52.5278C80.694 52.5284 80.694 52.5289 80.694 52.5295C80.694 52.53 80.694 52.5305 80.694 52.5311C80.694 52.5316 80.694 52.5322 80.694 52.5327C80.694 52.5333 80.694 52.5338 80.694 52.5344C80.694 52.5349 80.694 52.5354 80.694 52.536C80.694 52.5365 80.694 52.5371 80.694 52.5376C80.694 52.5382 80.694 52.5387 80.694 52.5393C80.694 52.5398 80.694 52.5404 80.694 52.5409C80.694 52.5415 80.694 52.542 80.694 52.5426C80.694 52.5431 80.694 52.5437 80.694 52.5442C80.694 52.5448 80.694 52.5453 80.694 52.5459C80.694 52.5464 80.694 52.547 80.694 52.5475C80.694 52.5481 80.694 52.5486 80.694 52.5492C80.694 52.5497 80.694 52.5503 80.694 52.5508C80.694 52.5514 80.694 52.5519 80.694 52.5525C80.694 52.553 80.694 52.5536 80.694 52.5541C80.694 52.5547 80.694 52.5552 80.694 52.5558C80.694 52.5563 80.694 52.5569 80.694 52.5575C80.694 52.558 80.694 52.5586 80.694 52.5591C80.694 52.5597 80.694 52.5602 80.694 52.5608C80.694 52.5613 80.694 52.5619 80.694 52.5624C80.694 52.563 80.694 52.5636 80.694 52.5641C80.694 52.5647 80.694 52.5652 80.694 52.5658C80.694 52.5663 80.694 52.5669 80.694 52.5675C80.694 52.568 80.694 52.5686 80.694 52.5691C80.694 52.5697 80.694 52.5703 80.694 52.5708C80.694 52.5714 80.694 52.5719 80.694 52.5725C80.694 52.5731 80.694 52.5736 80.694 52.5742C80.694 52.5747 80.694 52.5753 80.694 52.5759C80.694 52.5764 80.694 52.577 80.694 52.5775C80.694 52.5781 80.694 52.5787 80.694 52.5792C80.694 52.5798 80.694 52.5804 80.694 52.5809C80.694 52.5815 80.694 52.582 80.694 52.5826C80.694 52.5832 80.694 52.5837 80.694 52.5843C80.694 52.5849 80.694 52.5854 80.694 52.586H82.694C82.694 52.5854 82.694 52.5849 82.694 52.5843C82.694 52.5837 82.694 52.5832 82.694 52.5826C82.694 52.582 82.694 52.5815 82.694 52.5809C82.694 52.5804 82.694 52.5798 82.694 52.5792C82.694 52.5787 82.694 52.5781 82.694 52.5775C82.694 52.577 82.694 52.5764 82.694 52.5759C82.694 52.5753 82.694 52.5747 82.694 52.5742C82.694 52.5736 82.694 52.5731 82.694 52.5725C82.694 52.5719 82.694 52.5714 82.694 52.5708C82.694 52.5703 82.694 52.5697 82.694 52.5691C82.694 52.5686 82.694 52.568 82.694 52.5675C82.694 52.5669 82.694 52.5663 82.694 52.5658C82.694 52.5652 82.694 52.5647 82.694 52.5641C82.694 52.5636 82.694 52.563 82.694 52.5624C82.694 52.5619 82.694 52.5613 82.694 52.5608C82.694 52.5602 82.694 52.5597 82.694 52.5591C82.694 52.5586 82.694 52.558 82.694 52.5575C82.694 52.5569 82.694 52.5563 82.694 52.5558C82.694 52.5552 82.694 52.5547 82.694 52.5541C82.694 52.5536 82.694 52.553 82.694 52.5525C82.694 52.5519 82.694 52.5514 82.694 52.5508C82.694 52.5503 82.694 52.5497 82.694 52.5492C82.694 52.5486 82.694 52.5481 82.694 52.5475C82.694 52.547 82.694 52.5464 82.694 52.5459C82.694 52.5453 82.694 52.5448 82.694 52.5442C82.694 52.5437 82.694 52.5431 82.694 52.5426C82.694 52.542 82.694 52.5415 82.694 52.5409C82.694 52.5404 82.694 52.5398 82.694 52.5393C82.694 52.5387 82.694 52.5382 82.694 52.5376C82.694 52.5371 82.694 52.5365 82.694 52.536C82.694 52.5354 82.694 52.5349 82.694 52.5344C82.694 52.5338 82.694 52.5333 82.694 52.5327C82.694 52.5322 82.694 52.5316 82.694 52.5311C82.694 52.5305 82.694 52.53 82.694 52.5295C82.694 52.5289 82.694 52.5284 82.694 52.5278C82.694 52.5273 82.694 52.5267 82.694 52.5262C82.694 52.5256 82.694 52.5251 82.694 52.5246C82.694 52.524 82.694 52.5235 82.694 52.5229C82.694 52.5224 82.694 52.5219 82.694 52.5213C82.694 52.5208 82.694 52.5202 82.694 52.5197C82.694 52.5192 82.694 52.5186 82.694 52.5181C82.694 52.5175 82.694 52.517 82.694 52.5165C82.694 52.5159 82.694 52.5154 82.694 52.5148C82.694 52.5143 82.694 52.5138 82.694 52.5132C82.694 52.5127 82.694 52.5122 82.694 52.5116C82.694 52.5111 82.694 52.5106 82.694 52.51C82.694 52.5095 82.694 52.5089 82.694 52.5084C82.694 52.5079 82.694 52.5073 82.694 52.5068C82.694 52.5063 82.694 52.5057 82.694 52.5052C82.694 52.5047 82.694 52.5041 82.694 52.5036C82.694 52.5031 82.694 52.5025 82.694 52.502C82.694 52.5015 82.694 52.5009 82.694 52.5004C82.694 52.4999 82.694 52.4993 82.694 52.4988C82.694 52.4983 82.694 52.4977 82.694 52.4972C82.694 52.4967 82.694 52.4961 82.694 52.4956C82.694 52.4951 82.694 52.4946 82.694 52.494C82.694 52.4935 82.694 52.493 82.694 52.4924C82.694 52.4919 82.694 52.4914 82.694 52.4909C82.694 52.4903 82.694 52.4898 82.694 52.4893C82.694 52.4887 82.694 52.4882 82.694 52.4877C82.694 52.4872 82.694 52.4866 82.694 52.4861C82.694 52.4856 82.694 52.4851 82.694 52.4845C82.694 52.484 82.694 52.4835 82.694 52.4829C82.694 52.4824 82.694 52.4819 82.694 52.4814C82.694 52.4808 82.694 52.4803 82.694 52.4798C82.694 52.4793 82.694 52.4788 82.694 52.4782C82.694 52.4777 82.694 52.4772 82.694 52.4767C82.694 52.4761 82.694 52.4756 82.694 52.4751C82.694 52.4746 82.694 52.474 82.694 52.4735C82.694 52.473 82.694 52.4725 82.694 52.472C82.694 52.4714 82.694 52.4709 82.694 52.4704C82.694 52.4699 82.694 52.4694 82.694 52.4688C82.694 52.4683 82.694 52.4678 82.694 52.4673C82.694 52.4668 82.694 52.4662 82.694 52.4657C82.694 52.4652 82.694 52.4647 82.694 52.4642C82.694 52.4637 82.694 52.4631 82.694 52.4626C82.694 52.4621 82.694 52.4616 82.694 52.4611C82.694 52.4606 82.694 52.46 82.694 52.4595C82.694 52.459 82.694 52.4585 82.694 52.458C82.694 52.4575 82.694 52.4569 82.694 52.4564C82.694 52.4559 82.694 52.4554 82.694 52.4549C82.694 52.4544 82.694 52.4539 82.694 52.4533C82.694 52.4528 82.694 52.4523 82.694 52.4518C82.694 52.4513 82.694 52.4508 82.694 52.4503C82.694 52.4498 82.694 52.4492 82.694 52.4487C82.694 52.4482 82.694 52.4477 82.694 52.4472C82.694 52.4467 82.694 52.4462 82.694 52.4457C82.694 52.4452 82.694 52.4446 82.694 52.4441C82.694 52.4436 82.694 52.4431 82.694 52.4426C82.694 52.4421 82.694 52.4416 82.694 52.4411C82.694 52.4406 82.694 52.4401 82.694 52.4396C82.694 52.4391 82.694 52.4385 82.694 52.438C82.694 52.4375 82.694 52.437 82.694 52.4365C82.694 52.436 82.694 52.4355 82.694 52.435C82.694 52.4345 82.694 52.434 82.694 52.4335C82.694 52.433 82.694 52.4325 82.694 52.432C82.694 52.4315 82.694 52.431 82.694 52.4305C82.694 52.4299 82.694 52.4294 82.694 52.4289C82.694 52.4284 82.694 52.4279 82.694 52.4274C82.694 52.4269 82.694 52.4264 82.694 52.4259C82.694 52.4254 82.694 52.4249 82.694 52.4244C82.694 52.4239 82.694 52.4234 82.694 52.4229C82.694 52.4224 82.694 52.4219 82.694 52.4214C82.694 52.4209 82.694 52.4204 82.694 52.4199C82.694 52.4194 82.694 52.4189 82.694 52.4184C82.694 52.4179 82.694 52.4174 82.694 52.4169C82.694 52.4164 82.694 52.4159 82.694 52.4154C82.694 52.4149 82.694 52.4144 82.694 52.4139C82.694 52.4134 82.694 52.4129 82.694 52.4124C82.694 52.412 82.694 52.4115 82.694 52.411C82.694 52.4105 82.694 52.41 82.694 52.4095C82.694 52.409 82.694 52.4085 82.694 52.408C82.694 52.4075 82.694 52.407 82.694 52.4065C82.694 52.406 82.694 52.4055 82.694 52.405C82.694 52.4045 82.694 52.404 82.694 52.4035C82.694 52.4031 82.694 52.4026 82.694 52.4021C82.694 52.4016 82.694 52.4011 82.694 52.4006C82.694 52.4001 82.694 52.3996 82.694 52.3991C82.694 52.3986 82.694 52.3981 82.694 52.3977C82.694 52.3972 82.694 52.3967 82.694 52.3962C82.694 52.3957 82.694 52.3952 82.694 52.3947C82.694 52.3942 82.694 52.3937 82.694 52.3933C82.694 52.3928 82.694 52.3923 82.694 52.3918C82.694 52.3913 82.694 52.3908 82.694 52.3903C82.694 52.3898 82.694 52.3894 82.694 52.3889C82.694 52.3884 82.694 52.3879 82.694 52.3874C82.694 52.3869 82.694 52.3864 82.694 52.386C82.694 52.3855 82.694 52.385 82.694 52.3845C82.694 52.384 82.694 52.3835 82.694 52.383C82.694 52.3826 82.694 52.3821 82.694 52.3816C82.694 52.3811 82.694 52.3806 82.694 52.3801C82.694 52.3797 82.694 52.3792 82.694 52.3787C82.694 52.3782 82.694 52.3777 82.694 52.3773C82.694 52.3768 82.694 52.3763 82.694 52.3758C82.694 52.3753 82.694 52.3749 82.694 52.3744C82.694 52.3739 82.694 52.3734 82.694 52.3729C82.694 52.3725 82.694 52.372 82.694 52.3715C82.694 52.371 82.694 52.3705 82.694 52.3701C82.694 52.3696 82.694 52.3691 82.694 52.3686C82.694 52.3682 82.694 52.3677 82.694 52.3672C82.694 52.3667 82.694 52.3662 82.694 52.3658C82.694 52.3653 82.694 52.3648 82.694 52.3643C82.694 52.3639 82.694 52.3634 82.694 52.3629C82.694 52.3624 82.694 52.362 82.694 52.3615C82.694 52.361 82.694 52.3605 82.694 52.3601C82.694 52.3596 82.694 52.3591 82.694 52.3586C82.694 52.3582 82.694 52.3577 82.694 52.3572C82.694 52.3568 82.694 52.3563 82.694 52.3558C82.694 52.3553 82.694 52.3549 82.694 52.3544C82.694 52.3539 82.694 52.3535 82.694 52.353C82.694 52.3525 82.694 52.352 82.694 52.3516C82.694 52.3511 82.694 52.3506 82.694 52.3502C82.694 52.3497 82.694 52.3492 82.694 52.3488C82.694 52.3483 82.694 52.3478 82.694 52.3474C82.694 52.3469 82.694 52.3464 82.694 52.346C82.694 52.3455 82.694 52.345 82.694 52.3446C82.694 52.3441 82.694 52.3436 82.694 52.3432C82.694 52.3427 82.694 52.3422 82.694 52.3418C82.694 52.3413 82.694 52.3408 82.694 52.3404C82.694 52.3399 82.694 52.3394 82.694 52.339C82.694 52.3385 82.694 52.338 82.694 52.3376C82.694 52.3371 82.694 52.3366 82.694 52.3362C82.694 52.3357 82.694 52.3353 82.694 52.3348C82.694 52.3343 82.694 52.3339 82.694 52.3334C82.694 52.3329 82.694 52.3325 82.694 52.332C82.694 52.3316 82.694 52.3311 82.694 52.3306C82.694 52.3302 82.694 52.3297 82.694 52.3293C82.694 52.3288 82.694 52.3283 82.694 52.3279C82.694 52.3274 82.694 52.327 82.694 52.3265C82.694 52.3261 82.694 52.3256 82.694 52.3251C82.694 52.3247 82.694 52.3242 82.694 52.3238C82.694 52.3233 82.694 52.3228 82.694 52.3224C82.694 52.3219 82.694 52.3215 82.694 52.321C82.694 52.3206 82.694 52.3201 82.694 52.3197C82.694 52.3192 82.694 52.3187 82.694 52.3183C82.694 52.3178 82.694 52.3174 82.694 52.3169C82.694 52.3165 82.694 52.316 82.694 52.3156C82.694 52.3151 82.694 52.3147 82.694 52.3142C82.694 52.3138 82.694 52.3133 82.694 52.3128C82.694 52.3124 82.694 52.3119 82.694 52.3115C82.694 52.311 82.694 52.3106 82.694 52.3101C82.694 52.3097 82.694 52.3092 82.694 52.3088C82.694 52.3083 82.694 52.3079 82.694 52.3074C82.694 52.307 82.694 52.3065 82.694 52.3061C82.694 52.3056 82.694 52.3052 82.694 52.3047C82.694 52.3043 82.694 52.3038 82.694 52.3034C82.694 52.303 82.694 52.3025 82.694 52.3021C82.694 52.3016 82.694 52.3012 82.694 52.3007C82.694 52.3003 82.694 52.2998 82.694 52.2994C82.694 52.2989 82.694 52.2985 82.694 52.298C82.694 52.2976 82.694 52.2972 82.694 52.2967C82.694 52.2963 82.694 52.2958 82.694 52.2954C82.694 52.2949 82.694 52.2945 82.694 52.294C82.694 52.2936 82.694 52.2932 82.694 52.2927C82.694 52.2923 82.694 52.2918 82.694 52.2914C82.694 52.2909 82.694 52.2905 82.694 52.2901C82.694 52.2896 82.694 52.2892 82.694 52.2887C82.694 52.2883 82.694 52.2879 82.694 52.2874C82.694 52.287 82.694 52.2865 82.694 52.2861C82.694 52.2857 82.694 52.2852 82.694 52.2848C82.694 52.2843 82.694 52.2839 82.694 52.2835C82.694 52.283 82.694 52.2826 82.694 52.2821C82.694 52.2817 82.694 52.2813 82.694 52.2808C82.694 52.2804 82.694 52.28 82.694 52.2795C82.694 52.2791 82.694 52.2787 82.694 52.2782C82.694 52.2778 82.694 52.2773 82.694 52.2769C82.694 52.2765 82.694 52.276 82.694 52.2756C82.694 52.2752 82.694 52.2747 82.694 52.2743C82.694 52.2739 82.694 52.2734 82.694 52.273C82.694 52.2726 82.694 52.2721 82.694 52.2717C82.694 52.2713 82.694 52.2708 82.694 52.2704C82.694 52.27 82.694 52.2695 82.694 52.2691C82.694 52.2687 82.694 52.2682 82.694 52.2678C82.694 52.2674 82.694 52.267 82.694 52.2665C82.694 52.2661 82.694 52.2657 82.694 52.2652C82.694 52.2648 82.694 52.2644 82.694 52.2639C82.694 52.2635 82.694 52.2631 82.694 52.2627C82.694 52.2622 82.694 52.2618 82.694 52.2614C82.694 52.261 82.694 52.2605 82.694 52.2601C82.694 52.2597 82.694 52.2592 82.694 52.2588C82.694 52.2584 82.694 52.258 82.694 52.2575C82.694 52.2571 82.694 52.2567 82.694 52.2563C82.694 52.2558 82.694 52.2554 82.694 52.255C82.694 52.2546 82.694 52.2541 82.694 52.2537C82.694 52.2533 82.694 52.2529 82.694 52.2524C82.694 52.252 82.694 52.2516 82.694 52.2512C82.694 52.2508 82.694 52.2503 82.694 52.2499C82.694 52.2495 82.694 52.2491 82.694 52.2486C82.694 52.2482 82.694 52.2478 82.694 52.2474C82.694 52.247 82.694 52.2465 82.694 52.2461C82.694 52.2457 82.694 52.2453 82.694 52.2449C82.694 52.2444 82.694 52.244 82.694 52.2436C82.694 52.2432 82.694 52.2428 82.694 52.2423C82.694 52.2419 82.694 52.2415 82.694 52.2411C82.694 52.2407 82.694 52.2403 82.694 52.2398C82.694 52.2394 82.694 52.239 82.694 52.2386C82.694 52.2382 82.694 52.2378 82.694 52.2373C82.694 52.2369 82.694 52.2365 82.694 52.2361C82.694 52.2357 82.694 52.2353 82.694 52.2349C82.694 52.2344 82.694 52.234 82.694 52.2336C82.694 52.2332 82.694 52.2328 82.694 52.2324C82.694 52.232 82.694 52.2315 82.694 52.2311C82.694 52.2307 82.694 52.2303 82.694 52.2299C82.694 52.2295 82.694 52.2291 82.694 52.2287C82.694 52.2283 82.694 52.2278 82.694 52.2274C82.694 52.227 82.694 52.2266 82.694 52.2262C82.694 52.2258 82.694 52.2254 82.694 52.225C82.694 52.2246 82.694 52.2242 82.694 52.2237C82.694 52.2233 82.694 52.2229 82.694 52.2225C82.694 52.2221 82.694 52.2217 82.694 52.2213C82.694 52.2209 82.694 52.2205 82.694 52.2201C82.694 52.2197 82.694 52.2193 82.694 52.2189C82.694 52.2185 82.694 52.218 82.694 52.2176C82.694 52.2172 82.694 52.2168 82.694 52.2164C82.694 52.216 82.694 52.2156 82.694 52.2152C82.694 52.2148 82.694 52.2144 82.694 52.214C82.694 52.2136 82.694 52.2132 82.694 52.2128C82.694 52.2124 82.694 52.212 82.694 52.2116C82.694 52.2112 82.694 52.2108 82.694 52.2104C82.694 52.21 82.694 52.2096 82.694 52.2092C82.694 52.2088 82.694 52.2084 82.694 52.208C82.694 52.2076 82.694 52.2072 82.694 52.2068C82.694 52.2064 82.694 52.206 82.694 52.2056C82.694 52.2052 82.694 52.2048 82.694 52.2044C82.694 52.204 82.694 52.2036 82.694 52.2032C82.694 52.2028 82.694 52.2024 82.694 52.202C82.694 52.2016 82.694 52.2012 82.694 52.2008C82.694 52.2004 82.694 52.2 82.694 52.1996C82.694 52.1992 82.694 52.1988 82.694 52.1984C82.694 52.198 82.694 52.1976 82.694 52.1972C82.694 52.1968 82.694 52.1964 82.694 52.196C82.694 52.1957 82.694 52.1953 82.694 52.1949C82.694 52.1945 82.694 52.1941 82.694 52.1937C82.694 52.1933 82.694 52.1929 82.694 52.1925C82.694 52.1921 82.694 52.1917 82.694 52.1913C82.694 52.1909 82.694 52.1905 82.694 52.1902C82.694 52.1898 82.694 52.1894 82.694 52.189C82.694 52.1886 82.694 52.1882 82.694 52.1878C82.694 52.1874 82.694 52.187 82.694 52.1866C82.694 52.1863 82.694 52.1859 82.694 52.1855C82.694 52.1851 82.694 52.1847 82.694 52.1843C82.694 52.1839 82.694 52.1835 82.694 52.1832C82.694 52.1828 82.694 52.1824 82.694 52.182C82.694 52.1816 82.694 52.1812 82.694 52.1808C82.694 52.1804 82.694 52.1801 82.694 52.1797C82.694 52.1793 82.694 52.1789 82.694 52.1785C82.694 52.1781 82.694 52.1778 82.694 52.1774C82.694 52.177 82.694 52.1766 82.694 52.1762C82.694 52.1758 82.694 52.1755 82.694 52.1751C82.694 52.1747 82.694 52.1743 82.694 52.1739C82.694 52.1735 82.694 52.1732 82.694 52.1728C82.694 52.1724 82.694 52.172 82.694 52.1716C82.694 52.1712 82.694 52.1709 82.694 52.1705C82.694 52.1701 82.694 52.1697 82.694 52.1693C82.694 52.169 82.694 52.1686 82.694 52.1682C82.694 52.1678 82.694 52.1675 82.694 52.1671C82.694 52.1667 82.694 52.1663 82.694 52.1659C82.694 52.1656 82.694 52.1652 82.694 52.1648C82.694 52.1644 82.694 52.1641 82.694 52.1637C82.694 52.1633 82.694 52.1629 82.694 52.1625C82.694 52.1622 82.694 52.1618 82.694 52.1614C82.694 52.161 82.694 52.1607 82.694 52.1603C82.694 52.1599 82.694 52.1595 82.694 52.1592C82.694 52.1588 82.694 52.1584 82.694 52.1581C82.694 52.1577 82.694 52.1573 82.694 52.1569C82.694 52.1566 82.694 52.1562 82.694 52.1558C82.694 52.1554 82.694 52.1551 82.694 52.1547C82.694 52.1543 82.694 52.154 82.694 52.1536C82.694 52.1532 82.694 52.1528 82.694 52.1525C82.694 52.1521 82.694 52.1517 82.694 52.1514C82.694 52.151 82.694 52.1506 82.694 52.1503C82.694 52.1499 82.694 52.1495 82.694 52.1492C82.694 52.1488 82.694 52.1484 82.694 52.148C82.694 52.1477 82.694 52.1473 82.694 52.1469C82.694 52.1466 82.694 52.1462 82.694 52.1458C82.694 52.1455 82.694 52.1451 82.694 52.1447C82.694 52.1444 82.694 52.144 82.694 52.1437C82.694 52.1433 82.694 52.1429 82.694 52.1426C82.694 52.1422 82.694 52.1418 82.694 52.1415C82.694 52.1411 82.694 52.1407 82.694 52.1404C82.694 52.14 82.694 52.1396 82.694 52.1393C82.694 52.1389 82.694 52.1386 82.694 52.1382C82.694 52.1378 82.694 52.1375 82.694 52.1371C82.694 52.1368 82.694 52.1364 82.694 52.136C82.694 52.1357 82.694 52.1353 82.694 52.1349C82.694 52.1346 82.694 52.1342 82.694 52.1339C82.694 52.1335 82.694 52.1331 82.694 52.1328C82.694 52.1324 82.694 52.1321 82.694 52.1317C82.694 52.1314 82.694 52.131 82.694 52.1306C82.694 52.1303 82.694 52.1299 82.694 52.1296C82.694 52.1292 82.694 52.1289 82.694 52.1285C82.694 52.1281 82.694 52.1278 82.694 52.1274C82.694 52.1271 82.694 52.1267 82.694 52.1264C82.694 52.126 82.694 52.1257 82.694 52.1253C82.694 52.1249 82.694 52.1246 82.694 52.1242C82.694 52.1239 82.694 52.1235 82.694 52.1232C82.694 52.1228 82.694 52.1225 82.694 52.1221C82.694 52.1218 82.694 52.1214 82.694 52.1211C82.694 52.1207 82.694 52.1204 82.694 52.12C82.694 52.1197 82.694 52.1193 82.694 52.119C82.694 52.1186 82.694 52.1183 82.694 52.1179C82.694 52.1176 82.694 52.1172 82.694 52.1169C82.694 52.1165 82.694 52.1162 82.694 52.1158C82.694 52.1155 82.694 52.1151 82.694 52.1148C82.694 52.1144 82.694 52.1141 82.694 52.1137C82.694 52.1134 82.694 52.113 82.694 52.1127C82.694 52.1123 82.694 52.112 82.694 52.1116C82.694 52.1113 82.694 52.1109 82.694 52.1106C82.694 52.1103 82.694 52.1099 82.694 52.1096C82.694 52.1092 82.694 52.1089 82.694 52.1085C82.694 52.1082 82.694 52.1078 82.694 52.1075C82.694 52.1072 82.694 52.1068 82.694 52.1065C82.694 52.1061 82.694 52.1058 82.694 52.1054C82.694 52.1051 82.694 52.1048 82.694 52.1044C82.694 52.1041 82.694 52.1037 82.694 52.1034C82.694 52.103 82.694 52.1027 82.694 52.1024C82.694 52.102 82.694 52.1017 82.694 52.1013C82.694 52.101 82.694 52.1007 82.694 52.1003C82.694 52.1 82.694 52.0996 82.694 52.0993C82.694 52.099 82.694 52.0986 82.694 52.0983C82.694 52.098 82.694 52.0976 82.694 52.0973C82.694 52.0969 82.694 52.0966 82.694 52.0963C82.694 52.0959 82.694 52.0956 82.694 52.0953C82.694 52.0949 82.694 52.0946 82.694 52.0943C82.694 52.0939 82.694 52.0936 82.694 52.0932C82.694 52.0929 82.694 52.0926 82.694 52.0922C82.694 52.0919 82.694 52.0916 82.694 52.0912C82.694 52.0909 82.694 52.0906 82.694 52.0902C82.694 52.0899 82.694 52.0896 82.694 52.0892C82.694 52.0889 82.694 52.0886 82.694 52.0882C82.694 52.0879 82.694 52.0876 82.694 52.0873C82.694 52.0869 82.694 52.0866 82.694 52.0863C82.694 52.0859 82.694 52.0856 82.694 52.0853C82.694 52.0849 82.694 52.0846 82.694 52.0843C82.694 52.084 82.694 52.0836 82.694 52.0833C82.694 52.083 82.694 52.0826 82.694 52.0823C82.694 52.082 82.694 52.0817 82.694 52.0813C82.694 52.081 82.694 52.0807 82.694 52.0803C82.694 52.08 82.694 52.0797 82.694 52.0794C82.694 52.079 82.694 52.0787 82.694 52.0784C82.694 52.0781 82.694 52.0777 82.694 52.0774C82.694 52.0771 82.694 52.0768 82.694 52.0764C82.694 52.0761 82.694 52.0758 82.694 52.0755C82.694 52.0751 82.694 52.0748 82.694 52.0745C82.694 52.0742 82.694 52.0739 82.694 52.0735C82.694 52.0732 82.694 52.0729 82.694 52.0726C82.694 52.0722 82.694 52.0719 82.694 52.0716C82.694 52.0713 82.694 52.071 82.694 52.0706C82.694 52.0703 82.694 52.07 82.694 52.0697C82.694 52.0694 82.694 52.069 82.694 52.0687C82.694 52.0684 82.694 52.0681 82.694 52.0678C82.694 52.0674 82.694 52.0671 82.694 52.0668C82.694 52.0665 82.694 52.0662 82.694 52.0659C82.694 52.0655 82.694 52.0652 82.694 52.0649C82.694 52.0646 82.694 52.0643 82.694 52.064C82.694 52.0636 82.694 52.0633 82.694 52.063C82.694 52.0627 82.694 52.0624 82.694 52.0621C82.694 52.0617 82.694 52.0614 82.694 52.0611C82.694 52.0608 82.694 52.0605 82.694 52.0602C82.694 52.0599 82.694 52.0596 82.694 52.0592C82.694 52.0589 82.694 52.0586 82.694 52.0583C82.694 52.058 82.694 52.0577 82.694 52.0574C82.694 52.0571 82.694 52.0567 82.694 52.0564C82.694 52.0561 82.694 52.0558 82.694 52.0555C82.694 52.0552 82.694 52.0549 82.694 52.0546C82.694 52.0543 82.694 52.054 82.694 52.0536C82.694 52.0533 82.694 52.053 82.694 52.0527C82.694 52.0524 82.694 52.0521 82.694 52.0518C82.694 52.0515 82.694 52.0512 82.694 52.0509C82.694 52.0506 82.694 52.0503 82.694 52.0499C82.694 52.0496 82.694 52.0493 82.694 52.049C82.694 52.0487 82.694 52.0484 82.694 52.0481C82.694 52.0478 82.694 52.0475 82.694 52.0472C82.694 52.0469 82.694 52.0466 82.694 52.0463C82.694 52.046 82.694 52.0457 82.694 52.0454C82.694 52.0451 82.694 52.0448 82.694 52.0445C82.694 52.0442 82.694 52.0439 82.694 52.0436C82.694 52.0433 82.694 52.043 82.694 52.0427C82.694 52.0424 82.694 52.0421 82.694 52.0418C82.694 52.0414 82.694 52.0411 82.694 52.0408C82.694 52.0405 82.694 52.0402 82.694 52.0399C82.694 52.0396 82.694 52.0394 82.694 52.0391C82.694 52.0388 82.694 52.0385 82.694 52.0382C82.694 52.0379 82.694 52.0376 82.694 52.0373C82.694 52.037 82.694 52.0367 82.694 52.0364C82.694 52.0361 82.694 52.0358 82.694 52.0355C82.694 52.0352 82.694 52.0349 82.694 52.0346C82.694 52.0343 82.694 52.034 82.694 52.0337C82.694 52.0334 82.694 52.0331 82.694 52.0328C82.694 52.0325 82.694 52.0322 82.694 52.0319C82.694 52.0316 82.694 52.0313 82.694 52.0311C82.694 52.0308 82.694 52.0305 82.694 52.0302C82.694 52.0299 82.694 52.0296 82.694 52.0293C82.694 52.029 82.694 52.0287 82.694 52.0284C82.694 52.0281 82.694 52.0278 82.694 52.0276C82.694 52.0273 82.694 52.027 82.694 52.0267C82.694 52.0264 82.694 52.0261 82.694 52.0258C82.694 52.0255 82.694 52.0252 82.694 52.0249C82.694 52.0247 82.694 52.0244 82.694 52.0241C82.694 52.0238 82.694 52.0235 82.694 52.0232C82.694 52.0229 82.694 52.0226 82.694 52.0224C82.694 52.0221 82.694 52.0218 82.694 52.0215C82.694 52.0212 82.694 52.0209 82.694 52.0206C82.694 52.0203 82.694 52.0201 82.694 52.0198C82.694 52.0195 82.694 52.0192 82.694 52.0189C82.694 52.0186 82.694 52.0184 82.694 52.0181C82.694 52.0178 82.694 52.0175 82.694 52.0172C82.694 52.0169 82.694 52.0167 82.694 52.0164C82.694 52.0161 82.694 52.0158 82.694 52.0155C82.694 52.0152 82.694 52.015 82.694 52.0147C82.694 52.0144 82.694 52.0141 82.694 52.0138C82.694 52.0136 82.694 52.0133 82.694 52.013C82.694 52.0127 82.694 52.0124 82.694 52.0122C82.694 52.0119 82.694 52.0116 82.694 52.0113C82.694 52.011 82.694 52.0108 82.694 52.0105C82.694 52.0102 82.694 52.0099 82.694 52.0097C82.694 52.0094 82.694 52.0091 82.694 52.0088C82.694 52.0085 82.694 52.0083 82.694 52.008C82.694 52.0077 82.694 52.0074 82.694 52.0072C82.694 52.0069 82.694 52.0066 82.694 52.0063C82.694 52.0061 82.694 52.0058 82.694 52.0055C82.694 52.0052 82.694 52.005 82.694 52.0047C82.694 52.0044 82.694 52.0041 82.694 52.0039C82.694 52.0036 82.694 52.0033 82.694 52.0031C82.694 52.0028 82.694 52.0025 82.694 52.0022C82.694 52.002 82.694 52.0017 82.694 52.0014C82.694 52.0012 82.694 52.0009 82.694 52.0006C82.694 52.0003 82.694 52.0001 82.694 51.9998C82.694 51.9995 82.694 51.9993 82.694 51.999C82.694 51.9987 82.694 51.9985 82.694 51.9982C82.694 51.9979 82.694 51.9976 82.694 51.9974C82.694 51.9971 82.694 51.9968 82.694 51.9966C82.694 51.9963 82.694 51.996 82.694 51.9958C82.694 51.9955 82.694 51.9952 82.694 51.995C82.694 51.9947 82.694 51.9944 82.694 51.9942C82.694 51.9939 82.694 51.9936 82.694 51.9934C82.694 51.9931 82.694 51.9929 82.694 51.9926C82.694 51.9923 82.694 51.9921 82.694 51.9918C82.694 51.9915 82.694 51.9913 82.694 51.991C82.694 51.9907 82.694 51.9905 82.694 51.9902C82.694 51.99 82.694 51.9897 82.694 51.9894C82.694 51.9892 82.694 51.9889 82.694 51.9886C82.694 51.9884 82.694 51.9881 82.694 51.9879C82.694 51.9876 82.694 51.9873 82.694 51.9871C82.694 51.9868 82.694 51.9866 82.694 51.9863C82.694 51.986 82.694 51.9858 82.694 51.9855C82.694 51.9853 82.694 51.985 82.694 51.9848C82.694 51.9845 82.694 51.9842 82.694 51.984C82.694 51.9837 82.694 51.9835 82.694 51.9832C82.694 51.983 82.694 51.9827 82.694 51.9824C82.694 51.9822 82.694 51.9819 82.694 51.9817C82.694 51.9814 82.694 51.9812 82.694 51.9809C82.694 51.9807 82.694 51.9804 82.694 51.9801C82.694 51.9799 82.694 51.9796 82.694 51.9794C82.694 51.9791 82.694 51.9789 82.694 51.9786C82.694 51.9784 82.694 51.9781 82.694 51.9779C82.694 51.9776 82.694 51.9774 82.694 51.9771C82.694 51.9769 82.694 51.9766 82.694 51.9764C82.694 51.9761 82.694 51.9759 82.694 51.9756C82.694 51.9754 82.694 51.9751 82.694 51.9749C82.694 51.9746 82.694 51.9744 82.694 51.9741C82.694 51.9739 82.694 51.9736 82.694 51.9734C82.694 51.9731 82.694 51.9729 82.694 51.9726C82.694 51.9724 82.694 51.9721 82.694 51.9719C82.694 51.9716 82.694 51.9714 82.694 51.9711C82.694 51.9709 82.694 51.9706 82.694 51.9704C82.694 51.9701 82.694 51.9699 82.694 51.9697C82.694 51.9694 82.694 51.9692 82.694 51.9689C82.694 51.9687 82.694 51.9684 82.694 51.9682C82.694 51.9679 82.694 51.9677 82.694 51.9675C82.694 51.9672 82.694 51.967 82.694 51.9667C82.694 51.9665 82.694 51.9662 82.694 51.966H80.694ZM80.694 52.586C80.694 52.7857 80.6766 52.9044 80.6619 52.9635L82.6021 53.4485C82.6701 53.1769 82.694 52.8823 82.694 52.586H80.694ZM80.632 53.206C80.632 53.2059 80.632 53.2076 80.6318 53.2112C80.6316 53.2149 80.6312 53.2202 80.6304 53.2273C80.6288 53.2418 80.6258 53.2621 80.6204 53.2889C80.6095 53.3433 80.5905 53.4162 80.5593 53.5098L82.4567 54.1422C82.556 53.8443 82.632 53.5226 82.632 53.206H80.632ZM80.5274 53.6299C80.4959 53.7876 80.4458 53.9742 80.3733 54.1918L82.2707 54.8242C82.3635 54.5458 82.4375 54.2777 82.4886 54.0221L80.5274 53.6299ZM80.3935 54.1366C80.3233 54.3122 80.232 54.5138 80.1176 54.7428L81.9064 55.6372C82.04 55.3701 82.1554 55.1171 82.2505 54.8794L80.3935 54.1366ZM80.1058 54.7671C79.905 55.1975 79.3508 55.8919 78.2877 56.8732L79.6443 58.3428C80.7305 57.3401 81.5404 56.4225 81.9182 55.6129L80.1058 54.7671ZM78.2889 56.8721C77.2525 57.8256 76.4898 58.6022 76.058 59.178L77.658 60.378C77.9702 59.9618 78.6129 59.2917 79.6431 58.3439L78.2889 56.8721ZM76.0647 59.1692C74.7091 60.9356 73.4386 62.5132 72.2532 63.9031L73.7748 65.2009C74.9867 63.7801 76.2789 62.175 77.6513 60.3868L76.0647 59.1692ZM72.3069 63.8449C71.8931 64.2587 71.6203 64.8394 71.4247 65.4607C71.2236 66.0994 71.0745 66.8791 70.967 67.7818L72.953 68.0182C73.0522 67.1849 73.1821 66.5386 73.3323 66.0613C73.4881 65.5666 73.6389 65.3413 73.7211 65.2591L72.3069 63.8449ZM70.9674 67.7789C70.8679 68.5942 70.7425 69.2303 70.5997 69.7035C70.4514 70.1947 70.3091 70.4249 70.2308 70.5103L71.7052 71.8617C72.0815 71.4511 72.332 70.8856 72.5143 70.2815C72.7022 69.6593 72.8454 68.9005 72.9526 68.0211L70.9674 67.7789Z" fill="#004E44" mask="url(#path-3-outside-1_105_1836)"/>
</g>
<defs>
<filter id="filter0_dd_105_1836" x="0.5" y="0" width="136" height="136" filterUnits="userSpaceOnUse" color-interpolation-filters="sRGB">
<feFlood flood-opacity="0" result="BackgroundImageFix"/>
<feColorMatrix in="SourceAlpha" type="matrix" values="0 0 0 0 0 0 0 0 0 0 0 0 0 0 0 0 0 0 127 0" result="hardAlpha"/>
<feOffset dx="4" dy="4"/>
<feGaussianBlur stdDeviation="2"/>
<feComposite in2="hardAlpha" operator="out"/>
<feColorMatrix type="matrix" values="0 0 0 0 0.701961 0 0 0 0 0.878431 0 0 0 0 0.156863 0 0 0 1 0"/>
<feBlend mode="normal" in2="BackgroundImageFix" result="effect1_dropShadow_105_1836"/>
<feColorMatrix in="SourceAlpha" type="matrix" values="0 0 0 0 0 0 0 0 0 0 0 0 0 0 0 0 0 0 127 0" result="hardAlpha"/>
<feOffset dx="-4" dy="-4"/>
<feGaussianBlur stdDeviation="2"/>
<feComposite in2="hardAlpha" operator="out"/>
<feColorMatrix type="matrix" values="0 0 0 0 0.701961 0 0 0 0 0.878431 0 0 0 0 0.156863 0 0 0 1 0"/>
<feBlend mode="normal" in2="effect1_dropShadow_105_1836" result="effect2_dropShadow_105_1836"/>
<feBlend mode="normal" in="SourceGraphic" in2="effect2_dropShadow_105_1836" result="shape"/>
</filter>
</defs>
</svg>
