<svg width="20" height="16" viewBox="0 0 20 16" fill="none" xmlns="http://www.w3.org/2000/svg">
<path d="M17.5407 -0.0078125H2.45933C1.80729 -0.00710664 1.18216 0.252228 0.721102 0.713289C0.26004 1.17435 0.000705862 1.79948 0 2.45152V13.5329C0.000705862 14.1849 0.26004 14.81 0.721102 15.2711C1.18216 15.7321 1.80729 15.9915 2.45933 15.9922H17.5407C18.1927 15.9915 18.8178 15.7321 19.2789 15.2711C19.74 14.81 19.9993 14.1849 20 13.5329V2.45152C19.9993 1.79948 19.74 1.17435 19.2789 0.713289C18.8178 0.252228 18.1927 -0.00710664 17.5407 -0.0078125ZM2.45933 1.32552H17.5407C17.8392 1.32587 18.1254 1.44462 18.3365 1.65571C18.5476 1.8668 18.6663 2.153 18.6667 2.45152V2.96152L10 8.53285L1.33333 2.96152V2.45152C1.33369 2.153 1.45243 1.8668 1.66352 1.65571C1.87461 1.44462 2.16081 1.32587 2.45933 1.32552ZM17.5407 14.6589H2.45933C2.16081 14.6585 1.87461 14.5398 1.66352 14.3287C1.45243 14.1176 1.33369 13.8314 1.33333 13.5329V4.54685L9.63933 9.88619C9.7469 9.95538 9.8721 9.99217 10 9.99217C10.1279 9.99217 10.2531 9.95538 10.3607 9.88619L18.6667 4.54685V13.5329C18.6663 13.8314 18.5476 14.1176 18.3365 14.3287C18.1254 14.5398 17.8392 14.6585 17.5407 14.6589Z" fill="#DDDDDD"/>
</svg>
