<svg width="16" height="20" viewBox="0 0 16 20" fill="none" xmlns="http://www.w3.org/2000/svg">
<path fill-rule="evenodd" clip-rule="evenodd" d="M8.03092 4.11894C6.1471 4.11894 4.61528 5.65076 4.61528 7.53458C4.61528 9.4184 6.1471 10.9502 8.03092 10.9502C9.91474 10.9502 11.4466 9.4184 11.4466 7.53458C11.4466 5.65076 9.91474 4.11894 8.03092 4.11894ZM4.8622 7.53458C4.8622 5.78713 6.28346 4.36586 8.03092 4.36586C9.77837 4.36586 11.1996 5.78713 11.1996 7.53458C11.1996 9.28203 9.77837 10.7033 8.03092 10.7033C6.28346 10.7033 4.8622 9.28203 4.8622 7.53458Z" fill="white"/>
<path fill-rule="evenodd" clip-rule="evenodd" d="M8.03092 3.2959C5.6936 3.2959 3.79224 5.19726 3.79224 7.53458C3.79224 9.8719 5.6936 11.7733 8.03092 11.7733C10.3682 11.7733 12.2696 9.8719 12.2696 7.53458C12.2696 5.19726 10.3682 3.2959 8.03092 3.2959ZM4.03915 7.53458C4.03915 5.33363 5.82997 3.54281 8.03092 3.54281C10.2319 3.54281 12.0227 5.33363 12.0227 7.53458C12.0227 9.73553 10.2319 11.5264 8.03092 11.5264C5.82997 11.5264 4.03915 9.73553 4.03915 7.53458Z" fill="white"/>
<path fill-rule="evenodd" clip-rule="evenodd" d="M8.03086 0.823045C4.33223 0.823045 1.32305 3.83223 1.32305 7.53086C1.32305 10.0062 2.66967 12.5756 4.16009 14.665C5.65339 16.7585 7.30588 18.3904 7.94615 18.9943L8.03086 19.0742L8.11557 18.9943C8.75585 18.3904 10.4083 16.7585 11.9016 14.665C13.3921 12.5756 14.7387 10.0062 14.7387 7.53086C14.7387 3.83223 11.7295 0.823045 8.03086 0.823045ZM1.56996 7.53086C1.56996 3.96859 4.46859 1.06996 8.03086 1.06996C11.5931 1.06996 14.4918 3.96859 14.4918 7.53086C14.4918 9.92632 13.1837 12.4425 11.7006 14.5216C10.2823 16.51 8.71749 18.08 8.03086 18.7344C7.34424 18.08 5.77942 16.51 4.3611 14.5216C2.87807 12.4425 1.56996 9.92632 1.56996 7.53086Z" fill="white"/>
<path fill-rule="evenodd" clip-rule="evenodd" d="M8.03086 0C3.87874 0 0.5 3.3779 0.5 7.53086C0.5 10.5133 2.23267 13.5373 3.98348 15.8354C5.73777 18.1381 7.5282 19.7349 7.67666 19.8661C7.77773 19.9545 7.90439 20 8.03086 20C8.15733 20 8.28344 19.9549 8.38452 19.8666C8.53297 19.7354 10.324 18.1381 12.0782 15.8354C13.8291 13.5373 15.5617 10.5133 15.5617 7.53086C15.5617 3.3779 12.183 0 8.03086 0ZM0.746914 7.53086C0.746914 3.51428 4.01509 0.246914 8.03086 0.246914C12.0466 0.246914 15.3148 3.51428 15.3148 7.53086C15.3148 10.4283 13.6257 13.3968 11.8818 15.6858C10.1427 17.9686 8.36684 19.5527 8.22181 19.6809C8.16655 19.7291 8.09853 19.7531 8.03086 19.7531C7.9632 19.7531 7.89517 19.7291 7.83992 19.6809C7.69489 19.5527 5.91907 17.9686 4.17989 15.6858C2.43606 13.3968 0.746914 10.4283 0.746914 7.53086Z" fill="white"/>
</svg>
